<svg width="691" height="805" viewBox="0 0 691 805" fill="none" xmlns="http://www.w3.org/2000/svg">
    <g filter="url(#filter0_d_2004_2)">
        <path d="M311.146 497.958C311.145 500.687 310.007 503.306 307.974 505.254C306.464 506.69 304.533 507.672 302.428 508.074C301.032 508.342 299.593 508.343 298.196 508.079C296.798 507.816 295.472 507.291 294.294 506.538C292.502 505.402 291.113 503.79 290.303 501.906C289.198 499.377 289.198 496.54 290.303 494.01C291.12 492.132 292.508 490.521 294.294 489.379C295.474 488.63 296.801 488.108 298.197 487.844C299.593 487.581 301.031 487.58 302.428 487.843C304.536 488.238 306.469 489.221 307.974 490.663C309.497 492.109 310.529 493.949 310.937 495.947C311.076 496.609 311.146 497.279 311.146 497.958ZM365.452 497.958C371.425 497.958 376.286 502.572 376.286 508.275C376.286 513.977 371.425 518.591 365.452 518.591C359.434 518.591 354.572 513.977 354.572 508.275C354.572 502.572 359.434 497.958 365.452 497.958Z" fill="#E58E1A"/>
        <path d="M350.961 185.123V274.529L318.229 292.898L271.376 319.189L220.959 290.634C224.894 302.213 227.95 314.575 227.95 325.065C227.95 332.03 226.607 338.211 224.524 343.565C217.579 361.498 188.921 361.498 181.977 343.565C179.893 338.211 178.551 332.03 178.551 325.065C178.551 309.439 185.31 289.329 191.792 274.094V185.123L271.376 140.419L318.229 166.754L350.961 185.123ZM589.715 319.189V408.595L552.03 429.75L529.344 442.504C532.863 449.904 536.196 457.869 538.65 465.791C541.103 473.713 542.678 481.548 542.678 488.6C542.678 496 540.918 502.572 538.233 508.231C529.251 527.253 492.214 527.253 483.232 508.231C480.547 502.572 478.788 496 478.788 488.6C478.788 474.671 484.991 457.695 491.89 443.026L468.232 429.75L430.546 408.595V319.189L510.131 274.529L589.715 319.189Z" fill="#F4BC33"/>
        <path d="M430.546 319.189L350.961 274.529L318.229 292.898L271.376 319.189V408.596L300.312 424.831V439.457C300.034 457.434 305.081 469.665 311.146 470.405C317.072 471.145 322.072 455.998 325.637 456.65C346.285 460.611 300.312 546.057 361.795 546.057C389.064 546.057 399.434 528.472 397.073 508.275C394.156 482.941 375.036 453.516 387.119 449.773C391.98 448.293 398.323 456.346 405.221 453.212C409.712 451.209 411.055 445.638 412.444 439.457C413.046 436.932 413.601 433.668 413.833 429.75C413.925 428.531 413.972 427.225 413.972 425.876C413.972 423.482 413.833 420.914 413.509 418.172L430.546 408.596V319.189ZM365.452 518.591C359.434 518.591 354.572 513.977 354.572 508.275C354.572 502.572 359.434 497.959 365.452 497.959C371.424 497.959 376.286 502.572 376.286 508.275C376.286 513.977 371.424 518.591 365.452 518.591Z" fill="#FFC05A"/>
        <path d="M510.131 185.123V274.529L430.546 319.189L350.961 274.529V185.123L430.546 140.419L510.131 185.123Z" fill="#E58E1A"/>
        <path d="M669.3 185.123V274.529L589.716 319.189L510.131 274.529V185.123L589.716 140.419L669.3 185.123Z" fill="#EF9D26"/>
        <path d="M589.715 52.1007V140.419L510.131 185.122L430.546 140.419V52.1007L510.131 6.35272L589.715 52.1007Z" fill="#D87C0E"/>
        <path d="M671.675 181.387L594.345 137.964V52.1048C594.345 51.3591 594.141 50.6261 593.752 49.9759C593.364 49.3258 592.805 48.7803 592.128 48.3918L512.543 2.63952C511.816 2.22131 510.981 2 510.128 2C509.276 2 508.441 2.22131 507.714 2.63952L428.129 48.3918C427.453 48.7806 426.893 49.3262 426.505 49.9762C426.117 50.6263 425.913 51.3592 425.912 52.1048V137.964L350.957 180.055L273.747 136.697C273.029 136.296 272.209 136.083 271.374 136.083C270.539 136.083 269.719 136.296 269.001 136.697L189.417 181.387C188.729 181.773 188.16 182.32 187.765 182.975C187.369 183.629 187.162 184.369 187.162 185.122V273.275C181.041 287.848 173.921 308.385 173.921 325.056C173.921 331.977 175.171 338.706 177.629 345.053C181.472 354.964 191.528 361.371 203.255 361.371C214.982 361.371 225.042 354.968 228.885 345.053C231.358 338.643 232.614 331.874 232.593 325.056C232.593 317.961 231.283 309.599 228.69 300.097L266.747 321.656V408.582C266.747 410.114 267.603 411.533 269.001 412.317L295.682 427.299V439.404C295.354 459.388 301.335 473.587 310.558 474.727C316.808 475.515 320.812 469.465 324.039 464.611C324.576 463.806 325.262 462.774 325.873 461.934C327.748 465.464 326.368 477.295 325.414 485.509C323.262 504.017 320.581 527.052 333.202 540.289C339.6 547.001 349.225 550.405 361.809 550.405C374.948 550.405 385.624 546.501 392.675 539.118C399.934 531.51 403.138 520.397 401.689 507.817C400.471 497.249 396.643 486.24 393.263 476.529C390.619 468.938 385.707 454.813 388.42 453.96C388.888 453.855 390.902 454.844 392.119 455.436C395.758 457.198 401.263 459.875 407.231 457.151C413.837 454.143 415.509 446.839 416.976 440.397C418.439 433.985 418.907 427.303 418.361 420.5L430.537 413.662L486.019 444.819C478.153 462.235 474.167 476.951 474.167 488.604C474.167 496.025 475.792 503.225 478.996 510.007C483.908 520.405 496.07 526.869 510.737 526.869C525.404 526.869 537.566 520.41 542.479 510.007C545.671 503.271 547.316 495.978 547.307 488.604C547.307 476.825 543.238 461.926 535.205 444.266L592.081 412.33C592.769 411.944 593.338 411.397 593.733 410.742C594.128 410.088 594.336 409.348 594.336 408.595V321.67L671.666 278.242C672.354 277.856 672.923 277.309 673.318 276.654C673.713 276 673.921 275.26 673.921 274.507V185.122C673.925 184.37 673.72 183.629 673.326 182.974C672.932 182.319 672.363 181.772 671.675 181.387ZM510.131 11.4539L585.086 54.5423V137.959L510.131 180.051L435.176 137.959V54.5467L510.131 11.4539ZM430.546 314.13L355.591 272.039V187.594L430.546 145.503L505.501 187.594V272.039L430.546 314.13ZM223.334 286.899C222.527 286.441 221.59 286.225 220.649 286.281C219.708 286.337 218.808 286.662 218.068 287.211C217.329 287.761 216.785 288.511 216.511 289.359C216.237 290.207 216.244 291.113 216.533 291.957C221.042 305.151 223.329 316.285 223.329 325.056C223.329 330.958 222.269 336.682 220.181 342.075C217.153 349.884 209.449 352.666 203.25 352.666C197.051 352.666 189.352 349.884 186.324 342.075C184.227 336.618 183.163 330.858 183.18 325.056C183.18 308.646 191.268 287.1 196.093 275.717C196.31 275.203 196.421 274.655 196.421 274.106V187.59L271.376 145.499L346.331 187.59V272.034L271.386 314.122L223.334 286.899ZM411.11 414.428C410.347 414.857 409.73 415.483 409.335 416.233C408.94 416.982 408.784 417.823 408.884 418.654C409.714 425.296 409.391 432.02 407.93 438.564C406.902 443.061 405.74 448.158 403.203 449.311C401.578 450.051 399.791 449.355 396.369 447.692C393.217 446.164 389.647 444.427 385.689 445.655C374.031 449.25 378.864 463.144 384.466 479.232C387.703 488.539 391.374 499.085 392.485 508.749C393.643 518.838 391.267 527.557 385.786 533.298C380.466 538.874 372.397 541.699 361.809 541.699C351.832 541.699 344.73 539.34 340.095 534.478C330.234 524.14 332.665 503.242 334.618 486.454C336.604 469.386 338.322 454.643 326.553 452.397C321.854 451.492 319.095 455.627 316.187 460.002C315.053 461.708 312.78 465.134 311.465 466C309.298 464.951 304.664 456.323 304.942 439.474V424.831C304.942 424.078 304.734 423.338 304.339 422.684C303.944 422.029 303.375 421.482 302.687 421.096L276.006 406.114V321.67L350.961 279.578L425.916 321.67V406.114L411.11 414.428ZM526.964 438.756C525.992 439.302 525.267 440.165 524.925 441.18C524.584 442.196 524.651 443.294 525.113 444.266C533.585 462.1 538.057 477.43 538.057 488.6C538.057 494.789 536.701 500.8 534.02 506.468C530.668 513.567 521.529 518.155 510.742 518.155C499.955 518.155 490.816 513.567 487.464 506.463C484.793 500.842 483.417 494.752 483.427 488.595C483.427 477.539 487.816 462.396 496.117 444.797C496.575 443.825 496.64 442.729 496.298 441.715C495.956 440.702 495.231 439.841 494.26 439.295L435.176 406.118V321.674L510.131 279.582L585.086 321.674V406.118L526.964 438.756ZM664.671 272.039L589.716 314.13L514.76 272.039V187.594L589.716 145.503L664.671 187.594V272.039Z" fill="#3A322B"/>
        <path d="M300.312 483.302C291.775 483.302 284.83 489.884 284.83 497.971C284.83 506.059 291.775 512.636 300.312 512.636C308.849 512.636 315.794 506.059 315.794 497.971C315.794 489.884 308.854 483.302 300.312 483.302ZM300.312 503.93C296.881 503.93 294.09 501.258 294.09 497.971C294.09 494.685 296.881 492.008 300.312 492.008C303.743 492.008 306.534 494.681 306.534 497.971C306.549 499.537 305.902 501.045 304.735 502.162C303.569 503.279 301.978 503.915 300.312 503.93ZM365.429 493.619C356.892 493.619 349.947 500.196 349.947 508.283C349.947 516.371 356.892 522.952 365.429 522.952C373.966 522.952 380.911 516.371 380.911 508.283C380.911 500.196 373.966 493.619 365.429 493.619ZM365.429 514.247C361.998 514.247 359.207 511.574 359.207 508.283C359.207 504.997 361.998 502.324 365.429 502.324C368.86 502.324 371.651 504.997 371.651 508.283C371.651 511.574 368.86 514.247 365.429 514.247Z" fill="#3A322B"/>
    </g>
    <g filter="url(#filter1_d_2004_2)">
        <path d="M134.551 655.364C142.344 651.581 154.945 648.282 163.711 646.927C166.575 646.488 164.4 648.19 162.681 650.063C161.392 651.462 154.368 655.854 152.734 656.916C146.606 660.887 144.95 662.538 138.378 665.868L134.551 655.364ZM182.576 643.812C185.257 643.293 187.784 642.379 190.228 641.315C192.61 640.278 195.156 639.146 197.122 637.523C197.782 636.969 198.272 636.45 198.422 635.633C198.561 634.915 198.37 633.995 197.846 633.42C196.844 632.305 194.63 631.702 193.286 632.813C192.526 633.456 191.641 633.974 190.755 634.472C190.508 634.614 190.237 634.739 189.99 634.88C189.908 634.928 189.804 634.977 189.721 635.024C189.888 634.949 189.992 634.9 189.702 635.046C189.639 635.072 189.578 635.117 189.516 635.143C189.555 635.1 189.617 635.074 189.68 635.048C189.078 635.342 188.495 635.615 187.888 635.871C186.74 636.376 185.565 636.844 184.362 637.256C183.814 637.447 183.266 637.638 182.713 637.791L182.011 637.978C182.161 637.943 182.247 637.935 181.948 638.003C181.071 638.188 180.332 638.437 179.747 639.082C179.24 639.641 178.899 640.516 179.023 641.228C179.246 642.634 180.797 644.164 182.576 643.812ZM181.968 637.982C181.946 637.984 181.862 638.012 181.797 638.018C181.862 638.012 181.946 637.984 181.989 637.98L181.968 637.982ZM181.584 638.078C181.604 638.057 181.69 638.048 181.775 638.02C181.71 638.027 181.625 638.055 181.584 638.078ZM221.145 625.679C215.687 625.455 210.284 626.125 205.107 627.83C203.502 628.36 202.548 630.216 203.233 631.636C203.967 633.109 205.735 633.835 207.469 633.272C208.589 632.907 209.736 632.579 210.889 632.309C210.908 632.287 210.93 632.285 210.951 632.283C210.993 632.259 211.036 632.255 211.101 632.248C211.381 632.201 211.636 632.137 211.916 632.09C212.494 631.974 213.097 631.875 213.68 631.798C214.824 631.646 215.951 631.535 217.106 631.48C217.673 631.463 218.22 631.448 218.766 631.433C219.05 631.425 219.314 631.438 219.598 631.429L220.081 631.44C221.006 631.486 221.808 631.407 222.562 630.902C223.193 630.468 223.767 629.726 223.863 629.012C224.075 627.582 223.013 625.73 221.145 625.679ZM245.455 619.718C245.028 620.21 244.577 620.685 244.1 621.123L244.022 621.209C243.964 621.274 243.862 621.343 243.821 621.366C243.58 621.566 243.338 621.747 243.073 621.929C242.525 622.316 241.974 622.684 241.376 623.017C241.314 623.042 241.008 623.249 240.78 623.369C240.863 623.322 240.863 623.322 240.633 623.423C240.445 623.5 240.28 623.595 240.091 623.672C239.506 623.925 238.897 624.162 238.284 624.359C237.968 624.469 237.671 624.557 237.352 624.647C237.203 624.681 237.034 624.737 236.884 624.771C236.861 624.764 236.829 624.767 236.796 624.77C236.577 624.772 236.091 624.928 235.939 624.943C235.616 624.994 235.291 625.026 234.968 625.078C234.232 625.151 233.512 625.182 232.769 625.197C231.059 625.19 229.616 626.976 229.843 628.422C230.123 630.136 231.579 631.01 233.419 631.004C239.97 631.003 246.471 628.013 250.488 623.389C251.535 622.17 251.47 620.22 250.029 619.285C248.653 618.345 246.582 618.432 245.455 619.718ZM274.958 572.262C273.116 572.444 271.944 573.91 272.033 575.486C272.085 576.538 272.204 577.603 272.236 578.676C272.258 579.457 272.234 580.222 272.254 580.984C272.256 581.199 272.238 581.435 272.219 581.652C272.184 582.125 272.128 582.601 272.071 583.076C271.976 583.986 271.816 584.902 271.588 585.805C271.471 586.325 271.332 586.848 271.17 587.353C271.159 587.452 271.142 587.493 271.124 587.534C271.107 587.575 271.111 587.613 271.074 587.676C270.972 587.94 270.868 588.185 270.767 588.45C270.348 589.411 269.863 590.359 269.308 591.275C269.308 591.275 269.048 591.692 269.011 591.754C268.859 591.965 268.708 592.176 268.534 592.389C268.131 592.898 267.724 593.369 267.273 593.844C266.138 595.052 266.398 596.983 267.732 597.948C269.115 598.946 271.169 598.704 272.326 597.494C275.852 593.76 277.868 589.06 278.512 584.241C278.926 581.088 278.733 577.995 278.555 574.842C278.467 573.266 276.692 572.091 274.958 572.262ZM265.86 548.716C264.482 549.713 264.046 551.498 265.134 552.8C265.362 553.071 265.548 553.366 265.756 553.658C265.862 553.824 265.966 553.97 266.072 554.136C266.345 554.618 266.618 555.1 266.87 555.584C267.466 556.797 267.981 558.077 268.389 559.368C268.456 559.576 268.499 559.768 268.564 559.957L268.568 559.996L268.841 561.26C269.03 562.162 269.132 563.071 269.212 563.983C269.337 565.497 271.084 566.812 272.787 566.566C274.577 566.311 275.83 564.974 275.713 563.342C275.442 559.943 274.513 556.532 272.959 553.417C272.253 551.999 271.455 550.552 270.417 549.304C269.403 548.073 267.236 547.7 265.86 548.716ZM263.635 542.732C265.096 541.688 265.325 540.021 264.361 538.648C261.577 534.716 258.58 530.647 254.149 528.051C253.399 527.616 252.667 527.336 251.756 527.426C250.955 527.505 250.036 527.909 249.555 528.505C248.59 529.676 248.491 531.721 250.014 532.608C251.024 533.213 251.975 533.882 252.846 534.618C253.039 534.776 253.234 534.952 253.429 535.128C253.503 535.199 253.6 535.288 253.674 535.359C254.116 535.785 254.515 536.215 254.915 536.665C256.445 538.393 257.771 540.258 259.097 542.123C260.008 543.403 262.359 543.66 263.635 542.732ZM224.182 515.96C225.604 516.524 227.008 517.129 228.395 517.775C229.112 518.115 229.807 518.457 230.503 518.8L231.55 519.342C231.667 519.409 231.76 519.458 231.877 519.525C231.925 519.559 231.994 519.592 232.087 519.641C234.752 521.14 237.305 522.805 239.721 524.622C241.015 525.61 243.273 525.426 244.315 524.168C245.397 522.868 245.243 521.102 243.856 520.065C238.759 516.223 233.034 513.031 226.937 510.619C225.379 510.009 223.279 510.628 222.611 512.103C221.898 513.563 222.509 515.303 224.182 515.96ZM196.304 510.59C198.512 509.374 201.615 509.106 204.441 509.493C207.692 509.955 210.463 511.032 213.631 512.324C215.17 512.955 217.287 512.296 217.957 510.84C218.624 509.365 217.996 507.666 216.342 506.987C212.691 505.488 208.851 504.067 204.838 503.641C200.513 503.168 196.226 503.826 192.471 505.899C191.006 506.709 190.718 508.832 191.745 509.983C192.921 511.296 194.735 511.449 196.304 510.59ZM181.342 529.798C182.099 530.095 183.134 530.149 183.889 529.84C185.607 529.142 186.229 527.652 185.772 526.112C185.785 526.228 185.819 526.342 185.854 526.456C185.77 526.093 185.774 525.74 185.755 525.37C185.789 525.092 185.824 524.815 185.88 524.536C185.908 524.396 185.978 524.232 186.004 524.073C186.002 524.054 186.021 524.032 186.019 524.013C186.327 523.239 186.745 522.474 187.168 521.747C188.015 520.313 188.932 518.911 189.48 517.35C189.742 516.561 189.905 515.86 189.554 515.072C189.261 514.416 188.594 513.739 187.864 513.478C187.066 513.204 186.137 513.12 185.317 513.436C184.583 513.724 183.766 514.254 183.517 514.964C182.838 516.929 181.518 518.645 180.565 520.5C180.008 521.593 179.548 522.773 179.329 523.949C179.054 525.405 179.186 526.782 179.628 528.186C179.834 528.851 180.629 529.496 181.342 529.798ZM187.284 535.513C186.311 534.259 184.083 533.931 182.725 534.906C181.305 535.927 180.952 537.665 181.999 538.99C184.579 542.278 187.901 545.14 191.711 547.269C192.482 547.701 193.171 547.986 194.103 547.894C194.905 547.814 195.823 547.411 196.305 546.815C196.805 546.198 197.158 545.439 197.028 544.669C196.905 543.957 196.569 543.11 195.845 542.711C193.696 541.515 191.739 540.083 189.982 538.476C189.022 537.533 188.123 536.546 187.284 535.513ZM214.022 544.009L213.979 544.014C214.061 543.966 214.124 543.941 214.206 543.893C214.059 543.947 213.931 543.979 213.784 544.033C212.538 544.254 211.233 544.343 209.994 544.427C208.494 544.535 207.007 544.565 205.517 544.555C204.728 544.555 203.783 545.118 203.315 545.634C202.808 546.193 202.467 547.068 202.591 547.78C202.719 548.53 203.065 549.279 203.774 549.737C204.509 550.233 205.245 550.356 206.166 550.362C207.963 550.361 209.731 550.304 211.534 550.165C213.64 549.996 215.816 549.86 217.625 548.801C219.064 547.954 219.402 545.885 218.352 544.717C217.231 543.516 215.496 543.277 214.022 544.009ZM225.316 542.933C226.135 543.009 227.178 542.926 227.798 542.395C230.901 539.779 233.768 537.011 236.319 533.96C236.841 533.341 237.129 532.589 237.042 531.814C236.962 531.098 236.52 530.281 235.859 529.857C234.488 528.955 232.368 529.007 231.265 530.31C228.983 533.021 226.443 535.581 223.704 537.926C223.784 537.859 223.845 537.814 223.925 537.748C223.284 538.281 222.816 538.796 222.664 539.594C222.525 540.312 222.716 541.233 223.24 541.808C223.765 542.382 224.476 542.86 225.316 542.933ZM243.148 512.561C243.945 512.834 244.875 512.919 245.694 512.603L246.442 512.236C246.91 511.915 247.263 511.548 247.495 511.075C249.057 508.787 250.078 506.162 250.505 503.517C250.637 502.741 250.436 501.919 249.929 501.304C249.45 500.744 248.626 500.238 247.829 500.16C246.964 500.07 246.037 500.2 245.348 500.699C244.7 501.174 244.182 501.832 244.047 502.589C243.92 503.404 243.703 504.208 243.441 504.997C242.949 506.279 242.32 507.515 241.531 508.689C241.117 509.297 241.191 510.347 241.458 510.966C241.728 511.624 242.394 512.283 243.148 512.561ZM251.112 493.476C252.841 493.657 254.616 492.68 254.894 491.048C255.045 490.054 255.264 489.074 255.55 488.106C255.611 487.865 255.694 487.622 255.776 487.379C255.774 487.36 255.774 487.36 255.793 487.338C255.811 487.297 255.828 487.257 255.843 487.196C256.027 486.689 256.235 486.199 256.441 485.689C256.862 484.747 257.33 483.84 257.846 482.967C258.103 482.531 258.385 482.111 258.645 481.694C258.682 481.632 258.741 481.567 258.777 481.505C258.949 481.273 259.12 481.041 259.313 480.806C260.29 479.555 260.344 477.691 258.854 476.703C257.527 475.816 255.291 475.802 254.259 477.156C251.254 481.034 249.206 485.444 248.458 490.117C248.213 491.648 249.34 493.299 251.112 493.476ZM263.827 471.417C265.47 471.999 267.377 471.419 268.152 469.933C268.571 469.168 269.034 468.417 269.522 467.684C270.679 466.083 272.025 464.599 273.54 463.256C273.741 463.099 273.941 462.923 274.142 462.766C274.808 462.25 275.289 461.655 275.443 460.876C275.581 460.158 275.391 459.238 274.866 458.663C274.342 458.089 273.609 457.613 272.766 457.52C271.923 457.427 270.951 457.543 270.285 458.058C266.879 460.704 264.124 463.892 262.211 467.545C261.491 468.947 262.206 470.833 263.827 471.417ZM283.144 456.28C284.074 456.365 284.841 456.171 285.625 455.742C286.122 455.477 286.596 455.215 287.095 454.97C289.006 454.038 290.997 453.235 293.05 452.582C294.677 452.049 295.607 450.177 294.924 448.776C294.188 447.283 292.422 446.577 290.688 447.14C287.557 448.134 284.594 449.463 281.768 451.034C281.11 451.412 280.59 452.246 280.468 452.924C280.329 453.642 280.52 454.563 281.044 455.137C281.569 455.712 282.282 456.209 283.144 456.28ZM263.498 602.006C261.658 601.816 260.107 602.83 259.716 604.434L259.573 604.918C259.287 605.69 258.91 606.431 258.442 607.143C257.967 607.797 257.421 608.399 256.804 608.949C256.121 609.505 255.408 609.987 254.622 610.397C253.961 610.756 253.445 611.629 253.321 612.287C253.183 613.005 253.373 613.926 253.898 614.5C254.422 615.075 255.154 615.55 255.997 615.643C256.281 615.635 256.589 615.644 256.875 615.655C257.46 615.597 258.01 615.425 258.479 615.105C262.429 613.012 265.192 609.314 266.174 605.362C266.534 603.878 265.184 602.192 263.498 602.006Z" fill="#F4BC33"/>
        <path d="M50.4319 696.893C47.5046 689.866 49.1919 682.014 53.2987 675.403C57.5094 668.64 63.7641 663.019 70.5159 658.298C68.0937 656.048 65.6605 653.781 63.2199 651.541C60.6105 649.125 57.7279 646.8 55.5625 644.009C51.7593 639.103 52.9355 632.607 58.8116 629.158C64.418 625.844 71.4364 627.279 76.4979 630.253C79.4495 631.986 81.986 634.216 83.9902 636.803C84.8241 635.006 85.8751 633.264 87.1099 631.644C90.4581 627.292 95.902 623.271 101.908 624.382C107.903 625.476 111.196 630.773 111.751 636.048C111.948 637.913 111.929 639.801 111.695 641.681C111.894 641.748 112.104 641.831 112.302 641.898C123.562 641.83 134.483 645.772 140.393 654.307C142.674 657.581 144.384 664.748 144.384 664.748C145.059 671.168 142.586 677.416 138.443 683.084C136.96 685.102 135.406 687.092 133.761 689.022C133.579 689.289 133.375 689.524 133.168 689.714C128.651 694.936 123.569 699.732 117.8 703.806C103.812 713.714 85.2291 718.378 68.8498 712.798C60.7098 710.024 53.5743 704.435 50.4319 696.893ZM82.1523 647.751C81.0569 643.092 78.3741 639.021 74.2373 636.124C71.1145 633.94 65.9644 631.799 62.0949 634.093C57.4863 636.821 60.7894 640.666 63.4428 643.148C67.5898 647.026 71.7627 650.865 75.9282 654.732C78.9442 652.893 82.0405 651.213 85.2576 649.715C83.8714 649.794 82.4994 649.2 82.1523 647.751ZM138.129 668.901C138.729 661.847 134.471 654.982 128.151 651.393C125.843 650.086 123.333 649.171 120.723 648.569C124.416 652.575 127.096 657.337 129.525 662.108C131.884 666.736 134.42 671.629 134.731 676.885C134.755 677.192 134.772 677.527 134.778 677.845C136.542 674.973 137.861 671.973 138.129 668.901ZM97.5159 630.563C91.3015 633.04 87.9768 641.096 88.5001 646.71C88.5703 647.473 88.302 648.112 87.8575 648.602C92.2152 646.733 96.7116 645.15 101.302 643.902C101.677 643.383 102.283 642.982 103.169 642.806C103.597 642.716 104.028 642.669 104.467 642.595C104.659 642.459 104.863 642.34 105.088 642.254C105.122 641.958 105.186 641.668 105.221 641.372C105.334 640.417 105.4 639.459 105.418 638.502C105.426 636.776 105.239 635.027 104.439 633.477C103.182 631.047 100.525 629.371 97.5159 630.563ZM126.082 688.525C126.716 687.855 127.356 687.158 128.016 686.45C128.629 683.703 128.422 680.611 128.302 677.882C128.124 673.442 125.965 669.27 123.981 665.362C121.885 661.245 119.642 656.869 116.529 653.349C115.095 651.734 112.716 648.931 110.602 647.762C109.986 647.802 109.352 647.853 108.747 647.909C108.4 648.159 107.99 648.354 107.448 648.465C103.998 649.228 100.536 650.204 97.1365 651.35C104.489 654.677 109.251 662.646 112.967 668.888C117.601 676.703 119.982 685.496 119.914 694.509C122.076 692.621 124.13 690.612 126.082 688.525ZM106.164 703.888C108.628 702.648 110.972 701.227 113.201 699.712C114.21 690.376 112.531 681.056 107.862 672.917C105.672 669.085 103.183 665.267 100.309 661.835C97.7437 658.751 94.6081 656.162 90.1985 655.674C89.3402 655.581 88.752 655.238 88.3597 654.803C82.2361 657.571 76.4633 660.982 71.2736 665.037C79.2845 667.037 84.5496 676.226 86.0588 683.052C88.0333 692.083 85.4797 701.569 79.3124 709.021C88.3672 710.041 98.0034 708.035 106.164 703.888ZM66.155 704.924C68.129 706.037 70.2185 706.899 72.39 707.576C78.3921 701.574 81.4667 693.412 79.9992 685.529C78.8987 679.588 74.1876 669.34 65.8553 670.719C65.5307 670.772 65.2287 670.743 64.9341 670.686C64.7193 670.904 64.4751 671.116 64.2713 671.35C59.8644 675.888 55.8502 681.594 55.3907 687.74C54.8375 695.018 59.7179 701.311 66.155 704.924Z" fill="#F4BC33"/>
    </g>
    <defs>
        <filter id="filter0_d_2004_2" x="167.721" y="0.8" width="522.4" height="570.805" filterUnits="userSpaceOnUse" color-interpolation-filters="sRGB">
            <feFlood flood-opacity="0" result="BackgroundImageFix"/>
            <feColorMatrix in="SourceAlpha" type="matrix" values="0 0 0 0 0 0 0 0 0 0 0 0 0 0 0 0 0 0 127 0" result="hardAlpha"/>
            <feMorphology radius="1" operator="dilate" in="SourceAlpha" result="effect1_dropShadow_2004_2"/>
            <feOffset dx="5" dy="10"/>
            <feGaussianBlur stdDeviation="5.1"/>
            <feColorMatrix type="matrix" values="0 0 0 0 0.1625 0 0 0 0 0.1625 0 0 0 0 0.1625 0 0 0 1 0"/>
            <feBlend mode="normal" in2="BackgroundImageFix" result="effect1_dropShadow_2004_2"/>
            <feBlend mode="normal" in="SourceGraphic" in2="effect1_dropShadow_2004_2" result="shape"/>
        </filter>
        <filter id="filter1_d_2004_2" x="42.7598" y="445.747" width="268.591" height="290.643" filterUnits="userSpaceOnUse" color-interpolation-filters="sRGB">
            <feFlood flood-opacity="0" result="BackgroundImageFix"/>
            <feColorMatrix in="SourceAlpha" type="matrix" values="0 0 0 0 0 0 0 0 0 0 0 0 0 0 0 0 0 0 127 0" result="hardAlpha"/>
            <feMorphology radius="1" operator="dilate" in="SourceAlpha" result="effect1_dropShadow_2004_2"/>
            <feOffset dx="5" dy="10"/>
            <feGaussianBlur stdDeviation="5.1"/>
            <feColorMatrix type="matrix" values="0 0 0 0 0.1625 0 0 0 0 0.1625 0 0 0 0 0.1625 0 0 0 1 0"/>
            <feBlend mode="normal" in2="BackgroundImageFix" result="effect1_dropShadow_2004_2"/>
            <feBlend mode="normal" in="SourceGraphic" in2="effect1_dropShadow_2004_2" result="shape"/>
        </filter>
    </defs>
</svg>
