<svg width="82" height="48" viewBox="0 0 82 48" fill="none" xmlns="http://www.w3.org/2000/svg">
<path d="M64.0554 15.7207C61.4291 15.7207 59.2996 17.8206 59.2996 20.4104C59.2996 23.0002 61.4291 25.1001 64.0554 25.1001C66.6818 25.1001 68.8113 23.0002 68.8113 20.4104C68.8066 17.8206 66.6771 15.7207 64.0554 15.7207Z" fill="white"/>
<path d="M53.1145 19.7106C53.1051 19.8973 53.1003 20.0886 53.1003 20.2799C53.1003 20.4712 53.1051 20.6625 53.1145 20.8492C53.4032 26.4115 57.9319 30.8725 63.5728 31.1618V27.9187C59.7397 27.6387 56.6874 24.6289 56.4082 20.8492C56.394 20.6579 56.3798 20.4712 56.3798 20.2799C56.3798 20.0886 56.394 19.8973 56.4082 19.7106C56.6921 15.9308 59.7444 12.921 63.5728 12.6411V9.39795C57.9272 9.68726 53.4032 14.1483 53.1145 19.7106Z" fill="#E4022E"/>
<path d="M71.2579 23.355C70.1316 25.8888 67.6614 27.704 64.7274 27.9187V31.1618C69.4928 30.9191 73.4584 27.6994 74.755 23.355H71.2579Z" fill="white"/>
<path d="M19.4116 17.0879V15.52H7.71826V18.3105H14.845L7.75139 29.5331V31.1663H19.5062V28.3712H12.2849L19.4116 17.0879Z" fill="#E4022E"/>
<path d="M43.7068 19.7292H43.7731L45.4294 25.3288H42.06L43.7068 19.7292ZM47.1519 31.1664H50.8572L45.7228 15.5202H41.7666L36.6464 31.1664H40.3517L41.2461 28.124H46.2481L47.1519 31.1664ZM31.7864 24.7502C31.7864 25.8841 31.5214 26.8081 30.9914 27.522C30.4613 28.236 29.7137 28.5953 28.7483 28.5953C27.7545 28.5953 26.9879 28.236 26.4532 27.522C25.9184 26.8081 25.6534 25.8795 25.6534 24.7502V21.9131C25.6534 20.7885 25.9184 19.8692 26.4437 19.1552C26.969 18.4413 27.7309 18.0866 28.7294 18.0866C29.7042 18.0866 30.4566 18.446 30.9914 19.1599C31.5261 19.8785 31.7911 20.7931 31.7911 21.9131V24.7502H31.7864ZM35.4586 21.9317C35.4586 20.0139 34.8339 18.4273 33.5846 17.172C32.3353 15.9168 30.7122 15.2915 28.7246 15.2915C26.7182 15.2915 25.095 15.9168 23.8504 17.172C22.6059 18.4273 21.9812 20.0139 21.9812 21.9317V24.7455C21.9812 26.6727 22.6059 28.2593 23.8552 29.5099C25.1045 30.7605 26.7371 31.3858 28.7483 31.3858C30.7453 31.3858 32.3637 30.7605 33.6035 29.5099C34.8434 28.2593 35.4633 26.6727 35.4633 24.7455V21.9317H35.4586Z" fill="#E4022E"/>
<path d="M7.99751 39.1599V37.0227H7.60474V36.6961H7.99751V36.4441C7.99751 36.1781 8.06849 35.9775 8.21046 35.8328C8.35243 35.6882 8.55591 35.6182 8.81619 35.6182C8.91556 35.6182 9.01494 35.6322 9.10958 35.6555L9.08592 35.9961C9.01494 35.9821 8.93449 35.9775 8.85404 35.9775C8.71681 35.9775 8.60797 36.0195 8.53225 36.0988C8.45654 36.1781 8.41868 36.2948 8.41868 36.4441V36.7054H8.95342V37.0321H8.42341V39.1693H7.99751V39.1599Z" fill="white"/>
<path d="M10.7327 37.0694C10.6665 37.0601 10.6002 37.0554 10.5245 37.0554C10.2453 37.0554 10.056 37.172 9.9519 37.41V39.1599H9.526V36.6961H9.94244L9.94717 36.9807C10.0891 36.7614 10.2879 36.6494 10.5434 36.6494C10.6286 36.6494 10.6901 36.6587 10.7327 36.6821V37.0694Z" fill="white"/>
<path d="M11.064 37.9001C11.064 37.6574 11.1113 37.4428 11.2107 37.2468C11.31 37.0508 11.4425 36.9061 11.6129 36.7988C11.7833 36.6915 11.982 36.6401 12.1997 36.6401C12.5404 36.6401 12.8149 36.7568 13.0278 36.9901C13.2408 37.2234 13.3449 37.5314 13.3449 37.9187V37.9467C13.3449 38.1847 13.2976 38.404 13.2029 38.5907C13.1083 38.782 12.9758 38.9313 12.8054 39.0386C12.6351 39.146 12.4316 39.1973 12.2092 39.1973C11.8684 39.1973 11.594 39.0806 11.3858 38.8473C11.1775 38.614 11.0687 38.306 11.0687 37.9234V37.9001H11.064ZM11.4899 37.9514C11.4899 38.2267 11.5561 38.446 11.6839 38.6093C11.8117 38.7727 11.9867 38.8567 12.1997 38.8567C12.4174 38.8567 12.5877 38.7727 12.7155 38.6047C12.8433 38.4367 12.9095 38.2034 12.9095 37.9001C12.9095 37.6294 12.8433 37.4101 12.7155 37.2421C12.5877 37.0741 12.4126 36.9901 12.195 36.9901C11.982 36.9901 11.8117 37.0741 11.6839 37.2374C11.5561 37.4008 11.4899 37.6434 11.4899 37.9514Z" fill="white"/>
<path d="M14.3718 36.6914L14.3813 36.9667C14.5659 36.7521 14.8119 36.6494 15.1243 36.6494C15.4745 36.6494 15.7111 36.7801 15.8388 37.0461C15.924 36.9294 16.0281 36.8314 16.1654 36.7567C16.3026 36.6821 16.454 36.6494 16.6386 36.6494C17.1875 36.6494 17.4667 36.9341 17.4762 37.508V39.1599H17.0503V37.5314C17.0503 37.354 17.0077 37.2234 16.9272 37.1347C16.8468 37.0461 16.7096 37.0041 16.5155 37.0041C16.3546 37.0041 16.2269 37.0507 16.1228 37.144C16.0187 37.2374 15.9571 37.3634 15.9382 37.522V39.1599H15.5076V37.5454C15.5076 37.186 15.3278 37.0087 14.9728 37.0087C14.6936 37.0087 14.4996 37.1254 14.3955 37.3634V39.1646H13.9696V36.7007H14.3718V36.6914Z" fill="white"/>
<path d="M20.6846 37.0694C20.6184 37.0601 20.5521 37.0554 20.4764 37.0554C20.1972 37.0554 20.0079 37.172 19.9038 37.41V39.1599H19.4779V36.6961H19.8943L19.8991 36.9807C20.041 36.7614 20.2398 36.6494 20.4953 36.6494C20.5805 36.6494 20.642 36.6587 20.6846 36.6821V37.0694Z" fill="white"/>
<path d="M22.1658 39.202C21.8251 39.202 21.5506 39.09 21.3377 38.8707C21.1247 38.6513 21.0206 38.3574 21.0206 37.9887V37.9094C21.0206 37.6667 21.068 37.4474 21.1626 37.2561C21.2572 37.0648 21.3897 36.9155 21.5601 36.8035C21.7305 36.6961 21.915 36.6401 22.1138 36.6401C22.4403 36.6401 22.6911 36.7475 22.8709 36.9574C23.0508 37.1674 23.1407 37.4707 23.1407 37.8627V38.04H21.4465C21.4513 38.2827 21.527 38.4787 21.6642 38.628C21.8014 38.7773 21.9765 38.852 22.1895 38.852C22.3409 38.852 22.4687 38.8193 22.5728 38.7587C22.6769 38.698 22.7716 38.6187 22.8473 38.516L23.1075 38.7167C22.8993 39.0433 22.587 39.202 22.1658 39.202ZM22.1138 36.9948C21.9434 36.9948 21.7967 37.0554 21.6784 37.1814C21.5601 37.3028 21.4891 37.4801 21.4607 37.7041H22.7148V37.6714C22.7006 37.4568 22.6438 37.2934 22.5397 37.1721C22.4356 37.0508 22.2936 36.9948 22.1138 36.9948Z" fill="white"/>
<path d="M24.1959 39.1599H23.77V35.6602H24.1959V39.1599Z" fill="white"/>
<path d="M24.9767 36.0381C24.9767 35.9681 24.9956 35.9121 25.0382 35.8654C25.0808 35.8187 25.1423 35.7954 25.2275 35.7954C25.3127 35.7954 25.3742 35.8187 25.4168 35.8654C25.4594 35.9121 25.483 35.9681 25.483 36.0381C25.483 36.1081 25.4594 36.1641 25.4168 36.2107C25.3742 36.2574 25.3127 36.2807 25.2275 36.2807C25.1423 36.2807 25.0808 36.2574 25.0382 36.2107C24.9956 36.1641 24.9767 36.1081 24.9767 36.0381ZM25.4357 39.1599H25.0098V36.696H25.4357V39.1599Z" fill="white"/>
<path d="M27.253 39.202C26.9123 39.202 26.6378 39.09 26.4248 38.8707C26.2119 38.6513 26.1078 38.3574 26.1078 37.9887V37.9094C26.1078 37.6667 26.1551 37.4474 26.2498 37.2561C26.3444 37.0648 26.4769 36.9155 26.6473 36.8035C26.8176 36.6961 27.0022 36.6401 27.2009 36.6401C27.5275 36.6401 27.7783 36.7475 27.9581 36.9574C28.1379 37.1674 28.2278 37.4707 28.2278 37.8627V38.04H26.5337C26.5384 38.2827 26.6141 38.4787 26.7514 38.628C26.8886 38.7773 27.0637 38.852 27.2766 38.852C27.4281 38.852 27.5559 38.8193 27.66 38.7587C27.7641 38.698 27.8587 38.6187 27.9344 38.516L28.1947 38.7167C27.9865 39.0433 27.6742 39.202 27.253 39.202ZM27.2009 36.9948C27.0306 36.9948 26.8839 37.0554 26.7656 37.1814C26.6473 37.3028 26.5763 37.4801 26.5479 37.7041H27.8019V37.6714C27.7877 37.4568 27.7309 37.2934 27.6268 37.1721C27.5227 37.0508 27.3808 36.9948 27.2009 36.9948Z" fill="white"/>
<path d="M29.0275 39.1599V37.0227H28.6348V36.6961H29.0275V36.4441C29.0275 36.1781 29.0985 35.9775 29.2405 35.8328C29.3825 35.6882 29.5859 35.6182 29.8462 35.6182C29.9456 35.6182 30.045 35.6322 30.1396 35.6555L30.116 35.9961C30.045 35.9821 29.9645 35.9775 29.8841 35.9775C29.7468 35.9775 29.638 36.0195 29.5623 36.0988C29.4866 36.1781 29.4487 36.2948 29.4487 36.4441V36.7054H29.9835V37.0321H29.4487V39.1693H29.0275V39.1599Z" fill="white"/>
<path d="M32.4016 36.0942V36.6915H32.87V37.0182H32.4016V38.5487C32.4016 38.6467 32.4205 38.7214 32.4631 38.7727C32.5057 38.8241 32.5766 38.8474 32.676 38.8474C32.7233 38.8474 32.7943 38.8381 32.8795 38.8194V39.16C32.7659 39.188 32.6571 39.2067 32.553 39.2067C32.3637 39.2067 32.217 39.1507 32.1224 39.034C32.0277 38.9174 31.9757 38.7587 31.9757 38.5487V37.0182H31.5214V36.6915H31.9757V36.0942H32.4016Z" fill="white"/>
<path d="M33.3054 37.9001C33.3054 37.6574 33.3527 37.4428 33.4521 37.2468C33.5515 37.0508 33.684 36.9061 33.8544 36.7988C34.0247 36.6915 34.2235 36.6401 34.4412 36.6401C34.7819 36.6401 35.0563 36.7568 35.2693 36.9901C35.4822 37.2234 35.5864 37.5314 35.5864 37.9187V37.9467C35.5864 38.1847 35.539 38.404 35.4444 38.5907C35.3497 38.782 35.2172 38.9313 35.0469 39.0386C34.8765 39.146 34.673 39.1973 34.4506 39.1973C34.1099 39.1973 33.8354 39.0806 33.6272 38.8473C33.419 38.614 33.3102 38.306 33.3102 37.9234V37.9001H33.3054ZM33.7313 37.9514C33.7313 38.2267 33.7976 38.446 33.9253 38.6093C34.0531 38.7727 34.2282 38.8567 34.4412 38.8567C34.6588 38.8567 34.8292 38.7727 34.957 38.6047C35.0847 38.4367 35.151 38.2034 35.151 37.9001C35.151 37.6294 35.0847 37.4101 34.957 37.2421C34.8292 37.0741 34.6541 36.9901 34.4364 36.9901C34.2235 36.9901 34.0531 37.0741 33.9253 37.2374C33.7976 37.4008 33.7313 37.6434 33.7313 37.9514Z" fill="white"/>
<path d="M38.686 37.0694C38.6197 37.0601 38.5535 37.0554 38.4777 37.0554C38.1985 37.0554 38.0093 37.172 37.9051 37.41V39.1599H37.4792V36.6961H37.8957L37.9004 36.9807C38.0424 36.7614 38.2411 36.6494 38.4967 36.6494C38.5819 36.6494 38.6434 36.6587 38.686 36.6821V37.0694Z" fill="white"/>
<path d="M40.1672 39.202C39.8265 39.202 39.552 39.09 39.339 38.8707C39.1261 38.6513 39.022 38.3574 39.022 37.9887V37.9094C39.022 37.6667 39.0693 37.4474 39.1639 37.2561C39.2586 37.0648 39.3911 36.9155 39.5614 36.8035C39.7318 36.6961 39.9164 36.6401 40.1151 36.6401C40.4416 36.6401 40.6924 36.7475 40.8723 36.9574C41.0521 37.1674 41.142 37.4707 41.142 37.8627V38.04H39.4479C39.4526 38.2827 39.5283 38.4787 39.6656 38.628C39.8028 38.7773 39.9779 38.852 40.1908 38.852C40.3423 38.852 40.47 38.8193 40.5741 38.7587C40.6783 38.698 40.7729 38.6187 40.8486 38.516L41.1089 38.7167C40.9007 39.0433 40.5836 39.202 40.1672 39.202ZM40.1104 36.9948C39.94 36.9948 39.7933 37.0554 39.675 37.1814C39.5567 37.3028 39.4857 37.4801 39.4573 37.7041H40.7114V37.6714C40.6972 37.4568 40.6404 37.2934 40.5363 37.1721C40.4322 37.0508 40.2902 36.9948 40.1104 36.9948Z" fill="white"/>
<path d="M42.732 38.8613C42.8834 38.8613 43.0159 38.8146 43.1295 38.7259C43.2431 38.6373 43.3046 38.5206 43.3188 38.3853H43.721C43.7116 38.5253 43.6643 38.6606 43.5743 38.7866C43.4844 38.9126 43.3614 39.0153 43.21 39.0899C43.0585 39.1646 42.8976 39.2019 42.7273 39.2019C42.3866 39.2019 42.1168 39.0899 41.9133 38.8659C41.7146 38.6419 41.6105 38.334 41.6105 37.9467V37.8767C41.6105 37.6387 41.6531 37.424 41.743 37.2374C41.8329 37.0507 41.9607 36.9061 42.1263 36.8034C42.2919 36.7007 42.4907 36.6494 42.7178 36.6494C42.997 36.6494 43.2289 36.7334 43.4182 36.8967C43.6075 37.0601 43.7021 37.2794 43.7163 37.5407H43.3141C43.2999 37.382 43.2384 37.2514 43.1295 37.1487C43.0207 37.0461 42.8834 36.9947 42.7225 36.9947C42.5049 36.9947 42.3392 37.0741 42.2162 37.228C42.0979 37.382 42.0364 37.606 42.0364 37.8953V37.9747C42.0364 38.2593 42.0979 38.4786 42.2162 38.6326C42.3345 38.7866 42.5143 38.8613 42.732 38.8613Z" fill="white"/>
<path d="M44.1896 37.9001C44.1896 37.6574 44.2369 37.4428 44.3363 37.2468C44.4357 37.0508 44.5682 36.9061 44.7385 36.7988C44.9089 36.6915 45.1076 36.6401 45.3253 36.6401C45.666 36.6401 45.9405 36.7568 46.1534 36.9901C46.3664 37.2234 46.4705 37.5314 46.4705 37.9187V37.9467C46.4705 38.1847 46.4232 38.404 46.3285 38.5907C46.2339 38.782 46.1014 38.9313 45.931 39.0386C45.7607 39.146 45.5572 39.1973 45.3348 39.1973C44.9941 39.1973 44.7196 39.0806 44.5114 38.8473C44.3031 38.614 44.1943 38.306 44.1943 37.9234V37.9001H44.1896ZM44.6202 37.9514C44.6202 38.2267 44.6865 38.446 44.8142 38.6093C44.942 38.7727 45.1171 38.8567 45.33 38.8567C45.5477 38.8567 45.7181 38.7727 45.8459 38.6047C45.9736 38.4367 46.0399 38.2034 46.0399 37.9001C46.0399 37.6294 45.9736 37.4101 45.8459 37.2421C45.7181 37.0741 45.543 36.9901 45.3253 36.9901C45.1124 36.9901 44.942 37.0741 44.8142 37.2374C44.6865 37.4008 44.6202 37.6434 44.6202 37.9514Z" fill="white"/>
<path d="M47.8854 38.5859L48.5053 36.6914H48.9407L48.0463 39.1552H47.7198L46.8159 36.6914H47.2513L47.8854 38.5859Z" fill="white"/>
<path d="M50.455 39.202C50.1143 39.202 49.8398 39.09 49.6269 38.8707C49.4139 38.6513 49.3098 38.3574 49.3098 37.9887V37.9094C49.3098 37.6667 49.3571 37.4474 49.4518 37.2561C49.5464 37.0648 49.6789 36.9155 49.8493 36.8035C50.0196 36.6961 50.2042 36.6401 50.403 36.6401C50.7295 36.6401 50.9803 36.7475 51.1601 36.9574C51.3399 37.1674 51.4299 37.4707 51.4299 37.8627V38.04H49.7357C49.7404 38.2827 49.8162 38.4787 49.9534 38.628C50.0906 38.7773 50.2657 38.852 50.4787 38.852C50.6301 38.852 50.7579 38.8193 50.862 38.7587C50.9661 38.698 51.0607 38.6187 51.1365 38.516L51.3967 38.7167C51.1885 39.0433 50.8715 39.202 50.455 39.202ZM50.403 36.9948C50.2326 36.9948 50.0859 37.0554 49.9676 37.1814C49.8493 37.3028 49.7783 37.4801 49.7499 37.7041H51.004V37.6714C50.9898 37.4568 50.933 37.2934 50.8289 37.1721C50.72 37.0508 50.5781 36.9948 50.403 36.9948Z" fill="white"/>
<path d="M53.2281 37.0694C53.1618 37.0601 53.0956 37.0554 53.0199 37.0554C52.7407 37.0554 52.5514 37.172 52.4473 37.41V39.1599H52.0214V36.6961H52.4378L52.4425 36.9807C52.5845 36.7614 52.7833 36.6494 53.0388 36.6494C53.124 36.6494 53.1855 36.6587 53.2281 36.6821V37.0694Z" fill="white"/>
<path d="M54.5721 38.5393L55.1541 36.6914H55.6131L54.6099 39.5379C54.4538 39.9485 54.2077 40.1538 53.867 40.1538L53.7865 40.1492L53.6256 40.1212V39.7805L53.7392 39.7899C53.8859 39.7899 53.9947 39.7619 54.0799 39.7012C54.1651 39.6405 54.2266 39.5379 54.2787 39.3839L54.3733 39.1319L53.4836 36.6961H53.9521L54.5721 38.5393Z" fill="white"/>
</svg>
