<svg xmlns="http://www.w3.org/2000/svg" zoomAndPan="magnify" viewBox="0 0 375 374.999991" width="400" height="400"
     preserveAspectRatio="xMidYMid meet" version="1.0">
    <defs>
        <clipPath id="67734e135f">
            <path d="M 289 156 L 301.570312 156 L 301.570312 161 L 289 161 Z M 289 156 " clip-rule="nonzero"/>
        </clipPath>
        <clipPath id="fed4a41961">
            <path d="M 73.570312 138 L 117 138 L 117 182 L 73.570312 182 Z M 73.570312 138 " clip-rule="nonzero"/>
        </clipPath>
        <clipPath id="4ebf43fce6">
            <path d="M 173 78.128906 L 179 78.128906 L 179 90 L 173 90 Z M 173 78.128906 " clip-rule="nonzero"/>
        </clipPath>
        <clipPath id="505d2ce988">
            <path d="M 73.570312 224 L 122 224 L 122 272 L 73.570312 272 Z M 73.570312 224 " clip-rule="nonzero"/>
        </clipPath>
    </defs>
    <path fill="#b277d3"
          d="M 289.3125 159.160156 C 289.3125 155.886719 287.179688 153.105469 284.230469 152.128906 L 284.222656 139.328125 C 284.222656 138.417969 283.683594 137.589844 282.851562 137.21875 C 282.015625 136.847656 281.039062 137 280.363281 137.621094 L 277.746094 140 C 272.835938 144.445312 266.804688 147.472656 260.304688 148.75 C 260.136719 148.777344 259.980469 148.832031 259.828125 148.898438 L 244.871094 148.898438 C 239.441406 148.898438 235.015625 153.316406 235.015625 158.753906 L 235.015625 159.601562 C 235.015625 164.890625 239.199219 169.210938 244.425781 169.445312 L 244.425781 182.671875 C 244.425781 185.769531 246.945312 188.289062 250.042969 188.289062 L 250.414062 188.289062 C 253.511719 188.289062 256.03125 185.769531 256.03125 182.671875 L 256.03125 169.457031 L 260.046875 169.457031 C 260.128906 169.480469 260.207031 169.503906 260.296875 169.523438 C 266.800781 170.796875 272.828125 173.824219 277.738281 178.273438 L 280.355469 180.652344 C 280.789062 181.042969 281.347656 181.25 281.910156 181.25 C 282.226562 181.25 282.542969 181.183594 282.84375 181.054688 C 283.675781 180.683594 284.21875 179.855469 284.21875 178.945312 L 284.222656 166.207031 C 287.179688 165.214844 289.3125 162.425781 289.3125 159.160156 Z M 239.636719 159.589844 L 239.636719 158.738281 C 239.636719 155.851562 241.988281 153.5 244.875 153.5 L 258.445312 153.5 L 258.445312 158.554688 C 258.445312 158.625 258.453125 158.699219 258.457031 158.765625 L 258.457031 159.472656 C 258.453125 159.542969 258.445312 159.609375 258.445312 159.679688 L 258.445312 164.816406 L 244.875 164.816406 C 241.988281 164.828125 239.636719 162.480469 239.636719 159.589844 Z M 251.421875 182.660156 C 251.421875 183.210938 250.972656 183.660156 250.421875 183.660156 L 250.046875 183.660156 C 249.496094 183.660156 249.046875 183.210938 249.046875 182.660156 L 249.046875 169.460938 L 251.425781 169.460938 L 251.425781 182.660156 Z M 263.066406 165.394531 L 263.066406 152.859375 C 269.144531 151.367188 274.808594 148.503906 279.613281 144.488281 L 279.621094 153.808594 C 279.609375 153.890625 279.601562 153.980469 279.601562 154.066406 L 279.601562 164.253906 C 279.601562 164.34375 279.609375 164.429688 279.621094 164.511719 L 279.613281 173.757812 C 274.808594 169.742188 269.144531 166.878906 263.066406 165.394531 Z M 284.230469 160.695312 L 284.230469 159.6875 C 284.230469 159.589844 284.222656 159.5 284.210938 159.410156 L 284.210938 158.828125 C 284.222656 158.738281 284.230469 158.644531 284.230469 158.554688 L 284.230469 157.613281 C 284.523438 158.058594 284.691406 158.585938 284.691406 159.152344 C 284.695312 159.722656 284.523438 160.257812 284.230469 160.695312 Z M 284.230469 160.695312 "
          fill-opacity="1" fill-rule="nonzero"/>
    <g clip-path="url(#67734e135f)">
        <path fill="#b277d3"
              d="M 299.082031 156.234375 L 291.648438 156.234375 C 290.371094 156.234375 289.339844 157.265625 289.339844 158.542969 C 289.339844 159.820312 290.371094 160.851562 291.648438 160.851562 L 299.082031 160.851562 C 300.355469 160.851562 301.386719 159.820312 301.386719 158.542969 C 301.386719 157.265625 300.355469 156.234375 299.082031 156.234375 Z M 299.082031 156.234375 "
              fill-opacity="1" fill-rule="nonzero"/>
    </g>
    <path fill="#b277d3"
          d="M 290.90625 155.703125 C 291.390625 155.703125 291.882812 155.550781 292.296875 155.234375 L 298.21875 150.746094 C 299.230469 149.976562 299.433594 148.527344 298.660156 147.515625 C 297.894531 146.5 296.445312 146.296875 295.429688 147.070312 L 289.507812 151.558594 C 288.496094 152.328125 288.292969 153.777344 289.066406 154.789062 C 289.519531 155.382812 290.210938 155.703125 290.90625 155.703125 Z M 290.90625 155.703125 "
          fill-opacity="1" fill-rule="nonzero"/>
    <path fill="#b277d3"
          d="M 298.222656 166.339844 L 292.300781 161.851562 C 291.285156 161.082031 289.839844 161.28125 289.070312 162.292969 C 288.304688 163.308594 288.503906 164.757812 289.515625 165.523438 L 295.4375 170.015625 C 295.855469 170.332031 296.339844 170.480469 296.828125 170.480469 C 297.523438 170.480469 298.210938 170.164062 298.667969 169.5625 C 299.433594 168.558594 299.238281 167.105469 298.222656 166.339844 Z M 298.222656 166.339844 "
          fill-opacity="1" fill-rule="nonzero"/>
    <path fill="#b277d3"
          d="M 193.164062 266.617188 L 158.246094 266.617188 C 156.96875 266.617188 155.941406 267.648438 155.941406 268.921875 L 155.941406 294.574219 C 155.941406 294.625 155.941406 294.671875 155.945312 294.714844 C 155.945312 294.726562 155.945312 294.738281 155.945312 294.75 C 155.945312 294.785156 155.953125 294.828125 155.957031 294.863281 C 155.957031 294.875 155.957031 294.878906 155.964844 294.894531 C 155.976562 294.996094 156 295.089844 156.023438 295.1875 C 156.023438 295.1875 156.023438 295.191406 156.023438 295.191406 C 156.066406 295.34375 156.125 295.492188 156.199219 295.628906 C 156.199219 295.628906 156.199219 295.636719 156.199219 295.636719 C 156.199219 295.636719 156.199219 295.636719 156.199219 295.640625 C 156.246094 295.730469 156.300781 295.816406 156.351562 295.898438 C 156.359375 295.90625 156.363281 295.917969 156.371094 295.921875 C 156.394531 295.960938 156.417969 295.988281 156.449219 296.027344 C 156.457031 296.03125 156.457031 296.039062 156.460938 296.039062 C 156.492188 296.074219 156.519531 296.109375 156.550781 296.140625 C 156.5625 296.152344 156.570312 296.15625 156.582031 296.167969 C 156.605469 296.191406 156.628906 296.222656 156.660156 296.246094 C 156.664062 296.253906 156.675781 296.265625 156.683594 296.269531 C 156.71875 296.300781 156.75 296.332031 156.785156 296.359375 C 156.789062 296.367188 156.796875 296.375 156.804688 296.375 C 156.832031 296.398438 156.867188 296.421875 156.898438 296.445312 C 156.90625 296.449219 156.917969 296.457031 156.921875 296.464844 C 157 296.515625 157.085938 296.570312 157.175781 296.617188 C 157.175781 296.617188 157.179688 296.617188 157.179688 296.625 C 157.3125 296.695312 157.457031 296.75 157.605469 296.792969 C 157.613281 296.792969 157.613281 296.792969 157.617188 296.792969 C 157.714844 296.824219 157.816406 296.839844 157.910156 296.851562 C 157.917969 296.851562 157.929688 296.851562 157.933594 296.851562 C 157.976562 296.859375 158.011719 296.863281 158.054688 296.863281 C 158.066406 296.863281 158.078125 296.863281 158.089844 296.863281 C 158.140625 296.871094 158.1875 296.871094 158.234375 296.871094 L 193.152344 296.871094 C 194.429688 296.871094 195.460938 295.839844 195.460938 294.5625 L 195.460938 268.921875 C 195.472656 267.648438 194.441406 266.617188 193.164062 266.617188 Z M 190.855469 271.230469 L 190.855469 283.488281 L 185.332031 279.496094 C 184.398438 278.820312 183.109375 278.9375 182.3125 279.769531 L 178.011719 284.277344 L 172.582031 275.839844 C 172.167969 275.191406 171.460938 274.796875 170.695312 274.777344 C 169.929688 274.761719 169.203125 275.125 168.757812 275.75 L 160.5625 287.324219 L 160.5625 271.226562 L 190.855469 271.226562 Z M 170.546875 281.210938 L 175.640625 289.128906 C 175.664062 289.167969 175.6875 289.203125 175.710938 289.246094 L 177.660156 292.269531 L 162.710938 292.269531 Z M 190.855469 292.269531 L 183.148438 292.269531 L 180.578125 288.269531 L 184.257812 284.410156 L 190.855469 289.175781 Z M 190.855469 292.269531 "
          fill-opacity="1" fill-rule="nonzero"/>
    <path fill="#b277d3"
          d="M 182.449219 275.953125 C 182.449219 276.210938 182.398438 276.457031 182.300781 276.691406 C 182.203125 276.929688 182.0625 277.136719 181.882812 277.316406 C 181.703125 277.5 181.492188 277.636719 181.257812 277.738281 C 181.019531 277.835938 180.773438 277.882812 180.519531 277.882812 C 180.261719 277.882812 180.015625 277.835938 179.78125 277.738281 C 179.542969 277.636719 179.335938 277.5 179.152344 277.316406 C 178.972656 277.136719 178.832031 276.929688 178.734375 276.691406 C 178.636719 276.457031 178.589844 276.210938 178.589844 275.953125 C 178.589844 275.699219 178.636719 275.453125 178.734375 275.214844 C 178.832031 274.980469 178.972656 274.769531 179.152344 274.589844 C 179.335938 274.40625 179.542969 274.269531 179.78125 274.171875 C 180.015625 274.074219 180.261719 274.023438 180.519531 274.023438 C 180.773438 274.023438 181.019531 274.074219 181.257812 274.171875 C 181.492188 274.269531 181.703125 274.40625 181.882812 274.589844 C 182.0625 274.769531 182.203125 274.980469 182.300781 275.214844 C 182.398438 275.453125 182.449219 275.699219 182.449219 275.953125 Z M 182.449219 275.953125 "
          fill-opacity="1" fill-rule="nonzero"/>
    <g clip-path="url(#fed4a41961)">
        <path fill="#b277d3"
              d="M 79.859375 175.449219 C 81.820312 177.410156 84.109375 178.957031 86.65625 180.027344 C 89.292969 181.144531 92.089844 181.707031 94.980469 181.707031 C 97.871094 181.707031 100.667969 181.144531 103.304688 180.027344 C 105.851562 178.949219 108.136719 177.410156 110.101562 175.449219 C 112.066406 173.488281 113.609375 171.199219 114.679688 168.652344 C 115.796875 166.015625 116.359375 163.21875 116.359375 160.328125 C 116.359375 157.445312 115.796875 154.640625 114.679688 152.003906 C 113.9375 150.242188 112.972656 148.609375 111.796875 147.117188 C 112.0625 147.304688 112.363281 147.402344 112.667969 147.402344 C 113.109375 147.402344 113.546875 147.207031 113.84375 146.832031 C 114.535156 145.949219 115.261719 145.074219 116 144.222656 C 116.539062 143.59375 116.46875 142.652344 115.84375 142.109375 C 115.214844 141.570312 114.273438 141.640625 113.726562 142.265625 C 112.96875 143.144531 112.21875 144.054688 111.492188 144.96875 C 111.132812 145.417969 111.078125 146.015625 111.300781 146.507812 C 110.921875 146.058594 110.519531 145.625 110.101562 145.207031 C 108.140625 143.246094 105.851562 141.699219 103.304688 140.628906 C 100.667969 139.511719 97.871094 138.949219 94.980469 138.949219 C 92.089844 138.949219 89.292969 139.511719 86.65625 140.628906 C 84.109375 141.707031 81.824219 143.246094 79.859375 145.207031 C 77.894531 147.167969 76.351562 149.457031 75.28125 152.003906 C 74.164062 154.640625 73.601562 157.4375 73.601562 160.328125 C 73.601562 163.210938 74.164062 166.015625 75.28125 168.652344 C 76.351562 171.199219 77.894531 173.488281 79.859375 175.449219 Z M 83.121094 148.480469 C 86.285156 145.316406 90.496094 143.570312 94.972656 143.570312 C 99.453125 143.570312 103.664062 145.316406 106.828125 148.480469 C 109.992188 151.644531 111.738281 155.855469 111.738281 160.335938 C 111.738281 164.8125 109.992188 169.023438 106.828125 172.1875 C 103.664062 175.355469 99.453125 177.097656 94.972656 177.097656 C 90.496094 177.097656 86.285156 175.355469 83.121094 172.1875 C 79.953125 169.023438 78.210938 164.8125 78.210938 160.335938 C 78.210938 155.855469 79.953125 151.648438 83.121094 148.480469 Z M 83.121094 148.480469 "
              fill-opacity="1" fill-rule="nonzero"/>
    </g>
    <path fill="#b277d3"
          d="M 86.625 172.566406 C 86.984375 172.769531 87.378906 172.878906 87.777344 172.878906 C 88.171875 172.878906 88.574219 172.777344 88.925781 172.566406 L 106.65625 162.332031 C 107.367188 161.917969 107.804688 161.15625 107.804688 160.335938 C 107.804688 159.511719 107.367188 158.746094 106.65625 158.339844 L 88.925781 148.101562 C 88.214844 147.6875 87.332031 147.6875 86.621094 148.101562 C 85.90625 148.515625 85.46875 149.277344 85.46875 150.097656 L 85.46875 170.570312 C 85.476562 171.390625 85.914062 172.152344 86.625 172.566406 Z M 90.089844 154.09375 L 100.894531 160.335938 L 90.089844 166.574219 Z M 90.089844 154.09375 "
          fill-opacity="1" fill-rule="nonzero"/>
    <path fill="#b277d3"
          d="M 163.863281 117.757812 C 164.988281 119.253906 165.859375 120.902344 166.453125 122.652344 C 167.050781 124.414062 167.351562 126.242188 167.351562 128.082031 L 167.351562 128.316406 C 167.351562 129.59375 168.382812 130.625 169.660156 130.625 L 181.574219 130.625 C 182.851562 130.625 183.882812 129.59375 183.882812 128.316406 L 183.882812 128.082031 C 183.882812 126.242188 184.179688 124.414062 184.78125 122.660156 C 185.375 120.910156 186.242188 119.265625 187.363281 117.773438 C 189.289062 115.214844 190.304688 112.164062 190.304688 108.953125 C 190.304688 105.03125 188.785156 101.347656 186.015625 98.578125 C 183.246094 95.804688 179.566406 94.273438 175.652344 94.261719 C 175.640625 94.261719 175.628906 94.261719 175.621094 94.261719 C 171.730469 94.261719 168.070312 95.761719 165.308594 98.476562 C 162.539062 101.203125 160.984375 104.851562 160.933594 108.753906 C 160.890625 112.027344 161.902344 115.144531 163.863281 117.757812 Z M 165.546875 108.816406 C 165.582031 106.136719 166.644531 103.628906 168.542969 101.765625 C 170.4375 99.902344 172.949219 98.878906 175.621094 98.878906 C 175.628906 98.878906 175.632812 98.878906 175.644531 98.878906 C 178.332031 98.882812 180.855469 99.933594 182.753906 101.832031 C 184.652344 103.730469 185.695312 106.261719 185.695312 108.945312 C 185.695312 111.144531 185 113.238281 183.683594 114.992188 C 182.269531 116.875 181.167969 118.957031 180.417969 121.171875 C 179.882812 122.75 179.535156 124.367188 179.375 126.011719 L 171.871094 126.011719 C 171.707031 124.367188 171.359375 122.75 170.820312 121.167969 C 170.070312 118.957031 168.96875 116.875 167.554688 114.988281 C 166.210938 113.195312 165.515625 111.0625 165.546875 108.816406 Z M 165.546875 108.816406 "
          fill-opacity="1" fill-rule="nonzero"/>
    <path fill="#b277d3"
          d="M 183.921875 134.789062 C 183.921875 133.515625 182.890625 132.484375 181.617188 132.484375 L 169.632812 132.484375 C 168.359375 132.484375 167.328125 133.515625 167.328125 134.789062 C 167.328125 136.066406 168.359375 137.097656 169.632812 137.097656 L 181.617188 137.097656 C 182.886719 137.097656 183.921875 136.066406 183.921875 134.789062 Z M 183.921875 134.789062 "
          fill-opacity="1" fill-rule="nonzero"/>
    <path fill="#b277d3"
          d="M 170.996094 138.777344 C 169.71875 138.777344 168.6875 139.808594 168.6875 141.082031 C 168.6875 142.359375 169.71875 143.390625 170.996094 143.390625 L 171.816406 143.390625 C 171.953125 144.425781 173.585938 145.242188 175.566406 145.242188 C 177.558594 145.242188 179.183594 144.425781 179.320312 143.390625 L 180.175781 143.390625 C 181.453125 143.390625 182.484375 142.359375 182.484375 141.082031 C 182.484375 139.808594 181.453125 138.777344 180.175781 138.777344 Z M 170.996094 138.777344 "
          fill-opacity="1" fill-rule="nonzero"/>
    <path fill="#b277d3"
          d="M 194.691406 108.113281 C 194.691406 109.390625 195.722656 110.421875 197 110.421875 L 203.382812 110.421875 C 204.660156 110.421875 205.691406 109.390625 205.691406 108.113281 C 205.691406 106.835938 204.660156 105.804688 203.382812 105.804688 L 197 105.804688 C 195.730469 105.804688 194.691406 106.835938 194.691406 108.113281 Z M 194.691406 108.113281 "
          fill-opacity="1" fill-rule="nonzero"/>
    <path fill="#b277d3"
          d="M 148.035156 110.421875 L 154.417969 110.421875 C 155.695312 110.421875 156.726562 109.390625 156.726562 108.113281 C 156.726562 106.835938 155.695312 105.804688 154.417969 105.804688 L 148.035156 105.804688 C 146.757812 105.804688 145.726562 106.835938 145.726562 108.113281 C 145.726562 109.382812 146.765625 110.421875 148.035156 110.421875 Z M 148.035156 110.421875 "
          fill-opacity="1" fill-rule="nonzero"/>
    <path fill="#b277d3"
          d="M 189.136719 121.539062 C 188.238281 122.4375 188.238281 123.898438 189.136719 124.800781 L 193.648438 129.3125 C 194.101562 129.761719 194.691406 129.988281 195.28125 129.988281 C 195.875 129.988281 196.460938 129.761719 196.910156 129.3125 C 197.808594 128.414062 197.808594 126.949219 196.910156 126.050781 L 192.398438 121.539062 C 191.5 120.632812 190.035156 120.632812 189.136719 121.539062 Z M 189.136719 121.539062 "
          fill-opacity="1" fill-rule="nonzero"/>
    <path fill="#b277d3"
          d="M 159.019531 94.6875 C 159.46875 95.136719 160.0625 95.367188 160.652344 95.367188 C 161.238281 95.367188 161.832031 95.136719 162.28125 94.6875 C 163.179688 93.789062 163.179688 92.328125 162.28125 91.429688 L 157.769531 86.914062 C 156.867188 86.015625 155.40625 86.015625 154.507812 86.914062 C 153.609375 87.8125 153.609375 89.277344 154.507812 90.175781 Z M 159.019531 94.6875 "
          fill-opacity="1" fill-rule="nonzero"/>
    <g clip-path="url(#4ebf43fce6)">
        <path fill="#b277d3"
              d="M 175.710938 89.125 C 176.988281 89.125 178.019531 88.09375 178.019531 86.820312 L 178.019531 80.4375 C 178.019531 79.160156 176.988281 78.128906 175.710938 78.128906 C 174.433594 78.128906 173.40625 79.160156 173.40625 80.4375 L 173.40625 86.820312 C 173.40625 88.09375 174.433594 89.125 175.710938 89.125 Z M 175.710938 89.125 "
              fill-opacity="1" fill-rule="nonzero"/>
    </g>
    <path fill="#b277d3"
          d="M 190.765625 95.367188 C 191.359375 95.367188 191.949219 95.136719 192.398438 94.6875 L 196.910156 90.175781 C 197.808594 89.277344 197.808594 87.8125 196.910156 86.914062 C 196.011719 86.015625 194.550781 86.015625 193.648438 86.914062 L 189.136719 91.429688 C 188.238281 92.328125 188.238281 93.789062 189.136719 94.6875 C 189.585938 95.136719 190.175781 95.367188 190.765625 95.367188 Z M 190.765625 95.367188 "
          fill-opacity="1" fill-rule="nonzero"/>
    <path fill="#b277d3"
          d="M 156.144531 129.988281 C 156.738281 129.988281 157.324219 129.761719 157.773438 129.3125 L 162.285156 124.800781 C 163.1875 123.898438 163.1875 122.4375 162.285156 121.539062 C 161.386719 120.640625 159.925781 120.640625 159.027344 121.539062 L 154.511719 126.050781 C 153.613281 126.949219 153.613281 128.414062 154.511719 129.3125 C 154.960938 129.761719 155.550781 129.988281 156.144531 129.988281 Z M 156.144531 129.988281 "
          fill-opacity="1" fill-rule="nonzero"/>
    <path fill="#b277d3"
          d="M 169.722656 112.777344 L 171.558594 113.976562 C 172.324219 114.472656 173.316406 114.472656 174.082031 113.976562 L 174.65625 113.597656 L 175.234375 113.976562 C 176 114.472656 176.988281 114.472656 177.753906 113.976562 L 178.332031 113.597656 L 178.90625 113.976562 C 179.296875 114.226562 179.734375 114.351562 180.164062 114.351562 C 180.921875 114.351562 181.65625 113.980469 182.101562 113.304688 C 182.796875 112.238281 182.496094 110.804688 181.429688 110.109375 L 179.597656 108.910156 C 178.828125 108.414062 177.839844 108.414062 177.074219 108.910156 L 176.496094 109.289062 L 175.921875 108.910156 C 175.15625 108.414062 174.164062 108.414062 173.398438 108.910156 L 172.824219 109.289062 L 172.246094 108.910156 C 171.179688 108.214844 169.75 108.515625 169.054688 109.582031 C 168.359375 110.65625 168.65625 112.082031 169.722656 112.777344 Z M 169.722656 112.777344 "
          fill-opacity="1" fill-rule="nonzero"/>
    <path fill="#b277d3"
          d="M 263.058594 230.476562 L 241.035156 230.476562 C 239.757812 230.476562 238.726562 231.507812 238.726562 232.78125 L 238.726562 249.625 C 237.640625 249.191406 236.445312 248.964844 235.207031 248.964844 C 233.148438 248.964844 231.179688 249.605469 229.675781 250.769531 C 228.023438 252.050781 227.074219 253.875 227.074219 255.78125 C 227.074219 257.6875 228.023438 259.511719 229.675781 260.796875 C 231.179688 261.957031 233.140625 262.601562 235.207031 262.601562 C 237.277344 262.601562 239.238281 261.957031 240.742188 260.796875 C 242.394531 259.511719 243.34375 257.691406 243.34375 255.78125 L 243.34375 242.242188 L 260.753906 242.242188 L 260.753906 249.625 C 259.667969 249.191406 258.46875 248.964844 257.234375 248.964844 C 255.171875 248.964844 253.207031 249.605469 251.703125 250.769531 C 250.046875 252.050781 249.101562 253.875 249.101562 255.78125 C 249.101562 257.6875 250.046875 259.511719 251.703125 260.796875 C 253.207031 261.957031 255.167969 262.601562 257.234375 262.601562 C 259.300781 262.601562 261.261719 261.957031 262.765625 260.796875 C 264.421875 259.511719 265.367188 257.691406 265.367188 255.78125 L 265.367188 232.78125 C 265.367188 231.507812 264.335938 230.476562 263.058594 230.476562 Z M 235.207031 257.984375 C 233.136719 257.984375 231.691406 256.824219 231.691406 255.78125 C 231.691406 254.738281 233.136719 253.574219 235.207031 253.574219 C 237.28125 253.574219 238.726562 254.738281 238.726562 255.78125 C 238.726562 256.824219 237.28125 257.984375 235.207031 257.984375 Z M 243.34375 237.632812 L 243.34375 235.085938 L 260.753906 235.085938 L 260.753906 237.632812 Z M 257.234375 257.984375 C 255.160156 257.984375 253.714844 256.824219 253.714844 255.78125 C 253.714844 254.738281 255.160156 253.574219 257.234375 253.574219 C 259.308594 253.574219 260.753906 254.738281 260.753906 255.78125 C 260.753906 256.824219 259.308594 257.984375 257.234375 257.984375 Z M 257.234375 257.984375 "
          fill-opacity="1" fill-rule="nonzero"/>
    <path fill="#b277d3"
          d="M 162.449219 191.476562 L 198.074219 191.476562 C 199.351562 191.476562 200.382812 190.445312 200.382812 189.167969 C 200.382812 187.890625 199.351562 186.859375 198.074219 186.859375 L 162.449219 186.859375 C 161.171875 186.859375 160.140625 187.890625 160.140625 189.167969 C 160.140625 190.445312 161.179688 191.476562 162.449219 191.476562 Z M 162.449219 191.476562 "
          fill-opacity="1" fill-rule="nonzero"/>
    <path fill="#b277d3"
          d="M 162.449219 204.109375 L 198.074219 204.109375 C 199.351562 204.109375 200.382812 203.078125 200.382812 201.804688 C 200.382812 200.527344 199.351562 199.496094 198.074219 199.496094 L 162.449219 199.496094 C 161.171875 199.496094 160.140625 200.527344 160.140625 201.804688 C 160.140625 203.078125 161.179688 204.109375 162.449219 204.109375 Z M 162.449219 204.109375 "
          fill-opacity="1" fill-rule="nonzero"/>
    <path fill="#b277d3"
          d="M 136.933594 192.421875 C 132.308594 190.59375 127.050781 192.867188 125.222656 197.5 C 124.335938 199.742188 124.378906 202.191406 125.335938 204.410156 C 126.296875 206.621094 128.058594 208.328125 130.300781 209.214844 C 131.371094 209.640625 132.5 209.851562 133.621094 209.851562 C 134.835938 209.851562 136.054688 209.601562 137.203125 209.101562 C 139.414062 208.144531 141.125 206.382812 142.011719 204.140625 C 143.839844 199.507812 141.5625 194.25 136.933594 192.421875 Z M 137.714844 202.4375 C 137.28125 203.535156 136.449219 204.398438 135.363281 204.867188 C 134.285156 205.332031 133.085938 205.351562 131.988281 204.917969 C 130.894531 204.488281 130.03125 203.65625 129.5625 202.570312 C 129.09375 201.492188 129.078125 200.292969 129.507812 199.195312 C 130.191406 197.464844 131.859375 196.410156 133.613281 196.410156 C 134.152344 196.410156 134.699219 196.511719 135.230469 196.71875 C 137.496094 197.609375 138.605469 200.171875 137.714844 202.4375 Z M 137.714844 202.4375 "
          fill-opacity="1" fill-rule="nonzero"/>
    <path fill="#b277d3"
          d="M 233.9375 190.839844 C 234.046875 190.683594 234.128906 190.523438 234.195312 190.355469 L 239.480469 182.738281 C 240.207031 181.6875 239.949219 180.25 238.902344 179.523438 L 230.832031 173.925781 C 230.332031 173.578125 229.710938 173.441406 229.109375 173.550781 C 228.507812 173.65625 227.96875 174 227.621094 174.503906 L 222.023438 182.570312 L 213.09375 195.433594 L 213.09375 183.371094 C 213.09375 182.761719 212.847656 182.175781 212.414062 181.742188 L 195.25 164.578125 C 195.214844 164.542969 195.179688 164.511719 195.144531 164.476562 C 195.128906 164.46875 195.125 164.457031 195.113281 164.453125 C 195.078125 164.421875 195.039062 164.390625 195.003906 164.367188 C 195 164.363281 194.992188 164.363281 194.992188 164.355469 C 194.949219 164.324219 194.914062 164.300781 194.871094 164.273438 C 194.859375 164.265625 194.847656 164.253906 194.835938 164.246094 C 194.800781 164.222656 194.757812 164.199219 194.722656 164.183594 C 194.71875 164.175781 194.710938 164.175781 194.707031 164.171875 C 194.664062 164.144531 194.621094 164.128906 194.574219 164.105469 C 194.5625 164.097656 194.550781 164.09375 194.53125 164.085938 C 194.488281 164.066406 194.449219 164.050781 194.40625 164.039062 C 194.398438 164.039062 194.394531 164.03125 194.394531 164.03125 C 194.34375 164.015625 194.304688 164.003906 194.253906 163.992188 C 194.242188 163.984375 194.230469 163.984375 194.214844 163.976562 C 194.171875 163.964844 194.128906 163.953125 194.082031 163.949219 C 194.074219 163.949219 194.070312 163.949219 194.0625 163.941406 C 194.015625 163.929688 193.96875 163.925781 193.921875 163.917969 C 193.90625 163.917969 193.890625 163.914062 193.878906 163.914062 C 193.835938 163.90625 193.792969 163.90625 193.753906 163.898438 C 193.746094 163.898438 193.734375 163.898438 193.726562 163.898438 C 193.6875 163.898438 193.648438 163.894531 193.609375 163.894531 L 149.722656 163.894531 C 148.449219 163.894531 147.417969 164.925781 147.417969 166.203125 L 147.417969 182.484375 C 146.757812 182.097656 145.925781 182.046875 145.21875 182.402344 L 140.882812 184.546875 L 139.429688 183.972656 L 137.730469 179.441406 C 137.394531 178.535156 136.53125 177.941406 135.566406 177.941406 C 135.554688 177.941406 135.542969 177.941406 135.53125 177.941406 L 130.941406 178.015625 C 129.964844 178.03125 129.105469 178.65625 128.789062 179.585938 L 127.242188 184.171875 L 125.804688 184.792969 L 121.398438 182.785156 C 120.511719 182.378906 119.464844 182.574219 118.785156 183.28125 L 115.59375 186.578125 C 114.914062 187.28125 114.746094 188.335938 115.183594 189.210938 L 117.328125 193.542969 L 116.753906 195 L 112.222656 196.695312 C 111.304688 197.039062 110.707031 197.917969 110.726562 198.894531 L 110.796875 203.488281 C 110.816406 204.464844 111.4375 205.320312 112.367188 205.636719 L 116.953125 207.183594 L 117.574219 208.625 L 115.566406 213.027344 C 115.160156 213.914062 115.359375 214.964844 116.066406 215.640625 L 119.363281 218.835938 C 120.0625 219.511719 121.117188 219.679688 121.992188 219.242188 L 126.324219 217.097656 L 127.78125 217.671875 L 129.480469 222.203125 C 129.8125 223.109375 130.675781 223.703125 131.640625 223.703125 C 131.65625 223.703125 131.667969 223.703125 131.679688 223.703125 L 136.269531 223.632812 C 137.246094 223.613281 138.101562 222.988281 138.421875 222.0625 L 139.96875 217.476562 L 141.40625 216.851562 L 145.8125 218.859375 C 146.332031 219.09375 146.902344 219.128906 147.421875 218.972656 L 147.421875 242.78125 C 147.421875 244.054688 148.453125 245.085938 149.730469 245.085938 L 210.78125 245.085938 C 212.054688 245.085938 213.085938 244.054688 213.085938 242.78125 L 213.085938 220.867188 Z M 203.417969 221.011719 L 204.433594 221.714844 L 203.402344 222.113281 Z M 208.71875 219.070312 L 204.390625 216.0625 L 224.5 187.09375 L 228.824219 190.105469 Z M 230.097656 179.035156 L 234.371094 182 L 231.402344 186.273438 L 227.128906 183.308594 Z M 204.347656 180.324219 L 195.921875 180.324219 L 195.921875 171.816406 Z M 145.296875 209.234375 L 147.175781 213.027344 L 146.25 213.988281 L 142.394531 212.230469 C 141.800781 211.960938 141.117188 211.957031 140.519531 212.214844 L 137.199219 213.652344 C 136.597656 213.910156 136.136719 214.414062 135.925781 215.03125 L 134.574219 219.046875 L 133.238281 219.070312 L 131.757812 215.101562 C 131.527344 214.492188 131.050781 214.003906 130.445312 213.765625 L 127.082031 212.433594 C 126.476562 212.195312 125.792969 212.226562 125.210938 212.511719 L 121.417969 214.394531 L 120.457031 213.464844 L 122.214844 209.613281 C 122.484375 209.019531 122.492188 208.335938 122.234375 207.734375 L 120.792969 204.414062 C 120.535156 203.816406 120.03125 203.355469 119.414062 203.144531 L 115.398438 201.789062 L 115.375 200.453125 L 119.34375 198.972656 C 119.957031 198.746094 120.441406 198.265625 120.679688 197.660156 L 122.011719 194.300781 C 122.25 193.695312 122.21875 193.011719 121.933594 192.429688 L 120.050781 188.636719 L 120.980469 187.675781 L 124.832031 189.433594 C 125.425781 189.703125 126.109375 189.707031 126.710938 189.449219 L 130.03125 188.011719 C 130.628906 187.753906 131.089844 187.25 131.300781 186.632812 L 132.65625 182.617188 L 133.992188 182.59375 L 135.472656 186.5625 C 135.699219 187.171875 136.179688 187.660156 136.785156 187.898438 L 140.148438 189.230469 C 140.148438 189.230469 140.148438 189.230469 140.152344 189.230469 C 140.175781 189.242188 140.199219 189.246094 140.226562 189.257812 C 140.273438 189.277344 140.316406 189.289062 140.363281 189.300781 C 140.394531 189.3125 140.429688 189.320312 140.464844 189.324219 C 140.46875 189.324219 140.46875 189.324219 140.46875 189.324219 C 140.5 189.332031 140.535156 189.335938 140.566406 189.34375 C 140.574219 189.34375 140.574219 189.34375 140.578125 189.34375 C 140.609375 189.347656 140.644531 189.355469 140.675781 189.359375 C 140.679688 189.359375 140.6875 189.359375 140.691406 189.359375 C 140.722656 189.367188 140.753906 189.367188 140.78125 189.371094 C 140.789062 189.371094 140.800781 189.371094 140.804688 189.371094 C 140.835938 189.371094 140.859375 189.378906 140.890625 189.378906 C 140.902344 189.378906 140.914062 189.378906 140.921875 189.378906 C 140.945312 189.378906 140.96875 189.378906 140.992188 189.378906 C 141.003906 189.378906 141.023438 189.378906 141.035156 189.378906 C 141.050781 189.378906 141.074219 189.378906 141.09375 189.378906 C 141.113281 189.378906 141.128906 189.378906 141.148438 189.378906 C 141.164062 189.378906 141.179688 189.378906 141.195312 189.371094 C 141.21875 189.371094 141.242188 189.367188 141.261719 189.367188 C 141.273438 189.367188 141.285156 189.359375 141.296875 189.359375 C 141.320312 189.355469 141.351562 189.355469 141.375 189.347656 C 141.382812 189.347656 141.394531 189.34375 141.398438 189.34375 C 141.429688 189.335938 141.460938 189.332031 141.484375 189.324219 C 141.488281 189.324219 141.496094 189.324219 141.5 189.320312 C 141.53125 189.3125 141.5625 189.304688 141.589844 189.292969 C 141.597656 189.292969 141.601562 189.289062 141.609375 189.289062 C 141.640625 189.28125 141.667969 189.269531 141.699219 189.257812 C 141.707031 189.257812 141.710938 189.253906 141.71875 189.253906 C 141.746094 189.242188 141.777344 189.234375 141.808594 189.222656 C 141.820312 189.214844 141.832031 189.210938 141.84375 189.210938 C 141.867188 189.199219 141.898438 189.191406 141.921875 189.179688 C 141.949219 189.167969 141.988281 189.152344 142.015625 189.140625 L 145.8125 187.257812 L 146.769531 188.1875 L 145.011719 192.039062 C 144.742188 192.632812 144.738281 193.316406 144.996094 193.914062 L 146.433594 197.234375 C 146.644531 197.722656 146.996094 198.09375 147.421875 198.332031 L 147.421875 202.910156 C 147.039062 203.164062 146.722656 203.535156 146.542969 203.992188 L 145.210938 207.351562 C 144.976562 207.96875 145.007812 208.648438 145.296875 209.234375 Z M 152.042969 240.472656 L 152.042969 214.46875 C 152.34375 213.84375 152.355469 213.105469 152.042969 212.464844 L 152.042969 168.519531 L 191.3125 168.519531 L 191.3125 182.636719 C 191.3125 183.914062 192.34375 184.941406 193.621094 184.941406 L 208.476562 184.941406 L 208.476562 201.839844 C 208.476562 201.917969 208.484375 201.996094 208.488281 202.074219 L 200.308594 213.851562 C 200.050781 212.855469 199.152344 212.117188 198.074219 212.117188 L 162.449219 212.117188 C 161.171875 212.117188 160.140625 213.148438 160.140625 214.425781 C 160.140625 215.703125 161.171875 216.734375 162.449219 216.734375 L 198.074219 216.734375 C 198.355469 216.734375 198.617188 216.683594 198.871094 216.589844 C 198.871094 216.601562 198.871094 216.605469 198.871094 216.617188 L 198.738281 224.839844 C 198.527344 224.777344 198.300781 224.746094 198.074219 224.746094 L 162.449219 224.746094 C 161.171875 224.746094 160.140625 225.777344 160.140625 227.054688 C 160.140625 228.328125 161.171875 229.359375 162.449219 229.359375 L 198.074219 229.359375 C 199.128906 229.359375 200.015625 228.652344 200.292969 227.695312 C 200.53125 227.777344 200.78125 227.820312 201.039062 227.820312 C 201.320312 227.820312 201.609375 227.765625 201.878906 227.664062 L 208.476562 225.082031 L 208.476562 240.472656 Z M 152.042969 240.472656 "
          fill-opacity="1" fill-rule="nonzero"/>
    <path fill="#b277d3"
          d="M 199.53125 118.34375 C 200.195312 118.34375 200.800781 117.894531 200.980469 117.222656 C 201.191406 116.421875 200.710938 115.605469 199.90625 115.394531 C 198.78125 115.101562 197.628906 114.828125 196.496094 114.582031 C 195.6875 114.40625 194.890625 114.917969 194.71875 115.726562 C 194.542969 116.535156 195.054688 117.332031 195.863281 117.503906 C 196.957031 117.746094 198.066406 118.007812 199.152344 118.289062 C 199.277344 118.328125 199.402344 118.34375 199.53125 118.34375 Z M 199.53125 118.34375 "
          fill-opacity="1" fill-rule="nonzero"/>
    <path fill="#b277d3"
          d="M 217.671875 125.632812 C 219.578125 126.667969 221.464844 127.800781 223.289062 128.988281 C 223.539062 129.15625 223.828125 129.234375 224.101562 129.234375 C 224.59375 129.234375 225.074219 128.996094 225.363281 128.558594 C 225.816406 127.863281 225.621094 126.933594 224.925781 126.484375 C 223.035156 125.25 221.082031 124.078125 219.105469 123 C 218.378906 122.605469 217.46875 122.875 217.074219 123.601562 C 216.675781 124.324219 216.945312 125.238281 217.671875 125.632812 Z M 217.671875 125.632812 "
          fill-opacity="1" fill-rule="nonzero"/>
    <path fill="#b277d3"
          d="M 228.753906 132.882812 C 230.46875 134.214844 232.152344 135.636719 233.757812 137.097656 C 234.046875 137.363281 234.40625 137.488281 234.765625 137.488281 C 235.171875 137.488281 235.582031 137.324219 235.875 136.996094 C 236.429688 136.382812 236.390625 135.4375 235.777344 134.878906 C 234.113281 133.363281 232.367188 131.894531 230.59375 130.515625 C 229.941406 130.007812 229 130.128906 228.488281 130.78125 C 227.980469 131.433594 228.101562 132.375 228.753906 132.882812 Z M 228.753906 132.882812 "
          fill-opacity="1" fill-rule="nonzero"/>
    <path fill="#b277d3"
          d="M 204.652344 118.34375 C 204.378906 119.125 204.792969 119.980469 205.570312 120.257812 C 207.621094 120.976562 209.664062 121.785156 211.65625 122.664062 C 211.851562 122.753906 212.054688 122.796875 212.261719 122.796875 C 212.835938 122.796875 213.378906 122.46875 213.632812 121.90625 C 213.96875 121.148438 213.625 120.261719 212.871094 119.925781 C 210.808594 119.015625 208.695312 118.175781 206.566406 117.425781 C 205.78125 117.152344 204.929688 117.558594 204.652344 118.34375 Z M 204.652344 118.34375 "
          fill-opacity="1" fill-rule="nonzero"/>
    <path fill="#b277d3"
          d="M 240.789062 144.335938 C 241.082031 144.683594 241.5 144.859375 241.925781 144.859375 C 242.273438 144.859375 242.621094 144.738281 242.90625 144.5 C 243.535156 143.960938 243.605469 143.011719 243.066406 142.382812 C 242.3125 141.503906 241.519531 140.621094 240.730469 139.769531 C 240.164062 139.164062 239.21875 139.128906 238.613281 139.699219 C 238.007812 140.261719 237.976562 141.210938 238.542969 141.816406 C 239.300781 142.640625 240.058594 143.488281 240.789062 144.335938 Z M 240.789062 144.335938 "
          fill-opacity="1" fill-rule="nonzero"/>
    <path fill="#b277d3"
          d="M 119.625 139.65625 C 120.003906 139.65625 120.386719 139.511719 120.675781 139.226562 C 122.257812 137.671875 123.921875 136.164062 125.625 134.742188 C 126.261719 134.207031 126.34375 133.269531 125.816406 132.632812 C 125.285156 131.996094 124.34375 131.914062 123.707031 132.441406 C 121.945312 133.914062 120.21875 135.480469 118.578125 137.085938 C 117.988281 137.667969 117.976562 138.613281 118.558594 139.207031 C 118.847656 139.507812 119.234375 139.65625 119.625 139.65625 Z M 119.625 139.65625 "
          fill-opacity="1" fill-rule="nonzero"/>
    <path fill="#b277d3"
          d="M 130.199219 130.847656 C 130.496094 130.847656 130.796875 130.757812 131.0625 130.570312 C 132.878906 129.292969 134.765625 128.078125 136.675781 126.949219 C 137.390625 126.53125 137.628906 125.613281 137.210938 124.902344 C 136.789062 124.1875 135.875 123.949219 135.160156 124.367188 C 133.183594 125.53125 131.222656 126.796875 129.339844 128.113281 C 128.664062 128.585938 128.5 129.523438 128.976562 130.199219 C 129.261719 130.625 129.722656 130.847656 130.199219 130.847656 Z M 130.199219 130.847656 "
          fill-opacity="1" fill-rule="nonzero"/>
    <path fill="#b277d3"
          d="M 142.070312 123.882812 C 142.285156 123.882812 142.507812 123.835938 142.71875 123.730469 C 144.714844 122.773438 146.78125 121.878906 148.847656 121.082031 C 149.621094 120.785156 150.007812 119.921875 149.710938 119.148438 C 149.414062 118.375 148.550781 117.992188 147.777344 118.285156 C 145.632812 119.105469 143.492188 120.027344 141.421875 121.03125 C 140.679688 121.390625 140.363281 122.28125 140.722656 123.03125 C 140.972656 123.566406 141.511719 123.882812 142.070312 123.882812 Z M 142.070312 123.882812 "
          fill-opacity="1" fill-rule="nonzero"/>
    <path fill="#b277d3"
          d="M 155.339844 118.894531 C 156.417969 118.585938 157.515625 118.289062 158.605469 118.019531 C 159.410156 117.824219 159.902344 117.015625 159.703125 116.210938 C 159.503906 115.40625 158.695312 114.917969 157.894531 115.113281 C 156.761719 115.390625 155.621094 115.695312 154.507812 116.023438 C 153.710938 116.257812 153.253906 117.085938 153.488281 117.882812 C 153.679688 118.535156 154.28125 118.960938 154.925781 118.960938 C 155.058594 118.957031 155.203125 118.9375 155.339844 118.894531 Z M 155.339844 118.894531 "
          fill-opacity="1" fill-rule="nonzero"/>
    <path fill="#b277d3"
          d="M 96.710938 222.71875 C 96.910156 223.367188 97.503906 223.785156 98.144531 223.785156 C 98.289062 223.785156 98.433594 223.769531 98.582031 223.722656 C 99.375 223.480469 99.824219 222.640625 99.582031 221.851562 C 99.261719 220.777344 98.949219 219.679688 98.667969 218.589844 C 98.457031 217.789062 97.640625 217.308594 96.839844 217.519531 C 96.035156 217.726562 95.554688 218.542969 95.765625 219.34375 C 96.058594 220.464844 96.378906 221.605469 96.710938 222.71875 Z M 96.710938 222.71875 "
          fill-opacity="1" fill-rule="nonzero"/>
    <path fill="#b277d3"
          d="M 93.152344 193.863281 C 93.085938 195.210938 93.054688 196.578125 93.054688 197.929688 C 93.054688 198.6875 93.070312 199.453125 93.085938 200.203125 C 93.109375 201.019531 93.777344 201.660156 94.585938 201.660156 C 94.597656 201.660156 94.609375 201.660156 94.625 201.660156 C 95.453125 201.636719 96.105469 200.953125 96.082031 200.125 C 96.066406 199.398438 96.054688 198.65625 96.054688 197.929688 C 96.054688 196.625 96.082031 195.304688 96.144531 194.003906 C 96.179688 193.179688 95.542969 192.476562 94.71875 192.441406 C 93.894531 192.398438 93.1875 193.039062 93.152344 193.863281 Z M 93.152344 193.863281 "
          fill-opacity="1" fill-rule="nonzero"/>
    <path fill="#b277d3"
          d="M 94.382812 212.980469 C 94.511719 213.707031 95.140625 214.214844 95.855469 214.214844 C 95.945312 214.214844 96.03125 214.210938 96.121094 214.191406 C 96.933594 214.046875 97.480469 213.269531 97.328125 212.453125 C 96.976562 210.457031 96.6875 208.414062 96.484375 206.394531 C 96.402344 205.574219 95.664062 204.972656 94.84375 205.058594 C 94.023438 205.140625 93.421875 205.878906 93.507812 206.699219 C 93.714844 208.796875 94.007812 210.914062 94.382812 212.980469 Z M 94.382812 212.980469 "
          fill-opacity="1" fill-rule="nonzero"/>
    <path fill="#b277d3"
          d="M 95.191406 189.0625 C 95.933594 189.0625 96.582031 188.503906 96.675781 187.75 C 96.816406 186.632812 96.976562 185.507812 97.164062 184.398438 C 97.300781 183.582031 96.742188 182.808594 95.925781 182.679688 C 95.113281 182.539062 94.339844 183.097656 94.207031 183.914062 C 94.015625 185.0625 93.847656 186.226562 93.703125 187.382812 C 93.601562 188.203125 94.183594 188.953125 95.003906 189.054688 C 95.070312 189.054688 95.128906 189.0625 95.191406 189.0625 Z M 95.191406 189.0625 "
          fill-opacity="1" fill-rule="nonzero"/>
    <path fill="#b277d3"
          d="M 153.871094 276.523438 C 152.800781 276.1875 151.71875 275.828125 150.660156 275.449219 C 149.878906 275.175781 149.023438 275.574219 148.742188 276.355469 C 148.464844 277.132812 148.867188 277.992188 149.648438 278.273438 C 150.742188 278.664062 151.863281 279.039062 152.972656 279.382812 C 153.121094 279.429688 153.273438 279.449219 153.417969 279.449219 C 154.058594 279.449219 154.644531 279.035156 154.847656 278.394531 C 155.105469 277.609375 154.664062 276.769531 153.871094 276.523438 Z M 153.871094 276.523438 "
          fill-opacity="1" fill-rule="nonzero"/>
    <path fill="#b277d3"
          d="M 132 265.945312 C 130.113281 264.65625 128.261719 263.269531 126.488281 261.832031 C 125.847656 261.3125 124.898438 261.40625 124.378906 262.046875 C 123.855469 262.691406 123.953125 263.636719 124.59375 264.160156 C 126.433594 265.652344 128.351562 267.082031 130.3125 268.417969 C 130.570312 268.59375 130.863281 268.683594 131.15625 268.683594 C 131.636719 268.683594 132.105469 268.457031 132.398438 268.03125 C 132.859375 267.339844 132.683594 266.40625 132 265.945312 Z M 132 265.945312 "
          fill-opacity="1" fill-rule="nonzero"/>
    <path fill="#b277d3"
          d="M 144.125 272.789062 C 142.054688 271.835938 139.992188 270.789062 138 269.667969 C 137.28125 269.257812 136.363281 269.515625 135.957031 270.234375 C 135.550781 270.953125 135.808594 271.871094 136.527344 272.28125 C 138.589844 273.441406 140.726562 274.53125 142.878906 275.515625 C 143.082031 275.605469 143.292969 275.652344 143.503906 275.652344 C 144.074219 275.652344 144.613281 275.332031 144.863281 274.777344 C 145.207031 274.023438 144.875 273.136719 144.125 272.789062 Z M 144.125 272.789062 "
          fill-opacity="1" fill-rule="nonzero"/>
    <g clip-path="url(#505d2ce988)">
        <path fill="#b277d3"
              d="M 118.816406 254.75 C 118.359375 254.269531 117.660156 254.160156 117.089844 254.429688 L 117.089844 227.089844 C 117.089844 225.8125 116.058594 224.78125 114.78125 224.78125 L 76 224.78125 C 74.722656 224.78125 73.691406 225.8125 73.691406 227.089844 L 73.691406 256.871094 C 73.691406 258.148438 74.722656 259.179688 76 259.179688 L 84.84375 259.179688 L 84.84375 269.210938 C 84.84375 270.164062 85.425781 271.015625 86.3125 271.363281 C 86.582031 271.46875 86.871094 271.519531 87.152344 271.519531 C 87.789062 271.519531 88.40625 271.253906 88.847656 270.773438 L 99.515625 259.183594 L 114.78125 259.183594 C 115.925781 259.183594 116.878906 258.351562 117.058594 257.253906 C 117.738281 257.949219 118.425781 258.644531 119.121094 259.316406 C 119.414062 259.597656 119.789062 259.734375 120.164062 259.734375 C 120.554688 259.734375 120.949219 259.578125 121.242188 259.28125 C 121.820312 258.6875 121.800781 257.734375 121.207031 257.15625 C 120.394531 256.367188 119.59375 255.5625 118.816406 254.75 Z M 112.476562 254.558594 L 98.503906 254.558594 C 97.855469 254.558594 97.246094 254.828125 96.808594 255.300781 L 89.460938 263.289062 L 89.460938 256.863281 C 89.460938 255.585938 88.429688 254.558594 87.152344 254.558594 L 78.308594 254.558594 L 78.308594 229.390625 L 112.476562 229.390625 Z M 112.476562 254.558594 "
              fill-opacity="1" fill-rule="nonzero"/>
    </g>
    <path fill="#b277d3"
          d="M 228.472656 263.195312 C 227.578125 263.875 226.667969 264.554688 225.746094 265.203125 C 225.066406 265.679688 224.90625 266.617188 225.386719 267.285156 C 225.679688 267.699219 226.140625 267.921875 226.609375 267.921875 C 226.90625 267.921875 227.207031 267.832031 227.472656 267.648438 C 228.425781 266.976562 229.371094 266.273438 230.292969 265.566406 C 230.949219 265.0625 231.074219 264.121094 230.570312 263.464844 C 230.066406 262.804688 229.132812 262.691406 228.472656 263.195312 Z M 228.472656 263.195312 "
          fill-opacity="1" fill-rule="nonzero"/>
    <path fill="#b277d3"
          d="M 220.902344 268.371094 C 219.296875 269.34375 217.640625 270.273438 215.976562 271.128906 C 215.238281 271.507812 214.949219 272.410156 215.328125 273.148438 C 215.59375 273.664062 216.121094 273.964844 216.660156 273.964844 C 216.894531 273.964844 217.125 273.910156 217.34375 273.796875 C 219.070312 272.910156 220.78125 271.945312 222.449219 270.941406 C 223.15625 270.511719 223.382812 269.59375 222.953125 268.886719 C 222.53125 268.175781 221.617188 267.945312 220.902344 268.371094 Z M 220.902344 268.371094 "
          fill-opacity="1" fill-rule="nonzero"/>
    <path fill="#b277d3"
          d="M 210.742188 273.597656 C 209.023438 274.335938 207.25 275.023438 205.488281 275.640625 C 204.707031 275.917969 204.292969 276.769531 204.5625 277.546875 C 204.78125 278.164062 205.363281 278.554688 205.980469 278.554688 C 206.140625 278.554688 206.308594 278.523438 206.46875 278.472656 C 208.304688 277.828125 210.136719 277.117188 211.925781 276.355469 C 212.683594 276.03125 213.039062 275.152344 212.710938 274.390625 C 212.386719 273.621094 211.503906 273.269531 210.742188 273.597656 Z M 210.742188 273.597656 "
          fill-opacity="1" fill-rule="nonzero"/>
    <path fill="#b277d3"
          d="M 199.957031 277.355469 C 198.871094 277.648438 197.769531 277.925781 196.671875 278.175781 C 195.863281 278.363281 195.359375 279.164062 195.542969 279.96875 C 195.699219 280.664062 196.316406 281.136719 197.007812 281.136719 C 197.113281 281.136719 197.226562 281.125 197.34375 281.101562 C 198.480469 280.84375 199.625 280.554688 200.746094 280.25 C 201.542969 280.035156 202.015625 279.207031 201.800781 278.410156 C 201.574219 277.609375 200.753906 277.140625 199.957031 277.355469 Z M 199.957031 277.355469 "
          fill-opacity="1" fill-rule="nonzero"/>
    <path fill="#b277d3"
          d="M 262.4375 183.636719 C 262.300781 182.820312 261.527344 182.269531 260.710938 182.40625 C 259.894531 182.546875 259.34375 183.320312 259.480469 184.132812 C 259.667969 185.242188 259.835938 186.371094 259.972656 187.484375 C 260.070312 188.238281 260.71875 188.796875 261.460938 188.796875 C 261.519531 188.796875 261.585938 188.792969 261.652344 188.785156 C 262.472656 188.683594 263.054688 187.933594 262.953125 187.113281 C 262.800781 185.957031 262.628906 184.789062 262.4375 183.636719 Z M 262.4375 183.636719 "
          fill-opacity="1" fill-rule="nonzero"/>
    <path fill="#b277d3"
          d="M 259.878906 217.375 C 259.984375 217.398438 260.09375 217.410156 260.203125 217.410156 C 260.890625 217.410156 261.507812 216.929688 261.664062 216.230469 C 262.171875 213.886719 262.59375 211.496094 262.90625 209.109375 C 263.011719 208.289062 262.429688 207.539062 261.617188 207.429688 C 260.792969 207.324219 260.046875 207.902344 259.9375 208.71875 C 259.636719 211.015625 259.238281 213.328125 258.738281 215.585938 C 258.558594 216.398438 259.070312 217.195312 259.878906 217.375 Z M 259.878906 217.375 "
          fill-opacity="1" fill-rule="nonzero"/>
    <path fill="#b277d3"
          d="M 261.988281 203.15625 C 262.011719 203.15625 262.03125 203.15625 262.054688 203.15625 C 262.851562 203.15625 263.515625 202.527344 263.550781 201.726562 C 263.605469 200.464844 263.636719 199.195312 263.636719 197.929688 C 263.636719 196.792969 263.613281 195.636719 263.570312 194.496094 C 263.539062 193.667969 262.839844 193.023438 262.011719 193.058594 C 261.183594 193.089844 260.542969 193.789062 260.574219 194.617188 C 260.613281 195.714844 260.640625 196.828125 260.640625 197.929688 C 260.640625 199.148438 260.613281 200.382812 260.5625 201.59375 C 260.519531 202.421875 261.160156 203.121094 261.988281 203.15625 Z M 261.988281 203.15625 "
          fill-opacity="1" fill-rule="nonzero"/>
    <path fill="#b277d3"
          d="M 256.90625 222.503906 C 256.570312 223.578125 256.210938 224.65625 255.828125 225.710938 C 255.542969 226.488281 255.953125 227.347656 256.730469 227.628906 C 256.898438 227.6875 257.066406 227.71875 257.234375 227.71875 C 257.851562 227.71875 258.425781 227.335938 258.644531 226.722656 C 259.039062 225.625 259.410156 224.507812 259.757812 223.398438 C 260.003906 222.605469 259.566406 221.765625 258.773438 221.519531 C 257.988281 221.277344 257.152344 221.714844 256.90625 222.503906 Z M 256.90625 222.503906 "
          fill-opacity="1" fill-rule="nonzero"/>
    <path fill="#b277d3"
          d="M 82.71875 252.640625 C 83.917969 253.078125 85.242188 252.453125 85.671875 251.261719 L 86.578125 248.765625 L 91.769531 248.765625 L 92.671875 251.261719 C 93.015625 252.195312 93.902344 252.78125 94.84375 252.78125 C 95.105469 252.78125 95.371094 252.742188 95.628906 252.644531 C 96.675781 252.265625 97.277344 251.207031 97.125 250.144531 C 98.253906 251.855469 100.1875 252.980469 102.382812 252.980469 C 103.390625 252.980469 104.335938 252.742188 105.179688 252.320312 C 105.566406 252.609375 106.042969 252.777344 106.558594 252.777344 C 107.835938 252.777344 108.867188 251.746094 108.867188 250.46875 L 108.867188 234.855469 C 108.867188 233.578125 107.835938 232.550781 106.558594 232.550781 C 105.285156 232.550781 104.253906 233.578125 104.253906 234.855469 L 104.253906 240.660156 C 103.660156 240.472656 103.03125 240.375 102.382812 240.375 C 98.90625 240.375 96.082031 243.207031 96.082031 246.675781 C 96.082031 246.847656 96.089844 247.023438 96.105469 247.191406 L 91.34375 234.070312 C 91.011719 233.160156 90.144531 232.550781 89.171875 232.550781 C 88.203125 232.550781 87.332031 233.15625 87.003906 234.070312 L 81.339844 249.683594 C 80.902344 250.882812 81.519531 252.207031 82.71875 252.640625 Z M 102.386719 244.992188 C 103.316406 244.992188 104.074219 245.746094 104.074219 246.675781 C 104.074219 247.605469 103.316406 248.359375 102.386719 248.359375 C 101.460938 248.359375 100.703125 247.605469 100.703125 246.675781 C 100.703125 245.746094 101.460938 244.992188 102.386719 244.992188 Z M 90.097656 244.152344 L 88.261719 244.152344 L 89.179688 241.625 Z M 90.097656 244.152344 "
          fill-opacity="1" fill-rule="nonzero"/>
</svg>