<svg width="300" height="425" viewBox="0 0 300 425" fill="none" xmlns="http://www.w3.org/2000/svg">
<g filter="url(#filter0_d_7_85)">
    <path d="M135.321 275.988C143.113 272.205 155.715 268.906 164.48 267.551C167.345 267.112 165.169 268.814 163.451 270.686C162.161 272.086 155.138 276.478 153.504 277.54C147.375 281.511 145.72 283.162 139.147 286.492L135.321 275.988ZM183.346 264.436C186.027 263.917 188.553 263.002 190.998 261.939C193.379 260.902 195.926 259.77 197.891 258.147C198.552 257.592 199.042 257.074 199.191 256.257C199.33 255.539 199.139 254.618 198.615 254.044C197.614 252.929 195.399 252.326 194.056 253.437C193.295 254.08 192.411 254.598 191.525 255.096C191.278 255.238 191.007 255.363 190.76 255.504C190.677 255.552 190.573 255.601 190.491 255.648C190.658 255.573 190.762 255.524 190.472 255.67C190.409 255.696 190.348 255.741 190.285 255.766C190.324 255.723 190.387 255.698 190.45 255.672C189.847 255.966 189.264 256.239 188.658 256.495C187.509 256.999 186.335 257.468 185.132 257.88C184.584 258.071 184.035 258.262 183.483 258.415L182.781 258.601C182.93 258.567 183.017 258.558 182.718 258.627C181.84 258.812 181.101 259.061 180.516 259.706C180.009 260.264 179.669 261.14 179.792 261.852C180.015 263.258 181.567 264.788 183.346 264.436ZM182.737 258.606C182.716 258.608 182.631 258.636 182.566 258.642C182.631 258.636 182.716 258.608 182.759 258.603L182.737 258.606ZM182.354 258.702C182.373 258.681 182.46 258.672 182.545 258.644C182.48 258.651 182.395 258.679 182.354 258.702ZM221.915 246.303C216.456 246.079 211.054 246.749 205.877 248.454C204.271 248.984 203.318 250.84 204.002 252.26C204.737 253.733 206.505 254.459 208.239 253.896C209.359 253.531 210.505 253.203 211.658 252.932C211.678 252.911 211.699 252.909 211.721 252.907C211.762 252.883 211.806 252.879 211.871 252.872C212.15 252.825 212.406 252.761 212.685 252.714C213.264 252.598 213.866 252.499 214.449 252.422C215.593 252.27 216.72 252.159 217.875 252.103C218.443 252.086 218.989 252.072 219.535 252.057C219.819 252.048 220.083 252.062 220.367 252.053L220.851 252.064C221.776 252.11 222.578 252.031 223.332 251.526C223.962 251.091 224.537 250.35 224.632 249.636C224.845 248.206 223.783 246.354 221.915 246.303ZM246.224 240.341C245.797 240.834 245.347 241.309 244.87 241.747L244.792 241.833C244.733 241.898 244.632 241.966 244.59 241.99C244.35 242.19 244.107 242.37 243.843 242.553C243.294 242.94 242.744 243.307 242.146 243.64C242.083 243.666 241.778 243.873 241.55 243.993C241.632 243.946 241.632 243.946 241.403 244.047C241.214 244.124 241.049 244.218 240.861 244.296C240.276 244.549 239.667 244.785 239.054 244.983C238.737 245.092 238.44 245.181 238.122 245.271C237.972 245.305 237.803 245.361 237.654 245.395C237.631 245.388 237.598 245.391 237.566 245.394C237.347 245.396 236.861 245.552 236.709 245.567C236.386 245.618 236.061 245.65 235.738 245.702C235.001 245.774 234.282 245.806 233.539 245.821C231.829 245.814 230.386 247.6 230.613 249.045C230.892 250.76 232.349 251.634 234.188 251.628C240.739 251.627 247.24 248.637 251.258 244.013C252.305 242.794 252.24 240.843 250.799 239.909C249.423 238.969 247.351 239.056 246.224 240.341ZM275.728 192.886C273.886 193.068 272.714 194.534 272.802 196.11C272.854 197.162 272.973 198.227 273.006 199.3C273.028 200.08 273.004 200.846 273.023 201.607C273.025 201.822 273.008 202.059 272.988 202.276C272.954 202.749 272.897 203.225 272.841 203.7C272.746 204.61 272.585 205.526 272.358 206.429C272.241 206.949 272.102 207.472 271.939 207.977C271.928 208.076 271.911 208.117 271.894 208.158C271.876 208.198 271.881 208.237 271.844 208.3C271.742 208.564 271.638 208.809 271.536 209.074C271.118 210.035 270.632 210.983 270.078 211.899C270.078 211.899 269.818 212.316 269.781 212.378C269.629 212.589 269.477 212.8 269.304 213.012C268.901 213.522 268.494 213.993 268.043 214.468C266.907 215.676 267.167 217.607 268.502 218.571C269.884 219.57 271.939 219.328 273.096 218.118C276.622 214.384 278.637 209.684 279.281 204.865C279.695 201.712 279.503 198.619 279.325 195.466C279.236 193.89 277.462 192.715 275.728 192.886ZM266.63 169.34C265.252 170.337 264.816 172.122 265.904 173.424C266.131 173.695 266.318 173.99 266.526 174.282C266.632 174.448 266.736 174.594 266.842 174.76C267.115 175.242 267.388 175.724 267.639 176.208C268.235 177.421 268.751 178.701 269.158 179.991C269.225 180.2 269.269 180.392 269.334 180.581L269.338 180.62L269.611 181.884C269.8 182.785 269.901 183.695 269.981 184.607C270.107 186.121 271.854 187.436 273.557 187.19C275.347 186.935 276.599 185.598 276.482 183.965C276.212 180.567 275.282 177.156 273.729 174.041C273.022 172.623 272.225 171.175 271.187 169.928C270.173 168.697 268.006 168.324 266.63 169.34ZM264.405 163.356C265.865 162.311 266.095 160.645 265.131 159.272C262.346 155.339 259.35 151.271 254.918 148.675C254.169 148.24 253.436 147.96 252.526 148.05C251.724 148.129 250.805 148.533 250.324 149.128C249.36 150.3 249.26 152.345 250.783 153.232C251.793 153.837 252.745 154.506 253.616 155.242C253.808 155.399 254.004 155.576 254.199 155.752C254.272 155.823 254.37 155.912 254.443 155.983C254.885 156.409 255.284 156.839 255.685 157.289C257.215 159.016 258.541 160.882 259.867 162.747C260.777 164.027 263.128 164.284 264.405 163.356ZM224.952 136.583C226.373 137.148 227.777 137.753 229.164 138.399C229.881 138.739 230.577 139.081 231.273 139.423L232.319 139.966C232.436 140.033 232.529 140.082 232.646 140.149C232.694 140.183 232.763 140.216 232.857 140.265C235.522 141.763 238.075 143.429 240.491 145.246C241.784 146.234 244.042 146.05 245.085 144.792C246.166 143.492 246.012 141.726 244.626 140.689C239.529 136.847 233.804 133.655 227.706 131.243C226.148 130.633 224.048 131.251 223.381 132.726C222.668 134.186 223.279 135.927 224.952 136.583ZM197.074 131.214C199.282 129.998 202.385 129.73 205.211 130.117C208.461 130.579 211.233 131.656 214.401 132.948C215.939 133.579 218.057 132.919 218.726 131.464C219.394 129.989 218.765 128.289 217.112 127.611C213.461 126.112 209.621 124.691 205.608 124.265C201.282 123.792 196.996 124.45 193.241 126.523C191.776 127.333 191.487 129.456 192.514 130.607C193.691 131.919 195.505 132.073 197.074 131.214ZM182.112 150.422C182.868 150.719 183.904 150.773 184.658 150.464C186.377 149.766 186.999 148.276 186.541 146.736C186.554 146.852 186.589 146.966 186.624 147.08C186.539 146.716 186.544 146.364 186.524 145.994C186.559 145.716 186.593 145.439 186.65 145.159C186.678 145.02 186.747 144.856 186.773 144.697C186.771 144.678 186.791 144.656 186.789 144.637C187.096 143.863 187.515 143.097 187.937 142.371C188.785 140.937 189.701 139.535 190.25 137.974C190.512 137.185 190.674 136.484 190.323 135.696C190.031 135.04 189.363 134.362 188.633 134.102C187.836 133.828 186.906 133.744 186.087 134.06C185.352 134.347 184.535 134.878 184.286 135.588C183.608 137.553 182.288 139.269 181.334 141.124C180.777 142.216 180.318 143.397 180.099 144.573C179.824 146.029 179.956 147.405 180.398 148.81C180.604 149.475 181.399 150.12 182.112 150.422ZM188.054 156.137C187.081 154.883 184.853 154.555 183.494 155.53C182.075 156.551 181.722 158.289 182.768 159.614C185.349 162.901 188.671 165.764 192.48 167.893C193.252 168.325 193.941 168.609 194.872 168.517C195.674 168.438 196.593 168.034 197.074 167.439C197.575 166.822 197.928 166.063 197.798 165.293C197.675 164.581 197.339 163.734 196.615 163.335C194.465 162.138 192.509 160.707 190.751 159.1C189.791 158.157 188.892 157.17 188.054 156.137ZM214.792 164.633L214.748 164.637C214.831 164.59 214.893 164.564 214.976 164.517C214.828 164.571 214.701 164.603 214.553 164.657C213.307 164.878 212.003 164.967 210.763 165.05C209.264 165.159 207.777 165.189 206.286 165.179C205.497 165.179 204.552 165.742 204.084 166.258C203.577 166.817 203.237 167.692 203.361 168.404C203.488 169.154 203.835 169.903 204.544 170.361C205.278 170.856 206.015 170.979 206.936 170.986C208.732 170.985 210.501 170.928 212.304 170.789C214.41 170.62 216.586 170.484 218.395 169.424C219.834 168.578 220.172 166.509 219.121 165.341C218.001 164.14 216.265 163.901 214.792 164.633ZM226.086 163.557C226.905 163.633 227.947 163.55 228.567 163.019C231.67 160.403 234.537 157.635 237.088 154.584C237.61 153.965 237.899 153.212 237.812 152.438C237.732 151.722 237.29 150.905 236.629 150.48C235.257 149.579 233.138 149.631 232.035 150.934C229.753 153.645 227.213 156.205 224.474 158.55C224.554 158.483 224.615 158.438 224.695 158.371C224.053 158.904 223.585 159.42 223.434 160.218C223.295 160.936 223.486 161.857 224.01 162.431C224.534 163.006 225.245 163.484 226.086 163.557ZM243.917 133.185C244.715 133.458 245.644 133.542 246.463 133.227L247.211 132.859C247.679 132.539 248.032 132.172 248.264 131.699C249.827 129.411 250.848 126.786 251.275 124.141C251.407 123.364 251.205 122.543 250.698 121.927C250.219 121.368 249.396 120.862 248.599 120.784C247.734 120.694 246.806 120.824 246.117 121.323C245.469 121.798 244.951 122.456 244.817 123.213C244.689 124.028 244.472 124.832 244.21 125.621C243.718 126.902 243.09 128.139 242.301 129.313C241.887 129.921 241.961 130.971 242.227 131.59C242.498 132.248 243.163 132.907 243.917 133.185ZM251.882 114.1C253.611 114.281 255.386 113.304 255.663 111.671C255.815 110.678 256.034 109.697 256.32 108.73C256.381 108.489 256.463 108.246 256.545 108.003C256.543 107.984 256.543 107.984 256.563 107.962C256.58 107.921 256.597 107.88 256.613 107.82C256.797 107.313 257.005 106.822 257.211 106.313C257.631 105.371 258.099 104.464 258.615 103.591C258.873 103.154 259.155 102.735 259.415 102.318C259.452 102.256 259.51 102.191 259.547 102.129C259.718 101.897 259.889 101.665 260.082 101.43C261.06 100.179 261.114 98.3146 259.623 97.3266C258.297 96.4399 256.061 96.4258 255.029 97.7801C252.023 101.658 249.975 106.068 249.227 110.741C248.983 112.272 250.109 113.922 251.882 114.1ZM264.597 92.0408C266.239 92.6224 268.146 92.0427 268.922 90.557C269.34 89.7916 269.804 89.0413 270.292 88.3082C271.449 86.7065 272.795 85.2233 274.309 83.8799C274.511 83.7231 274.71 83.5468 274.912 83.3899C275.577 82.8741 276.058 82.2786 276.212 81.5002C276.351 80.782 276.16 79.8614 275.636 79.2869C275.111 78.7124 274.379 78.2367 273.536 78.1438C272.693 78.0509 271.72 78.1665 271.055 78.6823C267.648 81.328 264.894 84.5159 262.98 88.1688C262.261 89.5707 262.976 91.4572 264.597 92.0408ZM283.914 76.904C284.843 76.9884 285.611 76.7952 286.395 76.3655C286.891 76.1013 287.366 75.8391 287.864 75.5942C289.776 74.6619 291.767 73.8585 293.819 73.2058C295.447 72.6733 296.376 70.8006 295.694 69.4002C294.957 67.9073 293.191 67.2009 291.457 67.7635C288.326 68.7576 285.364 70.0872 282.538 71.6579C281.879 72.0361 281.359 72.8702 281.238 73.5476C281.099 74.2659 281.29 75.1865 281.814 75.761C282.338 76.3354 283.051 76.8326 283.914 76.904ZM264.268 222.63C262.428 222.439 260.876 223.454 260.486 225.058L260.343 225.542C260.057 226.314 259.68 227.055 259.212 227.767C258.737 228.42 258.191 229.022 257.573 229.573C256.891 230.129 256.178 230.611 255.391 231.021C254.73 231.38 254.214 232.253 254.091 232.911C253.952 233.629 254.143 234.55 254.667 235.124C255.192 235.699 255.924 236.174 256.767 236.267C257.051 236.259 257.359 236.267 257.645 236.278C258.23 236.221 258.78 236.049 259.248 235.729C263.199 233.636 265.962 229.938 266.944 225.986C267.303 224.502 265.953 222.815 264.268 222.63Z"
          fill="#7851A9"/>
    <path d="M51.2015 317.517C48.2742 310.49 49.9616 302.638 54.0684 296.027C58.2791 289.264 64.5337 283.642 71.2855 278.922C68.8633 276.672 66.4302 274.405 63.9895 272.165C61.3801 269.749 58.4975 267.424 56.3321 264.633C52.529 259.727 53.7051 253.23 59.5812 249.782C65.1876 246.468 72.206 247.903 77.2675 250.877C80.2191 252.61 82.7557 254.839 84.7598 257.427C85.5937 255.63 86.6448 253.888 87.8796 252.268C91.2278 247.916 96.6716 243.895 102.678 245.006C108.673 246.1 111.966 251.397 112.52 256.672C112.717 258.537 112.699 260.425 112.465 262.305C112.664 262.371 112.873 262.455 113.072 262.522C124.332 262.454 135.253 266.395 141.162 274.93C143.444 278.205 145.154 285.372 145.154 285.372C145.828 291.792 143.356 298.04 139.213 303.708C137.729 305.726 136.176 307.716 134.531 309.646C134.349 309.913 134.145 310.148 133.938 310.338C129.421 315.56 124.338 320.356 118.57 324.43C104.581 334.338 85.9987 339.002 69.6194 333.422C61.4794 330.648 54.3439 325.059 51.2015 317.517ZM82.9219 268.375C81.8266 263.716 79.1437 259.645 75.0069 256.748C71.8842 254.564 66.734 252.423 62.8646 254.717C58.256 257.445 61.5591 261.29 64.2124 263.772C68.3594 267.649 72.5323 271.489 76.6978 275.356C79.7138 273.517 82.8101 271.837 86.0273 270.339C84.6411 270.418 83.2691 269.823 82.9219 268.375ZM138.899 289.525C139.499 282.471 135.24 275.606 128.921 272.017C126.612 270.709 124.103 269.795 121.493 269.193C125.186 273.199 127.865 277.961 130.294 282.732C132.654 287.36 135.189 292.253 135.501 297.509C135.525 297.816 135.542 298.151 135.548 298.469C137.312 295.597 138.63 292.597 138.899 289.525ZM98.2855 251.187C92.0711 253.664 88.7464 261.72 89.2697 267.334C89.34 268.096 89.0716 268.736 88.6271 269.226C92.9848 267.357 97.4813 265.774 102.072 264.525C102.447 264.007 103.053 263.605 103.938 263.43C104.366 263.34 104.798 263.293 105.237 263.219C105.429 263.083 105.632 262.964 105.857 262.878C105.892 262.582 105.956 262.292 105.99 261.996C106.104 261.041 106.17 260.083 106.188 259.126C106.196 257.4 106.009 255.651 105.209 254.101C103.952 251.671 101.295 249.995 98.2855 251.187ZM126.852 309.149C127.485 308.479 128.126 307.782 128.785 307.074C129.399 304.327 129.192 301.235 129.072 298.505C128.893 294.066 126.734 289.894 124.751 285.986C122.654 281.869 120.411 277.493 117.298 273.973C115.865 272.358 113.486 269.555 111.372 268.385C110.756 268.426 110.122 268.476 109.517 268.533C109.169 268.783 108.759 268.978 108.217 269.089C104.768 269.852 101.306 270.828 97.9061 271.974C105.258 275.301 110.021 283.27 113.736 289.512C118.37 297.327 120.751 306.12 120.684 315.133C122.845 313.245 124.9 311.236 126.852 309.149ZM106.934 324.512C109.398 323.272 111.741 321.851 113.971 320.336C114.979 311 113.301 301.68 108.632 293.541C106.442 289.709 103.953 285.891 101.079 282.459C98.5133 279.375 95.3777 276.786 90.9681 276.298C90.1098 276.205 89.5217 275.862 89.1293 275.427C83.0057 278.194 77.233 281.606 72.0433 285.661C80.0541 287.661 85.3192 296.85 86.8284 303.676C88.8029 312.707 86.2493 322.193 80.082 329.645C89.1368 330.665 98.773 328.659 106.934 324.512ZM66.9246 325.548C68.8987 326.661 70.9882 327.523 73.1596 328.2C79.1617 322.198 82.2363 314.036 80.7688 306.153C79.6683 300.212 74.9573 289.964 66.625 291.343C66.3004 291.396 65.9983 291.367 65.7037 291.31C65.4889 291.528 65.2447 291.74 65.0409 291.974C60.634 296.512 56.6198 302.218 56.1603 308.364C55.6072 315.642 60.4876 321.935 66.9246 325.548Z"
          fill="#7851A9"/>
</g>
</svg>
