<svg width="293" height="275" viewBox="0 0 293 275" fill="none" xmlns="http://www.w3.org/2000/svg">
<g opacity="0.6">
<path d="M201.478 156.382C195.656 158.667 187.984 163.703 183.229 167.652C181.677 168.945 183.702 168.614 185.628 168.603C187.07 168.592 192.925 166.999 194.311 166.647C199.506 165.323 201.267 165.24 206.264 163.379L201.478 156.382ZM172.872 176.058C171.353 177.216 169.658 178.105 167.908 178.881C166.202 179.636 164.364 180.432 162.482 180.691C161.844 180.774 161.304 180.784 160.732 180.474C160.226 180.206 159.742 179.668 159.621 179.12C159.379 178.066 159.996 176.619 161.283 176.443C162.021 176.35 162.736 176.133 163.44 175.905C163.639 175.843 163.837 175.76 164.035 175.698C164.101 175.678 164.178 175.646 164.244 175.626C164.123 175.678 164.046 175.709 164.266 175.626C164.31 175.605 164.365 175.595 164.409 175.574C164.365 175.574 164.321 175.595 164.277 175.615C164.728 175.44 165.157 175.264 165.587 175.067C166.412 174.705 167.226 174.312 168.019 173.878C168.382 173.682 168.745 173.485 169.087 173.268L169.516 172.989C169.428 173.051 169.384 173.092 169.56 172.968C170.066 172.596 170.55 172.327 171.211 172.327C171.783 172.327 172.476 172.564 172.861 172.968C173.631 173.753 173.884 175.293 172.872 176.058ZM169.538 172.968C169.549 172.958 169.604 172.927 169.637 172.896C169.604 172.927 169.549 172.958 169.527 172.979L169.538 172.968ZM169.769 172.813C169.747 172.813 169.703 172.854 169.648 172.886C169.681 172.854 169.736 172.823 169.769 172.813ZM144.421 187.651C146.722 184.684 149.551 182.172 152.919 180.269C153.964 179.68 155.538 180.062 156.11 181.095C156.693 182.181 156.351 183.452 155.229 184.093C154.502 184.507 153.787 184.951 153.105 185.427C153.083 185.427 153.072 185.437 153.061 185.448C153.027 185.458 153.005 185.479 152.972 185.51C152.818 185.634 152.664 185.737 152.51 185.861C152.18 186.109 151.85 186.378 151.542 186.647C150.936 187.174 150.364 187.712 149.813 188.291C149.549 188.58 149.296 188.86 149.043 189.139C148.911 189.283 148.801 189.428 148.669 189.573L148.459 189.831C148.074 190.338 147.667 190.721 147.018 190.876C146.467 191 145.752 190.948 145.268 190.659C144.288 190.091 143.618 188.654 144.421 187.651ZM129.87 197.557C130.365 197.567 130.861 197.556 131.345 197.515L131.433 197.515C131.499 197.515 131.587 197.494 131.62 197.484C131.851 197.453 132.071 197.411 132.302 197.36C132.787 197.256 133.26 197.142 133.733 196.987C133.777 196.967 134.041 196.905 134.217 196.843C134.151 196.863 134.151 196.863 134.316 196.791C134.449 196.729 134.581 196.687 134.713 196.625C135.131 196.439 135.549 196.232 135.945 196.005C136.154 195.891 136.342 195.777 136.54 195.653C136.628 195.591 136.738 195.529 136.826 195.467C136.831 195.452 136.848 195.436 136.864 195.421C136.963 195.307 137.277 195.126 137.354 195.054C137.53 194.909 137.695 194.754 137.872 194.609C138.246 194.258 138.587 193.896 138.928 193.513C139.688 192.614 141.438 192.706 142.23 193.512C143.165 194.474 143.055 195.652 142.229 196.613C139.301 200.046 134.546 202.031 129.891 201.939C128.67 201.909 127.492 200.947 127.559 199.748C127.592 198.58 128.572 197.536 129.87 197.557ZM87.338 190.464C88.2736 189.586 89.7042 189.668 90.6395 190.464C91.2666 190.991 91.8717 191.559 92.5209 192.086C92.994 192.469 93.4782 192.82 93.9403 193.192C94.0723 193.295 94.2264 193.399 94.3694 193.492C94.6775 193.698 94.9966 193.895 95.3157 194.091C95.9209 194.473 96.5591 194.824 97.2193 195.134C97.5934 195.32 97.9785 195.496 98.3637 195.651C98.4297 195.692 98.4627 195.703 98.4957 195.713C98.5287 195.723 98.5507 195.744 98.6057 195.754C98.8148 195.827 99.0129 195.889 99.222 195.961C100.003 196.199 100.807 196.395 101.621 196.539C101.621 196.539 101.995 196.601 102.05 196.612C102.248 196.632 102.446 196.653 102.655 196.663C103.151 196.694 103.624 196.704 104.119 196.694C105.374 196.673 106.452 197.727 106.452 198.885C106.451 200.084 105.384 201.045 104.118 201.076C100.233 201.15 96.4258 199.972 93.1578 198.019C91.0231 196.738 89.1967 195.167 87.3262 193.576C86.391 192.78 86.4574 191.292 87.338 190.464ZM76.8431 174.507C78.0757 174.259 79.3741 174.879 79.693 176.067C79.759 176.315 79.858 176.553 79.9459 176.801C80.0009 176.936 80.0449 177.06 80.0999 177.194C80.2759 177.566 80.4519 177.938 80.6389 178.3C81.1229 179.189 81.6839 180.067 82.3 180.894C82.399 181.028 82.498 181.142 82.5861 181.266L82.6081 181.287L83.2682 182.031C83.7413 182.558 84.2584 183.044 84.7865 183.519C85.6667 184.304 85.6994 185.844 84.7858 186.62C83.8281 187.437 82.4415 187.458 81.4843 186.621C79.5038 184.864 77.8096 182.755 76.5776 180.461C76.0166 179.417 75.4776 178.311 75.1697 177.174C74.8618 176.058 75.5995 174.745 76.8431 174.507ZM74.1369 170.497C72.8382 170.766 71.7049 170.095 71.287 168.937C70.0992 165.609 68.9225 162.105 69.2976 158.549C69.3637 157.95 69.5179 157.433 69.9802 156.999C70.3875 156.616 71.0479 156.327 71.6311 156.358C72.7866 156.409 74.096 157.329 73.9636 158.548C73.8864 159.365 73.8752 160.182 73.941 160.988C73.952 161.163 73.974 161.35 73.9959 161.536C74.0069 161.608 74.0179 161.701 74.0289 161.773C74.0948 162.207 74.1828 162.621 74.2817 163.045C74.6665 164.667 75.2274 166.249 75.7882 167.83C76.1731 168.915 75.2814 170.27 74.1369 170.497ZM75.2123 137.1C74.9259 138.113 74.6726 139.136 74.4522 140.17C74.3421 140.708 74.2429 141.235 74.1437 141.762L74.0115 142.568C74.0004 142.661 73.9894 142.734 73.9784 142.827C73.9784 142.868 73.9674 142.92 73.9563 142.992C73.6917 145.101 73.5812 147.23 73.6247 149.359C73.6574 150.507 72.5347 151.603 71.2911 151.551C70.0036 151.5 68.9803 150.58 68.9586 149.36C68.8606 144.864 69.445 140.347 70.6785 136.005C70.998 134.899 72.3187 134.093 73.5292 134.444C74.7507 134.764 75.5537 135.911 75.2123 137.1ZM84.3505 119.94C82.6116 120.519 81.0595 122.018 80.0357 123.682C78.8687 125.605 78.296 127.569 77.6791 129.843C77.3817 130.949 76.0279 131.746 74.8285 131.405C73.618 131.053 72.848 129.917 73.1674 128.728C73.8723 126.102 74.7094 123.415 76.2396 121.109C77.8799 118.618 80.2024 116.684 83.163 115.702C84.3186 115.319 85.76 116.177 86.0129 117.262C86.2987 118.502 85.5831 119.526 84.3505 119.94ZM102.915 121.228C102.761 121.765 102.332 122.334 101.804 122.582C100.604 123.151 99.4045 122.769 98.6564 121.797C98.7224 121.859 98.7774 121.931 98.8325 122.004C98.6454 121.787 98.4254 121.621 98.2053 121.435C98.0183 121.322 97.8312 121.208 97.6331 121.105C97.5341 121.053 97.402 121.012 97.292 120.95C97.281 120.939 97.259 120.939 97.248 120.929C96.6318 120.723 95.9715 120.578 95.3333 120.454C94.0678 120.217 92.7912 120.031 91.5808 119.576C90.9756 119.339 90.4694 119.091 90.1394 118.533C89.8644 118.067 89.7435 117.396 89.9087 116.889C90.0959 116.341 90.4592 115.814 91.0205 115.535C91.5268 115.287 92.2201 115.111 92.7703 115.317C94.2889 115.896 95.9396 116.02 97.5132 116.402C98.4376 116.629 99.3729 116.949 100.198 117.393C101.221 117.941 102.014 118.664 102.685 119.564C103.004 119.987 103.048 120.711 102.915 121.228ZM103.794 127.057C103.454 125.951 104.246 124.628 105.457 124.38C106.722 124.121 107.955 124.762 108.307 125.94C109.186 128.855 109.472 131.956 109.086 134.964C109.009 135.573 108.877 136.07 108.403 136.514C107.996 136.897 107.336 137.186 106.752 137.155C106.147 137.124 105.52 136.949 105.102 136.515C104.717 136.112 104.343 135.533 104.42 134.965C104.64 133.269 104.63 131.564 104.421 129.879C104.267 128.928 104.058 127.987 103.794 127.057ZM97.0992 145.106L97.1212 145.085C97.0551 145.106 97.0111 145.127 96.9451 145.147C97.0441 145.096 97.1212 145.044 97.2202 144.992C97.9137 144.444 98.5521 143.803 99.1575 143.193C99.895 142.459 100.578 141.694 101.238 140.909C101.59 140.495 102.361 140.268 102.889 140.267C103.461 140.267 104.154 140.505 104.539 140.908C104.947 141.332 105.255 141.869 105.221 142.458C105.199 143.078 104.946 143.523 104.539 144.009C103.735 144.95 102.91 145.849 102.018 146.728C100.972 147.751 99.9155 148.827 98.4518 149.271C97.2852 149.623 95.8547 148.817 95.6019 147.711C95.36 146.554 95.9876 145.53 97.0992 145.106ZM91.3863 150.513C91.0671 150.978 90.5497 151.485 89.9444 151.558C86.94 151.941 83.9466 152.127 80.9203 152.014C80.304 151.994 79.7098 151.787 79.2697 151.374C78.8626 150.991 78.5546 150.371 78.5878 149.823C78.6431 148.676 79.6228 147.591 80.9213 147.632C83.6175 147.724 86.3358 147.61 89.01 147.289C88.933 147.299 88.878 147.31 88.8009 147.32C89.4172 147.237 89.9455 147.237 90.5066 147.537C91.0128 147.805 91.4969 148.343 91.6178 148.89C91.7387 149.438 91.7166 150.038 91.3863 150.513ZM64.6346 145.423C64.4474 145.971 64.0841 146.498 63.5228 146.777L62.9615 146.995C62.5543 147.088 62.1691 147.098 61.7729 146.995C59.6601 146.726 57.5803 146.014 55.7537 144.98C55.2146 144.681 54.7965 144.185 54.6426 143.627C54.5106 143.11 54.5658 142.438 54.8741 141.983C55.2043 141.487 55.6997 141.063 56.316 140.939C56.8992 140.825 57.5375 140.866 58.0657 141.155C58.6269 141.476 59.2211 141.744 59.8263 141.982C60.8386 142.333 61.8841 142.591 62.9625 142.736C63.5237 142.808 64.1399 143.346 64.4039 143.78C64.6899 144.234 64.7998 144.896 64.6346 145.423ZM49.2729 140.527C48.6124 141.519 47.2146 141.985 46.0813 141.354C45.3991 140.962 44.6949 140.61 43.9686 140.301C43.7926 140.218 43.6055 140.146 43.4184 140.073C43.4074 140.063 43.4074 140.063 43.3854 140.063C43.3524 140.053 43.3194 140.042 43.2754 140.022C42.8792 139.877 42.4831 139.753 42.0759 139.619C41.3056 139.391 40.5353 139.206 39.765 139.061C39.3799 138.989 38.9947 138.937 38.6206 138.875C38.5655 138.865 38.4995 138.865 38.4445 138.855C38.2244 138.834 38.0043 138.813 37.7732 138.803C36.5627 138.721 35.3853 137.863 35.4407 136.612C35.485 135.496 36.4757 134.317 37.7742 134.42C41.5159 134.688 45.1582 135.711 48.3822 137.54C49.4386 138.139 49.9555 139.514 49.2729 140.527ZM29.9492 136.706C29.5748 137.843 28.3641 138.567 27.0986 138.268C26.4383 138.123 25.767 138.01 25.0957 137.917C23.5881 137.762 22.0694 137.762 20.5617 137.918C20.3746 137.949 20.1765 137.969 19.9894 138.001C19.3731 138.104 18.7899 138.073 18.2397 137.784C17.7336 137.515 17.2495 136.978 17.1285 136.43C17.0076 135.882 17.0408 135.272 17.36 134.786C17.6793 134.301 18.1856 133.846 18.8019 133.742C21.9605 133.214 25.1629 133.286 28.2771 134.019C29.4656 134.308 30.3126 135.58 29.9492 136.706ZM11.9555 139.635C11.5922 140.163 11.1299 140.473 10.5136 140.68C10.1284 140.814 9.75418 140.938 9.37998 141.083C7.94921 141.642 6.56242 142.303 5.24165 143.069C4.18503 143.668 2.61144 143.265 2.05043 142.242C1.45642 141.147 1.80888 139.886 2.93154 139.245C4.94571 138.076 7.09189 137.156 9.32606 136.421C9.85433 136.256 10.6026 136.38 11.0758 136.638C11.582 136.907 12.0661 137.444 12.187 137.992C12.3079 138.54 12.2967 139.15 11.9555 139.635ZM110.854 198.594C111.558 197.54 112.879 197.209 114.045 197.767L114.408 197.922C115.014 198.139 115.641 198.294 116.29 198.386C116.906 198.448 117.523 198.448 118.139 198.386C118.788 198.293 119.404 198.148 120.01 197.931C120.527 197.755 121.297 197.9 121.76 198.148C122.266 198.416 122.75 198.954 122.871 199.501C122.992 200.049 122.958 200.659 122.639 201.145C122.507 201.29 122.375 201.455 122.254 201.61C121.957 201.889 121.605 202.096 121.197 202.189C118.138 203.265 114.616 202.955 111.733 201.592C110.655 201.075 110.215 199.566 110.854 198.594Z" fill="#F4BC33"/>
<path d="M262.623 121.108C258.824 116.72 252.906 114.804 247.019 114.812C240.992 114.824 235.055 116.495 229.564 118.803C228.847 116.502 228.123 114.189 227.42 111.882C226.653 109.407 226.041 106.801 224.869 104.454C222.809 100.329 217.987 98.6125 213.658 100.867C209.511 103.009 208.123 107.775 208.443 111.936C208.629 114.362 209.293 116.724 210.381 118.898C208.875 118.73 207.335 118.713 205.815 118.852C201.722 119.245 197.148 121.025 195.881 125.06C194.606 129.083 197.105 133.045 200.511 135.349C201.715 136.164 203.008 136.858 204.367 137.419C204.345 137.564 204.332 137.721 204.31 137.866C200.47 144.628 199.474 152.682 203.297 159.431C204.759 162.029 209.064 165.736 209.064 165.736C213.211 168.54 218.3 169.382 223.557 169.001C225.432 168.861 227.311 168.668 229.18 168.396C229.424 168.387 229.652 168.351 229.852 168.297C234.931 167.525 239.911 166.252 244.63 164.296C256.094 159.564 265.533 150.105 267.252 138.148C268.105 132.206 266.703 125.818 262.623 121.108ZM218.458 121.878C215.653 119.478 213.784 116.341 213.205 112.766C212.769 110.068 213.046 106.164 215.913 104.689C219.324 102.929 220.831 106.356 221.627 108.882C222.871 112.83 224.08 116.778 225.311 120.733C223.042 121.864 220.854 123.104 218.749 124.483C219.27 123.677 219.328 122.628 218.458 121.878ZM214.002 163.516C208.994 161.244 205.753 156.114 205.437 150.964C205.325 149.085 205.548 147.231 206.017 145.433C207.502 149.154 209.842 152.548 212.274 155.793C214.632 158.944 217.11 162.299 220.586 164.449C220.787 164.579 221.009 164.714 221.223 164.836C218.673 164.827 216.185 164.501 214.002 163.516ZM201.572 124.721C205.353 121.9 211.962 122.904 215.61 125.316C216.105 125.643 216.631 125.72 217.115 125.635C214.373 127.564 211.78 129.683 209.382 131.984C208.903 132.016 208.425 132.231 208.007 132.7C207.801 132.924 207.624 133.166 207.426 133.403C207.268 133.469 207.118 133.547 206.984 133.65C206.771 133.561 206.552 133.491 206.339 133.401C205.65 133.113 204.975 132.795 204.317 132.449C203.138 131.809 202.01 131.043 201.224 129.982C199.992 128.317 199.745 126.09 201.572 124.721ZM231.43 163.583C230.76 163.714 230.069 163.84 229.364 163.973C227.286 163.317 225.25 162.038 223.431 160.946C220.467 159.181 218.352 156.322 216.358 153.667C214.26 150.866 212.036 147.88 210.686 144.689C210.07 143.222 208.962 140.741 208.878 139.031C209.112 138.674 209.361 138.311 209.603 137.968C209.89 137.852 210.161 137.677 210.42 137.392C212.102 135.597 213.933 133.875 215.86 132.254C215.649 137.928 219.473 143.774 222.473 148.345C226.235 154.056 231.422 158.774 237.585 162.099C235.57 162.697 233.509 163.185 231.43 163.583ZM248.607 157.313C246.932 158.335 245.175 159.217 243.391 159.995C236.691 157.117 230.908 152.625 226.937 146.772C225.065 144.021 223.302 141.095 221.933 138.082C220.697 135.383 219.99 132.527 221.144 129.687C221.37 129.135 221.334 128.652 221.17 128.253C225.119 125.595 229.388 123.389 233.9 121.776C232.562 127.351 237.047 133.956 241.189 137.414C246.676 141.976 253.998 143.979 261.153 143.044C258.796 148.883 254.182 153.942 248.607 157.313ZM262.796 133.584C262.889 135.189 262.772 136.771 262.501 138.332C256.39 139.709 249.794 138.515 244.919 134.687C241.242 131.805 235.849 125.139 239.596 120.631C239.741 120.455 239.823 120.262 239.884 120.063C240.105 120.015 240.332 119.947 240.56 119.912C245.136 118.95 250.376 118.661 254.717 120.679C259.862 123.063 262.504 128.355 262.796 133.584Z" fill="#F9DB28"/>
</g>
</svg>
