<svg width="100" height="115" viewBox="0 0 100 115" fill="none" xmlns="http://www.w3.org/2000/svg">
<path d="M0 17.8572V51.2277C0 55.0224 1.49554 58.6608 4.17411 61.3393L43.4598 100.625C49.0402 106.205 58.0804 106.205 63.6607 100.625L93.4598 70.826C99.0402 65.2456 99.0402 56.2054 93.4598 50.6251L54.1741 11.3393C51.4955 8.66077 47.8571 7.16524 44.0625 7.16524H10.7143C4.79911 7.14292 0 11.942 0 17.8572ZM25 25.0001C26.8944 25.0001 28.7112 25.7526 30.0508 27.0922C31.3903 28.4317 32.1429 30.2485 32.1429 32.1429C32.1429 34.0373 31.3903 35.8541 30.0508 37.1937C28.7112 38.5332 26.8944 39.2858 25 39.2858C23.1056 39.2858 21.2888 38.5332 19.9492 37.1937C18.6097 35.8541 17.8571 34.0373 17.8571 32.1429C17.8571 30.2485 18.6097 28.4317 19.9492 27.0922C21.2888 25.7526 23.1056 25.0001 25 25.0001Z" fill="#ECECEC"/>
</svg>
