<svg width="177" height="195" viewBox="0 0 177 195" fill="none" xmlns="http://www.w3.org/2000/svg">
    <g filter="url(#filter0_d_2001_7)">
        <path d="M75.5 3.50556C83.5444 -1.1389 93.4556 -1.1389 101.5 3.50555L159.937 37.2444C167.982 41.8889 172.937 50.4722 172.937 59.7611V127.239C172.937 136.528 167.982 145.111 159.937 149.756L101.5 183.494C93.4556 188.139 83.5444 188.139 75.5 183.494L17.0625 149.756C9.0181 145.111 4.06252 136.528 4.06252 127.239V59.7611C4.06252 50.4722 9.01809 41.8889 17.0625 37.2444L75.5 3.50556Z" fill="#E37E03"/>
        <path d="M100.25 5.67062L158.687 39.4095C165.958 43.6074 170.437 51.3654 170.437 59.7611V127.239C170.437 135.635 165.958 143.393 158.687 147.59L100.25 181.329C92.9791 185.527 84.0209 185.527 76.75 181.329L18.3125 147.59C11.0416 143.393 6.56252 135.635 6.56252 127.239V59.7611C6.56252 51.3654 11.0416 43.6074 18.3125 39.4095L76.75 5.67062C84.0209 1.47275 92.9791 1.47275 100.25 5.67062Z" stroke="#E37E03" stroke-width="5"/>
    </g>
</svg>
