<svg xmlns="http://www.w3.org/2000/svg" xmlns:xlink="http://www.w3.org/1999/xlink" width="1080" zoomAndPan="magnify" viewBox="0 0 810 809.999993" height="1080" preserveAspectRatio="xMidYMid meet" version="1.0"><defs><clipPath id="582eb16e67"><path d="M 192.011719 433.34375 L 704 433.34375 L 704 802.550781 L 192.011719 802.550781 Z M 192.011719 433.34375 " clip-rule="nonzero"/></clipPath><clipPath id="2ee2649449"><path d="M 106 433.34375 L 617.988281 433.34375 L 617.988281 802.550781 L 106 802.550781 Z M 106 433.34375 " clip-rule="nonzero"/></clipPath><clipPath id="08de67ef59"><path d="M 183 7.085938 L 617 7.085938 L 617 244 L 183 244 Z M 183 7.085938 " clip-rule="nonzero"/></clipPath></defs><path fill="#ffffff" d="M 38.816406 307.304688 C 38.816406 307.304688 61.101562 328.730469 66.644531 343.542969 C 66.84375 344.074219 67.019531 344.59375 67.175781 345.101562 C 67.175781 345.101562 65.128906 345.539062 62.816406 346.695312 C 62.808594 346.703125 62.800781 346.703125 62.796875 346.710938 C 61.042969 347.585938 59.136719 348.886719 57.839844 350.730469 C 54.832031 355.03125 55.738281 361.429688 55.738281 361.429688 C 40.292969 362.3125 10.523438 347.710938 10.523438 347.710938 C 10.523438 347.710938 4.925781 336.210938 15.511719 321.09375 C 26.101562 305.980469 38.816406 307.304688 38.816406 307.304688 " fill-opacity="1" fill-rule="nonzero"/><path fill="#7851a9" d="M 37.023438 311.726562 C 36.609375 311.761719 36.109375 311.824219 35.539062 311.921875 C 27.375 313.359375 21.746094 319.875 19.121094 323.625 C 12.113281 333.636719 13.214844 341.511719 14.058594 344.519531 C 22.148438 348.335938 39.726562 355.679688 51.304688 356.894531 C 51.542969 354.230469 52.285156 350.980469 54.230469 348.203125 C 55.589844 346.265625 57.492188 344.609375 59.898438 343.257812 L 59.9375 343.207031 L 60.835938 342.757812 C 61.027344 342.664062 61.214844 342.574219 61.394531 342.488281 C 55.820312 330.964844 41.382812 316.082031 37.023438 311.726562 Z M 34.007812 303.238281 C 36.949219 302.71875 38.910156 302.882812 39.273438 302.921875 L 40.78125 303.078125 L 41.871094 304.128906 C 42.808594 305.035156 64.941406 326.429688 70.773438 342 C 70.992188 342.585938 71.203125 343.207031 71.390625 343.832031 L 72.78125 348.421875 L 68.082031 349.417969 C 68.089844 349.417969 66.988281 349.664062 65.605469 350.257812 L 64.730469 350.667969 C 63.246094 351.421875 62.113281 352.316406 61.449219 353.257812 C 59.78125 355.640625 59.960938 359.820312 60.105469 360.808594 L 60.773438 365.558594 L 55.988281 365.832031 C 39.574219 366.765625 9.84375 352.285156 8.585938 351.671875 L 7.222656 351 L 6.558594 349.644531 C 6.28125 349.074219 -0.0351562 335.617188 11.902344 318.566406 C 19.84375 307.21875 29.160156 304.089844 34.007812 303.238281 " fill-opacity="1" fill-rule="nonzero"/><path fill="#ffffff" d="M 695.785156 797.429688 C 647.320312 792.820312 598.878906 758.902344 598.878906 758.902344 L 199.097656 478.972656 L 226.652344 439.617188 L 626.433594 719.546875 C 626.433594 719.546875 674.878906 753.464844 695.785156 797.429688 " fill-opacity="1" fill-rule="nonzero"/><g clip-path="url(#582eb16e67)"><path fill="#7851a9" d="M 688 791.980469 C 666.261719 753.101562 624.359375 723.46875 623.90625 723.15625 L 227.734375 445.753906 L 205.242188 477.890625 L 601.40625 755.292969 C 601.855469 755.605469 644.085938 784.847656 688 791.980469 Z M 225.570312 433.480469 L 628.960938 715.9375 C 629.46875 716.289062 641.511719 724.765625 656.304688 738.800781 C 670.011719 751.808594 688.671875 772.210938 699.761719 795.535156 L 703.101562 802.550781 L 695.363281 801.8125 C 669.652344 799.367188 644.101562 788.808594 627.191406 780.382812 C 608.9375 771.28125 596.859375 762.867188 596.351562 762.511719 L 192.960938 480.054688 L 225.570312 433.480469 " fill-opacity="1" fill-rule="nonzero"/></g><path fill="#7851a9" d="M 214.894531 452.152344 L 224.652344 438.214844 L 626.433594 719.546875 C 626.433594 719.546875 665.085938 747.671875 688.101562 783.503906 L 624.363281 738.871094 L 214.894531 452.152344 " fill-opacity="1" fill-rule="nonzero"/><path fill="#ffffff" d="M 67.164062 345.121094 C 67.164062 345.121094 90.644531 347.96875 136.835938 380.308594 C 183.027344 412.648438 193.730469 433.742188 193.730469 433.742188 L 182.328125 450.039062 C 182.328125 450.039062 158.84375 447.191406 112.652344 414.84375 C 66.460938 382.503906 55.757812 361.410156 55.757812 361.410156 C 55.757812 361.410156 54.832031 355.03125 57.839844 350.730469 C 60.84375 346.441406 67.164062 345.121094 67.164062 345.121094 " fill-opacity="1" fill-rule="nonzero"/><path fill="#7851a9" d="M 188.46875 433.582031 C 184.449219 427.53125 170.429688 409.207031 134.308594 383.917969 C 94.332031 355.925781 71.636719 350.449219 67.355469 349.617188 C 65.71875 350.105469 62.820312 351.300781 61.449219 353.257812 C 60.0625 355.25 59.960938 358.464844 60.050781 360.050781 C 62.269531 363.738281 75.15625 383.210938 115.179688 411.234375 C 138.707031 427.707031 156.058594 436.238281 166.476562 440.492188 C 173.113281 443.195312 177.753906 444.527344 180.363281 445.152344 Z M 66.972656 340.652344 L 67.695312 340.742188 C 68.695312 340.867188 92.804688 344.09375 139.363281 376.699219 C 185.925781 409.296875 197.203125 430.847656 197.664062 431.746094 L 198.859375 434.105469 L 184.421875 454.730469 L 181.796875 454.410156 C 180.792969 454.285156 156.683594 451.058594 110.125 418.453125 C 63.566406 385.855469 52.28125 364.304688 51.824219 363.40625 L 51.5 362.761719 L 51.390625 362.042969 C 51.273438 361.210938 50.335938 353.773438 54.230469 348.203125 C 58.121094 342.644531 65.441406 340.972656 66.261719 340.804688 L 66.972656 340.652344 " fill-opacity="1" fill-rule="nonzero"/><path fill="#ffffff" d="M 285.175781 360.316406 C 288.339844 365.808594 289.054688 373.914062 286.257812 380.03125 C 284.042969 384.875 278.054688 387.953125 272.921875 387.910156 C 266.996094 387.863281 261.683594 382.136719 264.054688 375.902344 C 264.738281 374.101562 268.742188 368.777344 266.113281 366.933594 C 259.582031 362.359375 249.699219 377.742188 247.023438 381.566406 C 240.089844 391.460938 232.972656 401.609375 225.835938 411.796875 C 225.515625 412.261719 225.203125 412.730469 224.894531 413.207031 C 223.019531 416.183594 221.617188 419.457031 221.199219 423.003906 C 220.511719 428.875 221.410156 435.9375 226.652344 439.609375 L 199.097656 478.972656 C 193.851562 475.300781 186.90625 476.867188 181.621094 479.527344 C 177.921875 481.390625 175.019531 484.371094 172.679688 487.714844 C 165.542969 497.90625 158.449219 508.066406 151.519531 517.960938 C 148.839844 521.785156 137.769531 536.335938 144.292969 540.90625 C 145.023438 541.414062 145.832031 541.359375 146.644531 540.976562 C 147.945312 540.375 149.273438 538.949219 150.34375 537.730469 C 151.03125 536.953125 151.613281 536.257812 152.023438 535.902344 C 154.535156 533.730469 157.585938 533.394531 160.269531 534.296875 C 162.972656 535.195312 165.300781 537.339844 166.332031 540.132812 C 168.125 544.9375 167.289062 551.617188 163.492188 555.359375 C 158.699219 560.082031 150.835938 562.175781 144.601562 561.082031 C 135.898438 559.546875 127.871094 553.269531 124.371094 545.0625 C 122.84375 541.484375 122.167969 537.546875 122.675781 533.476562 C 123.867188 523.847656 129.679688 516.078125 135.058594 508.398438 C 144.679688 494.660156 174.152344 452.554688 183.679688 438.847656 C 193.300781 425.210938 222.789062 383.109375 232.402344 369.378906 C 237.789062 361.691406 243.09375 353.570312 251.734375 349.160156 C 263.78125 343.007812 278.835938 349.335938 285.175781 360.316406 " fill-opacity="1" fill-rule="nonzero"/><path fill="#7851a9" d="M 274.695312 383.347656 C 278.023438 382.761719 281.132812 380.644531 282.246094 378.199219 C 284.335938 373.632812 283.960938 367.039062 281.359375 362.515625 C 276.855469 354.714844 267.097656 349.949219 258.664062 351.4375 C 256.945312 351.738281 255.285156 352.296875 253.742188 353.085938 C 246.597656 356.730469 241.921875 363.429688 236.980469 370.519531 L 236.011719 371.90625 C 225.671875 386.675781 196.757812 427.949219 187.28125 441.386719 C 177.910156 454.867188 149.015625 496.15625 138.667969 510.925781 L 137.699219 512.308594 C 132.734375 519.375 128.035156 526.050781 127.046875 534.011719 C 126.660156 537.152344 127.121094 540.289062 128.417969 543.328125 C 131.300781 550.070312 138.113281 555.464844 145.363281 556.738281 C 147.144531 557.054688 149.171875 557.027344 151.21875 556.671875 C 154.828125 556.03125 158.175781 554.414062 160.402344 552.21875 C 162.714844 549.941406 163.523438 545.203125 162.203125 541.671875 C 161.660156 540.199219 160.382812 538.980469 158.875 538.472656 C 157.4375 537.992188 156.046875 538.25 154.902344 539.242188 C 154.769531 539.363281 154.351562 539.84375 154.046875 540.195312 L 153.652344 540.644531 C 152.15625 542.347656 150.5 544.046875 148.496094 544.972656 C 147.882812 545.261719 147.246094 545.46875 146.609375 545.582031 C 144.894531 545.878906 143.179688 545.503906 141.765625 544.515625 C 139.746094 543.097656 138.445312 541.027344 138.019531 538.535156 C 137.386719 534.859375 137.992188 529.339844 147.289062 516.296875 C 147.527344 515.972656 147.734375 515.679688 147.910156 515.433594 C 151.335938 510.53125 154.816406 505.5625 158.3125 500.558594 C 161.878906 495.460938 165.46875 490.332031 169.066406 485.183594 C 172.136719 480.808594 175.691406 477.574219 179.636719 475.59375 C 182.425781 474.191406 185.222656 473.234375 187.949219 472.753906 C 191.453125 472.132812 194.738281 472.339844 197.660156 473.339844 L 220.878906 440.179688 C 217.441406 435.90625 215.976562 429.695312 216.828125 422.488281 C 217.277344 418.617188 218.742188 414.703125 221.175781 410.847656 C 221.535156 410.277344 221.882812 409.765625 222.226562 409.269531 C 225.835938 404.109375 229.4375 398.96875 233.023438 393.863281 C 236.511719 388.878906 239.984375 383.929688 243.414062 379.039062 C 243.582031 378.792969 243.78125 378.5 244.011719 378.167969 C 253.109375 364.933594 258.101562 362.484375 261.777344 361.835938 C 264.257812 361.398438 266.628906 361.917969 268.640625 363.324219 C 269.816406 364.148438 272.40625 366.597656 270.992188 371.460938 C 270.460938 373.28125 269.484375 375.058594 268.773438 376.355469 C 268.546875 376.761719 268.246094 377.3125 268.164062 377.5 C 267.671875 378.789062 267.820312 380.039062 268.605469 381.191406 C 269.5625 382.578125 271.269531 383.484375 272.953125 383.503906 C 273.515625 383.503906 274.097656 383.453125 274.695312 383.347656 Z M 257.132812 342.757812 C 269.230469 340.621094 282.628906 347.085938 288.992188 358.113281 C 293.039062 365.132812 293.550781 374.679688 290.265625 381.867188 C 287.941406 386.945312 282.433594 390.9375 276.230469 392.03125 C 275.101562 392.230469 273.976562 392.324219 272.882812 392.320312 C 268.335938 392.28125 263.90625 389.921875 261.328125 386.164062 C 258.925781 382.648438 258.417969 378.335938 259.933594 374.339844 C 260.195312 373.644531 260.597656 372.925781 261.054688 372.101562 C 261.160156 371.90625 261.296875 371.652344 261.453125 371.363281 C 259.40625 372.71875 256.210938 375.980469 251.277344 383.160156 C 251.03125 383.515625 250.8125 383.828125 250.632812 384.09375 C 247.203125 388.984375 243.738281 393.9375 240.234375 398.925781 C 236.664062 404.027344 233.054688 409.171875 229.445312 414.324219 C 229.175781 414.714844 228.90625 415.121094 228.617188 415.566406 C 226.878906 418.324219 225.882812 420.925781 225.578125 423.515625 C 225.253906 426.285156 224.953125 433.042969 229.179688 436 L 232.789062 438.527344 L 200.179688 485.109375 L 196.570312 482.582031 C 194.757812 481.308594 192.375 480.929688 189.484375 481.4375 C 187.625 481.761719 185.59375 482.46875 183.601562 483.46875 C 180.933594 484.808594 178.542969 487.027344 176.289062 490.242188 C 172.6875 495.386719 169.097656 500.515625 165.539062 505.613281 C 162.035156 510.617188 158.5625 515.585938 155.128906 520.488281 C 154.941406 520.75 154.722656 521.066406 154.464844 521.414062 C 152.925781 523.585938 150.335938 527.214844 148.515625 530.878906 C 147.652344 532.617188 147.175781 533.957031 146.921875 534.945312 C 146.957031 534.90625 146.996094 534.863281 147.03125 534.820312 L 147.410156 534.394531 C 148.035156 533.675781 148.570312 533.0625 149.140625 532.570312 C 150.949219 531.003906 153.019531 530.011719 155.285156 529.609375 C 157.378906 529.246094 159.589844 529.414062 161.664062 530.117188 C 165.699219 531.453125 168.988281 534.625 170.464844 538.59375 C 172.644531 544.433594 172.011719 553.148438 166.589844 558.496094 C 163.066406 561.964844 158.148438 564.398438 152.746094 565.355469 C 149.703125 565.886719 146.621094 565.910156 143.835938 565.421875 C 133.613281 563.621094 124.382812 556.308594 120.316406 546.792969 C 118.394531 542.296875 117.71875 537.628906 118.300781 532.929688 C 119.558594 522.785156 125.113281 514.878906 130.492188 507.234375 L 131.449219 505.863281 C 141.792969 491.101562 170.679688 449.820312 180.0625 436.332031 C 189.546875 422.878906 218.453125 381.617188 228.792969 366.847656 L 229.75 365.476562 C 235.09375 357.8125 240.621094 349.886719 249.730469 345.234375 C 252.058594 344.042969 254.546875 343.210938 257.132812 342.757812 " fill-opacity="1" fill-rule="nonzero"/><path fill="#7851a9" d="M 244.558594 368.367188 C 205.589844 420.34375 168.007812 472.765625 133.445312 527.738281 C 172.820312 475.261719 210.226562 421.839844 245.894531 366.859375 C 245.816406 366.800781 245.308594 367.378906 244.558594 368.367188 " fill-opacity="1" fill-rule="nonzero"/><path fill="#7851a9" d="M 166.332031 540.132812 C 168.125 544.9375 167.289062 551.617188 163.492188 555.359375 C 158.699219 560.082031 150.835938 562.175781 144.601562 561.082031 C 135.898438 559.546875 127.871094 553.269531 124.371094 545.0625 L 124.371094 545.054688 C 124.371094 545.054688 138.582031 552.492188 146.644531 540.976562 C 147.519531 539.726562 148.785156 538.65625 150.34375 537.730469 C 152.96875 536.191406 156.429688 535.078125 160.269531 534.296875 C 162.972656 535.195312 165.300781 537.339844 166.332031 540.132812 " fill-opacity="1" fill-rule="nonzero"/><path fill="#7851a9" d="M 272.921875 387.910156 C 278.054688 387.953125 284.042969 384.875 286.257812 380.03125 C 289.054688 373.914062 288.339844 365.808594 285.175781 360.316406 C 280.757812 352.664062 272.113281 347.273438 263.199219 346.785156 C 263.199219 346.785156 275.039062 357.601562 266.976562 369.117188 C 266.109375 370.367188 265.53125 371.925781 265.199219 373.703125 C 264.644531 376.699219 264.789062 380.328125 265.363281 384.207031 C 267.132812 386.4375 269.949219 387.890625 272.921875 387.910156 " fill-opacity="1" fill-rule="nonzero"/><path fill="#7851a9" d="M 222.117188 411.253906 C 220.265625 414.257812 218.992188 417.617188 218.851562 421.355469 C 218.632812 427.5625 220.335938 435.1875 226.652344 439.609375 L 205.453125 483.417969 C 199.136719 478.996094 185.035156 475.554688 179.273438 477.882812 C 175.253906 479.515625 172.238281 482.417969 169.890625 485.765625 L 222.074219 411.234375 L 222.117188 411.253906 " fill-opacity="1" fill-rule="nonzero"/><path fill="#7851a9" d="M 115.929688 365.871094 C 107.753906 373.269531 99.621094 381.132812 90.140625 387.183594 C 100.386719 382.546875 110.457031 376.910156 119.796875 370.726562 L 115.929688 365.871094 " fill-opacity="1" fill-rule="nonzero"/><path fill="#7851a9" d="M 105.488281 360.714844 C 98.246094 367.484375 90.933594 374.179688 82.953125 379.957031 C 91.695312 375.585938 100.941406 371.125 109.320312 365.601562 L 105.488281 360.714844 " fill-opacity="1" fill-rule="nonzero"/><path fill="#7851a9" d="M 95.160156 355.460938 C 89.144531 361.117188 82.953125 366.839844 76.171875 372.152344 C 84.097656 368.953125 91.347656 364.84375 98.953125 360.371094 L 95.160156 355.460938 " fill-opacity="1" fill-rule="nonzero"/><path fill="#7851a9" d="M 86.324219 349.585938 C 81.335938 354.773438 75.667969 359.113281 70.382812 364.167969 C 77.019531 360.933594 83.363281 357.507812 90.046875 354.554688 L 86.324219 349.585938 " fill-opacity="1" fill-rule="nonzero"/><path fill="#7851a9" d="M 125.53125 371.675781 C 116.648438 379.933594 107.722656 387.683594 97.828125 394.320312 C 108.78125 389.296875 119.257812 383.078125 129.410156 376.523438 L 125.53125 371.675781 " fill-opacity="1" fill-rule="nonzero"/><path fill="#7851a9" d="M 134.746094 377.792969 C 125.746094 386.308594 116.324219 394.144531 106.222656 401.070312 C 117.675781 395.964844 128.066406 389.242188 138.632812 382.636719 L 134.746094 377.792969 " fill-opacity="1" fill-rule="nonzero"/><path fill="#7851a9" d="M 143.636719 384.175781 C 134.847656 392.675781 125.125 400.308594 114.824219 407.53125 C 126.269531 402.421875 136.960938 395.910156 147.519531 389.015625 L 143.636719 384.175781 " fill-opacity="1" fill-rule="nonzero"/><path fill="#7851a9" d="M 152.1875 390.824219 C 143.15625 398.929688 134.023438 406.976562 123.925781 413.902344 C 134.785156 408.382812 145.851562 402.570312 156.058594 395.671875 L 152.1875 390.824219 " fill-opacity="1" fill-rule="nonzero"/><path fill="#7851a9" d="M 160.359375 397.765625 C 151.84375 405.894531 142.828125 413.136719 133.433594 419.6875 C 144.179688 414.957031 154.453125 409.035156 164.210938 402.640625 L 160.359375 397.765625 " fill-opacity="1" fill-rule="nonzero"/><path fill="#7851a9" d="M 168.09375 405.054688 C 160.144531 412.144531 151.925781 419.511719 143.234375 425.671875 C 153.1875 420.832031 162.640625 416.078125 171.910156 409.945312 L 168.09375 405.054688 " fill-opacity="1" fill-rule="nonzero"/><path fill="#7851a9" d="M 175.320312 412.71875 C 168.632812 419.394531 161.144531 425.089844 153.953125 430.992188 C 162.496094 426.914062 171.242188 422.539062 179.085938 417.648438 L 175.320312 412.71875 " fill-opacity="1" fill-rule="nonzero"/><path fill="#7851a9" d="M 181.894531 420.839844 C 176.734375 425.941406 170.652344 430.878906 165.367188 435.921875 C 172.210938 432.398438 179.136719 429.375 185.605469 425.8125 L 181.894531 420.839844 " fill-opacity="1" fill-rule="nonzero"/><path fill="#ffffff" d="M 164.878906 549.839844 C 159.949219 559.863281 145.300781 561.414062 136.292969 555.539062 C 145.777344 558.242188 157.015625 557.804688 164.242188 550.191406 C 164.34375 550.117188 164.769531 549.746094 164.878906 549.839844 " fill-opacity="1" fill-rule="nonzero"/><path fill="#ffffff" d="M 158.144531 538.484375 C 160.03125 539.8125 160.496094 542.414062 159.167969 544.296875 C 157.847656 546.1875 155.246094 546.648438 153.359375 545.324219 C 151.46875 544.003906 151.011719 541.402344 152.332031 539.511719 C 153.65625 537.621094 156.261719 537.167969 158.144531 538.484375 " fill-opacity="1" fill-rule="nonzero"/><path fill="#ffffff" d="M 156.078125 548.195312 C 157.042969 548.875 157.28125 550.210938 156.605469 551.171875 C 155.921875 552.140625 154.589844 552.375 153.625 551.699219 C 152.65625 551.023438 152.417969 549.691406 153.101562 548.71875 C 153.777344 547.757812 155.109375 547.519531 156.078125 548.195312 " fill-opacity="1" fill-rule="nonzero"/><path fill="#ffffff" d="M 277.222656 354.523438 C 285.300781 360.234375 288.410156 372.03125 283.53125 380.871094 C 282.917969 381.746094 282.589844 382.835938 281.390625 383.304688 C 285.96875 374.265625 283.242188 363.167969 277.511719 355.203125 C 277.457031 355.09375 277.128906 354.636719 277.222656 354.523438 " fill-opacity="1" fill-rule="nonzero"/><path fill="#ffffff" d="M 268.578125 380.777344 C 270.46875 382.097656 273.070312 381.640625 274.390625 379.75 C 275.710938 377.863281 275.253906 375.261719 273.363281 373.941406 C 271.476562 372.613281 268.871094 373.078125 267.554688 374.964844 C 266.234375 376.847656 266.691406 379.453125 268.578125 380.777344 " fill-opacity="1" fill-rule="nonzero"/><path fill="#ffffff" d="M 276.992188 375.511719 C 277.960938 376.1875 279.292969 375.953125 279.96875 374.984375 C 280.644531 374.015625 280.414062 372.683594 279.445312 372.007812 C 278.476562 371.332031 277.144531 371.570312 276.46875 372.53125 C 275.792969 373.503906 276.027344 374.835938 276.992188 375.511719 " fill-opacity="1" fill-rule="nonzero"/><path fill="#7851a9" d="M 628.855469 752.34375 C 627.835938 751.589844 603.527344 733.496094 563.847656 704.640625 C 540.582031 687.71875 555.960938 697.984375 532.382812 681.113281 C 502.84375 659.976562 481.910156 645.09375 453.542969 625.226562 C 425.175781 605.363281 395.597656 584.882812 365.632812 564.351562 C 341.71875 547.96875 317.496094 531.511719 293.644531 515.441406 C 252.953125 488.023438 227.636719 471.363281 226.578125 470.667969 C 223.625 468.722656 221.738281 467.636719 221.625 467.796875 C 221.503906 467.96875 223.175781 469.367188 226.015625 471.476562 C 227.03125 472.234375 251.339844 490.320312 291.015625 519.179688 C 314.28125 536.097656 338.027344 553.230469 361.605469 570.101562 C 391.144531 591.238281 420.507812 612.027344 448.875 631.886719 C 477.246094 651.753906 498.394531 666.332031 528.359375 686.863281 C 552.273438 703.246094 537.375 692.308594 561.226562 708.382812 C 601.917969 735.800781 627.230469 752.457031 628.285156 753.152344 C 631.238281 755.097656 633.128906 756.1875 633.246094 756.015625 C 633.359375 755.855469 631.6875 754.453125 628.855469 752.34375 " fill-opacity="1" fill-rule="nonzero"/><path fill="#7851a9" d="M 38.816406 307.304688 C 38.816406 307.304688 61.101562 328.730469 66.644531 343.542969 L 62.816406 346.695312 L 62.800781 346.710938 L 62.796875 346.710938 C 36.164062 319.199219 15.511719 321.09375 15.511719 321.09375 C 26.101562 305.980469 38.816406 307.304688 38.816406 307.304688 " fill-opacity="1" fill-rule="nonzero"/><path fill="#ffffff" d="M 27.722656 348.097656 L 53.675781 347.816406 L 45.0625 323.332031 L 19.113281 323.613281 L 27.722656 348.097656 " fill-opacity="1" fill-rule="nonzero"/><path fill="#7851a9" d="M 29.609375 345.410156 L 49.890625 345.183594 L 43.160156 326.054688 L 22.878906 326.273438 L 29.609375 345.410156 " fill-opacity="1" fill-rule="nonzero"/><path fill="#ffffff" d="M 18.5 328.925781 L 24.804688 346.839844 " fill-opacity="1" fill-rule="nonzero"/><path fill="#7851a9" d="M 24.84375 346.621094 C 24.835938 346.578125 24.6875 345.546875 24.324219 343.914062 C 24.113281 342.957031 23.875 341.988281 23.609375 341.035156 C 23.28125 339.847656 22.917969 338.683594 22.527344 337.578125 C 22.140625 336.46875 21.695312 335.335938 21.207031 334.203125 C 20.816406 333.296875 20.394531 332.390625 19.964844 331.515625 C 19.21875 330.011719 18.695312 329.105469 18.667969 329.070312 C 18.605469 328.96875 18.542969 328.914062 18.5 328.925781 C 18.457031 328.945312 18.4375 329.023438 18.457031 329.144531 C 18.460938 329.1875 18.617188 330.226562 18.976562 331.859375 C 19.1875 332.816406 19.433594 333.785156 19.695312 334.738281 C 20.019531 335.925781 20.382812 337.089844 20.777344 338.195312 C 21.164062 339.304688 21.609375 340.433594 22.097656 341.566406 C 22.484375 342.472656 22.902344 343.375 23.34375 344.257812 C 24.082031 345.757812 24.613281 346.660156 24.628906 346.695312 C 24.691406 346.804688 24.753906 346.859375 24.804688 346.839844 C 24.847656 346.828125 24.863281 346.746094 24.84375 346.621094 " fill-opacity="1" fill-rule="nonzero"/><path fill="#ffffff" d="M 48.882812 349.355469 L 29.816406 349.5625 " fill-opacity="1" fill-rule="nonzero"/><path fill="#7851a9" d="M 30.011719 349.675781 C 30.054688 349.679688 31.085938 349.867188 32.757812 350.054688 C 33.738281 350.164062 34.734375 350.242188 35.722656 350.300781 C 36.953125 350.375 38.179688 350.398438 39.355469 350.386719 C 40.539062 350.375 41.757812 350.320312 42.996094 350.226562 C 43.980469 350.144531 44.972656 350.039062 45.957031 349.914062 C 47.621094 349.695312 48.644531 349.480469 48.691406 349.472656 C 48.816406 349.449219 48.882812 349.40625 48.882812 349.355469 C 48.882812 349.3125 48.808594 349.269531 48.691406 349.242188 C 48.644531 349.238281 47.613281 349.050781 45.941406 348.867188 C 44.960938 348.761719 43.964844 348.675781 42.976562 348.617188 C 41.738281 348.546875 40.519531 348.515625 39.335938 348.53125 C 38.160156 348.542969 36.933594 348.597656 35.703125 348.699219 C 34.714844 348.773438 33.71875 348.878906 32.742188 349.011719 C 31.082031 349.230469 30.046875 349.4375 30.011719 349.449219 C 29.886719 349.472656 29.816406 349.519531 29.816406 349.5625 C 29.816406 349.613281 29.890625 349.648438 30.011719 349.675781 " fill-opacity="1" fill-rule="nonzero"/><path fill="#ffffff" d="M 771.183594 307.304688 C 771.183594 307.304688 748.898438 328.730469 743.355469 343.542969 C 743.15625 344.074219 742.980469 344.59375 742.824219 345.101562 C 742.824219 345.101562 744.871094 345.539062 747.183594 346.695312 C 747.191406 346.703125 747.199219 346.703125 747.203125 346.710938 C 748.957031 347.585938 750.863281 348.886719 752.160156 350.730469 C 755.167969 355.03125 754.261719 361.429688 754.261719 361.429688 C 769.707031 362.3125 799.476562 347.710938 799.476562 347.710938 C 799.476562 347.710938 805.074219 336.210938 794.488281 321.09375 C 783.898438 305.980469 771.183594 307.304688 771.183594 307.304688 " fill-opacity="1" fill-rule="nonzero"/><path fill="#7851a9" d="M 748.605469 342.488281 C 748.785156 342.574219 748.972656 342.664062 749.164062 342.757812 L 750.0625 343.207031 L 750.101562 343.257812 C 752.507812 344.609375 754.410156 346.265625 755.769531 348.203125 C 757.714844 350.980469 758.457031 354.230469 758.695312 356.894531 C 770.273438 355.679688 787.847656 348.335938 795.941406 344.519531 C 796.785156 341.511719 797.886719 333.636719 790.878906 323.625 C 788.246094 319.875 782.625 313.359375 774.460938 311.921875 C 773.890625 311.824219 773.390625 311.761719 772.976562 311.726562 C 768.617188 316.082031 754.179688 330.964844 748.605469 342.488281 Z M 798.097656 318.566406 C 810.035156 335.617188 803.71875 349.074219 803.441406 349.644531 L 802.777344 351 L 801.414062 351.671875 C 800.15625 352.285156 770.425781 366.765625 754.011719 365.832031 L 749.226562 365.558594 L 749.894531 360.808594 C 750.03125 359.820312 750.21875 355.640625 748.550781 353.257812 C 747.886719 352.316406 746.753906 351.421875 745.269531 350.667969 L 744.394531 350.257812 C 743.011719 349.664062 741.910156 349.417969 741.917969 349.417969 L 737.21875 348.421875 L 738.609375 343.832031 C 738.796875 343.207031 739.003906 342.585938 739.226562 342 C 745.058594 326.429688 767.191406 305.035156 768.128906 304.128906 L 769.21875 303.078125 L 770.726562 302.921875 C 771.085938 302.882812 773.046875 302.71875 775.992188 303.238281 C 780.835938 304.089844 790.15625 307.21875 798.097656 318.566406 " fill-opacity="1" fill-rule="nonzero"/><path fill="#ffffff" d="M 114.214844 797.429688 C 162.679688 792.820312 211.121094 758.902344 211.121094 758.902344 L 610.902344 478.972656 L 583.347656 439.617188 L 183.566406 719.546875 C 183.566406 719.546875 135.121094 753.464844 114.214844 797.429688 " fill-opacity="1" fill-rule="nonzero"/><g clip-path="url(#2ee2649449)"><path fill="#7851a9" d="M 208.59375 755.292969 L 604.757812 477.890625 L 582.265625 445.753906 L 186.09375 723.15625 C 185.640625 723.46875 143.738281 753.101562 122 791.980469 C 165.914062 784.847656 208.144531 755.605469 208.59375 755.292969 Z M 617.039062 480.054688 L 213.648438 762.511719 C 213.140625 762.867188 201.0625 771.28125 182.808594 780.382812 C 165.898438 788.808594 140.347656 799.367188 114.636719 801.8125 L 106.898438 802.550781 L 110.238281 795.535156 C 121.328125 772.210938 139.988281 751.808594 153.695312 738.800781 C 168.488281 724.765625 180.53125 716.289062 181.039062 715.9375 L 584.429688 433.480469 L 617.039062 480.054688 " fill-opacity="1" fill-rule="nonzero"/></g><path fill="#7851a9" d="M 595.105469 452.152344 L 585.347656 438.214844 L 183.566406 719.546875 C 183.566406 719.546875 144.914062 747.671875 121.898438 783.503906 L 185.636719 738.871094 L 595.105469 452.152344 " fill-opacity="1" fill-rule="nonzero"/><path fill="#ffffff" d="M 742.835938 345.121094 C 742.835938 345.121094 719.355469 347.96875 673.164062 380.308594 C 626.972656 412.648438 616.269531 433.742188 616.269531 433.742188 L 627.671875 450.039062 C 627.671875 450.039062 651.15625 447.191406 697.347656 414.84375 C 743.539062 382.503906 754.246094 361.410156 754.246094 361.410156 C 754.246094 361.410156 755.167969 355.03125 752.160156 350.730469 C 749.148438 346.441406 742.835938 345.121094 742.835938 345.121094 " fill-opacity="1" fill-rule="nonzero"/><path fill="#7851a9" d="M 629.636719 445.152344 C 632.246094 444.527344 636.886719 443.195312 643.523438 440.492188 C 653.941406 436.238281 671.292969 427.707031 694.820312 411.234375 C 734.84375 383.210938 747.730469 363.738281 749.949219 360.050781 C 750.039062 358.464844 749.9375 355.25 748.550781 353.257812 C 747.179688 351.300781 744.28125 350.105469 742.644531 349.617188 C 738.371094 350.449219 715.667969 355.925781 675.691406 383.917969 C 639.570312 409.207031 625.550781 427.53125 621.53125 433.582031 Z M 743.738281 340.804688 C 744.558594 340.972656 751.878906 342.644531 755.769531 348.203125 C 759.664062 353.773438 758.726562 361.210938 758.609375 362.042969 L 758.5 362.761719 L 758.175781 363.40625 C 757.71875 364.304688 746.433594 385.855469 699.875 418.453125 C 653.3125 451.058594 629.207031 454.285156 628.203125 454.410156 L 625.578125 454.730469 L 611.140625 434.105469 L 612.335938 431.746094 C 612.796875 430.847656 624.074219 409.296875 670.636719 376.699219 C 717.195312 344.09375 741.304688 340.867188 742.304688 340.742188 L 743.027344 340.652344 L 743.738281 340.804688 " fill-opacity="1" fill-rule="nonzero"/><path fill="#ffffff" d="M 524.824219 360.316406 C 521.660156 365.808594 520.945312 373.914062 523.742188 380.03125 C 525.957031 384.875 531.945312 387.953125 537.078125 387.910156 C 543.003906 387.863281 548.316406 382.136719 545.945312 375.902344 C 545.261719 374.101562 541.257812 368.777344 543.886719 366.933594 C 550.417969 362.359375 560.300781 377.742188 562.976562 381.566406 C 569.910156 391.460938 577.027344 401.609375 584.164062 411.796875 C 584.484375 412.261719 584.796875 412.730469 585.105469 413.207031 C 586.980469 416.183594 588.382812 419.457031 588.800781 423.003906 C 589.488281 428.875 588.589844 435.9375 583.347656 439.609375 L 610.902344 478.972656 C 616.148438 475.300781 623.09375 476.867188 628.378906 479.527344 C 632.078125 481.390625 634.980469 484.371094 637.320312 487.714844 C 644.457031 497.90625 651.554688 508.066406 658.480469 517.960938 C 661.164062 521.785156 672.230469 536.335938 665.707031 540.90625 C 664.976562 541.414062 664.167969 541.359375 663.355469 540.976562 C 662.054688 540.375 660.726562 538.949219 659.652344 537.730469 C 658.96875 536.953125 658.386719 536.257812 657.976562 535.902344 C 655.460938 533.730469 652.414062 533.394531 649.730469 534.296875 C 647.027344 535.195312 644.699219 537.339844 643.667969 540.132812 C 641.871094 544.9375 642.710938 551.617188 646.507812 555.359375 C 651.300781 560.082031 659.164062 562.175781 665.398438 561.082031 C 674.101562 559.546875 682.128906 553.269531 685.628906 545.0625 C 687.15625 541.484375 687.832031 537.546875 687.324219 533.476562 C 686.132812 523.847656 680.320312 516.078125 674.941406 508.398438 C 665.320312 494.660156 635.847656 452.554688 626.320312 438.847656 C 616.699219 425.210938 587.210938 383.109375 577.597656 369.378906 C 572.210938 361.691406 566.90625 353.570312 558.265625 349.160156 C 546.21875 343.007812 531.164062 349.335938 524.824219 360.316406 " fill-opacity="1" fill-rule="nonzero"/><path fill="#7851a9" d="M 537.046875 383.503906 C 538.730469 383.484375 540.4375 382.578125 541.394531 381.191406 C 542.179688 380.039062 542.328125 378.789062 541.835938 377.5 C 541.753906 377.3125 541.453125 376.761719 541.226562 376.355469 C 540.515625 375.058594 539.539062 373.28125 539.007812 371.460938 C 537.59375 366.597656 540.183594 364.148438 541.359375 363.324219 C 543.371094 361.917969 545.742188 361.398438 548.222656 361.835938 C 551.898438 362.484375 556.890625 364.933594 565.988281 378.167969 C 566.21875 378.5 566.417969 378.792969 566.585938 379.039062 C 570.015625 383.929688 573.488281 388.878906 576.976562 393.863281 C 580.5625 398.96875 584.164062 404.109375 587.773438 409.269531 C 588.117188 409.765625 588.464844 410.277344 588.824219 410.847656 C 591.257812 414.703125 592.722656 418.617188 593.171875 422.488281 C 594.023438 429.695312 592.558594 435.90625 589.121094 440.179688 L 612.339844 473.339844 C 615.261719 472.339844 618.546875 472.132812 622.050781 472.753906 C 624.777344 473.234375 627.574219 474.191406 630.363281 475.59375 C 634.308594 477.574219 637.863281 480.808594 640.933594 485.183594 C 644.53125 490.332031 648.121094 495.460938 651.6875 500.558594 C 655.183594 505.5625 658.664062 510.53125 662.089844 515.433594 C 662.265625 515.679688 662.472656 515.972656 662.710938 516.296875 C 672.007812 529.339844 672.613281 534.859375 671.980469 538.535156 C 671.554688 541.027344 670.253906 543.097656 668.234375 544.515625 C 666.820312 545.503906 665.105469 545.878906 663.390625 545.582031 C 662.753906 545.46875 662.117188 545.261719 661.503906 544.972656 C 659.5 544.046875 657.84375 542.347656 656.347656 540.644531 L 655.949219 540.195312 C 655.648438 539.84375 655.230469 539.363281 655.097656 539.242188 C 653.945312 538.25 652.5625 537.992188 651.125 538.472656 C 649.617188 538.980469 648.339844 540.199219 647.796875 541.671875 C 646.476562 545.203125 647.285156 549.941406 649.597656 552.21875 C 651.824219 554.414062 655.171875 556.03125 658.78125 556.671875 C 660.828125 557.027344 662.855469 557.054688 664.636719 556.738281 C 671.886719 555.464844 678.699219 550.070312 681.582031 543.328125 C 682.878906 540.289062 683.339844 537.152344 682.953125 534.011719 C 681.964844 526.050781 677.265625 519.375 672.300781 512.308594 L 671.332031 510.925781 C 660.984375 496.15625 632.089844 454.867188 622.71875 441.386719 C 613.242188 427.949219 584.328125 386.675781 573.988281 371.90625 L 573.019531 370.519531 C 568.078125 363.429688 563.402344 356.730469 556.257812 353.085938 C 554.714844 352.296875 553.054688 351.738281 551.335938 351.4375 C 542.902344 349.949219 533.144531 354.714844 528.640625 362.515625 C 526.039062 367.039062 525.664062 373.632812 527.753906 378.199219 C 528.867188 380.644531 531.976562 382.761719 535.304688 383.347656 C 535.902344 383.453125 536.484375 383.503906 537.046875 383.503906 Z M 560.269531 345.234375 C 569.378906 349.886719 574.90625 357.8125 580.25 365.476562 L 581.207031 366.847656 C 591.546875 381.617188 620.453125 422.878906 629.9375 436.332031 C 639.320312 449.820312 668.207031 491.101562 678.550781 505.863281 L 679.507812 507.234375 C 684.886719 514.878906 690.441406 522.785156 691.699219 532.929688 C 692.28125 537.628906 691.605469 542.296875 689.683594 546.792969 C 685.617188 556.308594 676.386719 563.621094 666.164062 565.421875 C 663.378906 565.910156 660.296875 565.886719 657.253906 565.355469 C 651.851562 564.398438 646.933594 561.964844 643.410156 558.496094 C 637.988281 553.148438 637.355469 544.433594 639.535156 538.59375 C 641.007812 534.625 644.300781 531.453125 648.335938 530.117188 C 650.410156 529.414062 652.621094 529.246094 654.714844 529.609375 C 656.988281 530.011719 659.050781 531.003906 660.859375 532.570312 C 661.421875 533.0625 661.964844 533.675781 662.589844 534.394531 L 662.964844 534.820312 C 663.003906 534.863281 663.042969 534.90625 663.078125 534.945312 C 662.824219 533.957031 662.347656 532.617188 661.484375 530.878906 C 659.664062 527.214844 657.074219 523.585938 655.527344 521.414062 C 655.277344 521.066406 655.058594 520.75 654.871094 520.488281 C 651.4375 515.585938 647.964844 510.617188 644.460938 505.613281 C 640.902344 500.515625 637.3125 495.386719 633.710938 490.242188 C 631.457031 487.027344 629.066406 484.808594 626.398438 483.46875 C 624.40625 482.46875 622.375 481.761719 620.515625 481.4375 C 617.625 480.929688 615.242188 481.308594 613.429688 482.582031 L 609.820312 485.109375 L 577.210938 438.527344 L 580.820312 436 C 585.046875 433.042969 584.746094 426.285156 584.421875 423.515625 C 584.117188 420.925781 583.121094 418.324219 581.382812 415.566406 C 581.09375 415.121094 580.824219 414.714844 580.554688 414.324219 C 576.945312 409.171875 573.335938 404.027344 569.765625 398.925781 C 566.261719 393.9375 562.796875 388.984375 559.367188 384.09375 C 559.1875 383.828125 558.96875 383.515625 558.722656 383.160156 C 553.789062 375.980469 550.59375 372.71875 548.546875 371.363281 C 548.703125 371.652344 548.839844 371.90625 548.945312 372.101562 C 549.402344 372.925781 549.804688 373.644531 550.066406 374.339844 C 551.582031 378.335938 551.074219 382.648438 548.671875 386.164062 C 546.09375 389.921875 541.664062 392.28125 537.117188 392.320312 C 536.023438 392.324219 534.898438 392.230469 533.769531 392.03125 C 527.566406 390.9375 522.058594 386.945312 519.734375 381.867188 C 516.449219 374.679688 516.960938 365.132812 521.007812 358.113281 C 527.371094 347.085938 540.769531 340.621094 552.867188 342.757812 C 555.453125 343.210938 557.941406 344.042969 560.269531 345.234375 " fill-opacity="1" fill-rule="nonzero"/><path fill="#7851a9" d="M 565.441406 368.367188 C 604.410156 420.34375 641.992188 472.765625 676.554688 527.738281 C 637.179688 475.261719 599.773438 421.839844 564.105469 366.859375 C 564.183594 366.800781 564.691406 367.378906 565.441406 368.367188 " fill-opacity="1" fill-rule="nonzero"/><path fill="#7851a9" d="M 643.667969 540.132812 C 641.871094 544.9375 642.710938 551.617188 646.507812 555.359375 C 651.300781 560.082031 659.164062 562.175781 665.398438 561.082031 C 674.101562 559.546875 682.128906 553.269531 685.628906 545.0625 L 685.628906 545.054688 C 685.628906 545.054688 671.417969 552.492188 663.355469 540.976562 C 662.480469 539.726562 661.214844 538.65625 659.652344 537.730469 C 657.03125 536.191406 653.570312 535.078125 649.730469 534.296875 C 647.027344 535.195312 644.699219 537.339844 643.667969 540.132812 " fill-opacity="1" fill-rule="nonzero"/><path fill="#7851a9" d="M 537.078125 387.910156 C 531.945312 387.953125 525.957031 384.875 523.742188 380.03125 C 520.945312 373.914062 521.660156 365.808594 524.824219 360.316406 C 529.242188 352.664062 537.886719 347.273438 546.800781 346.785156 C 546.800781 346.785156 534.960938 357.601562 543.023438 369.117188 C 543.890625 370.367188 544.46875 371.925781 544.800781 373.703125 C 545.355469 376.699219 545.210938 380.328125 544.636719 384.207031 C 542.867188 386.4375 540.050781 387.890625 537.078125 387.910156 " fill-opacity="1" fill-rule="nonzero"/><path fill="#7851a9" d="M 587.882812 411.253906 C 589.734375 414.257812 591.007812 417.617188 591.148438 421.355469 C 591.367188 427.5625 589.664062 435.1875 583.347656 439.609375 L 604.546875 483.417969 C 610.863281 478.996094 624.964844 475.554688 630.726562 477.882812 C 634.746094 479.515625 637.761719 482.417969 640.109375 485.765625 L 587.925781 411.234375 L 587.882812 411.253906 " fill-opacity="1" fill-rule="nonzero"/><path fill="#7851a9" d="M 694.070312 365.871094 C 702.246094 373.269531 710.378906 381.132812 719.859375 387.183594 C 709.613281 382.546875 699.542969 376.910156 690.210938 370.726562 L 694.070312 365.871094 " fill-opacity="1" fill-rule="nonzero"/><path fill="#7851a9" d="M 704.511719 360.714844 C 711.753906 367.484375 719.066406 374.179688 727.046875 379.957031 C 718.304688 375.585938 709.058594 371.125 700.679688 365.601562 L 704.511719 360.714844 " fill-opacity="1" fill-rule="nonzero"/><path fill="#7851a9" d="M 714.835938 355.460938 C 720.855469 361.117188 727.046875 366.839844 733.828125 372.152344 C 725.902344 368.953125 718.652344 364.84375 711.046875 360.371094 L 714.835938 355.460938 " fill-opacity="1" fill-rule="nonzero"/><path fill="#7851a9" d="M 723.675781 349.585938 C 728.664062 354.773438 734.332031 359.113281 739.609375 364.167969 C 732.980469 360.933594 726.636719 357.507812 719.953125 354.554688 L 723.675781 349.585938 " fill-opacity="1" fill-rule="nonzero"/><path fill="#7851a9" d="M 684.46875 371.675781 C 693.351562 379.933594 702.277344 387.683594 712.171875 394.320312 C 701.21875 389.296875 690.742188 383.078125 680.589844 376.523438 L 684.46875 371.675781 " fill-opacity="1" fill-rule="nonzero"/><path fill="#7851a9" d="M 675.253906 377.792969 C 684.253906 386.308594 693.675781 394.144531 703.777344 401.070312 C 692.324219 395.964844 681.933594 389.242188 671.367188 382.636719 L 675.253906 377.792969 " fill-opacity="1" fill-rule="nonzero"/><path fill="#7851a9" d="M 666.363281 384.175781 C 675.152344 392.675781 684.875 400.308594 695.175781 407.53125 C 683.730469 402.421875 673.039062 395.910156 662.480469 389.015625 L 666.363281 384.175781 " fill-opacity="1" fill-rule="nonzero"/><path fill="#7851a9" d="M 657.8125 390.824219 C 666.84375 398.929688 675.976562 406.976562 686.074219 413.902344 C 675.214844 408.382812 664.148438 402.570312 653.941406 395.671875 L 657.8125 390.824219 " fill-opacity="1" fill-rule="nonzero"/><path fill="#7851a9" d="M 649.640625 397.765625 C 658.15625 405.894531 667.171875 413.136719 676.566406 419.6875 C 665.820312 414.957031 655.546875 409.035156 645.789062 402.640625 L 649.640625 397.765625 " fill-opacity="1" fill-rule="nonzero"/><path fill="#7851a9" d="M 641.90625 405.054688 C 649.847656 412.144531 658.074219 419.511719 666.765625 425.671875 C 656.8125 420.832031 647.359375 416.078125 638.089844 409.945312 L 641.90625 405.054688 " fill-opacity="1" fill-rule="nonzero"/><path fill="#7851a9" d="M 634.679688 412.71875 C 641.367188 419.394531 648.855469 425.089844 656.046875 430.992188 C 647.503906 426.914062 638.757812 422.539062 630.914062 417.648438 L 634.679688 412.71875 " fill-opacity="1" fill-rule="nonzero"/><path fill="#7851a9" d="M 628.105469 420.839844 C 633.265625 425.941406 639.347656 430.878906 644.632812 435.921875 C 637.789062 432.398438 630.863281 429.375 624.394531 425.8125 L 628.105469 420.839844 " fill-opacity="1" fill-rule="nonzero"/><path fill="#ffffff" d="M 645.121094 549.839844 C 650.050781 559.863281 664.691406 561.414062 673.707031 555.539062 C 664.222656 558.242188 652.984375 557.804688 645.757812 550.191406 C 645.65625 550.117188 645.230469 549.746094 645.121094 549.839844 " fill-opacity="1" fill-rule="nonzero"/><path fill="#ffffff" d="M 651.855469 538.484375 C 649.96875 539.8125 649.511719 542.414062 650.832031 544.296875 C 652.152344 546.1875 654.753906 546.648438 656.640625 545.324219 C 658.53125 544.003906 658.988281 541.402344 657.667969 539.511719 C 656.34375 537.621094 653.738281 537.167969 651.855469 538.484375 " fill-opacity="1" fill-rule="nonzero"/><path fill="#ffffff" d="M 653.921875 548.195312 C 652.957031 548.875 652.71875 550.210938 653.394531 551.171875 C 654.078125 552.140625 655.410156 552.375 656.375 551.699219 C 657.34375 551.023438 657.582031 549.691406 656.898438 548.71875 C 656.222656 547.757812 654.890625 547.519531 653.921875 548.195312 " fill-opacity="1" fill-rule="nonzero"/><path fill="#ffffff" d="M 532.777344 354.523438 C 524.699219 360.234375 521.589844 372.03125 526.46875 380.871094 C 527.082031 381.746094 527.410156 382.835938 528.609375 383.304688 C 524.03125 374.265625 526.757812 363.167969 532.488281 355.203125 C 532.542969 355.09375 532.871094 354.636719 532.777344 354.523438 " fill-opacity="1" fill-rule="nonzero"/><path fill="#ffffff" d="M 541.421875 380.777344 C 539.53125 382.097656 536.929688 381.640625 535.609375 379.75 C 534.289062 377.863281 534.746094 375.261719 536.636719 373.941406 C 538.523438 372.613281 541.128906 373.078125 542.445312 374.964844 C 543.765625 376.847656 543.308594 379.453125 541.421875 380.777344 " fill-opacity="1" fill-rule="nonzero"/><path fill="#ffffff" d="M 533.007812 375.511719 C 532.039062 376.1875 530.707031 375.953125 530.03125 374.984375 C 529.355469 374.015625 529.585938 372.683594 530.554688 372.007812 C 531.523438 371.332031 532.855469 371.570312 533.53125 372.53125 C 534.207031 373.503906 533.972656 374.835938 533.007812 375.511719 " fill-opacity="1" fill-rule="nonzero"/><path fill="#7851a9" d="M 181.144531 752.34375 C 182.164062 751.589844 206.472656 733.496094 246.152344 704.640625 C 269.417969 687.71875 254.039062 697.984375 277.617188 681.113281 C 307.15625 659.976562 328.085938 645.09375 356.457031 625.226562 C 384.824219 605.363281 414.402344 584.882812 444.367188 564.351562 C 468.28125 547.96875 492.503906 531.511719 516.355469 515.441406 C 557.046875 488.023438 582.363281 471.363281 583.421875 470.667969 C 586.375 468.722656 588.261719 467.636719 588.375 467.796875 C 588.496094 467.96875 586.824219 469.367188 583.984375 471.476562 C 582.96875 472.234375 558.660156 490.320312 518.984375 519.179688 C 495.71875 536.097656 471.972656 553.230469 448.394531 570.101562 C 418.855469 591.238281 389.492188 612.027344 361.125 631.886719 C 332.753906 651.753906 311.605469 666.332031 281.640625 686.863281 C 257.726562 703.246094 272.625 692.308594 248.773438 708.382812 C 208.082031 735.800781 182.769531 752.457031 181.714844 753.152344 C 178.761719 755.097656 176.871094 756.1875 176.753906 756.015625 C 176.640625 755.855469 178.3125 754.453125 181.144531 752.34375 " fill-opacity="1" fill-rule="nonzero"/><path fill="#7851a9" d="M 771.183594 307.304688 C 771.183594 307.304688 748.898438 328.730469 743.355469 343.542969 L 747.183594 346.695312 L 747.203125 346.710938 C 773.835938 319.199219 794.488281 321.09375 794.488281 321.09375 C 783.898438 305.980469 771.183594 307.304688 771.183594 307.304688 " fill-opacity="1" fill-rule="nonzero"/><path fill="#ffffff" d="M 782.277344 348.097656 L 756.324219 347.816406 L 764.9375 323.332031 L 790.886719 323.613281 L 782.277344 348.097656 " fill-opacity="1" fill-rule="nonzero"/><path fill="#7851a9" d="M 780.390625 345.410156 L 760.109375 345.183594 L 766.839844 326.054688 L 787.121094 326.273438 L 780.390625 345.410156 " fill-opacity="1" fill-rule="nonzero"/><path fill="#ffffff" d="M 791.5 328.925781 L 785.195312 346.839844 " fill-opacity="1" fill-rule="nonzero"/><path fill="#7851a9" d="M 785.15625 346.621094 C 785.164062 346.578125 785.3125 345.546875 785.675781 343.914062 C 785.886719 342.957031 786.125 341.988281 786.390625 341.035156 C 786.71875 339.847656 787.082031 338.683594 787.472656 337.578125 C 787.859375 336.46875 788.304688 335.335938 788.792969 334.203125 C 789.183594 333.296875 789.597656 332.390625 790.035156 331.515625 C 790.78125 330.011719 791.304688 329.105469 791.332031 329.070312 C 791.386719 328.96875 791.457031 328.914062 791.5 328.925781 C 791.542969 328.945312 791.5625 329.023438 791.542969 329.144531 C 791.539062 329.1875 791.382812 330.226562 791.023438 331.859375 C 790.8125 332.816406 790.566406 333.785156 790.304688 334.738281 C 789.980469 335.925781 789.617188 337.089844 789.222656 338.195312 C 788.835938 339.304688 788.390625 340.433594 787.902344 341.566406 C 787.515625 342.472656 787.097656 343.375 786.65625 344.257812 C 785.917969 345.757812 785.386719 346.660156 785.371094 346.695312 C 785.308594 346.804688 785.238281 346.859375 785.195312 346.839844 C 785.15625 346.828125 785.136719 346.746094 785.15625 346.621094 " fill-opacity="1" fill-rule="nonzero"/><path fill="#ffffff" d="M 761.117188 349.355469 L 780.183594 349.5625 " fill-opacity="1" fill-rule="nonzero"/><path fill="#7851a9" d="M 779.988281 349.675781 C 779.945312 349.679688 778.914062 349.867188 777.242188 350.054688 C 776.265625 350.164062 775.265625 350.242188 774.277344 350.300781 C 773.046875 350.375 771.820312 350.398438 770.636719 350.386719 C 769.460938 350.375 768.242188 350.320312 767.003906 350.226562 C 766.019531 350.144531 765.027344 350.039062 764.042969 349.914062 C 762.378906 349.695312 761.355469 349.480469 761.308594 349.472656 C 761.191406 349.449219 761.117188 349.40625 761.117188 349.355469 C 761.117188 349.3125 761.191406 349.269531 761.308594 349.242188 C 761.355469 349.238281 762.386719 349.050781 764.054688 348.867188 C 765.039062 348.761719 766.035156 348.675781 767.023438 348.617188 C 768.261719 348.546875 769.480469 348.515625 770.664062 348.53125 C 771.839844 348.542969 773.066406 348.597656 774.296875 348.699219 C 775.285156 348.773438 776.28125 348.878906 777.257812 349.011719 C 778.917969 349.230469 779.953125 349.4375 779.988281 349.449219 C 780.113281 349.472656 780.183594 349.519531 780.183594 349.5625 C 780.183594 349.613281 780.109375 349.648438 779.988281 349.675781 " fill-opacity="1" fill-rule="nonzero"/><path fill="#7851a9" d="M 551.582031 249.46875 C 544.097656 248.734375 538.992188 239.144531 538.992188 239.144531 C 511.101562 221.523438 399.695312 214.960938 399.695312 214.960938 C 399.695312 214.960938 288.289062 221.523438 260.394531 239.144531 C 260.394531 239.144531 255.292969 248.734375 247.808594 249.46875 C 240.328125 250.199219 236.675781 250.34375 236.675781 250.34375 C 236.675781 250.34375 235.785156 272.585938 399.695312 272.585938 C 563.601562 272.585938 562.714844 250.34375 562.714844 250.34375 C 562.714844 250.34375 559.0625 250.199219 551.582031 249.46875 " fill-opacity="1" fill-rule="nonzero"/><path fill="#ffffff" d="M 423.828125 256.296875 C 466.46875 253.808594 511.167969 249.410156 549.273438 228.160156 C 513.363281 251.605469 468.667969 256.003906 426.542969 256.480469 C 426.050781 256.46875 423.785156 256.449219 423.828125 256.296875 " fill-opacity="1" fill-rule="nonzero"/><path fill="#ffffff" d="M 417.515625 241.855469 C 463.539062 241.347656 511.167969 235.484375 552.207031 212.039062 C 513.363281 236.21875 465.734375 242.816406 420.433594 241.992188 C 419.902344 241.980469 417.46875 241.929688 417.515625 241.855469 " fill-opacity="1" fill-rule="nonzero"/><path fill="#ffffff" d="M 379.820312 257.628906 C 336.765625 256.734375 292.066406 251.605469 253.960938 229.625 C 292.066406 248.679688 335.300781 252.34375 377.125 257.199219 C 377.621094 257.261719 379.871094 257.480469 379.820312 257.628906 " fill-opacity="1" fill-rule="nonzero"/><path fill="#ffffff" d="M 386.203125 242.523438 C 339.699219 242.816406 292.066406 236.21875 251.03125 212.773438 C 291.335938 233.289062 337.503906 241.347656 383.28125 242.359375 C 383.820312 242.375 386.253906 242.449219 386.203125 242.523438 " fill-opacity="1" fill-rule="nonzero"/><path fill="#ffffff" d="M 570.121094 82.480469 L 583.222656 97.449219 C 583.222656 97.449219 570.109375 154.074219 537.992188 143.304688 C 510.054688 133.933594 513.195312 93.289062 513.195312 93.289062 L 521.527344 83.167969 L 505.476562 63.859375 L 489.425781 83.167969 L 498.058594 93.289062 C 498.058594 93.289062 501.199219 133.933594 473.253906 143.304688 C 462.320312 146.96875 451.878906 143.371094 442.902344 136.878906 C 432.480469 129.347656 423.730469 117.65625 418.726562 105.871094 C 413.707031 94.042969 412.988281 80.84375 413.089844 68.148438 L 427.414062 48.652344 L 400.039062 11.398438 L 372.664062 48.652344 L 386.988281 68.148438 C 387.085938 80.84375 386.371094 94.042969 381.347656 105.871094 C 376.34375 117.65625 367.589844 129.347656 357.171875 136.878906 C 348.199219 143.371094 337.757812 146.96875 326.816406 143.304688 C 298.878906 133.933594 302.015625 93.289062 302.015625 93.289062 L 310.648438 83.167969 L 294.59375 63.859375 L 278.542969 83.167969 L 286.882812 93.289062 C 286.882812 93.289062 290.015625 133.933594 262.078125 143.304688 C 229.96875 154.074219 216.859375 97.449219 216.859375 97.449219 L 229.957031 82.480469 L 187.53125 63.351562 L 246.175781 239.746094 C 246.175781 217.21875 315.0625 198.960938 400.039062 198.960938 C 485.015625 198.960938 553.902344 217.21875 553.902344 239.746094 L 612.539062 63.351562 L 570.121094 82.480469 " fill-opacity="1" fill-rule="nonzero"/><g clip-path="url(#08de67ef59)"><path fill="#7851a9" d="M 194.257812 70.800781 L 246.648438 228.386719 C 255.058594 218.265625 273.808594 211.359375 290.210938 207.011719 C 319.597656 199.222656 358.601562 194.929688 400.039062 194.929688 C 465.921875 194.929688 535.371094 206.566406 553.433594 228.375 L 605.816406 70.800781 L 576.734375 83.917969 L 586.253906 94.796875 C 587.105469 95.773438 587.4375 97.101562 587.148438 98.363281 C 586.675781 100.414062 575.15625 148.695312 545.9375 148.695312 C 542.929688 148.695312 539.824219 148.164062 536.710938 147.125 C 523.90625 142.828125 515.078125 131.96875 511.199219 115.722656 C 508.375 103.90625 509.140625 93.421875 509.171875 92.984375 C 509.238281 92.160156 509.554688 91.371094 510.082031 90.730469 L 516.300781 83.179688 L 505.476562 70.164062 L 494.699219 83.136719 L 501.128906 90.675781 C 501.679688 91.328125 502.011719 92.132812 502.078125 92.984375 C 502.109375 93.421875 502.875 103.90625 500.054688 115.722656 C 496.175781 131.96875 487.347656 142.828125 474.535156 147.125 C 471.222656 148.238281 467.800781 148.800781 464.359375 148.800781 C 456.496094 148.800781 448.480469 145.886719 440.542969 140.144531 C 429.859375 132.425781 420.558594 120.503906 415.015625 107.441406 C 409.597656 94.679688 408.964844 80.398438 409.058594 68.117188 C 409.066406 67.265625 409.339844 66.449219 409.839844 65.761719 L 422.410156 48.652344 L 400.039062 18.207031 L 377.667969 48.652344 L 390.238281 65.761719 C 390.738281 66.449219 391.011719 67.265625 391.019531 68.117188 C 391.113281 80.398438 390.480469 94.679688 385.0625 107.441406 C 379.515625 120.503906 370.210938 132.425781 359.535156 140.144531 C 351.597656 145.886719 343.582031 148.800781 335.714844 148.800781 C 332.277344 148.800781 328.855469 148.238281 325.535156 147.125 C 312.730469 142.828125 303.902344 131.96875 300.019531 115.722656 C 297.199219 103.90625 297.960938 93.421875 298 92.984375 C 298.0625 92.132812 298.398438 91.328125 298.949219 90.675781 L 305.378906 83.136719 L 294.59375 70.164062 L 283.773438 83.179688 L 289.992188 90.730469 C 290.523438 91.371094 290.835938 92.160156 290.898438 92.984375 C 290.9375 93.421875 291.699219 103.90625 288.878906 115.722656 C 284.992188 131.96875 276.171875 142.828125 263.363281 147.125 C 260.253906 148.164062 257.148438 148.695312 254.140625 148.695312 L 254.132812 148.695312 C 224.914062 148.695312 213.40625 100.414062 212.929688 98.363281 C 212.636719 97.101562 212.96875 95.773438 213.824219 94.796875 L 223.339844 83.917969 Z M 553.902344 243.773438 C 553.6875 243.773438 553.476562 243.753906 553.257812 243.722656 C 551.304688 243.40625 549.871094 241.722656 549.871094 239.746094 C 549.871094 236.511719 546.839844 225.152344 507.804688 214.804688 C 479.070312 207.1875 440.792969 202.996094 400.039062 202.996094 C 359.277344 202.996094 321.007812 207.1875 292.273438 214.804688 C 253.238281 225.152344 250.207031 236.511719 250.207031 239.746094 C 250.207031 241.722656 248.773438 243.40625 246.820312 243.722656 C 244.871094 244.035156 242.976562 242.890625 242.347656 241.015625 L 183.710938 64.621094 C 183.203125 63.101562 183.648438 61.429688 184.835938 60.359375 C 186.023438 59.285156 187.730469 59.015625 189.1875 59.671875 L 231.609375 78.808594 C 232.773438 79.335938 233.621094 80.378906 233.890625 81.625 C 234.160156 82.867188 233.828125 84.175781 232.992188 85.132812 L 221.285156 98.5 C 223.632812 107.058594 234.105469 140.632812 254.132812 140.632812 L 254.140625 140.632812 C 256.28125 140.632812 258.519531 140.246094 260.796875 139.480469 C 282.859375 132.082031 283.121094 101.355469 282.921875 94.824219 L 275.433594 85.726562 C 274.203125 84.238281 274.207031 82.082031 275.449219 80.59375 L 291.5 61.289062 C 292.261719 60.359375 293.402344 59.828125 294.59375 59.828125 C 295.796875 59.828125 296.929688 60.359375 297.691406 61.289062 L 313.75 80.59375 C 315 82.097656 314.988281 84.289062 313.710938 85.785156 L 305.980469 94.859375 C 305.78125 101.460938 306.074219 132.09375 328.101562 139.480469 C 336.558594 142.316406 345.539062 140.3125 354.8125 133.613281 C 364.195312 126.828125 372.726562 115.867188 377.636719 104.292969 C 382.296875 93.328125 383.003906 81.125 382.960938 69.476562 L 369.417969 51.039062 C 368.375 49.621094 368.375 47.6875 369.417969 46.265625 L 396.785156 9.007812 C 397.550781 7.976562 398.757812 7.363281 400.039062 7.363281 C 401.320312 7.363281 402.523438 7.976562 403.285156 9.007812 L 430.660156 46.265625 C 431.703125 47.6875 431.703125 49.621094 430.660156 51.039062 L 417.109375 69.476562 C 417.074219 81.125 417.78125 93.328125 422.433594 104.292969 C 427.34375 115.867188 435.882812 126.828125 445.265625 133.613281 C 454.53125 140.320312 463.515625 142.316406 471.976562 139.480469 C 494.058594 132.074219 494.3125 101.464844 494.097656 94.859375 L 486.359375 85.785156 C 485.089844 84.289062 485.078125 82.097656 486.328125 80.59375 L 502.378906 61.289062 C 503.144531 60.359375 504.28125 59.828125 505.476562 59.828125 C 506.679688 59.828125 507.808594 60.359375 508.578125 61.289062 L 524.632812 80.59375 C 525.871094 82.082031 525.871094 84.238281 524.644531 85.726562 L 517.15625 94.824219 C 516.957031 101.339844 517.210938 132.082031 539.277344 139.480469 C 541.558594 140.246094 543.796875 140.632812 545.9375 140.632812 C 565.960938 140.632812 576.441406 107.058594 578.785156 98.5 L 567.085938 85.132812 C 566.25 84.175781 565.910156 82.867188 566.179688 81.625 C 566.457031 80.378906 567.300781 79.335938 568.464844 78.808594 L 610.882812 59.671875 C 612.347656 59.015625 614.054688 59.285156 615.242188 60.359375 C 616.433594 61.429688 616.871094 63.101562 616.363281 64.621094 L 557.722656 241.015625 C 557.171875 242.6875 555.613281 243.773438 553.902344 243.773438 " fill-opacity="1" fill-rule="nonzero"/></g><path fill="#7851a9" d="M 400.039062 11.398438 L 372.664062 48.652344 L 386.988281 68.148438 C 386.988281 68.148438 386.988281 153.800781 324.296875 142.339844 L 306.40625 122.652344 C 300.125 128.933594 294.59375 145.699219 294.59375 145.699219 L 294.59375 63.859375 L 278.542969 83.167969 L 286.914062 92.984375 C 286.667969 93.496094 286.351562 96.539062 286.351562 109.128906 C 286.351562 129.308594 267.808594 140.890625 267.808594 140.890625 C 268.355469 141.433594 269.011719 141.914062 269.75 142.351562 C 268.140625 141.535156 267.808594 140.890625 267.808594 140.890625 C 264.332031 144.359375 253.496094 144.65625 253.496094 144.65625 C 229.28125 144.65625 216.859375 97.449219 216.859375 97.449219 L 229.957031 82.480469 L 187.53125 63.351562 C 187.53125 63.351562 239.460938 159.457031 246.175781 239.746094 L 253.496094 227.285156 C 291.292969 198.765625 402.058594 198.960938 402.058594 198.960938 L 375.742188 149.144531 L 400.039062 112.90625 L 400.039062 11.398438 " fill-opacity="1" fill-rule="nonzero"/><path stroke-linecap="butt" transform="matrix(0.160142, 0, 0, -0.160142, 4.644131, 802.551004)" fill="none" stroke-linejoin="miter" d="M 2469.021718 3795.745543 L 2620.693422 4080.160478 L 2469.021718 4306.448415 L 2317.301229 4080.160478 Z M 2469.021718 3795.745543 " stroke="#212222" stroke-width="10" stroke-opacity="1" stroke-miterlimit="10"/><path fill="#ffffff" d="M 379.402344 176.234375 C 336.765625 178.722656 292.066406 183.121094 253.964844 204.371094 C 289.867188 180.917969 334.570312 176.519531 376.6875 176.050781 C 377.1875 176.058594 379.445312 176.078125 379.402344 176.234375 " fill-opacity="1" fill-rule="nonzero"/><path fill="#ffffff" d="M 349.59375 152.949219 C 316.246094 154.539062 282.542969 162.601562 251.03125 175.058594 C 281.078125 159.667969 314.050781 151.609375 347.460938 152.769531 C 347.847656 152.773438 349.625 152.792969 349.59375 152.949219 " fill-opacity="1" fill-rule="nonzero"/><path fill="#7851a9" d="M 400.039062 112.90625 C 400.039062 112.90625 413.957031 84.425781 416.335938 99.097656 C 420.339844 123.769531 446.675781 149.683594 475.78125 142.339844 L 493.667969 122.652344 C 499.945312 128.933594 505.476562 145.699219 505.476562 145.699219 L 505.476562 63.859375 L 521.527344 83.167969 L 513.160156 92.984375 C 513.402344 93.496094 513.722656 96.539062 513.722656 109.128906 C 513.722656 129.308594 532.269531 140.890625 532.269531 140.890625 C 531.726562 141.433594 531.0625 141.914062 530.324219 142.351562 C 531.9375 141.535156 532.269531 140.890625 532.269531 140.890625 C 535.742188 144.359375 546.574219 144.65625 546.574219 144.65625 C 570.792969 144.65625 583.222656 97.449219 583.222656 97.449219 L 570.121094 82.480469 L 612.539062 63.351562 C 612.539062 63.351562 561.300781 159.457031 553.902344 239.746094 L 546.574219 227.285156 C 508.785156 198.765625 398.019531 198.960938 398.019531 198.960938 L 424.328125 149.144531 L 400.039062 112.90625 " fill-opacity="1" fill-rule="nonzero"/><path fill="#ffffff" d="M 387.222656 46.375 L 400.039062 63.3125 L 412.855469 46.375 L 400.039062 29.433594 L 387.222656 46.375 " fill-opacity="1" fill-rule="nonzero"/><path fill="#ffffff" d="M 286.292969 83.199219 L 294.796875 93.578125 L 303.304688 83.199219 L 294.796875 72.824219 L 286.292969 83.199219 " fill-opacity="1" fill-rule="nonzero"/><path fill="#ffffff" d="M 496.773438 83.199219 L 505.277344 93.578125 L 513.785156 83.199219 L 505.277344 72.824219 L 496.773438 83.199219 " fill-opacity="1" fill-rule="nonzero"/><path fill="#7851a9" d="M 400.027344 179.554688 L 415.320312 150.867188 L 400.027344 128.046875 L 384.726562 150.867188 L 400.027344 179.554688 " fill-opacity="1" fill-rule="nonzero"/><path fill="#ffffff" d="M 418.976562 150.035156 L 394.316406 174.699219 L 391.53125 171.917969 L 416.191406 147.25 L 418.976562 150.035156 " fill-opacity="1" fill-rule="nonzero"/><path fill="#ffffff" d="M 405 133.675781 L 382.707031 155.972656 L 380.808594 154.070312 L 403.097656 131.773438 L 405 133.675781 " fill-opacity="1" fill-rule="nonzero"/><path fill="#ffffff" d="M 414.878906 143.558594 L 391.238281 167.199219 L 385.875 161.839844 L 409.515625 138.191406 L 414.878906 143.558594 " fill-opacity="1" fill-rule="nonzero"/><path fill="#ffffff" d="M 369.097656 164.460938 C 329.4375 165.53125 289.132812 172.128906 253.226562 189.714844 C 287.671875 170.660156 327.976562 164.796875 366.585938 164.417969 C 367.046875 164.410156 369.144531 164.386719 369.097656 164.460938 " fill-opacity="1" fill-rule="nonzero"/><path fill="#ffffff" d="M 385.714844 190.675781 C 339.699219 191.175781 292.066406 197.039062 251.03125 220.492188 C 289.867188 196.308594 337.503906 189.714844 382.800781 190.539062 C 383.335938 190.546875 385.765625 190.601562 385.714844 190.675781 " fill-opacity="1" fill-rule="nonzero"/><path fill="#ffffff" d="M 549.683594 225.320312 C 541.628906 220.265625 529.59375 215.535156 514.878906 211.640625 C 484.144531 203.496094 443.265625 199.003906 399.78125 199.003906 C 356.308594 199.003906 315.433594 203.496094 284.691406 211.640625 C 269.980469 215.535156 257.945312 220.265625 249.886719 225.320312 C 241.515625 230.570312 237.269531 236.109375 237.269531 241.796875 C 237.269531 250.46875 247.335938 255.398438 253.785156 249.390625 C 257.511719 245.921875 260.910156 242.792969 265.539062 240.496094 C 273.289062 236.667969 281.722656 234.097656 290.058594 231.890625 C 319.097656 224.1875 358.066406 219.953125 399.78125 219.953125 C 441.507812 219.953125 480.472656 224.1875 509.511719 231.890625 C 517.851562 234.097656 526.28125 236.667969 534.035156 240.496094 C 538.664062 242.792969 542.058594 245.921875 545.78125 249.390625 C 552.238281 255.398438 562.300781 250.46875 562.300781 241.796875 C 562.300781 236.109375 558.054688 230.570312 549.683594 225.320312 " fill-opacity="1" fill-rule="nonzero"/><path fill="#7851a9" d="M 399.78125 215.925781 C 441.84375 215.925781 481.179688 220.210938 510.542969 227.992188 C 518.308594 230.050781 527.382812 232.714844 535.824219 236.886719 C 541.039062 239.46875 544.847656 243.011719 548.535156 246.4375 C 549.648438 247.476562 550.921875 248.007812 552.320312 248.007812 C 553.808594 248.007812 555.300781 247.382812 556.421875 246.289062 C 557.265625 245.46875 558.273438 244.019531 558.273438 241.796875 C 558.273438 236.554688 552.4375 231.800781 547.546875 228.730469 C 539.824219 223.894531 528.171875 219.332031 513.847656 215.535156 C 483.4375 207.472656 442.925781 203.03125 399.78125 203.03125 C 356.644531 203.03125 316.140625 207.472656 285.726562 215.535156 C 271.398438 219.332031 259.746094 223.894531 252.03125 228.730469 C 247.132812 231.800781 241.296875 236.554688 241.296875 241.796875 C 241.296875 245.632812 244.394531 248.007812 247.253906 248.007812 C 248.648438 248.007812 249.925781 247.476562 251.042969 246.4375 C 254.722656 243.011719 258.53125 239.46875 263.753906 236.886719 C 272.1875 232.714844 281.265625 230.050781 289.027344 227.992188 C 318.390625 220.210938 357.726562 215.925781 399.78125 215.925781 Z M 552.320312 256.066406 L 552.3125 256.066406 C 548.867188 256.066406 545.664062 254.777344 543.042969 252.339844 C 539.632812 249.167969 536.410156 246.171875 532.25 244.113281 C 524.449219 240.257812 515.855469 237.738281 508.480469 235.785156 C 479.773438 228.171875 441.167969 223.980469 399.78125 223.980469 C 358.402344 223.980469 319.800781 228.171875 291.09375 235.785156 C 283.71875 237.738281 275.121094 240.257812 267.328125 244.113281 C 263.160156 246.171875 259.941406 249.167969 256.53125 252.339844 C 253.914062 254.777344 250.707031 256.066406 247.253906 256.066406 C 239.527344 256.066406 233.242188 249.667969 233.242188 241.796875 C 233.242188 234.628906 238.121094 227.933594 247.746094 221.90625 C 256.144531 216.644531 268.558594 211.746094 283.660156 207.742188 C 314.726562 199.511719 355.96875 194.976562 399.78125 194.976562 C 443.609375 194.976562 484.847656 199.511719 515.910156 207.742188 C 531.011719 211.746094 543.429688 216.644531 551.824219 221.90625 C 561.453125 227.933594 566.332031 234.628906 566.332031 241.796875 C 566.332031 245.726562 564.8125 249.375 562.046875 252.0625 C 559.429688 254.609375 555.882812 256.066406 552.320312 256.066406 " fill-opacity="1" fill-rule="nonzero"/><path fill="#7851a9" d="M 257.304688 233.519531 C 257.605469 233.382812 261.316406 231.425781 268.191406 228.84375 C 275.058594 226.253906 285.105469 223.105469 297.785156 220.316406 C 312.667969 217.089844 328.019531 214.792969 343.308594 213.421875 C 344.515625 213.296875 345.710938 213.171875 346.886719 213.054688 C 348.097656 212.964844 349.300781 212.878906 350.476562 212.789062 C 352.929688 212.617188 355.3125 212.445312 357.640625 212.285156 C 358.839844 212.191406 360.027344 212.109375 361.203125 212.019531 C 362.394531 211.925781 363.582031 211.851562 364.769531 211.816406 C 367.199219 211.714844 369.5625 211.613281 371.875 211.519531 C 374.285156 211.421875 376.636719 211.320312 378.9375 211.21875 C 379.535156 211.195312 380.117188 211.171875 380.695312 211.144531 C 381.292969 211.140625 381.875 211.132812 382.460938 211.121094 C 383.636719 211.109375 384.808594 211.09375 385.964844 211.082031 C 390.695312 211.015625 395.261719 210.953125 399.78125 210.890625 C 418.085938 211.007812 437.148438 211.613281 456.265625 213.421875 C 471.554688 214.792969 486.910156 217.089844 501.785156 220.316406 C 514.464844 223.105469 524.511719 226.253906 531.382812 228.84375 C 538.257812 231.425781 541.964844 233.382812 542.265625 233.519531 C 543.941406 234.351562 544.949219 234.910156 545.003906 234.828125 C 545.054688 234.753906 544.128906 234.039062 542.484375 233.113281 C 542.191406 232.957031 538.554688 230.800781 531.757812 227.910156 C 524.957031 225.015625 514.960938 221.449219 502.273438 218.234375 C 487.398438 214.511719 471.972656 211.816406 456.609375 210.164062 C 437.371094 207.992188 418.222656 207.203125 399.757812 207.085938 C 399.75 209.851562 399.769531 208.761719 399.78125 208.988281 L 399.8125 208.988281 L 399.8125 207.59375 C 399.820312 206.746094 399.808594 207.210938 399.800781 207.085938 L 399.625 207.085938 L 399.414062 207.089844 L 398.980469 207.097656 L 398.113281 207.109375 L 396.378906 207.136719 C 395.222656 207.152344 394.058594 207.171875 392.894531 207.191406 C 390.585938 207.230469 388.253906 207.273438 385.882812 207.3125 C 384.714844 207.328125 383.539062 207.355469 382.355469 207.375 C 381.765625 207.386719 381.179688 207.398438 380.585938 207.40625 C 379.996094 207.4375 379.410156 207.46875 378.8125 207.492188 C 376.492188 207.609375 374.128906 207.730469 371.707031 207.855469 C 369.378906 207.972656 366.996094 208.097656 364.550781 208.222656 C 363.355469 208.273438 362.160156 208.363281 360.96875 208.472656 C 359.785156 208.574219 358.589844 208.679688 357.375 208.78125 C 355.042969 208.980469 352.648438 209.1875 350.175781 209.40625 C 348.988281 209.507812 347.785156 209.617188 346.566406 209.726562 C 345.382812 209.871094 344.183594 210.011719 342.964844 210.164062 C 327.601562 211.816406 312.171875 214.511719 297.292969 218.234375 C 284.613281 221.449219 274.617188 225.015625 267.820312 227.910156 C 261.015625 230.800781 257.382812 232.957031 257.085938 233.113281 C 255.449219 234.039062 254.515625 234.753906 254.574219 234.828125 C 254.621094 234.910156 255.628906 234.351562 257.304688 233.519531 " fill-opacity="1" fill-rule="nonzero"/><path fill="#ffffff" d="M 395.484375 66.183594 C 395.386719 80.527344 395.386719 95.1875 395.386719 109.84375 C 394.652344 95.917969 394.652344 81.261719 395.328125 67.097656 C 395.347656 66.929688 395.402344 66.171875 395.484375 66.183594 " fill-opacity="1" fill-rule="nonzero"/><path fill="#ffffff" d="M 290.765625 99.839844 C 291.335938 114.234375 291.335938 128.890625 290.597656 143.546875 C 289.867188 129.621094 289.867188 114.964844 290.609375 100.753906 C 290.628906 100.585938 290.6875 99.820312 290.765625 99.839844 " fill-opacity="1" fill-rule="nonzero"/><path fill="#ffffff" d="M 511.34375 99.847656 C 511.902344 114.234375 511.902344 128.890625 511.167969 143.546875 C 510.4375 129.621094 510.4375 114.964844 511.195312 100.757812 C 511.214844 100.589844 511.269531 99.832031 511.34375 99.847656 " fill-opacity="1" fill-rule="nonzero"/><path fill="#ffffff" d="M 241.921875 169.0625 C 231.976562 146.480469 222.457031 123.03125 212.929688 99.582031 C 223.921875 121.566406 232.710938 145.011719 241.46875 167.554688 C 241.5625 167.832031 242.003906 169.058594 241.921875 169.0625 " fill-opacity="1" fill-rule="nonzero"/><path fill="#ffffff" d="M 559.492188 168.8125 C 569.058594 145.011719 578.585938 122.296875 588.113281 99.582031 C 580.050781 123.03125 570.523438 145.011719 560.238281 167.429688 C 560.113281 167.6875 559.554688 168.871094 559.492188 168.8125 " fill-opacity="1" fill-rule="nonzero"/><path fill="#7851a9" d="M 400.453125 188.476562 C 400.414062 188.382812 399.46875 186.171875 397.832031 182.652344 C 396.867188 180.585938 395.867188 178.496094 394.851562 176.441406 C 393.578125 173.863281 392.28125 171.328125 391 168.90625 C 389.710938 166.492188 388.335938 163.996094 386.910156 161.5 C 385.777344 159.511719 384.601562 157.511719 383.429688 155.558594 C 381.421875 152.230469 380.121094 150.210938 380.066406 150.128906 C 379.914062 149.890625 379.796875 149.757812 379.753906 149.785156 C 379.707031 149.804688 379.753906 149.976562 379.863281 150.234375 C 379.902344 150.328125 380.847656 152.535156 382.484375 156.058594 C 383.441406 158.125 384.449219 160.21875 385.464844 162.269531 C 386.734375 164.847656 388.035156 167.382812 389.316406 169.800781 C 390.605469 172.222656 391.976562 174.714844 393.402344 177.207031 C 394.539062 179.199219 395.710938 181.199219 396.886719 183.152344 C 398.886719 186.480469 400.195312 188.5 400.253906 188.582031 C 400.402344 188.820312 400.519531 188.949219 400.566406 188.933594 C 400.609375 188.90625 400.566406 188.738281 400.453125 188.476562 " fill-opacity="1" fill-rule="nonzero"/><path fill="#7851a9" d="M 420.058594 149.933594 C 420.019531 149.859375 419.09375 148.082031 417.480469 145.261719 C 416.535156 143.609375 415.546875 141.945312 414.550781 140.3125 C 413.300781 138.261719 412.03125 136.253906 410.773438 134.347656 C 409.511719 132.4375 408.164062 130.480469 406.777344 128.527344 C 405.664062 126.96875 404.519531 125.40625 403.375 123.886719 C 401.414062 121.296875 400.144531 119.746094 400.089844 119.675781 C 399.9375 119.496094 399.828125 119.402344 399.78125 119.425781 C 399.746094 119.453125 399.789062 119.59375 399.894531 119.800781 C 399.9375 119.875 400.863281 121.660156 402.480469 124.472656 C 403.421875 126.125 404.410156 127.796875 405.40625 129.429688 C 406.652344 131.480469 407.925781 133.488281 409.183594 135.398438 C 410.441406 137.304688 411.789062 139.261719 413.183594 141.214844 C 414.296875 142.773438 415.441406 144.335938 416.585938 145.851562 C 418.542969 148.441406 419.8125 149.996094 419.871094 150.066406 C 420.019531 150.246094 420.132812 150.339844 420.167969 150.316406 C 420.214844 150.285156 420.167969 150.140625 420.058594 149.933594 " fill-opacity="1" fill-rule="nonzero"/><path fill="#ffffff" d="M 360.859375 148.121094 C 369.011719 134.019531 378.53125 121.566406 388.058594 108.371094 C 380.734375 122.296875 372.671875 136.222656 361.675781 147.476562 C 361.542969 147.609375 360.980469 148.21875 360.859375 148.121094 " fill-opacity="1" fill-rule="nonzero"/><path fill="#ffffff" d="M 438.9375 148.882812 C 429.097656 136.222656 421.039062 123.03125 412.242188 109.84375 C 423.234375 120.832031 431.296875 134.019531 438.628906 147.890625 C 438.703125 148.058594 439.066406 148.808594 438.9375 148.882812 " fill-opacity="1" fill-rule="nonzero"/><path fill="#ffffff" d="M 285.980469 148.171875 C 273.746094 151.609375 261.289062 154.539062 250.300781 160.398438 C 260.558594 152.34375 273.015625 150.140625 285.179688 148.183594 C 285.324219 148.171875 285.980469 148.09375 285.980469 148.171875 " fill-opacity="1" fill-rule="nonzero"/><path fill="#ffffff" d="M 423.410156 174.894531 C 466.46875 175.789062 511.167969 180.917969 549.273438 202.902344 C 511.167969 183.851562 467.9375 180.1875 426.113281 175.324219 C 425.617188 175.269531 423.359375 175.042969 423.410156 174.894531 " fill-opacity="1" fill-rule="nonzero"/><path fill="#ffffff" d="M 453.222656 151.609375 C 486.984375 153.074219 521.429688 158.9375 551.472656 174.324219 C 520.695312 162.601562 488.449219 156.003906 455.332031 152.042969 C 454.945312 151.992188 453.179688 151.765625 453.222656 151.609375 " fill-opacity="1" fill-rule="nonzero"/><path fill="#ffffff" d="M 433.699219 163.796875 C 473.796875 164.066406 514.835938 170.660156 550.003906 189.714844 C 514.835938 172.128906 475.261719 167 436.207031 164.046875 C 435.746094 164.015625 433.652344 163.871094 433.699219 163.796875 " fill-opacity="1" fill-rule="nonzero"/><path fill="#ffffff" d="M 417.035156 190.007812 C 463.539062 189.714844 511.167969 196.308594 552.207031 219.757812 C 511.902344 199.242188 465.734375 191.175781 419.957031 190.171875 C 419.417969 190.152344 416.984375 190.082031 417.035156 190.007812 " fill-opacity="1" fill-rule="nonzero"/><path fill="#ffffff" d="M 516.75 147.519531 C 529.484375 149.410156 541.214844 153.808594 552.207031 158.9375 C 540.476562 156.003906 529.484375 150.871094 517.492188 147.832031 C 517.355469 147.789062 516.722656 147.59375 516.75 147.519531 " fill-opacity="1" fill-rule="nonzero"/><path fill="#ffffff" d="M 187.53125 63.351562 L 209.019531 83.199219 L 229.957031 82.480469 Z M 187.53125 63.351562 " fill-opacity="1" fill-rule="nonzero"/><path fill="#ffffff" d="M 612.539062 63.351562 L 591.058594 83.199219 L 570.121094 82.480469 Z M 612.539062 63.351562 " fill-opacity="1" fill-rule="nonzero"/></svg>