<svg width="60" height="69" viewBox="0 0 60 69" fill="none" xmlns="http://www.w3.org/2000/svg">
<path d="M0.776786 41.4777C0.267857 39.2009 0 36.8973 0 34.5937C0 18.0804 13.3661 4.6875 29.8795 4.6875C32.1027 4.6875 34.3393 4.95536 36.4821 5.42411C19.9554 11.7188 6.95089 24.9107 0.776786 41.4777ZM53.3973 16.1384C51.5625 13.7946 49.4196 11.7589 46.9955 10.0714C26.9598 16.0045 11.3304 31.7813 5.51786 51.8571C7.19196 54.2812 9.26786 56.625 11.5714 58.4196C17.3438 38.1562 33.1607 22.0312 53.3973 16.1384ZM55.5134 49.9821C57.5491 46.6205 58.9152 42.7902 59.4643 38.8929C48.8304 44.6384 40.0446 53.7054 34.3393 64.3795C38.3571 63.7902 42.2277 62.3304 45.6696 60.1875C50.3571 61.942 55.1652 63.442 60 64.6875C58.7545 59.7991 57.2679 54.7098 55.5134 49.9821ZM59.4911 30.4955C59.1429 27.8839 58.433 25.3125 57.375 22.8884C38.9062 29.0223 24.375 43.8616 18.3616 62.4107C20.7857 63.4286 23.317 64.0848 25.942 64.4464C32.1429 49.1652 44.2634 36.75 59.4911 30.4955Z" fill="#E37E03"/>
</svg>
