<svg width="288" height="337" viewBox="0 0 288 337" fill="none" xmlns="http://www.w3.org/2000/svg">
<g filter="url(#filter0_d_7_73)">
<path d="M176.371 239.262C170.426 233.204 159.786 226.056 152.042 221.967C149.51 220.634 150.935 222.932 151.868 225.244C152.57 226.973 157.571 233.357 158.72 234.879C163.032 240.579 163.987 242.663 168.951 247.903L176.371 239.262ZM135.448 212.979C133.119 211.631 131.077 209.959 129.168 208.175C127.307 206.435 125.327 204.553 124.071 202.397C123.652 201.663 123.38 201.019 123.537 200.203C123.668 199.484 124.183 198.68 124.885 198.309C126.231 197.583 128.532 197.727 129.39 199.203C129.871 200.051 130.513 200.822 131.164 201.575C131.345 201.788 131.554 201.992 131.734 202.204C131.795 202.275 131.874 202.355 131.935 202.426C131.805 202.302 131.725 202.222 131.945 202.453C131.995 202.497 132.035 202.559 132.085 202.603C132.064 202.55 132.014 202.506 131.965 202.461C132.424 202.932 132.872 203.375 133.349 203.81C134.244 204.654 135.178 205.471 136.158 206.245C136.603 206.6 137.049 206.956 137.513 207.277L138.104 207.678C137.976 207.598 137.898 207.562 138.154 207.722C138.912 208.178 139.515 208.649 139.83 209.443C140.103 210.131 140.104 211.063 139.729 211.692C139.007 212.942 136.992 213.881 135.448 212.979ZM138.144 207.696C138.163 207.705 138.232 207.758 138.291 207.785C138.232 207.758 138.163 207.705 138.124 207.687L138.144 207.696ZM138.469 207.91C138.458 207.883 138.38 207.847 138.311 207.794C138.37 207.821 138.439 207.874 138.469 207.91ZM105.809 183.55C111.02 185.092 115.852 187.458 120.096 190.723C121.412 191.737 121.632 193.787 120.472 194.901C119.245 196.05 117.319 196.164 115.895 195.078C114.975 194.375 114.018 193.699 113.033 193.074C113.022 193.048 113.003 193.039 112.983 193.03C112.953 192.994 112.914 192.976 112.855 192.949C112.61 192.815 112.393 192.673 112.147 192.538C111.646 192.244 111.116 191.958 110.596 191.698C109.576 191.187 108.558 190.721 107.492 190.298C106.965 190.1 106.457 189.91 105.95 189.721C105.686 189.622 105.433 189.549 105.169 189.45L104.711 189.305C103.825 189.051 103.1 188.719 102.575 188.002C102.141 187.392 101.871 186.51 102.042 185.809C102.363 184.396 104.035 182.997 105.809 183.55ZM85.1361 170.138C85.358 170.738 85.6086 171.329 85.897 171.894L85.939 172C85.9705 172.08 86.0411 172.177 86.0712 172.212C86.2245 172.477 86.3868 172.725 86.5687 172.982C86.9431 173.521 87.3265 174.043 87.7673 174.549C87.8169 174.593 88.0289 174.885 88.1989 175.071C88.1388 175 88.1388 175 88.3179 175.169C88.4669 175.302 88.5872 175.444 88.7362 175.577C89.1937 176.003 89.6799 176.421 90.1843 176.803C90.4417 177.008 90.6886 177.186 90.9551 177.373C91.0831 177.453 91.2216 177.56 91.3496 177.641C91.3738 177.641 91.4031 177.654 91.4325 177.668C91.6374 177.74 92.0379 178.042 92.175 178.105C92.4597 178.257 92.7534 178.392 93.0381 178.544C93.704 178.849 94.3684 179.11 95.0615 179.363C96.6708 179.905 97.3766 182.047 96.6365 183.332C95.7497 184.853 94.0631 185.207 92.3363 184.611C86.1809 182.505 81.1607 177.607 79.069 171.971C78.5292 170.49 79.3006 168.678 80.9948 168.263C82.6303 167.821 84.5453 168.568 85.1361 170.138ZM74.6923 116.067C76.3569 116.829 76.9248 118.584 76.2673 120.037C75.8355 121.008 75.3359 121.97 74.9146 122.968C74.61 123.695 74.3536 124.422 74.0581 125.131C73.9778 125.333 73.9079 125.56 73.8472 125.771C73.7075 126.227 73.5874 126.691 73.4673 127.156C73.2257 128.041 73.0428 128.954 72.9278 129.876C72.8483 130.402 72.7884 130.938 72.7571 131.465C72.7313 131.561 72.7327 131.605 72.7341 131.649C72.7355 131.693 72.7174 131.728 72.7293 131.799C72.7287 132.08 72.7372 132.344 72.7366 132.625C72.7797 133.662 72.8906 134.709 73.0784 135.748C73.0784 135.748 73.1709 136.224 73.1828 136.294C73.2486 136.541 73.3145 136.788 73.3999 137.043C73.5931 137.651 73.8045 138.225 74.0551 138.816C74.6823 140.316 73.7347 142.047 72.1293 142.525C70.4666 143.019 68.6242 142.132 67.9775 140.623C66.0239 135.981 65.8415 130.917 66.9913 126.182C67.7503 123.086 69.0575 120.242 70.3725 117.336C71.0299 115.883 73.1255 115.349 74.6923 116.067ZM91.8155 96.8637C92.7476 98.2435 92.507 100.061 91.0109 100.934C90.6983 101.116 90.4159 101.333 90.1139 101.541C89.9538 101.663 89.8028 101.767 89.6427 101.888C89.2107 102.254 88.7786 102.619 88.3662 102.993C87.3645 103.941 86.4138 104.979 85.5611 106.06C85.422 106.235 85.3116 106.401 85.1816 106.558L85.1634 106.593L84.4464 107.694C83.9411 108.48 83.5141 109.302 83.1068 110.133C82.4374 111.516 80.3173 112.19 78.8065 111.412C77.2174 110.597 76.5272 108.938 77.2315 107.442C78.7233 104.336 80.839 101.429 83.4331 99.0005C84.6131 97.8953 85.8896 96.7909 87.3193 95.9517C88.7204 95.121 90.8926 95.4664 91.8155 96.8637ZM96.0856 91.9552C95.0935 90.5046 95.4844 88.8646 96.8903 87.8845C100.939 85.0834 105.236 82.223 110.346 81.2071C111.209 81.0393 111.999 81.0115 112.821 81.3883C113.546 81.7203 114.262 82.3949 114.498 83.1091C114.977 84.5198 114.326 86.4737 112.572 86.8177C111.403 87.0617 110.265 87.3851 109.178 87.7969C108.94 87.8825 108.693 87.9857 108.445 88.0889C108.35 88.1319 108.226 88.1835 108.131 88.2266C107.561 88.4849 107.029 88.7612 106.489 89.055C104.422 90.1872 102.497 91.514 100.571 92.8408C99.25 93.7513 96.947 93.2377 96.0856 91.9552ZM142.908 79.4713C141.367 79.5449 139.827 79.6624 138.289 79.8238C137.491 79.9131 136.713 80.0113 135.934 80.1095L134.753 80.2831C134.619 80.3082 134.513 80.3248 134.379 80.3499C134.322 80.367 134.245 80.375 134.139 80.3916C131.089 80.9433 128.084 81.6887 125.152 82.6194C123.577 83.1321 121.522 82.2341 121 80.7175C120.458 79.1479 121.245 77.5381 122.926 77.0088C129.114 75.0362 135.656 73.8754 142.265 73.5678C143.951 73.4956 145.699 74.7512 145.789 76.3517C145.927 77.9526 144.719 79.3915 142.908 79.4713ZM171.06 83.3811C169.428 81.529 166.609 80.281 163.813 79.7364C160.591 79.1263 157.594 79.2478 154.147 79.4442C152.471 79.5428 150.722 78.2433 150.623 76.6604C150.532 75.0599 151.742 73.6649 153.542 73.5586C157.519 73.3232 161.645 73.221 165.571 74.1101C169.808 75.0549 173.596 77.0502 176.37 80.2049C177.452 81.4367 176.95 83.5239 175.566 84.2756C173.982 85.131 172.222 84.6927 171.06 83.3811ZM178.125 106.237C177.306 106.274 176.313 105.992 175.717 105.459C174.357 104.251 174.315 102.651 175.305 101.351C175.251 101.455 175.177 101.551 175.103 101.647C175.314 101.333 175.439 101 175.592 100.659C175.66 100.387 175.728 100.115 175.777 99.8344C175.802 99.694 175.796 99.5181 175.83 99.3603C175.839 99.3428 175.828 99.3163 175.837 99.2988C175.83 98.4726 175.716 97.6189 175.583 96.8003C175.309 95.1806 174.958 93.5689 175.011 91.9258C175.052 91.1 175.155 90.389 175.771 89.762C176.285 89.2394 177.159 88.8169 177.94 88.8066C178.789 88.8057 179.693 89.025 180.348 89.5849C180.934 90.0913 181.508 90.8525 181.484 91.5994C181.406 93.6641 182.021 95.7001 182.242 97.7501C182.367 98.9553 182.369 100.212 182.147 101.388C181.875 102.844 181.25 104.095 180.323 105.273C179.887 105.832 178.905 106.183 178.125 106.237ZM170.461 109.699C171.832 108.833 174.045 109.24 174.966 110.594C175.928 112.009 175.628 113.755 174.162 114.664C170.539 116.924 166.376 118.547 162.021 119.324C161.138 119.482 160.387 119.528 159.545 119.142C158.82 118.81 158.104 118.136 157.869 117.422C157.623 116.681 157.567 115.854 157.97 115.173C158.345 114.543 158.97 113.855 159.795 113.713C162.25 113.279 164.61 112.563 166.847 111.617C168.092 111.039 169.297 110.4 170.461 109.699ZM142.242 109.093L142.281 109.111C142.221 109.04 142.171 108.996 142.111 108.925C142.23 109.023 142.338 109.094 142.457 109.192C143.548 109.8 144.741 110.303 145.875 110.78C147.245 111.364 148.631 111.869 150.035 112.339C150.777 112.592 151.459 113.424 151.711 114.06C151.984 114.748 151.986 115.679 151.61 116.309C151.217 116.973 150.618 117.565 149.786 117.768C148.915 117.997 148.178 117.876 147.31 117.587C145.622 117.009 143.982 116.387 142.338 115.677C140.42 114.842 138.425 114.015 137.111 112.438C136.067 111.18 136.502 109.128 137.915 108.368C139.405 107.599 141.124 107.932 142.242 109.093ZM132.02 104.454C131.223 104.262 130.274 103.849 129.885 103.151C127.921 99.6962 126.235 96.1736 124.949 92.4878C124.684 91.7382 124.687 90.9384 125.05 90.2387C125.386 89.5914 126.099 88.9652 126.875 88.7791C128.492 88.3723 130.464 89.1026 131.027 90.6811C132.184 93.9614 133.638 97.183 135.358 100.266C135.307 100.178 135.267 100.116 135.216 100.028C135.624 100.735 135.876 101.37 135.728 102.168C135.597 102.888 135.083 103.692 134.381 104.063C133.679 104.434 132.837 104.655 132.02 104.454ZM126.324 70.1849C125.475 70.1858 124.571 69.9664 123.916 69.4066L123.347 68.8212C123.024 68.37 122.826 67.9111 122.78 67.3921C122.145 64.7406 122.142 61.9457 122.704 59.323C122.862 58.551 123.351 57.8436 124.051 57.4283C124.705 57.0564 125.663 56.8456 126.441 57.0286C127.286 57.2211 128.11 57.6419 128.576 58.3318C129.012 58.9862 129.259 59.7708 129.11 60.5252C128.933 61.3322 128.844 62.1575 128.803 62.9833C128.799 64.3456 128.939 65.7092 129.253 67.0657C129.42 67.7704 128.969 68.733 128.493 69.2295C127.999 69.7611 127.134 70.1661 126.324 70.1849ZM125.789 49.6924C124.098 49.3075 122.786 47.8187 123.12 46.1958C123.339 45.2135 123.491 44.2217 123.574 43.2206C123.605 42.9747 123.616 42.72 123.627 42.4652C123.636 42.4477 123.636 42.4477 123.626 42.4212C123.624 42.3772 123.623 42.3333 123.63 42.2718C123.642 41.7358 123.625 41.2083 123.617 40.6633C123.565 39.6433 123.456 38.6403 123.289 37.6544C123.205 37.1614 123.093 36.6769 123.001 36.2015C122.989 36.131 122.957 36.0516 122.945 35.9812C122.869 35.708 122.793 35.4349 122.697 35.1527C122.234 33.663 122.862 31.8935 124.623 31.4441C126.192 31.0368 128.298 31.742 128.775 33.346C130.187 37.9559 130.506 42.7578 129.507 47.3891C129.179 48.9066 127.52 50.0953 125.789 49.6924ZM121.874 24.8793C120.119 24.8981 118.538 23.7408 118.35 22.0955C118.235 21.2419 118.073 20.3878 117.882 19.5423C117.377 17.6655 116.653 15.8394 115.719 14.0904C115.586 13.8782 115.463 13.6486 115.331 13.4364C114.894 12.738 114.658 12.0239 114.797 11.2429C114.928 10.5235 115.443 9.71964 116.145 9.34824C116.847 8.97685 117.708 8.76514 118.534 8.94861C119.36 9.1321 120.232 9.55333 120.669 10.2517C122.907 13.8322 124.335 17.7127 124.803 21.7601C124.968 23.3085 123.61 24.8516 121.874 24.8793ZM109.234 4.44982C108.329 4.23046 107.679 3.80252 107.098 3.14673C106.728 2.73898 106.377 2.34021 105.998 1.94995C104.542 0.459805 102.963 -0.934821 101.272 -2.20742C99.9368 -3.23062 99.745 -5.28904 100.896 -6.38576C102.132 -7.55199 104.049 -7.6484 105.473 -6.56284C108.054 -4.62278 110.353 -2.42166 112.437 -0.037968C112.918 0.52902 113.103 1.47999 112.97 2.15552C112.839 2.87501 112.325 3.67883 111.623 4.05022C110.921 4.42161 110.07 4.65977 109.234 4.44982ZM74.6307 147.698C76.4288 148.111 77.5174 149.562 77.2999 151.195L77.2582 151.695C77.2459 152.513 77.3301 153.331 77.5109 154.15C77.7189 154.917 78.0129 155.658 78.3929 156.373C78.8316 157.115 79.3263 157.797 79.9161 158.435C80.4065 158.985 80.5733 159.971 80.4498 160.629C80.3186 161.348 79.8043 162.152 79.1023 162.523C78.4004 162.895 77.5389 163.106 76.7129 162.923C76.4493 162.824 76.1569 162.733 75.8842 162.652C75.3554 162.409 74.9007 162.071 74.5775 161.62C71.6272 158.384 70.3772 154.022 70.8938 149.993C71.096 148.483 72.9788 147.331 74.6307 147.698Z" fill="#F4BC33"/>
<path d="M240.295 305.309C245.604 299.647 246.878 291.726 245.426 284.195C243.932 276.487 240.102 269.195 235.476 262.59C238.572 261.254 241.684 259.905 244.793 258.585C248.124 257.152 251.68 255.894 254.731 253.967C260.091 250.579 261.352 244.096 257.086 238.967C253.024 234.053 245.906 233.146 240.067 234.315C236.662 234.995 233.467 236.275 230.641 238.063C230.512 236.106 230.159 234.132 229.588 232.213C228.027 227.048 224.376 221.52 218.327 220.635C212.295 219.737 207.272 223.657 204.83 228.436C203.966 230.125 203.296 231.905 202.831 233.746C202.62 233.745 202.393 233.756 202.182 233.756C191.625 230.075 179.928 230.27 171.267 236.392C167.931 238.736 163.714 244.921 163.714 244.921C160.742 250.738 160.79 257.403 162.62 264.06C163.279 266.433 164.014 268.802 164.857 271.144C164.931 271.454 165.037 271.739 165.162 271.985C167.506 278.343 170.535 284.482 174.472 290.164C184.009 303.968 199.773 314.32 217.196 314.338C225.855 314.347 234.596 311.387 240.295 305.309ZM228.382 248.941C231.108 244.915 235.111 241.951 240.054 240.558C243.783 239.509 249.402 239.151 252.203 242.55C255.541 246.594 251.037 249.146 247.639 250.626C242.33 252.938 237.011 255.205 231.689 257.5C229.524 254.803 227.226 252.23 224.749 249.789C226.023 250.309 227.528 250.191 228.382 248.941ZM168.08 250.833C170.084 244.012 176.586 238.929 183.831 237.586C186.476 237.099 189.167 237.047 191.84 237.319C186.91 239.897 182.658 243.511 178.639 247.214C174.736 250.805 170.572 254.588 168.365 259.428C168.231 259.709 168.093 260.017 167.972 260.314C167.36 257.049 167.213 253.806 168.08 250.833ZM220.204 227.854C225.141 232.178 225.332 240.817 222.796 245.924C222.452 246.618 222.472 247.305 222.711 247.908C219.297 244.752 215.648 241.82 211.789 239.172C211.625 238.565 211.202 237.992 210.434 237.543C210.064 237.32 209.676 237.138 209.291 236.928C209.159 236.738 209.012 236.561 208.831 236.407C208.907 236.118 208.952 235.825 209.027 235.536C209.269 234.602 209.556 233.681 209.887 232.776C210.508 231.151 211.321 229.568 212.637 228.368C214.703 226.489 217.81 225.767 220.204 227.854ZM172.254 273.144C171.903 272.311 171.554 271.45 171.193 270.572C171.617 267.794 172.937 264.955 174.044 262.429C175.828 258.315 179.376 255.088 182.663 252.052C186.132 248.857 189.833 245.466 194.04 243.158C195.975 242.102 199.232 240.231 201.644 239.812C202.208 240.047 202.786 240.299 203.333 240.546C203.569 240.893 203.883 241.207 204.352 241.486C207.316 243.311 210.214 245.34 212.991 247.509C204.87 248.274 197.494 254.233 191.729 258.905C184.529 264.76 179.09 272.257 175.871 280.749C174.527 278.28 173.328 275.732 172.254 273.144ZM185.377 293.979C183.513 292.022 181.828 289.934 180.285 287.794C182.737 278.697 187.708 270.478 195.059 264.331C198.512 261.433 202.241 258.644 206.191 256.343C209.725 254.269 213.615 252.843 217.936 253.802C218.776 253.99 219.454 253.856 219.981 253.573C224.728 258.141 228.91 263.201 232.31 268.68C224.054 267.986 215.76 274.929 211.857 280.858C206.713 288.71 205.658 298.444 208.74 307.428C199.86 305.478 191.535 300.497 185.377 293.979ZM222.596 307.805C220.335 308.217 218.058 308.356 215.771 308.294C212.316 300.726 212.399 292.069 216.649 285.133C219.846 279.904 228.005 271.787 235.333 275.759C235.618 275.913 235.913 275.983 236.21 276.024C236.333 276.298 236.485 276.576 236.591 276.861C239.08 282.541 240.774 289.193 238.968 295.115C236.838 302.133 229.96 306.478 222.596 307.805Z" fill="#F4BC33"/>
</g>
<defs>
<filter id="filter0_d_7_73" x="60.0789" y="-8.52178" width="215.765" height="344.06" filterUnits="userSpaceOnUse" color-interpolation-filters="sRGB">
<feFlood flood-opacity="0" result="BackgroundImageFix"/>
<feColorMatrix in="SourceAlpha" type="matrix" values="0 0 0 0 0 0 0 0 0 0 0 0 0 0 0 0 0 0 127 0" result="hardAlpha"/>
<feMorphology radius="1" operator="dilate" in="SourceAlpha" result="effect1_dropShadow_7_73"/>
<feOffset dx="5" dy="10"/>
<feGaussianBlur stdDeviation="5.1"/>
<feColorMatrix type="matrix" values="0 0 0 0 0.1625 0 0 0 0 0.1625 0 0 0 0 0.1625 0 0 0 1 0"/>
<feBlend mode="normal" in2="BackgroundImageFix" result="effect1_dropShadow_7_73"/>
<feBlend mode="normal" in="SourceGraphic" in2="effect1_dropShadow_7_73" result="shape"/>
</filter>
</defs>
</svg>
