<svg width="363" height="376" viewBox="0 0 363 376" fill="none" xmlns="http://www.w3.org/2000/svg">
<g filter="url(#filter0_d_7_76)">
<path d="M144.225 301.532C144.224 304.26 143.086 306.88 141.054 308.827C139.543 310.264 137.612 311.245 135.507 311.648C134.111 311.915 132.672 311.917 131.275 311.653C129.878 311.389 128.551 310.865 127.373 310.112C125.581 308.976 124.192 307.363 123.382 305.48C122.277 302.951 122.277 300.114 123.382 297.584C124.199 295.705 125.587 294.095 127.373 292.953C128.553 292.203 129.88 291.682 131.276 291.418C132.672 291.154 134.111 291.154 135.507 291.416C137.615 291.812 139.548 292.795 141.054 294.237C142.577 295.683 143.608 297.522 144.017 299.521C144.155 300.183 144.225 300.853 144.225 301.532ZM198.531 301.532C204.504 301.532 209.365 306.146 209.365 311.848C209.365 317.55 204.504 322.164 198.531 322.164C192.513 322.164 187.652 317.55 187.652 311.848C187.652 306.146 192.513 301.532 198.531 301.532Z" fill="#E58E1A"/>
<path d="M184.04 -11.3038V78.1028L151.308 96.4716L104.455 122.763L54.0378 94.2081C57.9731 105.787 61.0287 118.149 61.0287 128.639C61.0287 135.603 59.6861 141.784 57.6027 147.138C50.6581 165.072 22.0002 165.072 15.0556 147.138C12.9723 141.784 11.6296 135.603 11.6296 128.639C11.6296 113.012 18.389 92.9023 24.8706 77.6675V-11.3038L104.455 -56.0071L151.308 -29.6726L184.04 -11.3038ZM422.795 122.763V212.169L385.109 233.324L362.423 246.077C365.942 253.477 369.275 261.443 371.729 269.365C374.183 277.287 375.757 285.122 375.757 292.174C375.757 299.573 373.997 306.146 371.312 311.805C362.331 330.827 325.293 330.827 316.311 311.805C313.626 306.146 311.867 299.573 311.867 292.174C311.867 278.245 318.07 261.269 324.969 246.6L301.311 233.324L263.625 212.169V122.763L343.21 78.1028L422.795 122.763Z" fill="#F4BC33"/>
<path d="M263.625 122.763L184.04 78.1029L151.308 96.4717L104.455 122.763V212.169L133.391 228.405V243.031C133.113 261.008 138.16 273.239 144.225 273.979C150.151 274.719 155.151 259.571 158.716 260.224C179.364 264.185 133.391 349.631 194.874 349.631C222.143 349.631 232.513 332.045 230.152 311.848C227.235 286.515 208.115 257.09 220.198 253.347C225.059 251.867 231.402 259.919 238.3 256.785C242.791 254.783 244.134 249.212 245.523 243.031C246.125 240.506 246.68 237.241 246.912 233.324C247.004 232.105 247.051 230.799 247.051 229.45C247.051 227.056 246.912 224.488 246.588 221.745L263.625 212.169V122.763ZM198.531 322.165C192.513 322.165 187.651 317.551 187.651 311.848C187.651 306.146 192.513 301.532 198.531 301.532C204.504 301.532 209.365 306.146 209.365 311.848C209.365 317.551 204.504 322.165 198.531 322.165Z" fill="#FFC05A"/>
<path d="M343.21 -11.3038V78.1028L263.625 122.763L184.04 78.1028V-11.3038L263.625 -56.0071L343.21 -11.3038Z" fill="#E58E1A"/>
<path d="M502.379 -11.3038V78.1028L422.795 122.763L343.21 78.1028V-11.3038L422.795 -56.0071L502.379 -11.3038Z" fill="#EF9D26"/>
<path d="M504.754 -15.0389L427.424 -58.4624V-144.321C427.424 -145.067 427.22 -145.8 426.831 -146.45C426.443 -147.1 425.884 -147.646 425.207 -148.034L345.622 -193.787C344.895 -194.205 344.06 -194.426 343.208 -194.426C342.355 -194.426 341.52 -194.205 340.793 -193.787L261.208 -148.034C260.532 -147.646 259.973 -147.1 259.584 -146.45C259.196 -145.8 258.992 -145.067 258.991 -144.321V-58.4624L184.036 -16.3708L106.826 -59.7291C106.108 -60.1308 105.288 -60.3428 104.453 -60.3428C103.618 -60.3428 102.798 -60.1308 102.08 -59.7291L22.4957 -15.0389C21.8082 -14.6531 21.239 -14.1061 20.8438 -13.4515C20.4485 -12.7968 20.2408 -12.0569 20.241 -11.3042V76.8488C14.1205 91.422 7 111.959 7 128.63C7 135.551 8.25002 142.28 10.7084 148.627C14.5511 158.538 24.6068 164.945 36.3339 164.945C48.0609 164.945 58.1213 158.542 61.964 148.627C64.4374 142.217 65.6927 135.448 65.6724 128.63C65.6724 121.535 64.3622 113.173 61.7695 103.671L99.8258 125.23V212.156C99.8258 213.688 100.682 215.107 102.08 215.89L128.761 230.873V242.978C128.433 262.962 134.414 277.16 143.637 278.301C149.887 279.089 153.892 273.038 157.118 268.185C157.656 267.38 158.341 266.348 158.952 265.508C160.827 269.038 159.447 280.869 158.494 289.083C156.341 307.591 153.66 330.626 166.281 343.863C172.679 350.575 182.304 353.979 194.888 353.979C208.027 353.979 218.703 350.074 225.754 342.692C233.013 335.083 236.217 323.971 234.768 311.391C233.55 300.822 229.722 289.814 226.342 280.103C223.698 272.512 218.786 258.387 221.499 257.534C221.967 257.429 223.981 258.417 225.198 259.009C228.837 260.772 234.342 263.449 240.31 260.724C246.916 257.716 248.588 250.413 250.055 243.97C251.518 237.559 251.986 230.877 251.44 224.074L263.616 217.235L319.098 248.393C311.232 265.808 307.246 280.525 307.246 292.178C307.246 299.599 308.871 306.799 312.075 313.58C316.987 323.979 329.149 330.443 343.816 330.443C358.483 330.443 370.646 323.984 375.558 313.58C378.75 306.845 380.395 299.552 380.386 292.178C380.386 280.399 376.317 265.499 368.284 247.84L425.16 215.903C425.848 215.518 426.417 214.971 426.812 214.316C427.208 213.661 427.415 212.922 427.415 212.169V125.243L504.745 81.8153C505.433 81.4295 506.002 80.8826 506.397 80.2279C506.792 79.5733 507 78.8334 507 78.0806V-11.3042C507.004 -12.0566 506.799 -12.7969 506.405 -13.452C506.011 -14.107 505.442 -14.654 504.754 -15.0389ZM343.21 -184.972L418.165 -141.884V-58.4668L343.21 -16.3752L268.255 -58.4668V-141.88L343.21 -184.972ZM263.625 117.704L188.67 75.6126V-8.83179L263.625 -50.9234L338.58 -8.83179V75.6126L263.625 117.704ZM56.4129 90.4731C55.6059 90.0148 54.6692 89.7992 53.7282 89.8549C52.7872 89.9107 51.8868 90.2353 51.1473 90.7852C50.4078 91.3352 49.8646 92.0843 49.5902 92.9324C49.3158 93.7805 49.3234 94.6871 49.6119 95.531C54.1212 108.724 56.4083 119.859 56.4083 128.63C56.4083 134.532 55.3481 140.256 53.2601 145.649C50.2323 153.458 42.5284 156.24 36.3292 156.24C30.1301 156.24 22.4308 153.458 19.403 145.649C17.3062 140.192 16.2423 134.432 16.2594 128.63C16.2594 112.22 24.3475 90.6733 29.1717 79.2907C29.3893 78.7771 29.5004 78.2286 29.5004 77.6802V-8.83614L104.455 -50.9278L179.411 -8.83614V75.6082L104.465 117.696L56.4129 90.4731ZM244.19 218.001C243.426 218.43 242.809 219.057 242.414 219.807C242.019 220.556 241.863 221.397 241.963 222.228C242.793 228.869 242.471 235.593 241.009 242.138C239.981 246.634 238.819 251.731 236.282 252.885C234.657 253.625 232.87 252.928 229.449 251.266C226.296 249.738 222.726 248.001 218.768 249.229C207.11 252.824 211.944 266.718 217.546 282.806C220.782 292.112 224.453 302.659 225.564 312.322C226.722 322.412 224.347 331.131 218.865 336.872C213.545 342.448 205.476 345.273 194.888 345.273C184.911 345.273 177.809 342.914 173.174 338.052C163.313 327.714 165.744 306.816 167.697 290.027C169.684 272.96 171.401 258.217 159.632 255.971C154.933 255.066 152.174 259.201 149.266 263.575C148.132 265.282 145.859 268.707 144.544 269.574C142.377 268.524 137.743 259.897 138.021 243.048V228.405C138.021 227.652 137.813 226.912 137.418 226.257C137.023 225.603 136.454 225.056 135.766 224.67L109.085 209.688V125.243L184.04 83.1516L258.995 125.243V209.688L244.19 218.001ZM360.043 242.329C359.071 242.876 358.346 243.738 358.004 244.754C357.663 245.77 357.73 246.867 358.192 247.84C366.664 265.673 371.136 281.004 371.136 292.173C371.136 298.363 369.78 304.374 367.099 310.042C363.747 317.141 354.608 321.729 343.821 321.729C333.034 321.729 323.895 317.141 320.543 310.037C317.872 304.415 316.496 298.326 316.506 292.169C316.506 281.113 320.895 265.969 329.196 248.371C329.655 247.399 329.719 246.303 329.377 245.289C329.035 244.275 328.31 243.415 327.339 242.869L268.255 209.692V125.248L343.21 83.156L418.165 125.248V209.692L360.043 242.329ZM497.75 75.6126L422.795 117.704L347.84 75.6126V-8.83179L422.795 -50.9234L497.75 -8.83179V75.6126Z" fill="#3A322B"/>
<path d="M133.391 286.876C124.854 286.876 117.909 293.458 117.909 301.545C117.909 309.633 124.854 316.21 133.391 316.21C141.928 316.21 148.873 309.633 148.873 301.545C148.873 293.458 141.933 286.876 133.391 286.876ZM133.391 307.504C129.961 307.504 127.169 304.832 127.169 301.545C127.169 298.259 129.961 295.582 133.391 295.582C136.822 295.582 139.614 298.254 139.614 301.545C139.628 303.111 138.981 304.618 137.814 305.736C136.648 306.853 135.057 307.489 133.391 307.504ZM198.508 297.192C189.971 297.192 183.026 303.769 183.026 311.857C183.026 319.944 189.971 326.526 198.508 326.526C207.045 326.526 213.99 319.944 213.99 311.857C213.99 303.769 207.045 297.192 198.508 297.192ZM198.508 317.82C195.078 317.82 192.286 315.148 192.286 311.857C192.286 308.571 195.078 305.898 198.508 305.898C201.939 305.898 204.73 308.571 204.73 311.857C204.73 315.148 201.939 317.82 198.508 317.82Z" fill="#3A322B"/>
</g>
<defs>
<filter id="filter0_d_7_76" x="0.8" y="-195.626" width="522.4" height="570.805" filterUnits="userSpaceOnUse" color-interpolation-filters="sRGB">
<feFlood flood-opacity="0" result="BackgroundImageFix"/>
<feColorMatrix in="SourceAlpha" type="matrix" values="0 0 0 0 0 0 0 0 0 0 0 0 0 0 0 0 0 0 127 0" result="hardAlpha"/>
<feMorphology radius="1" operator="dilate" in="SourceAlpha" result="effect1_dropShadow_7_76"/>
<feOffset dx="5" dy="10"/>
<feGaussianBlur stdDeviation="5.1"/>
<feColorMatrix type="matrix" values="0 0 0 0 0.1625 0 0 0 0 0.1625 0 0 0 0 0.1625 0 0 0 1 0"/>
<feBlend mode="normal" in2="BackgroundImageFix" result="effect1_dropShadow_7_76"/>
<feBlend mode="normal" in="SourceGraphic" in2="effect1_dropShadow_7_76" result="shape"/>
</filter>
</defs>
</svg>
