<svg width="100" height="100" viewBox="0 0 100 100" fill="none" xmlns="http://www.w3.org/2000/svg">
<g clip-path="url(#clip0_9_185)">
<path d="M93.75 6.25001C93.75 3.73048 92.2266 1.44532 89.8828 0.468759C87.5391 -0.507804 84.8633 0.0390712 83.0664 1.81642L74.5508 10.3516C65.1758 19.7266 52.4609 25 39.1992 25H37.5H31.25H12.5C5.60547 25 0 30.6055 0 37.5V56.25C0 63.1445 5.60547 68.75 12.5 68.75V93.75C12.5 97.207 15.293 100 18.75 100H31.25C34.707 100 37.5 97.207 37.5 93.75V68.75H39.1992C52.4609 68.75 65.1758 74.0234 74.5508 83.3984L83.0664 91.9141C84.8633 93.7109 87.5391 94.2383 89.8828 93.2617C92.2266 92.2852 93.75 90.0195 93.75 87.4805V58.6719C97.3828 56.9531 100 52.3242 100 46.875C100 41.4258 97.3828 36.7969 93.75 35.0781V6.25001ZM81.25 21.2305V46.875V72.5195C69.7656 62.0703 54.7852 56.25 39.1992 56.25H37.5V37.5H39.1992C54.7852 37.5 69.7656 31.6797 81.25 21.2305Z" fill="#ECECEC"/>
</g>
<defs>
<clipPath id="clip0_9_185">
<rect width="100" height="100" fill="white"/>
</clipPath>
</defs>
</svg>
