<svg xmlns="http://www.w3.org/2000/svg"  zoomAndPan="magnify" viewBox="0 0 375 374.999991" width="400" height="400"
     preserveAspectRatio="xMidYMid meet" version="1.0">
    <defs>
        <clipPath id="0ae24e3a0b">
            <path d="M 81.203125 81.203125 L 251 81.203125 L 251 228 L 81.203125 228 Z M 81.203125 81.203125 "
                  clip-rule="nonzero"/>
        </clipPath>
        <clipPath id="34ac8671a2">
            <path d="M 267 81.203125 L 293.453125 81.203125 L 293.453125 228 L 267 228 Z M 267 81.203125 "
                  clip-rule="nonzero"/>
        </clipPath>
        <clipPath id="f95560516c">
            <path d="M 81.203125 227 L 185 227 L 185 293.453125 L 81.203125 293.453125 Z M 81.203125 227 "
                  clip-rule="nonzero"/>
        </clipPath>
        <clipPath id="bd724f551e">
            <path d="M 207 240 L 288 240 L 288 293.453125 L 207 293.453125 Z M 207 240 " clip-rule="nonzero"/>
        </clipPath>
    </defs>
    <path fill="#b277d3"
          d="M 111.101562 107.777344 L 101.132812 107.777344 L 101.132812 140.996094 L 111.101562 140.996094 C 112.066406 141.003906 113.011719 140.875 113.941406 140.609375 C 114.867188 140.339844 115.738281 139.945312 116.550781 139.421875 C 117.363281 138.898438 118.085938 138.273438 118.714844 137.539062 C 119.339844 136.804688 119.851562 135.996094 120.242188 135.113281 C 120.636719 134.230469 120.894531 133.308594 121.015625 132.351562 C 121.136719 131.394531 121.121094 130.4375 120.964844 129.484375 C 120.804688 128.53125 120.515625 127.621094 120.09375 126.753906 C 119.667969 125.886719 119.128906 125.097656 118.472656 124.386719 C 119.128906 123.675781 119.667969 122.886719 120.09375 122.019531 C 120.515625 121.152344 120.804688 120.242188 120.964844 119.289062 C 121.121094 118.335938 121.136719 117.378906 121.015625 116.421875 C 120.894531 115.460938 120.636719 114.542969 120.242188 113.660156 C 119.851562 112.777344 119.339844 111.96875 118.714844 111.234375 C 118.085938 110.5 117.363281 109.875 116.550781 109.351562 C 115.738281 108.828125 114.867188 108.433594 113.941406 108.164062 C 113.011719 107.898438 112.066406 107.769531 111.101562 107.777344 Z M 111.101562 114.421875 C 111.539062 114.421875 111.964844 114.503906 112.371094 114.675781 C 112.777344 114.84375 113.136719 115.082031 113.449219 115.394531 C 113.761719 115.707031 114 116.066406 114.167969 116.472656 C 114.335938 116.878906 114.421875 117.300781 114.421875 117.742188 C 114.421875 118.183594 114.335938 118.605469 114.167969 119.015625 C 114 119.421875 113.761719 119.78125 113.449219 120.09375 C 113.136719 120.402344 112.777344 120.644531 112.371094 120.8125 C 111.964844 120.980469 111.539062 121.066406 111.101562 121.066406 L 107.777344 121.066406 L 107.777344 114.421875 Z M 111.101562 134.351562 L 107.777344 134.351562 L 107.777344 127.707031 L 111.101562 127.707031 C 111.539062 127.707031 111.964844 127.792969 112.371094 127.960938 C 112.777344 128.128906 113.136719 128.371094 113.449219 128.679688 C 113.761719 128.992188 114 129.351562 114.167969 129.757812 C 114.335938 130.164062 114.421875 130.589844 114.421875 131.03125 C 114.421875 131.46875 114.335938 131.894531 114.167969 132.300781 C 114 132.707031 113.761719 133.066406 113.449219 133.378906 C 113.136719 133.691406 112.777344 133.929688 112.371094 134.097656 C 111.964844 134.265625 111.539062 134.351562 111.101562 134.351562 Z M 111.101562 134.351562 "
          fill-opacity="1" fill-rule="nonzero"/>
    <path fill="#b277d3"
          d="M 147.636719 117.742188 C 147.636719 117.089844 147.574219 116.441406 147.445312 115.800781 C 147.320312 115.15625 147.128906 114.535156 146.878906 113.929688 C 146.628906 113.324219 146.324219 112.75 145.960938 112.207031 C 145.59375 111.664062 145.183594 111.160156 144.71875 110.695312 C 144.257812 110.234375 143.753906 109.820312 143.210938 109.457031 C 142.664062 109.09375 142.089844 108.785156 141.488281 108.535156 C 140.882812 108.285156 140.257812 108.097656 139.617188 107.96875 C 138.976562 107.839844 138.328125 107.777344 137.671875 107.777344 L 127.707031 107.777344 L 127.707031 140.996094 L 134.351562 140.996094 L 134.351562 132.425781 L 143.652344 141.660156 L 148.304688 137.007812 L 138.9375 127.707031 C 139.535156 127.636719 140.125 127.507812 140.703125 127.328125 C 141.28125 127.144531 141.835938 126.914062 142.371094 126.628906 C 142.90625 126.347656 143.414062 126.015625 143.886719 125.640625 C 144.363281 125.265625 144.796875 124.847656 145.195312 124.394531 C 145.59375 123.9375 145.949219 123.449219 146.257812 122.929688 C 146.566406 122.40625 146.824219 121.863281 147.03125 121.292969 C 147.242188 120.726562 147.398438 120.144531 147.5 119.546875 C 147.601562 118.949219 147.648438 118.347656 147.636719 117.742188 Z M 137.671875 121.066406 L 134.351562 121.066406 L 134.351562 114.421875 L 137.671875 114.421875 C 138.113281 114.421875 138.539062 114.503906 138.945312 114.675781 C 139.351562 114.84375 139.710938 115.082031 140.023438 115.394531 C 140.332031 115.707031 140.574219 116.066406 140.742188 116.472656 C 140.910156 116.878906 140.996094 117.300781 140.996094 117.742188 C 140.996094 118.183594 140.910156 118.605469 140.742188 119.015625 C 140.574219 119.421875 140.332031 119.78125 140.023438 120.09375 C 139.710938 120.402344 139.351562 120.644531 138.945312 120.8125 C 138.539062 120.980469 138.113281 121.066406 137.671875 121.066406 Z M 137.671875 121.066406 "
          fill-opacity="1" fill-rule="nonzero"/>
    <path fill="#b277d3"
          d="M 174.210938 140.996094 L 174.210938 117.742188 C 174.210938 117.089844 174.148438 116.441406 174.019531 115.800781 C 173.894531 115.15625 173.703125 114.535156 173.453125 113.929688 C 173.203125 113.324219 172.894531 112.75 172.53125 112.207031 C 172.167969 111.664062 171.757812 111.160156 171.292969 110.695312 C 170.832031 110.234375 170.328125 109.820312 169.785156 109.457031 C 169.238281 109.09375 168.664062 108.785156 168.0625 108.535156 C 167.457031 108.285156 166.832031 108.097656 166.191406 107.96875 C 165.550781 107.839844 164.902344 107.777344 164.246094 107.777344 C 163.59375 107.777344 162.945312 107.839844 162.304688 107.96875 C 161.660156 108.097656 161.039062 108.285156 160.433594 108.535156 C 159.828125 108.785156 159.253906 109.09375 158.710938 109.457031 C 158.167969 109.820312 157.664062 110.234375 157.199219 110.695312 C 156.738281 111.160156 156.324219 111.664062 155.960938 112.207031 C 155.597656 112.75 155.289062 113.324219 155.039062 113.929688 C 154.789062 114.535156 154.601562 115.15625 154.472656 115.800781 C 154.347656 116.441406 154.28125 117.089844 154.28125 117.742188 L 154.28125 140.996094 L 160.925781 140.996094 L 160.925781 131.03125 L 167.570312 131.03125 L 167.570312 140.996094 Z M 160.925781 124.386719 L 160.925781 117.742188 C 160.925781 117.300781 161.007812 116.878906 161.179688 116.472656 C 161.347656 116.066406 161.585938 115.707031 161.898438 115.394531 C 162.210938 115.082031 162.570312 114.84375 162.976562 114.675781 C 163.382812 114.503906 163.804688 114.421875 164.246094 114.421875 C 164.6875 114.421875 165.109375 114.503906 165.519531 114.675781 C 165.925781 114.84375 166.285156 115.082031 166.597656 115.394531 C 166.90625 115.707031 167.148438 116.066406 167.316406 116.472656 C 167.484375 116.878906 167.570312 117.300781 167.570312 117.742188 L 167.570312 124.386719 Z M 160.925781 124.386719 "
          fill-opacity="1" fill-rule="nonzero"/>
    <path fill="#b277d3"
          d="M 197.996094 139.402344 C 198.289062 139.894531 198.683594 140.28125 199.179688 140.566406 C 199.679688 140.851562 200.214844 140.992188 200.785156 140.996094 L 201.714844 140.996094 C 202.0625 140.894531 202.382812 140.742188 202.675781 140.539062 C 202.972656 140.332031 203.226562 140.085938 203.441406 139.800781 C 203.660156 139.511719 203.824219 139.199219 203.9375 138.855469 C 204.050781 138.515625 204.109375 138.164062 204.109375 137.804688 L 204.109375 107.777344 L 197.464844 107.777344 L 197.464844 126.113281 L 186.96875 109.371094 C 186.792969 109.050781 186.570312 108.761719 186.300781 108.515625 C 186.027344 108.269531 185.722656 108.070312 185.386719 107.925781 C 185.046875 107.78125 184.695312 107.695312 184.328125 107.671875 C 183.960938 107.644531 183.601562 107.679688 183.246094 107.777344 C 182.890625 107.882812 182.5625 108.039062 182.257812 108.253906 C 181.957031 108.46875 181.695312 108.726562 181.480469 109.027344 C 181.261719 109.328125 181.101562 109.65625 180.992188 110.011719 C 180.886719 110.367188 180.839844 110.730469 180.855469 111.097656 L 180.855469 140.996094 L 187.5 140.996094 L 187.5 122.660156 Z M 197.996094 139.402344 "
          fill-opacity="1" fill-rule="nonzero"/>
    <path fill="#b277d3"
          d="M 230.679688 131.03125 L 230.679688 117.742188 C 230.679688 117.089844 230.617188 116.441406 230.488281 115.800781 C 230.363281 115.15625 230.171875 114.535156 229.921875 113.929688 C 229.671875 113.324219 229.367188 112.75 229.003906 112.207031 C 228.636719 111.664062 228.226562 111.160156 227.761719 110.695312 C 227.300781 110.234375 226.796875 109.820312 226.253906 109.457031 C 225.707031 109.09375 225.132812 108.785156 224.53125 108.535156 C 223.925781 108.285156 223.300781 108.097656 222.660156 107.96875 C 222.019531 107.839844 221.371094 107.777344 220.714844 107.777344 L 210.75 107.777344 L 210.75 140.996094 L 220.714844 140.996094 C 221.371094 140.996094 222.019531 140.929688 222.660156 140.804688 C 223.300781 140.675781 223.925781 140.488281 224.53125 140.238281 C 225.132812 139.984375 225.707031 139.679688 226.253906 139.316406 C 226.796875 138.953125 227.300781 138.539062 227.761719 138.078125 C 228.226562 137.613281 228.636719 137.109375 229.003906 136.566406 C 229.367188 136.023438 229.671875 135.449219 229.921875 134.84375 C 230.171875 134.238281 230.363281 133.617188 230.488281 132.972656 C 230.617188 132.332031 230.679688 131.683594 230.679688 131.03125 Z M 224.039062 131.03125 C 224.039062 131.46875 223.953125 131.894531 223.785156 132.300781 C 223.617188 132.707031 223.375 133.066406 223.066406 133.378906 C 222.753906 133.691406 222.394531 133.929688 221.988281 134.097656 C 221.582031 134.265625 221.15625 134.351562 220.714844 134.351562 L 217.394531 134.351562 L 217.394531 114.421875 L 220.714844 114.421875 C 221.15625 114.421875 221.582031 114.503906 221.988281 114.675781 C 222.394531 114.84375 222.753906 115.082031 223.066406 115.394531 C 223.375 115.707031 223.617188 116.066406 223.785156 116.472656 C 223.953125 116.878906 224.039062 117.300781 224.039062 117.742188 Z M 224.039062 131.03125 "
          fill-opacity="1" fill-rule="nonzero"/>
    <g clip-path="url(#0ae24e3a0b)">
        <path fill="#b277d3"
              d="M 87.847656 104.457031 C 87.847656 103.914062 87.875 103.371094 87.925781 102.828125 C 87.980469 102.285156 88.0625 101.75 88.167969 101.214844 C 88.273438 100.683594 88.40625 100.15625 88.5625 99.636719 C 88.71875 99.113281 88.902344 98.601562 89.113281 98.101562 C 89.320312 97.597656 89.550781 97.105469 89.808594 96.625 C 90.066406 96.148438 90.34375 95.679688 90.648438 95.230469 C 90.949219 94.777344 91.273438 94.339844 91.617188 93.917969 C 91.960938 93.5 92.328125 93.097656 92.710938 92.710938 C 93.097656 92.328125 93.5 91.960938 93.917969 91.617188 C 94.339844 91.273438 94.777344 90.949219 95.230469 90.648438 C 95.679688 90.34375 96.148438 90.066406 96.628906 89.808594 C 97.105469 89.550781 97.597656 89.320312 98.101562 89.113281 C 98.601562 88.902344 99.113281 88.71875 99.636719 88.5625 C 100.15625 88.40625 100.683594 88.273438 101.214844 88.167969 C 101.75 88.0625 102.285156 87.980469 102.828125 87.925781 C 103.371094 87.875 103.914062 87.847656 104.457031 87.847656 L 227.359375 87.847656 C 227.902344 87.847656 228.445312 87.875 228.988281 87.925781 C 229.527344 87.980469 230.066406 88.0625 230.601562 88.167969 C 231.132812 88.273438 231.660156 88.40625 232.179688 88.5625 C 232.703125 88.71875 233.214844 88.902344 233.714844 89.113281 C 234.21875 89.320312 234.710938 89.550781 235.1875 89.808594 C 235.667969 90.066406 236.132812 90.34375 236.585938 90.648438 C 237.039062 90.949219 237.476562 91.273438 237.894531 91.617188 C 238.316406 91.960938 238.71875 92.328125 239.105469 92.710938 C 239.488281 93.097656 239.851562 93.5 240.199219 93.917969 C 240.542969 94.339844 240.867188 94.777344 241.167969 95.230469 C 241.472656 95.679688 241.75 96.148438 242.007812 96.625 C 242.261719 97.105469 242.496094 97.597656 242.703125 98.101562 C 242.914062 98.601562 243.09375 99.113281 243.253906 99.636719 C 243.410156 100.15625 243.542969 100.683594 243.648438 101.214844 C 243.753906 101.75 243.835938 102.285156 243.886719 102.828125 C 243.941406 103.371094 243.96875 103.914062 243.96875 104.457031 L 243.96875 227.359375 L 250.613281 227.359375 L 250.613281 104.457031 C 250.613281 103.695312 250.574219 102.933594 250.5 102.175781 C 250.425781 101.417969 250.3125 100.667969 250.164062 99.917969 C 250.015625 99.171875 249.832031 98.433594 249.609375 97.707031 C 249.390625 96.976562 249.132812 96.261719 248.839844 95.558594 C 248.550781 94.855469 248.226562 94.167969 247.867188 93.496094 C 247.507812 92.824219 247.117188 92.171875 246.691406 91.539062 C 246.269531 90.90625 245.816406 90.292969 245.332031 89.707031 C 244.851562 89.117188 244.339844 88.554688 243.800781 88.015625 C 243.261719 87.476562 242.699219 86.964844 242.109375 86.480469 C 241.523438 86 240.910156 85.546875 240.277344 85.121094 C 239.644531 84.699219 238.992188 84.308594 238.320312 83.949219 C 237.648438 83.589844 236.960938 83.265625 236.257812 82.972656 C 235.554688 82.683594 234.839844 82.425781 234.109375 82.207031 C 233.378906 81.984375 232.644531 81.800781 231.894531 81.652344 C 231.148438 81.503906 230.398438 81.390625 229.640625 81.316406 C 228.882812 81.242188 228.121094 81.203125 227.359375 81.203125 L 104.457031 81.203125 C 103.695312 81.203125 102.933594 81.242188 102.175781 81.316406 C 101.417969 81.390625 100.667969 81.503906 99.921875 81.652344 C 99.171875 81.800781 98.433594 81.984375 97.707031 82.207031 C 96.976562 82.425781 96.261719 82.683594 95.558594 82.972656 C 94.855469 83.265625 94.167969 83.589844 93.496094 83.949219 C 92.824219 84.308594 92.171875 84.699219 91.539062 85.121094 C 90.90625 85.546875 90.292969 86 89.707031 86.480469 C 89.117188 86.964844 88.554688 87.476562 88.015625 88.015625 C 87.476562 88.554688 86.964844 89.117188 86.480469 89.707031 C 86 90.292969 85.546875 90.90625 85.121094 91.539062 C 84.699219 92.171875 84.308594 92.824219 83.949219 93.496094 C 83.589844 94.167969 83.265625 94.855469 82.972656 95.558594 C 82.683594 96.261719 82.425781 96.976562 82.207031 97.707031 C 81.984375 98.433594 81.800781 99.171875 81.652344 99.917969 C 81.503906 100.667969 81.390625 101.417969 81.316406 102.175781 C 81.242188 102.933594 81.203125 103.695312 81.203125 104.457031 L 81.203125 217.394531 L 87.847656 217.394531 Z M 87.847656 104.457031 "
              fill-opacity="1" fill-rule="nonzero"/>
    </g>
    <path fill="#b277d3"
          d="M 107.777344 160.925781 L 227.359375 160.925781 L 227.359375 167.570312 L 107.777344 167.570312 Z M 107.777344 160.925781 "
          fill-opacity="1" fill-rule="nonzero"/>
    <path fill="#b277d3"
          d="M 107.777344 190.820312 L 227.359375 190.820312 L 227.359375 197.464844 L 107.777344 197.464844 Z M 107.777344 190.820312 "
          fill-opacity="1" fill-rule="nonzero"/>
    <path fill="#b277d3"
          d="M 187.5 217.394531 L 227.359375 217.394531 L 227.359375 224.039062 L 187.5 224.039062 Z M 187.5 217.394531 "
          fill-opacity="1" fill-rule="nonzero"/>
    <g clip-path="url(#34ac8671a2)">
        <path fill="#b277d3"
              d="M 293.792969 94.492188 C 293.792969 93.617188 293.707031 92.753906 293.539062 91.898438 C 293.367188 91.042969 293.117188 90.210938 292.78125 89.40625 C 292.449219 88.601562 292.039062 87.835938 291.554688 87.109375 C 291.070312 86.382812 290.519531 85.710938 289.902344 85.097656 C 289.285156 84.480469 288.613281 83.929688 287.890625 83.445312 C 287.164062 82.957031 286.398438 82.550781 285.589844 82.214844 C 284.785156 81.882812 283.953125 81.628906 283.097656 81.460938 C 282.242188 81.289062 281.378906 81.203125 280.507812 81.203125 C 279.632812 81.203125 278.769531 81.289062 277.914062 81.460938 C 277.058594 81.628906 276.226562 81.882812 275.421875 82.214844 C 274.617188 82.550781 273.851562 82.957031 273.125 83.445312 C 272.398438 83.929688 271.730469 84.480469 271.113281 85.097656 C 270.496094 85.710938 269.945312 86.382812 269.460938 87.109375 C 268.976562 87.835938 268.566406 88.601562 268.230469 89.40625 C 267.898438 90.210938 267.644531 91.042969 267.476562 91.898438 C 267.304688 92.753906 267.21875 93.617188 267.21875 94.492188 L 267.21875 200.785156 C 267.121094 201.230469 267.121094 201.671875 267.21875 202.113281 L 277.183594 225.367188 C 277.445312 225.980469 277.855469 226.46875 278.410156 226.835938 C 278.964844 227.203125 279.574219 227.386719 280.242188 227.386719 C 280.90625 227.386719 281.519531 227.203125 282.074219 226.835938 C 282.628906 226.46875 283.035156 225.980469 283.296875 225.367188 L 293.792969 202.113281 C 293.894531 201.671875 293.894531 201.230469 293.792969 200.785156 Z M 273.863281 101.132812 L 287.152344 101.132812 L 287.152344 197.464844 L 273.863281 197.464844 Z M 280.507812 87.847656 C 280.941406 87.847656 281.375 87.890625 281.804688 87.976562 C 282.230469 88.058594 282.644531 88.1875 283.050781 88.351562 C 283.453125 88.519531 283.835938 88.726562 284.199219 88.96875 C 284.5625 89.210938 284.894531 89.484375 285.203125 89.792969 C 285.511719 90.101562 285.789062 90.4375 286.03125 90.800781 C 286.273438 91.164062 286.476562 91.546875 286.644531 91.949219 C 286.8125 92.351562 286.9375 92.765625 287.023438 93.195312 C 287.109375 93.621094 287.152344 94.054688 287.152344 94.492188 L 273.863281 94.492188 C 273.863281 94.054688 273.90625 93.621094 273.992188 93.195312 C 274.078125 92.765625 274.203125 92.351562 274.371094 91.949219 C 274.535156 91.546875 274.742188 91.164062 274.984375 90.800781 C 275.226562 90.4375 275.5 90.101562 275.808594 89.792969 C 276.117188 89.484375 276.453125 89.210938 276.816406 88.96875 C 277.179688 88.726562 277.5625 88.519531 277.964844 88.351562 C 278.367188 88.1875 278.785156 88.058594 279.210938 87.976562 C 279.640625 87.890625 280.070312 87.847656 280.507812 87.847656 Z M 280.507812 215.601562 L 275.589844 204.109375 L 285.421875 204.109375 Z M 280.507812 215.601562 "
              fill-opacity="1" fill-rule="nonzero"/>
    </g>
    <g clip-path="url(#f95560516c)">
        <path fill="#b277d3"
              d="M 167.570312 227.359375 L 97.8125 227.359375 C 97.269531 227.359375 96.726562 227.386719 96.183594 227.441406 C 95.644531 227.492188 95.105469 227.574219 94.574219 227.679688 C 94.039062 227.785156 93.511719 227.917969 92.992188 228.074219 C 92.472656 228.234375 91.960938 228.414062 91.457031 228.625 C 90.953125 228.832031 90.464844 229.0625 89.984375 229.320312 C 89.503906 229.578125 89.039062 229.855469 88.585938 230.160156 C 88.132812 230.460938 87.695312 230.785156 87.277344 231.128906 C 86.855469 231.476562 86.453125 231.839844 86.070312 232.222656 C 85.683594 232.609375 85.320312 233.011719 84.972656 233.433594 C 84.628906 233.851562 84.304688 234.289062 84.003906 234.742188 C 83.699219 235.191406 83.421875 235.660156 83.164062 236.140625 C 82.910156 236.617188 82.675781 237.109375 82.46875 237.613281 C 82.261719 238.113281 82.078125 238.625 81.917969 239.148438 C 81.761719 239.667969 81.628906 240.195312 81.523438 240.726562 C 81.417969 241.261719 81.335938 241.800781 81.285156 242.339844 C 81.230469 242.882812 81.203125 243.425781 81.203125 243.96875 L 81.203125 277.183594 C 81.203125 277.730469 81.230469 278.273438 81.285156 278.8125 C 81.335938 279.355469 81.417969 279.890625 81.523438 280.425781 C 81.628906 280.960938 81.761719 281.484375 81.917969 282.007812 C 82.078125 282.527344 82.261719 283.039062 82.46875 283.542969 C 82.675781 284.042969 82.910156 284.535156 83.164062 285.015625 C 83.421875 285.496094 83.699219 285.960938 84.003906 286.414062 C 84.304688 286.863281 84.628906 287.300781 84.972656 287.722656 C 85.320312 288.140625 85.683594 288.542969 86.070312 288.929688 C 86.453125 289.3125 86.855469 289.679688 87.277344 290.023438 C 87.695312 290.367188 88.132812 290.691406 88.585938 290.996094 C 89.039062 291.296875 89.503906 291.578125 89.984375 291.832031 C 90.464844 292.089844 90.953125 292.320312 91.457031 292.53125 C 91.960938 292.738281 92.472656 292.921875 92.992188 293.078125 C 93.511719 293.238281 94.039062 293.367188 94.574219 293.476562 C 95.105469 293.582031 95.644531 293.660156 96.183594 293.714844 C 96.726562 293.765625 97.269531 293.792969 97.8125 293.792969 L 167.570312 293.792969 C 168.113281 293.792969 168.65625 293.765625 169.195312 293.714844 C 169.738281 293.660156 170.277344 293.582031 170.808594 293.476562 C 171.34375 293.367188 171.871094 293.238281 172.390625 293.078125 C 172.910156 292.921875 173.421875 292.738281 173.925781 292.53125 C 174.425781 292.320312 174.917969 292.089844 175.398438 291.832031 C 175.878906 291.578125 176.34375 291.296875 176.796875 290.996094 C 177.25 290.691406 177.683594 290.367188 178.105469 290.023438 C 178.527344 289.679688 178.929688 289.3125 179.3125 288.929688 C 179.699219 288.542969 180.0625 288.140625 180.40625 287.722656 C 180.753906 287.300781 181.074219 286.863281 181.378906 286.414062 C 181.679688 285.960938 181.960938 285.496094 182.214844 285.015625 C 182.472656 284.535156 182.703125 284.042969 182.914062 283.542969 C 183.121094 283.039062 183.304688 282.527344 183.460938 282.007812 C 183.621094 281.484375 183.753906 280.960938 183.859375 280.425781 C 183.964844 279.890625 184.042969 279.355469 184.097656 278.8125 C 184.152344 278.273438 184.175781 277.730469 184.175781 277.183594 L 184.175781 243.96875 C 184.175781 243.425781 184.152344 242.882812 184.097656 242.339844 C 184.042969 241.800781 183.964844 241.261719 183.859375 240.726562 C 183.753906 240.195312 183.621094 239.667969 183.460938 239.148438 C 183.304688 238.625 183.121094 238.113281 182.914062 237.613281 C 182.703125 237.109375 182.472656 236.617188 182.214844 236.140625 C 181.960938 235.660156 181.679688 235.191406 181.378906 234.742188 C 181.074219 234.289062 180.753906 233.851562 180.40625 233.433594 C 180.0625 233.011719 179.699219 232.609375 179.3125 232.222656 C 178.929688 231.839844 178.527344 231.476562 178.105469 231.128906 C 177.683594 230.785156 177.25 230.460938 176.796875 230.160156 C 176.34375 229.855469 175.878906 229.578125 175.398438 229.320312 C 174.917969 229.0625 174.425781 228.832031 173.925781 228.625 C 173.421875 228.414062 172.910156 228.234375 172.390625 228.074219 C 171.871094 227.917969 171.34375 227.785156 170.808594 227.679688 C 170.277344 227.574219 169.738281 227.492188 169.195312 227.441406 C 168.65625 227.386719 168.113281 227.359375 167.570312 227.359375 Z M 177.535156 277.183594 C 177.535156 277.839844 177.46875 278.488281 177.34375 279.128906 C 177.214844 279.769531 177.027344 280.394531 176.773438 281 C 176.523438 281.601562 176.21875 282.175781 175.855469 282.722656 C 175.492188 283.265625 175.078125 283.769531 174.613281 284.230469 C 174.152344 284.695312 173.648438 285.109375 173.105469 285.472656 C 172.5625 285.835938 171.988281 286.140625 171.382812 286.390625 C 170.777344 286.640625 170.15625 286.832031 169.511719 286.960938 C 168.871094 287.085938 168.222656 287.152344 167.570312 287.152344 L 97.8125 287.152344 C 97.160156 287.152344 96.511719 287.085938 95.867188 286.960938 C 95.226562 286.832031 94.605469 286.640625 94 286.390625 C 93.394531 286.140625 92.820312 285.835938 92.277344 285.472656 C 91.730469 285.109375 91.230469 284.695312 90.765625 284.230469 C 90.304688 283.769531 89.890625 283.265625 89.527344 282.722656 C 89.164062 282.175781 88.855469 281.601562 88.605469 281 C 88.355469 280.394531 88.167969 279.769531 88.039062 279.128906 C 87.910156 278.488281 87.847656 277.839844 87.847656 277.183594 L 87.847656 243.96875 C 87.847656 243.3125 87.910156 242.664062 88.039062 242.023438 C 88.167969 241.382812 88.355469 240.757812 88.605469 240.15625 C 88.855469 239.550781 89.164062 238.976562 89.527344 238.433594 C 89.890625 237.886719 90.304688 237.382812 90.765625 236.921875 C 91.230469 236.460938 91.730469 236.046875 92.277344 235.683594 C 92.820312 235.320312 93.394531 235.011719 94 234.761719 C 94.605469 234.511719 95.226562 234.320312 95.867188 234.195312 C 96.511719 234.066406 97.160156 234.003906 97.8125 234.003906 L 167.570312 234.003906 C 168.222656 234.003906 168.871094 234.066406 169.511719 234.195312 C 170.15625 234.320312 170.777344 234.511719 171.382812 234.761719 C 171.988281 235.011719 172.5625 235.320312 173.105469 235.683594 C 173.648438 236.046875 174.152344 236.460938 174.613281 236.921875 C 175.078125 237.382812 175.492188 237.886719 175.855469 238.433594 C 176.21875 238.976562 176.523438 239.550781 176.773438 240.15625 C 177.027344 240.757812 177.214844 241.382812 177.34375 242.023438 C 177.46875 242.664062 177.535156 243.3125 177.535156 243.96875 Z M 177.535156 277.183594 "
              fill-opacity="1" fill-rule="nonzero"/>
    </g>
    <path fill="#b277d3"
          d="M 117.742188 247.289062 L 104.457031 247.289062 C 104.015625 247.289062 103.59375 247.375 103.183594 247.542969 C 102.777344 247.710938 102.417969 247.953125 102.105469 248.261719 C 101.796875 248.574219 101.554688 248.933594 101.386719 249.339844 C 101.21875 249.746094 101.132812 250.171875 101.132812 250.613281 L 101.132812 270.542969 C 101.132812 270.980469 101.21875 271.40625 101.386719 271.8125 C 101.554688 272.21875 101.796875 272.578125 102.105469 272.890625 C 102.417969 273.203125 102.777344 273.441406 103.183594 273.609375 C 103.59375 273.78125 104.015625 273.863281 104.457031 273.863281 L 117.742188 273.863281 C 118.183594 273.863281 118.605469 273.78125 119.015625 273.609375 C 119.421875 273.441406 119.78125 273.203125 120.09375 272.890625 C 120.402344 272.578125 120.644531 272.21875 120.8125 271.8125 C 120.980469 271.40625 121.066406 270.980469 121.066406 270.542969 L 121.066406 250.613281 C 121.066406 250.171875 120.980469 249.746094 120.8125 249.339844 C 120.644531 248.933594 120.402344 248.574219 120.09375 248.261719 C 119.78125 247.953125 119.421875 247.710938 119.015625 247.542969 C 118.605469 247.375 118.183594 247.289062 117.742188 247.289062 Z M 114.421875 267.21875 L 107.777344 267.21875 L 107.777344 253.933594 L 114.421875 253.933594 Z M 114.421875 267.21875 "
          fill-opacity="1" fill-rule="nonzero"/>
    <path fill="#b277d3"
          d="M 134.351562 247.289062 L 160.925781 247.289062 L 160.925781 253.933594 L 134.351562 253.933594 Z M 134.351562 247.289062 "
          fill-opacity="1" fill-rule="nonzero"/>
    <path fill="#b277d3"
          d="M 131.03125 263.898438 L 164.246094 263.898438 L 164.246094 270.542969 L 131.03125 270.542969 Z M 131.03125 263.898438 "
          fill-opacity="1" fill-rule="nonzero"/>
    <g clip-path="url(#bd724f551e)">
        <path fill="#b277d3"
              d="M 270.542969 240.648438 L 224.039062 240.648438 C 223.492188 240.648438 222.953125 240.671875 222.410156 240.726562 C 221.867188 240.78125 221.332031 240.859375 220.796875 240.964844 C 220.265625 241.070312 219.738281 241.203125 219.214844 241.363281 C 218.695312 241.519531 218.183594 241.703125 217.683594 241.910156 C 217.179688 242.117188 216.6875 242.351562 216.207031 242.609375 C 215.730469 242.863281 215.261719 243.144531 214.8125 243.445312 C 214.359375 243.746094 213.921875 244.070312 213.5 244.417969 C 213.082031 244.761719 212.679688 245.125 212.292969 245.511719 C 211.910156 245.894531 211.542969 246.296875 211.199219 246.71875 C 210.855469 247.140625 210.53125 247.574219 210.226562 248.027344 C 209.925781 248.480469 209.648438 248.945312 209.390625 249.425781 C 209.132812 249.90625 208.902344 250.398438 208.695312 250.898438 C 208.484375 251.402344 208.300781 251.914062 208.144531 252.433594 C 207.988281 252.953125 207.855469 253.480469 207.75 254.015625 C 207.640625 254.546875 207.5625 255.085938 207.507812 255.628906 C 207.457031 256.167969 207.429688 256.710938 207.429688 257.253906 L 207.429688 277.183594 C 207.429688 277.730469 207.457031 278.273438 207.507812 278.8125 C 207.5625 279.355469 207.640625 279.890625 207.75 280.425781 C 207.855469 280.960938 207.988281 281.484375 208.144531 282.007812 C 208.300781 282.527344 208.484375 283.039062 208.695312 283.542969 C 208.902344 284.042969 209.132812 284.535156 209.390625 285.015625 C 209.648438 285.496094 209.925781 285.960938 210.226562 286.414062 C 210.53125 286.863281 210.855469 287.300781 211.199219 287.722656 C 211.542969 288.140625 211.910156 288.542969 212.292969 288.929688 C 212.679688 289.3125 213.082031 289.679688 213.5 290.023438 C 213.921875 290.367188 214.359375 290.691406 214.8125 290.996094 C 215.261719 291.296875 215.730469 291.578125 216.207031 291.832031 C 216.6875 292.089844 217.179688 292.320312 217.683594 292.53125 C 218.183594 292.738281 218.695312 292.921875 219.214844 293.078125 C 219.738281 293.238281 220.265625 293.367188 220.796875 293.476562 C 221.332031 293.582031 221.867188 293.660156 222.410156 293.714844 C 222.953125 293.765625 223.492188 293.792969 224.039062 293.792969 L 270.542969 293.792969 C 271.085938 293.792969 271.628906 293.765625 272.171875 293.714844 C 272.710938 293.660156 273.25 293.582031 273.78125 293.476562 C 274.316406 293.367188 274.84375 293.238281 275.363281 293.078125 C 275.882812 292.921875 276.394531 292.738281 276.898438 292.53125 C 277.398438 292.320312 277.890625 292.089844 278.371094 291.832031 C 278.851562 291.578125 279.316406 291.296875 279.769531 290.996094 C 280.222656 290.691406 280.65625 290.367188 281.078125 290.023438 C 281.5 289.679688 281.902344 289.3125 282.285156 288.929688 C 282.671875 288.542969 283.035156 288.140625 283.378906 287.722656 C 283.726562 287.300781 284.050781 286.863281 284.351562 286.414062 C 284.652344 285.960938 284.933594 285.496094 285.1875 285.015625 C 285.445312 284.535156 285.679688 284.042969 285.886719 283.542969 C 286.09375 283.039062 286.277344 282.527344 286.433594 282.007812 C 286.59375 281.484375 286.726562 280.960938 286.832031 280.425781 C 286.9375 279.890625 287.015625 279.355469 287.070312 278.8125 C 287.125 278.273438 287.152344 277.730469 287.152344 277.183594 L 287.152344 257.253906 C 287.152344 256.710938 287.125 256.167969 287.070312 255.628906 C 287.015625 255.085938 286.9375 254.546875 286.832031 254.015625 C 286.726562 253.480469 286.59375 252.953125 286.433594 252.433594 C 286.277344 251.914062 286.09375 251.402344 285.886719 250.898438 C 285.679688 250.398438 285.445312 249.90625 285.1875 249.425781 C 284.933594 248.945312 284.652344 248.480469 284.351562 248.027344 C 284.050781 247.574219 283.726562 247.140625 283.378906 246.71875 C 283.035156 246.296875 282.671875 245.894531 282.285156 245.511719 C 281.902344 245.125 281.5 244.761719 281.078125 244.417969 C 280.65625 244.070312 280.222656 243.746094 279.769531 243.445312 C 279.316406 243.144531 278.851562 242.863281 278.371094 242.609375 C 277.890625 242.351562 277.398438 242.117188 276.898438 241.910156 C 276.394531 241.703125 275.882812 241.519531 275.363281 241.363281 C 274.84375 241.203125 274.316406 241.070312 273.78125 240.964844 C 273.25 240.859375 272.710938 240.78125 272.171875 240.726562 C 271.628906 240.671875 271.085938 240.648438 270.542969 240.648438 Z M 270.542969 247.289062 L 272.136719 247.289062 L 247.289062 263.300781 L 222.445312 247.289062 Z M 280.507812 277.183594 C 280.507812 277.839844 280.441406 278.488281 280.316406 279.128906 C 280.1875 279.769531 280 280.394531 279.75 281 C 279.5 281.601562 279.191406 282.175781 278.828125 282.722656 C 278.464844 283.265625 278.050781 283.769531 277.589844 284.230469 C 277.125 284.695312 276.621094 285.109375 276.078125 285.472656 C 275.535156 285.835938 274.960938 286.140625 274.355469 286.390625 C 273.75 286.640625 273.128906 286.832031 272.484375 286.960938 C 271.84375 287.085938 271.195312 287.152344 270.542969 287.152344 L 224.039062 287.152344 C 223.382812 287.152344 222.734375 287.085938 222.09375 286.960938 C 221.453125 286.832031 220.828125 286.640625 220.222656 286.390625 C 219.621094 286.140625 219.046875 285.835938 218.5 285.472656 C 217.957031 285.109375 217.453125 284.695312 216.992188 284.230469 C 216.527344 283.769531 216.117188 283.265625 215.753906 282.722656 C 215.390625 282.175781 215.082031 281.601562 214.832031 281 C 214.582031 280.394531 214.390625 279.769531 214.265625 279.128906 C 214.136719 278.488281 214.074219 277.839844 214.074219 277.183594 L 214.074219 257.253906 C 214.082031 255.027344 214.769531 253.035156 216.132812 251.277344 L 245.496094 270.011719 C 246.042969 270.359375 246.640625 270.535156 247.289062 270.535156 C 247.9375 270.535156 248.539062 270.359375 249.082031 270.011719 L 278.449219 251.277344 C 279.8125 253.035156 280.496094 255.027344 280.507812 257.253906 Z M 280.507812 277.183594 "
              fill-opacity="1" fill-rule="nonzero"/>
    </g>
</svg>