<svg xmlns="http://www.w3.org/2000/svg" zoomAndPan="magnify" viewBox="0 0 375 374.999991" width="400" height="400"
     preserveAspectRatio="xMidYMid meet" version="1.0"><defs><clipPath id="2812e5a44d"><path d="M 129 115 L 245 115 L 245 324.734375 L 129 324.734375 Z M 129 115 " clip-rule="nonzero"/></clipPath><clipPath id="a759f93686"><path d="M 79.4375 78 L 295.4375 78 L 295.4375 200 L 79.4375 200 Z M 79.4375 78 " clip-rule="nonzero"/></clipPath></defs><g clip-path="url(#2812e5a44d)"><path fill="#F4BC33" d="M 181.179688 205.621094 C 181.566406 205.507812 181.882812 205.292969 182.125 204.96875 C 182.367188 204.648438 182.488281 204.285156 182.492188 203.878906 L 182.492188 117.527344 C 182.492188 117.25 182.4375 116.980469 182.332031 116.722656 C 182.226562 116.464844 182.074219 116.238281 181.878906 116.042969 C 181.679688 115.847656 181.453125 115.695312 181.195312 115.589844 C 180.941406 115.480469 180.671875 115.429688 180.394531 115.429688 L 178.097656 115.429688 C 177.53125 115.429688 177.015625 115.585938 176.542969 115.902344 C 176.074219 116.214844 175.730469 116.636719 175.515625 117.160156 L 130.453125 226.511719 C 129.980469 227.667969 129.726562 228.867188 129.695312 230.113281 C 129.664062 231.363281 129.859375 232.574219 130.277344 233.75 L 142.957031 269.394531 L 139.058594 269.394531 C 138.550781 269.398438 138.066406 269.492188 137.597656 269.6875 C 137.132812 269.882812 136.71875 270.15625 136.363281 270.515625 C 136.003906 270.871094 135.730469 271.285156 135.535156 271.75 C 135.34375 272.21875 135.246094 272.703125 135.246094 273.210938 L 135.246094 288.707031 C 135.246094 289.210938 135.34375 289.695312 135.535156 290.164062 C 135.730469 290.628906 136.003906 291.042969 136.363281 291.398438 C 136.71875 291.757812 137.132812 292.03125 137.597656 292.226562 C 138.066406 292.421875 138.550781 292.515625 139.058594 292.519531 L 141.816406 292.519531 L 141.816406 321.136719 C 141.816406 321.648438 141.914062 322.136719 142.109375 322.605469 C 142.304688 323.078125 142.582031 323.492188 142.941406 323.855469 C 143.300781 324.214844 143.71875 324.492188 144.1875 324.6875 C 144.660156 324.882812 145.148438 324.980469 145.660156 324.980469 L 229.027344 324.980469 C 229.539062 324.980469 230.027344 324.882812 230.5 324.6875 C 230.96875 324.492188 231.382812 324.214844 231.746094 323.855469 C 232.105469 323.492188 232.382812 323.078125 232.578125 322.609375 C 232.773438 322.136719 232.871094 321.648438 232.871094 321.136719 L 232.871094 299.507812 C 232.871094 299.273438 232.828125 299.046875 232.738281 298.832031 C 232.648438 298.613281 232.519531 298.421875 232.351562 298.253906 C 232.1875 298.089844 231.996094 297.960938 231.777344 297.871094 C 231.5625 297.78125 231.335938 297.738281 231.101562 297.738281 C 230.867188 297.738281 230.640625 297.78125 230.421875 297.871094 C 230.207031 297.960938 230.011719 298.089844 229.847656 298.253906 C 229.679688 298.421875 229.554688 298.613281 229.464844 298.832031 C 229.375 299.046875 229.328125 299.273438 229.328125 299.507812 L 229.328125 321.136719 C 229.328125 321.21875 229.300781 321.289062 229.242188 321.347656 C 229.183594 321.40625 229.109375 321.4375 229.027344 321.4375 L 145.660156 321.4375 C 145.574219 321.4375 145.503906 321.40625 145.445312 321.347656 C 145.386719 321.289062 145.359375 321.21875 145.359375 321.136719 L 145.359375 292.519531 L 235.628906 292.519531 C 236.136719 292.515625 236.621094 292.421875 237.089844 292.226562 C 237.554688 292.03125 237.96875 291.757812 238.324219 291.398438 C 238.683594 291.042969 238.957031 290.628906 239.152344 290.164062 C 239.34375 289.695312 239.441406 289.210938 239.441406 288.707031 L 239.441406 273.210938 C 239.441406 272.703125 239.34375 272.21875 239.152344 271.75 C 238.957031 271.285156 238.683594 270.871094 238.324219 270.515625 C 237.96875 270.15625 237.554688 269.882812 237.089844 269.6875 C 236.621094 269.492188 236.136719 269.398438 235.628906 269.394531 L 231.730469 269.394531 L 244.410156 233.75 C 244.828125 232.574219 245.023438 231.363281 244.992188 230.113281 C 244.960938 228.867188 244.707031 227.667969 244.230469 226.511719 L 199.171875 117.160156 C 198.957031 116.636719 198.613281 116.214844 198.140625 115.902344 C 197.671875 115.585938 197.152344 115.429688 196.589844 115.429688 L 194.292969 115.429688 C 194.015625 115.429688 193.746094 115.480469 193.488281 115.589844 C 193.234375 115.695312 193.007812 115.847656 192.808594 116.042969 C 192.613281 116.238281 192.460938 116.464844 192.355469 116.722656 C 192.25 116.980469 192.195312 117.25 192.195312 117.527344 L 192.195312 203.878906 C 192.195312 204.285156 192.320312 204.648438 192.5625 204.96875 C 192.804688 205.292969 193.121094 205.511719 193.511719 205.621094 C 194.671875 205.96875 195.792969 206.40625 196.878906 206.9375 C 197.964844 207.472656 199 208.089844 199.980469 208.796875 C 200.964844 209.503906 201.882812 210.289062 202.734375 211.148438 C 203.582031 212.007812 204.355469 212.933594 205.054688 213.921875 C 205.75 214.914062 206.359375 215.953125 206.878906 217.046875 C 207.402344 218.136719 207.828125 219.265625 208.160156 220.429688 C 208.492188 221.59375 208.726562 222.773438 208.859375 223.976562 C 208.992188 225.179688 209.027344 226.386719 208.957031 227.59375 C 208.375 238.234375 198.839844 247.597656 188.191406 248.003906 C 186.882812 248.058594 185.582031 247.992188 184.289062 247.804688 C 182.992188 247.621094 181.726562 247.320312 180.484375 246.90625 C 179.246094 246.492188 178.050781 245.972656 176.90625 245.339844 C 175.761719 244.710938 174.679688 243.980469 173.667969 243.15625 C 172.652344 242.328125 171.722656 241.417969 170.871094 240.421875 C 170.023438 239.429688 169.269531 238.363281 168.613281 237.234375 C 167.957031 236.101562 167.410156 234.921875 166.96875 233.6875 C 166.527344 232.457031 166.199219 231.199219 165.984375 229.90625 C 165.769531 228.617188 165.675781 227.316406 165.699219 226.007812 C 165.71875 224.703125 165.859375 223.40625 166.117188 222.125 C 166.371094 220.839844 166.742188 219.59375 167.226562 218.378906 C 167.707031 217.160156 168.296875 216 168.992188 214.890625 C 169.683594 213.78125 170.472656 212.746094 171.355469 211.777344 C 172.234375 210.8125 173.199219 209.933594 174.238281 209.140625 C 175.28125 208.351562 176.382812 207.660156 177.550781 207.066406 C 178.714844 206.476562 179.925781 205.992188 181.179688 205.621094 Z M 235.898438 273.210938 L 235.898438 288.707031 C 235.898438 288.78125 235.871094 288.84375 235.820312 288.894531 C 235.765625 288.949219 235.703125 288.972656 235.628906 288.972656 L 139.058594 288.972656 C 138.984375 288.972656 138.917969 288.949219 138.867188 288.894531 C 138.8125 288.84375 138.789062 288.78125 138.789062 288.707031 L 138.789062 273.210938 C 138.789062 273.132812 138.8125 273.070312 138.867188 273.019531 C 138.917969 272.964844 138.984375 272.941406 139.058594 272.941406 L 235.628906 272.941406 C 235.703125 272.941406 235.765625 272.964844 235.820312 273.019531 C 235.871094 273.070312 235.898438 273.132812 235.898438 273.210938 Z M 235.898438 273.210938 " fill-opacity="1" fill-rule="nonzero"/></g><path fill="#F4BC33" d="M 154.699219 95.882812 C 152.777344 96.671875 150.890625 97.53125 149.03125 98.457031 C 147.175781 99.382812 145.351562 100.375 143.566406 101.433594 C 141.78125 102.492188 140.035156 103.617188 138.332031 104.800781 C 136.628906 105.988281 134.96875 107.234375 133.355469 108.539062 C 131.742188 109.84375 130.175781 111.207031 128.660156 112.625 C 127.148438 114.046875 125.683594 115.519531 124.277344 117.042969 C 122.867188 118.570312 121.515625 120.144531 120.222656 121.765625 C 118.929688 123.390625 117.695312 125.058594 116.523438 126.769531 C 115.347656 128.484375 114.238281 130.238281 113.195312 132.03125 C 112.148438 133.824219 111.167969 135.652344 110.253906 137.515625 C 109.34375 139.378906 108.496094 141.273438 107.722656 143.199219 C 106.945312 145.125 106.242188 147.078125 105.605469 149.054688 C 104.972656 151.03125 104.410156 153.027344 103.921875 155.046875 C 103.429688 157.0625 103.015625 159.09375 102.671875 161.144531 C 102.332031 163.191406 102.0625 165.25 101.871094 167.316406 C 101.679688 169.382812 101.558594 171.453125 101.515625 173.527344 L 94.316406 173.527344 C 93.808594 173.53125 93.320312 173.628906 92.851562 173.820312 C 92.378906 174.015625 91.964844 174.292969 91.605469 174.652344 C 91.246094 175.011719 90.972656 175.425781 90.777344 175.894531 C 90.582031 176.367188 90.484375 176.855469 90.484375 177.363281 L 90.484375 195.269531 C 90.484375 195.777344 90.582031 196.265625 90.777344 196.734375 C 90.972656 197.207031 91.246094 197.621094 91.605469 197.980469 C 91.964844 198.339844 92.378906 198.617188 92.851562 198.808594 C 93.320312 199.003906 93.808594 199.101562 94.316406 199.101562 L 112.222656 199.101562 C 112.730469 199.101562 113.222656 199.003906 113.691406 198.808594 C 114.160156 198.617188 114.574219 198.339844 114.933594 197.980469 C 115.292969 197.621094 115.570312 197.207031 115.765625 196.734375 C 115.960938 196.265625 116.058594 195.777344 116.058594 195.269531 L 116.058594 177.363281 C 116.058594 176.855469 115.960938 176.367188 115.765625 175.894531 C 115.570312 175.425781 115.292969 175.011719 114.933594 174.652344 C 114.574219 174.292969 114.160156 174.015625 113.691406 173.820312 C 113.222656 173.628906 112.730469 173.53125 112.222656 173.527344 L 105.0625 173.527344 C 105.105469 171.539062 105.21875 169.554688 105.40625 167.578125 C 105.59375 165.597656 105.851562 163.625 106.179688 161.664062 C 106.507812 159.703125 106.90625 157.757812 107.378906 155.824219 C 107.847656 153.890625 108.386719 151.976562 108.996094 150.085938 C 109.605469 148.191406 110.28125 146.324219 111.027344 144.480469 C 111.773438 142.632812 112.582031 140.820312 113.457031 139.035156 C 114.332031 137.25 115.273438 135.496094 116.277344 133.78125 C 117.277344 132.0625 118.34375 130.382812 119.46875 128.742188 C 120.589844 127.101562 121.773438 125.503906 123.015625 123.949219 C 124.253906 122.394531 125.550781 120.886719 126.898438 119.425781 C 128.25 117.964844 129.648438 116.554688 131.101562 115.195312 C 132.554688 113.835938 134.050781 112.53125 135.597656 111.28125 C 137.144531 110.03125 138.734375 108.839844 140.367188 107.703125 C 142 106.566406 143.671875 105.492188 145.382812 104.476562 C 147.09375 103.464844 148.839844 102.511719 150.617188 101.625 C 152.398438 100.738281 154.207031 99.914062 156.046875 99.15625 C 156.265625 99.070312 156.457031 98.941406 156.621094 98.777344 C 156.789062 98.609375 156.917969 98.417969 157.007812 98.203125 C 157.097656 97.984375 157.144531 97.757812 157.144531 97.523438 C 157.144531 97.289062 157.101562 97.0625 157.011719 96.84375 C 156.921875 96.628906 156.792969 96.4375 156.628906 96.269531 C 156.460938 96.101562 156.269531 95.976562 156.054688 95.882812 C 155.835938 95.792969 155.609375 95.75 155.375 95.75 C 155.140625 95.746094 154.914062 95.792969 154.699219 95.882812 Z M 112.222656 177.074219 C 112.304688 177.074219 112.371094 177.101562 112.429688 177.15625 C 112.484375 177.214844 112.511719 177.28125 112.511719 177.363281 L 112.511719 195.269531 C 112.511719 195.351562 112.484375 195.417969 112.429688 195.472656 C 112.371094 195.53125 112.304688 195.558594 112.222656 195.558594 L 94.316406 195.558594 C 94.238281 195.558594 94.167969 195.53125 94.113281 195.472656 C 94.054688 195.417969 94.027344 195.351562 94.027344 195.269531 L 94.027344 177.363281 C 94.027344 177.28125 94.054688 177.214844 94.113281 177.15625 C 94.167969 177.101562 94.238281 177.074219 94.316406 177.074219 Z M 112.222656 177.074219 " fill-opacity="1" fill-rule="nonzero"/><g clip-path="url(#a759f93686)"><path fill="#F4BC33" d="M 282.429688 78.441406 C 281.667969 78.441406 280.910156 78.511719 280.15625 78.648438 C 279.402344 78.785156 278.671875 78.988281 277.953125 79.253906 C 277.238281 79.523438 276.550781 79.855469 275.894531 80.246094 C 275.238281 80.636719 274.621094 81.082031 274.042969 81.585938 C 273.46875 82.085938 272.941406 82.636719 272.460938 83.230469 C 271.984375 83.828125 271.5625 84.460938 271.195312 85.132812 C 270.832031 85.804688 270.53125 86.503906 270.289062 87.230469 C 270.050781 87.957031 269.878906 88.699219 269.769531 89.457031 L 200.128906 89.457031 L 200.128906 82.273438 C 200.128906 81.765625 200.03125 81.277344 199.835938 80.808594 C 199.644531 80.339844 199.367188 79.925781 199.007812 79.566406 C 198.648438 79.207031 198.234375 78.929688 197.761719 78.734375 C 197.292969 78.539062 196.804688 78.441406 196.296875 78.441406 L 178.390625 78.441406 C 177.882812 78.441406 177.390625 78.539062 176.921875 78.734375 C 176.453125 78.929688 176.039062 79.207031 175.679688 79.566406 C 175.320312 79.925781 175.042969 80.339844 174.847656 80.808594 C 174.65625 81.277344 174.558594 81.765625 174.554688 82.273438 L 174.554688 89.457031 L 104.917969 89.457031 C 104.84375 88.925781 104.734375 88.40625 104.597656 87.890625 C 104.457031 87.375 104.285156 86.871094 104.082031 86.375 C 103.878906 85.882812 103.648438 85.402344 103.386719 84.9375 C 103.121094 84.472656 102.832031 84.027344 102.511719 83.597656 C 102.195312 83.167969 101.851562 82.761719 101.480469 82.375 C 101.113281 81.992188 100.71875 81.628906 100.304688 81.292969 C 99.890625 80.957031 99.457031 80.648438 99 80.367188 C 98.546875 80.085938 98.078125 79.832031 97.59375 79.609375 C 97.109375 79.386719 96.613281 79.195312 96.101562 79.035156 C 95.59375 78.875 95.074219 78.746094 94.550781 78.648438 C 94.027344 78.554688 93.496094 78.488281 92.964844 78.460938 C 92.429688 78.429688 91.898438 78.433594 91.363281 78.472656 C 90.832031 78.507812 90.304688 78.578125 89.78125 78.683594 C 89.257812 78.785156 88.742188 78.921875 88.234375 79.089844 C 87.726562 79.257812 87.230469 79.457031 86.75 79.683594 C 86.269531 79.914062 85.800781 80.175781 85.351562 80.460938 C 84.902344 80.75 84.472656 81.066406 84.0625 81.40625 C 83.652344 81.75 83.265625 82.113281 82.902344 82.503906 C 82.539062 82.894531 82.199219 83.308594 81.886719 83.742188 C 81.574219 84.171875 81.289062 84.625 81.035156 85.09375 C 80.777344 85.5625 80.550781 86.042969 80.355469 86.539062 C 80.160156 87.039062 79.996094 87.542969 79.863281 88.0625 C 79.730469 88.578125 79.632812 89.101562 79.566406 89.632812 C 79.5 90.160156 79.464844 90.695312 79.464844 91.226562 C 79.464844 91.761719 79.5 92.292969 79.566406 92.824219 C 79.632812 93.351562 79.730469 93.875 79.863281 94.394531 C 79.996094 94.910156 80.160156 95.417969 80.355469 95.914062 C 80.550781 96.410156 80.777344 96.894531 81.035156 97.363281 C 81.289062 97.832031 81.574219 98.28125 81.886719 98.714844 C 82.199219 99.148438 82.539062 99.558594 82.902344 99.949219 C 83.265625 100.339844 83.652344 100.707031 84.0625 101.046875 C 84.472656 101.390625 84.902344 101.707031 85.351562 101.992188 C 85.800781 102.28125 86.269531 102.539062 86.75 102.769531 C 87.230469 103 87.726562 103.199219 88.234375 103.367188 C 88.742188 103.535156 89.257812 103.671875 89.78125 103.773438 C 90.304688 103.875 90.832031 103.945312 91.363281 103.984375 C 91.898438 104.019531 92.429688 104.023438 92.964844 103.996094 C 93.496094 103.964844 94.027344 103.902344 94.550781 103.808594 C 95.074219 103.710938 95.59375 103.582031 96.101562 103.421875 C 96.613281 103.261719 97.109375 103.070312 97.59375 102.847656 C 98.078125 102.621094 98.546875 102.371094 99 102.089844 C 99.457031 101.808594 99.890625 101.496094 100.304688 101.160156 C 100.71875 100.824219 101.113281 100.464844 101.480469 100.078125 C 101.851562 99.695312 102.195312 99.285156 102.511719 98.859375 C 102.832031 98.429688 103.121094 97.984375 103.386719 97.519531 C 103.648438 97.054688 103.878906 96.574219 104.082031 96.082031 C 104.285156 95.585938 104.457031 95.082031 104.597656 94.566406 C 104.734375 94.050781 104.84375 93.527344 104.917969 93 L 174.554688 93 L 174.554688 100.179688 C 174.558594 100.691406 174.65625 101.179688 174.847656 101.648438 C 175.042969 102.117188 175.320312 102.53125 175.679688 102.890625 C 176.039062 103.25 176.453125 103.527344 176.921875 103.722656 C 177.390625 103.917969 177.882812 104.015625 178.390625 104.015625 L 196.296875 104.015625 C 196.804688 104.015625 197.292969 103.917969 197.761719 103.722656 C 198.234375 103.527344 198.648438 103.25 199.007812 102.890625 C 199.367188 102.53125 199.644531 102.117188 199.835938 101.648438 C 200.03125 101.179688 200.128906 100.691406 200.128906 100.179688 L 200.128906 93.988281 C 239.320312 100.101562 268.773438 133.789062 269.625 173.527344 L 262.460938 173.527344 C 261.953125 173.53125 261.464844 173.628906 260.996094 173.820312 C 260.527344 174.015625 260.113281 174.292969 259.753906 174.652344 C 259.394531 175.011719 259.117188 175.425781 258.921875 175.894531 C 258.726562 176.367188 258.628906 176.855469 258.628906 177.363281 L 258.628906 195.269531 C 258.628906 195.777344 258.726562 196.265625 258.921875 196.734375 C 259.117188 197.207031 259.394531 197.621094 259.753906 197.980469 C 260.113281 198.339844 260.527344 198.617188 260.996094 198.808594 C 261.464844 199.003906 261.953125 199.101562 262.460938 199.101562 L 280.371094 199.101562 C 280.878906 199.101562 281.367188 199.003906 281.835938 198.808594 C 282.304688 198.617188 282.71875 198.339844 283.078125 197.980469 C 283.4375 197.621094 283.714844 197.207031 283.910156 196.734375 C 284.105469 196.265625 284.203125 195.777344 284.203125 195.269531 L 284.203125 177.363281 C 284.203125 176.855469 284.105469 176.367188 283.910156 175.894531 C 283.714844 175.425781 283.4375 175.011719 283.078125 174.652344 C 282.71875 174.292969 282.304688 174.015625 281.835938 173.820312 C 281.367188 173.628906 280.878906 173.53125 280.371094 173.527344 L 273.167969 173.527344 C 273.121094 171.273438 272.984375 169.023438 272.761719 166.777344 C 272.539062 164.53125 272.226562 162.296875 271.824219 160.078125 C 271.425781 157.855469 270.9375 155.65625 270.363281 153.472656 C 269.789062 151.289062 269.128906 149.132812 268.386719 147.003906 C 267.644531 144.871094 266.816406 142.773438 265.90625 140.707031 C 264.996094 138.644531 264.007812 136.617188 262.941406 134.628906 C 261.871094 132.640625 260.726562 130.699219 259.503906 128.800781 C 258.28125 126.90625 256.984375 125.058594 255.617188 123.265625 C 254.25 121.46875 252.816406 119.730469 251.308594 118.050781 C 249.804688 116.367188 248.238281 114.746094 246.605469 113.1875 C 244.972656 111.628906 243.28125 110.140625 241.53125 108.714844 C 239.78125 107.289062 237.976562 105.933594 236.121094 104.652344 C 234.265625 103.371094 232.359375 102.160156 230.410156 101.027344 C 228.457031 99.894531 226.464844 98.84375 224.429688 97.867188 C 222.394531 96.890625 220.324219 95.996094 218.21875 95.183594 C 216.113281 94.371094 213.980469 93.644531 211.816406 93 L 269.769531 93 C 269.882812 93.804688 270.070312 94.59375 270.335938 95.367188 C 270.597656 96.136719 270.933594 96.875 271.339844 97.582031 C 271.742188 98.289062 272.210938 98.953125 272.742188 99.570312 C 273.273438 100.1875 273.859375 100.746094 274.5 101.253906 C 275.136719 101.757812 275.816406 102.199219 276.539062 102.574219 C 277.265625 102.949219 278.015625 103.253906 278.796875 103.484375 C 279.578125 103.714844 280.375 103.871094 281.183594 103.953125 C 281.996094 104.03125 282.804688 104.03125 283.617188 103.957031 C 284.429688 103.882812 285.226562 103.730469 286.007812 103.503906 C 286.789062 103.273438 287.542969 102.976562 288.265625 102.605469 C 288.992188 102.230469 289.675781 101.792969 290.316406 101.292969 C 290.957031 100.789062 291.546875 100.230469 292.082031 99.617188 C 292.613281 99.003906 293.085938 98.34375 293.496094 97.636719 C 293.902344 96.933594 294.242188 96.195312 294.507812 95.425781 C 294.777344 94.65625 294.96875 93.871094 295.085938 93.0625 C 295.203125 92.257812 295.242188 91.445312 295.203125 90.632812 C 295.167969 89.820312 295.050781 89.015625 294.859375 88.226562 C 294.671875 87.433594 294.40625 86.667969 294.066406 85.925781 C 293.730469 85.183594 293.324219 84.480469 292.851562 83.816406 C 292.382812 83.152344 291.851562 82.539062 291.261719 81.976562 C 290.671875 81.414062 290.035156 80.914062 289.347656 80.472656 C 288.664062 80.03125 287.945312 79.660156 287.1875 79.359375 C 286.429688 79.054688 285.652344 78.828125 284.851562 78.671875 C 284.054688 78.519531 283.246094 78.441406 282.429688 78.441406 Z M 92.253906 100.472656 C 92.238281 100.472656 92.222656 100.46875 92.203125 100.46875 C 94.152344 98.503906 95.441406 95.101562 95.441406 91.226562 C 95.441406 87.355469 94.152344 83.949219 92.203125 81.988281 C 92.222656 81.988281 92.238281 81.984375 92.253906 81.984375 C 92.863281 81.984375 93.464844 82.042969 94.058594 82.160156 C 94.652344 82.28125 95.230469 82.457031 95.792969 82.6875 C 96.351562 82.921875 96.886719 83.207031 97.390625 83.542969 C 97.894531 83.878906 98.363281 84.261719 98.792969 84.691406 C 99.21875 85.121094 99.605469 85.585938 99.941406 86.09375 C 100.277344 86.597656 100.5625 87.128906 100.792969 87.691406 C 101.027344 88.25 101.203125 88.828125 101.320312 89.425781 C 101.4375 90.019531 101.5 90.621094 101.5 91.226562 C 101.5 91.835938 101.4375 92.4375 101.320312 93.03125 C 101.203125 93.625 101.027344 94.203125 100.792969 94.765625 C 100.5625 95.324219 100.277344 95.859375 99.941406 96.363281 C 99.605469 96.867188 99.21875 97.335938 98.792969 97.765625 C 98.363281 98.191406 97.894531 98.578125 97.390625 98.914062 C 96.886719 99.25 96.351562 99.535156 95.792969 99.769531 C 95.230469 100 94.652344 100.175781 94.058594 100.292969 C 93.464844 100.410156 92.863281 100.472656 92.253906 100.472656 Z M 196.585938 100.179688 C 196.585938 100.261719 196.558594 100.328125 196.5 100.386719 C 196.445312 100.441406 196.378906 100.472656 196.296875 100.472656 L 178.390625 100.472656 C 178.308594 100.472656 178.242188 100.441406 178.183594 100.386719 C 178.128906 100.328125 178.101562 100.261719 178.101562 100.179688 L 178.101562 82.273438 C 178.101562 82.195312 178.128906 82.125 178.183594 82.070312 C 178.242188 82.011719 178.308594 81.984375 178.390625 81.984375 L 196.296875 81.984375 C 196.378906 81.984375 196.445312 82.011719 196.5 82.070312 C 196.558594 82.125 196.585938 82.195312 196.585938 82.273438 Z M 280.371094 177.074219 C 280.449219 177.074219 280.519531 177.101562 280.574219 177.15625 C 280.632812 177.214844 280.660156 177.28125 280.660156 177.363281 L 280.660156 195.269531 C 280.660156 195.351562 280.632812 195.417969 280.574219 195.472656 C 280.519531 195.53125 280.449219 195.558594 280.371094 195.558594 L 262.460938 195.558594 C 262.382812 195.558594 262.316406 195.53125 262.257812 195.472656 C 262.203125 195.417969 262.171875 195.351562 262.171875 195.269531 L 262.171875 177.363281 C 262.171875 177.28125 262.203125 177.214844 262.257812 177.15625 C 262.316406 177.101562 262.382812 177.074219 262.460938 177.074219 Z M 282.429688 100.472656 C 282.414062 100.472656 282.398438 100.46875 282.378906 100.46875 C 284.328125 98.503906 285.617188 95.101562 285.617188 91.226562 C 285.617188 87.355469 284.328125 83.949219 282.378906 81.988281 C 282.398438 81.988281 282.414062 81.984375 282.429688 81.984375 C 283.039062 81.984375 283.640625 82.042969 284.234375 82.160156 C 284.828125 82.28125 285.40625 82.457031 285.96875 82.6875 C 286.53125 82.921875 287.0625 83.207031 287.566406 83.542969 C 288.070312 83.878906 288.539062 84.261719 288.96875 84.691406 C 289.398438 85.121094 289.78125 85.585938 290.117188 86.09375 C 290.453125 86.597656 290.738281 87.128906 290.972656 87.691406 C 291.203125 88.25 291.378906 88.828125 291.496094 89.425781 C 291.617188 90.019531 291.675781 90.621094 291.675781 91.226562 C 291.675781 91.835938 291.617188 92.4375 291.496094 93.03125 C 291.378906 93.625 291.203125 94.203125 290.972656 94.765625 C 290.738281 95.324219 290.453125 95.859375 290.117188 96.363281 C 289.78125 96.867188 289.398438 97.335938 288.96875 97.765625 C 288.539062 98.191406 288.070312 98.578125 287.566406 98.914062 C 287.0625 99.25 286.53125 99.535156 285.96875 99.769531 C 285.40625 100 284.828125 100.175781 284.234375 100.292969 C 283.640625 100.410156 283.039062 100.472656 282.429688 100.472656 Z M 282.429688 100.472656 " fill-opacity="1" fill-rule="nonzero"/></g></svg>