<svg xmlns="http://www.w3.org/2000/svg" zoomAndPan="magnify" viewBox="0 0 375 374.999991" width="400" height="400"
     preserveAspectRatio="xMidYMid meet" version="1.0"><defs><clipPath id="e6f114f8c5"><path d="M 95 155 L 285 155 L 285 279.785156 L 95 279.785156 Z M 95 155 " clip-rule="nonzero"/></clipPath></defs><path fill="#F4BC33" d="M 284.253906 218.453125 L 280.050781 216.5625 C 281.652344 212.976562 283.039062 209.308594 284.207031 205.558594 C 285.375 201.808594 286.316406 198.003906 287.035156 194.140625 C 287.75 190.277344 288.234375 186.386719 288.488281 182.46875 C 288.746094 178.550781 288.765625 174.628906 288.554688 170.707031 C 288.34375 166.785156 287.902344 162.886719 287.230469 159.019531 C 286.554688 155.148438 285.65625 151.332031 284.53125 147.570312 C 283.402344 143.804688 282.058594 140.125 280.496094 136.519531 C 278.933594 132.917969 277.160156 129.417969 275.183594 126.027344 L 279.160156 123.695312 C 281.234375 127.25 283.085938 130.910156 284.722656 134.679688 C 286.359375 138.453125 287.765625 142.304688 288.945312 146.246094 C 290.125 150.183594 291.066406 154.175781 291.769531 158.226562 C 292.476562 162.277344 292.9375 166.355469 293.160156 170.460938 C 293.378906 174.566406 293.355469 178.667969 293.089844 182.769531 C 292.824219 186.871094 292.316406 190.945312 291.566406 194.988281 C 290.816406 199.027344 289.828125 203.011719 288.605469 206.9375 C 287.382812 210.863281 285.933594 214.699219 284.253906 218.453125 Z M 284.253906 218.453125 " fill-opacity="1" fill-rule="nonzero"/><path fill="#F4BC33" d="M 267.84375 115.191406 C 267.699219 115.007812 267.574219 114.84375 267.429688 114.6875 C 265.722656 112.519531 263.929688 110.429688 262.050781 108.417969 C 260.167969 106.402344 258.207031 104.46875 256.167969 102.617188 C 254.125 100.765625 252.011719 99 249.824219 97.324219 C 247.636719 95.648438 245.382812 94.066406 243.0625 92.578125 C 240.742188 91.09375 238.363281 89.703125 235.925781 88.414062 C 233.492188 87.125 231.007812 85.9375 228.472656 84.855469 C 225.9375 83.773438 223.363281 82.800781 220.746094 81.933594 C 218.128906 81.066406 215.480469 80.308594 212.804688 79.660156 C 210.125 79.015625 207.421875 78.480469 204.699219 78.058594 C 201.976562 77.636719 199.238281 77.328125 196.488281 77.136719 C 193.742188 76.941406 190.988281 76.863281 188.230469 76.898438 C 185.476562 76.933594 182.726562 77.085938 179.984375 77.347656 C 177.242188 77.613281 174.511719 77.992188 171.800781 78.484375 C 169.089844 78.976562 166.402344 79.582031 163.742188 80.296875 C 161.082031 81.015625 158.453125 81.839844 155.859375 82.777344 C 153.269531 83.710938 150.71875 84.753906 148.214844 85.902344 L 146.285156 81.710938 C 148.90625 80.511719 151.570312 79.421875 154.28125 78.441406 C 156.992188 77.464844 159.738281 76.601562 162.519531 75.851562 C 165.300781 75.101562 168.109375 74.46875 170.945312 73.953125 C 173.78125 73.4375 176.632812 73.042969 179.5 72.765625 C 182.367188 72.484375 185.242188 72.328125 188.121094 72.289062 C 191.003906 72.25 193.882812 72.332031 196.753906 72.53125 C 199.628906 72.734375 202.492188 73.054688 205.339844 73.492188 C 208.1875 73.929688 211.011719 74.488281 213.8125 75.164062 C 216.613281 75.835938 219.382812 76.625 222.117188 77.53125 C 224.851562 78.4375 227.546875 79.453125 230.195312 80.582031 C 232.847656 81.710938 235.445312 82.949219 237.996094 84.292969 C 240.542969 85.640625 243.03125 87.089844 245.457031 88.640625 C 247.882812 90.195312 250.242188 91.84375 252.53125 93.59375 C 254.820312 95.34375 257.035156 97.183594 259.171875 99.117188 C 261.308594 101.050781 263.359375 103.070312 265.328125 105.175781 C 267.296875 107.277344 269.171875 109.460938 270.960938 111.722656 C 271.082031 111.851562 271.269531 112.09375 271.457031 112.332031 Z M 267.84375 115.191406 " fill-opacity="1" fill-rule="nonzero"/><path fill="#F4BC33" d="M 95.273438 219.300781 C 94.175781 216.90625 93.167969 214.46875 92.257812 211.996094 C 91.34375 209.523438 90.527344 207.019531 89.804688 204.480469 C 89.085938 201.945312 88.460938 199.386719 87.933594 196.804688 C 87.40625 194.222656 86.980469 191.621094 86.652344 189.003906 C 86.324219 186.390625 86.09375 183.765625 85.964844 181.132812 C 85.835938 178.5 85.808594 175.863281 85.882812 173.230469 C 85.953125 170.59375 86.125 167.964844 86.398438 165.34375 C 86.671875 162.71875 87.042969 160.113281 87.511719 157.519531 C 87.984375 154.925781 88.554688 152.351562 89.21875 149.800781 C 89.886719 147.25 90.648438 144.730469 91.507812 142.238281 C 92.367188 139.746094 93.320312 137.289062 94.367188 134.867188 C 95.414062 132.449219 96.550781 130.074219 97.777344 127.738281 C 99.003906 125.40625 100.316406 123.121094 101.71875 120.890625 C 103.121094 118.65625 104.605469 116.480469 106.171875 114.359375 C 107.738281 112.238281 109.382812 110.183594 111.109375 108.1875 C 112.832031 106.191406 114.628906 104.265625 116.5 102.410156 L 119.726562 105.683594 C 117.9375 107.457031 116.222656 109.296875 114.574219 111.203125 C 112.929688 113.109375 111.355469 115.074219 109.859375 117.101562 C 108.363281 119.128906 106.945312 121.207031 105.605469 123.339844 C 104.265625 125.476562 103.011719 127.65625 101.839844 129.886719 C 100.667969 132.117188 99.582031 134.386719 98.582031 136.699219 C 97.582031 139.011719 96.671875 141.359375 95.851562 143.738281 C 95.027344 146.121094 94.300781 148.53125 93.664062 150.96875 C 93.023438 153.402344 92.480469 155.863281 92.03125 158.339844 C 91.582031 160.820312 91.226562 163.3125 90.964844 165.816406 C 90.707031 168.320312 90.539062 170.832031 90.472656 173.351562 C 90.402344 175.871094 90.429688 178.386719 90.550781 180.902344 C 90.675781 183.417969 90.894531 185.925781 91.207031 188.425781 C 91.519531 190.925781 91.929688 193.410156 92.429688 195.878906 C 92.933594 198.34375 93.53125 200.792969 94.21875 203.214844 C 94.910156 205.636719 95.6875 208.03125 96.558594 210.394531 C 97.429688 212.757812 98.390625 215.082031 99.441406 217.375 Z M 95.273438 219.300781 " fill-opacity="1" fill-rule="nonzero"/><g clip-path="url(#e6f114f8c5)"><path fill="#F4BC33" d="M 277.171875 279.75 L 101.976562 279.75 C 101.523438 279.75 101.070312 279.703125 100.625 279.617188 C 100.179688 279.527344 99.75 279.394531 99.328125 279.222656 C 98.910156 279.046875 98.511719 278.835938 98.132812 278.582031 C 97.757812 278.332031 97.40625 278.042969 97.085938 277.722656 C 96.765625 277.402344 96.476562 277.054688 96.226562 276.675781 C 95.972656 276.296875 95.761719 275.898438 95.585938 275.480469 C 95.414062 275.058594 95.28125 274.628906 95.191406 274.183594 C 95.105469 273.738281 95.058594 273.289062 95.058594 272.832031 L 95.058594 162.183594 C 95.058594 161.730469 95.105469 161.277344 95.191406 160.832031 C 95.28125 160.386719 95.414062 159.957031 95.585938 159.535156 C 95.761719 159.117188 95.972656 158.71875 96.226562 158.339844 C 96.476562 157.964844 96.765625 157.613281 97.085938 157.292969 C 97.40625 156.972656 97.757812 156.683594 98.132812 156.433594 C 98.511719 156.179688 98.910156 155.96875 99.328125 155.792969 C 99.75 155.621094 100.179688 155.488281 100.625 155.398438 C 101.070312 155.3125 101.523438 155.265625 101.976562 155.265625 L 224.152344 155.265625 L 224.152344 159.878906 L 101.976562 159.878906 C 101.671875 159.878906 101.375 159.9375 101.09375 160.054688 C 100.8125 160.171875 100.5625 160.335938 100.347656 160.550781 C 100.128906 160.769531 99.964844 161.019531 99.847656 161.300781 C 99.730469 161.582031 99.671875 161.878906 99.671875 162.183594 L 99.671875 272.832031 C 99.671875 273.140625 99.730469 273.433594 99.847656 273.714844 C 99.964844 273.996094 100.128906 274.246094 100.347656 274.464844 C 100.5625 274.679688 100.8125 274.847656 101.09375 274.964844 C 101.375 275.078125 101.671875 275.136719 101.976562 275.136719 L 277.171875 275.136719 C 277.476562 275.136719 277.773438 275.078125 278.054688 274.964844 C 278.335938 274.847656 278.585938 274.679688 278.800781 274.464844 C 279.019531 274.246094 279.183594 273.996094 279.300781 273.714844 C 279.417969 273.433594 279.476562 273.140625 279.476562 272.832031 L 279.476562 162.183594 C 279.476562 161.878906 279.417969 161.582031 279.300781 161.300781 C 279.183594 161.019531 279.019531 160.769531 278.800781 160.550781 C 278.585938 160.335938 278.335938 160.171875 278.054688 160.054688 C 277.773438 159.9375 277.476562 159.878906 277.171875 159.878906 L 244.898438 159.878906 L 244.898438 155.265625 L 277.171875 155.265625 C 277.625 155.265625 278.078125 155.3125 278.523438 155.398438 C 278.96875 155.488281 279.398438 155.621094 279.820312 155.792969 C 280.238281 155.96875 280.636719 156.179688 281.015625 156.433594 C 281.390625 156.683594 281.742188 156.972656 282.0625 157.292969 C 282.382812 157.613281 282.671875 157.964844 282.921875 158.339844 C 283.175781 158.71875 283.386719 159.117188 283.5625 159.535156 C 283.734375 159.957031 283.867188 160.386719 283.957031 160.832031 C 284.042969 161.277344 284.089844 161.730469 284.089844 162.183594 L 284.089844 272.832031 C 284.089844 273.289062 284.042969 273.738281 283.957031 274.183594 C 283.867188 274.628906 283.734375 275.058594 283.5625 275.480469 C 283.386719 275.898438 283.175781 276.296875 282.921875 276.675781 C 282.671875 277.054688 282.382812 277.402344 282.0625 277.722656 C 281.742188 278.042969 281.390625 278.332031 281.015625 278.582031 C 280.636719 278.835938 280.238281 279.046875 279.820312 279.222656 C 279.398438 279.394531 278.96875 279.527344 278.523438 279.617188 C 278.078125 279.703125 277.625 279.75 277.171875 279.75 Z M 277.171875 279.75 " fill-opacity="1" fill-rule="nonzero"/></g><path fill="#F4BC33" d="M 272.5625 270.527344 L 120.417969 270.527344 C 120.113281 270.527344 119.816406 270.46875 119.535156 270.351562 C 119.253906 270.234375 119.003906 270.070312 118.789062 269.851562 C 118.570312 269.636719 118.40625 269.386719 118.289062 269.105469 C 118.171875 268.824219 118.113281 268.527344 118.113281 268.222656 L 118.113281 166.792969 C 118.113281 166.488281 118.171875 166.195312 118.289062 165.910156 C 118.40625 165.628906 118.570312 165.378906 118.789062 165.164062 C 119.003906 164.945312 119.253906 164.78125 119.535156 164.664062 C 119.816406 164.546875 120.113281 164.488281 120.417969 164.488281 L 214.929688 164.488281 L 214.929688 169.097656 L 122.722656 169.097656 L 122.722656 265.917969 L 270.257812 265.917969 L 270.257812 169.097656 L 235.679688 169.097656 L 235.679688 164.488281 L 272.5625 164.488281 C 272.867188 164.488281 273.160156 164.546875 273.445312 164.664062 C 273.726562 164.78125 273.976562 164.945312 274.191406 165.164062 C 274.40625 165.378906 274.574219 165.628906 274.691406 165.910156 C 274.808594 166.195312 274.867188 166.488281 274.867188 166.792969 L 274.867188 268.222656 C 274.867188 268.527344 274.808594 268.824219 274.691406 269.105469 C 274.574219 269.386719 274.40625 269.636719 274.191406 269.851562 C 273.976562 270.070312 273.726562 270.234375 273.445312 270.351562 C 273.160156 270.46875 272.867188 270.527344 272.5625 270.527344 Z M 272.5625 270.527344 " fill-opacity="1" fill-rule="nonzero"/><path fill="#F4BC33" d="M 108.890625 231.339844 C 107.984375 231.339844 107.082031 231.25 106.191406 231.074219 C 105.300781 230.894531 104.4375 230.632812 103.597656 230.285156 C 102.757812 229.9375 101.960938 229.511719 101.207031 229.007812 C 100.453125 228.503906 99.753906 227.929688 99.113281 227.289062 C 98.46875 226.644531 97.894531 225.949219 97.390625 225.191406 C 96.886719 224.4375 96.460938 223.640625 96.113281 222.800781 C 95.765625 221.960938 95.503906 221.097656 95.324219 220.207031 C 95.148438 219.316406 95.058594 218.417969 95.058594 217.507812 C 95.058594 216.601562 95.148438 215.699219 95.324219 214.808594 C 95.503906 213.917969 95.765625 213.054688 96.113281 212.214844 C 96.460938 211.375 96.886719 210.578125 97.390625 209.824219 C 97.894531 209.070312 98.46875 208.371094 99.113281 207.726562 C 99.753906 207.085938 100.453125 206.511719 101.207031 206.007812 C 101.960938 205.503906 102.757812 205.078125 103.597656 204.730469 C 104.4375 204.382812 105.300781 204.121094 106.191406 203.941406 C 107.082031 203.765625 107.984375 203.675781 108.890625 203.675781 C 109.800781 203.675781 110.699219 203.765625 111.589844 203.941406 C 112.480469 204.121094 113.34375 204.382812 114.183594 204.730469 C 115.023438 205.078125 115.820312 205.503906 116.574219 206.007812 C 117.332031 206.511719 118.03125 207.085938 118.671875 207.726562 C 119.3125 208.371094 119.886719 209.070312 120.390625 209.824219 C 120.894531 210.578125 121.324219 211.375 121.671875 212.214844 C 122.015625 213.054688 122.28125 213.917969 122.457031 214.808594 C 122.632812 215.699219 122.722656 216.601562 122.722656 217.507812 C 122.722656 218.414062 122.632812 219.316406 122.453125 220.207031 C 122.277344 221.097656 122.015625 221.960938 121.667969 222.796875 C 121.320312 223.636719 120.890625 224.433594 120.386719 225.1875 C 119.882812 225.945312 119.308594 226.640625 118.667969 227.285156 C 118.027344 227.925781 117.328125 228.5 116.574219 229.003906 C 115.816406 229.507812 115.019531 229.933594 114.183594 230.28125 C 113.34375 230.628906 112.480469 230.894531 111.589844 231.070312 C 110.699219 231.25 109.800781 231.339844 108.890625 231.339844 Z M 108.890625 208.285156 C 108.285156 208.285156 107.6875 208.347656 107.09375 208.464844 C 106.5 208.582031 105.921875 208.757812 105.363281 208.988281 C 104.804688 209.21875 104.273438 209.503906 103.769531 209.839844 C 103.265625 210.175781 102.800781 210.558594 102.371094 210.988281 C 101.941406 211.414062 101.5625 211.882812 101.226562 212.386719 C 100.886719 212.886719 100.605469 213.421875 100.371094 213.980469 C 100.140625 214.539062 99.964844 215.117188 99.847656 215.710938 C 99.730469 216.304688 99.671875 216.902344 99.671875 217.507812 C 99.671875 218.113281 99.730469 218.714844 99.847656 219.308594 C 99.964844 219.902344 100.140625 220.476562 100.371094 221.035156 C 100.605469 221.597656 100.886719 222.128906 101.226562 222.628906 C 101.5625 223.132812 101.941406 223.601562 102.371094 224.027344 C 102.800781 224.457031 103.265625 224.839844 103.769531 225.175781 C 104.273438 225.511719 104.804688 225.796875 105.363281 226.027344 C 105.921875 226.257812 106.5 226.433594 107.09375 226.550781 C 107.6875 226.667969 108.285156 226.730469 108.890625 226.730469 C 109.496094 226.730469 110.097656 226.667969 110.691406 226.550781 C 111.285156 226.433594 111.859375 226.257812 112.421875 226.027344 C 112.980469 225.796875 113.511719 225.511719 114.015625 225.175781 C 114.519531 224.839844 114.984375 224.457031 115.410156 224.027344 C 115.839844 223.601562 116.222656 223.132812 116.558594 222.628906 C 116.894531 222.128906 117.179688 221.597656 117.410156 221.035156 C 117.640625 220.476562 117.816406 219.902344 117.933594 219.308594 C 118.054688 218.714844 118.113281 218.113281 118.113281 217.507812 C 118.113281 216.902344 118.054688 216.304688 117.933594 215.710938 C 117.816406 215.117188 117.640625 214.539062 117.410156 213.980469 C 117.179688 213.421875 116.894531 212.886719 116.558594 212.386719 C 116.222656 211.882812 115.839844 211.414062 115.410156 210.988281 C 114.984375 210.558594 114.519531 210.175781 114.015625 209.839844 C 113.511719 209.503906 112.980469 209.21875 112.421875 208.988281 C 111.859375 208.757812 111.285156 208.582031 110.691406 208.464844 C 110.097656 208.347656 109.496094 208.285156 108.890625 208.285156 Z M 108.890625 208.285156 " fill-opacity="1" fill-rule="nonzero"/><path fill="#F4BC33" d="M 97.367188 171.402344 L 120.417969 171.402344 L 120.417969 176.015625 L 97.367188 176.015625 Z M 97.367188 171.402344 " fill-opacity="1" fill-rule="nonzero"/><path fill="#F4BC33" d="M 97.367188 194.457031 L 120.417969 194.457031 L 120.417969 199.066406 L 97.367188 199.066406 Z M 97.367188 194.457031 " fill-opacity="1" fill-rule="nonzero"/><path fill="#F4BC33" d="M 97.367188 235.949219 L 120.417969 235.949219 L 120.417969 240.558594 L 97.367188 240.558594 Z M 97.367188 235.949219 " fill-opacity="1" fill-rule="nonzero"/><path fill="#F4BC33" d="M 97.367188 259 L 120.417969 259 L 120.417969 263.613281 L 97.367188 263.613281 Z M 97.367188 259 " fill-opacity="1" fill-rule="nonzero"/><path fill="#F4BC33" d="M 97.367188 182.929688 L 120.417969 182.929688 L 120.417969 187.539062 L 97.367188 187.539062 Z M 97.367188 182.929688 " fill-opacity="1" fill-rule="nonzero"/><path fill="#F4BC33" d="M 97.367188 247.476562 L 120.417969 247.476562 L 120.417969 252.085938 L 97.367188 252.085938 Z M 97.367188 247.476562 " fill-opacity="1" fill-rule="nonzero"/><path fill="#F4BC33" d="M 106.585938 173.707031 L 111.195312 173.707031 L 111.195312 196.761719 L 106.585938 196.761719 Z M 106.585938 173.707031 " fill-opacity="1" fill-rule="nonzero"/><path fill="#F4BC33" d="M 106.585938 238.253906 L 111.195312 238.253906 L 111.195312 261.308594 L 106.585938 261.308594 Z M 106.585938 238.253906 " fill-opacity="1" fill-rule="nonzero"/><path fill="#F4BC33" d="M 204.859375 199.34375 C 204.679688 199.34375 204.5 199.320312 204.328125 199.28125 C 203.941406 199.1875 203.597656 199.007812 203.304688 198.742188 C 203.011719 198.472656 202.800781 198.148438 202.671875 197.769531 L 201.207031 193.390625 L 198.699219 190.886719 L 194.320312 189.417969 C 194.132812 189.355469 193.960938 189.273438 193.796875 189.164062 C 193.628906 189.058594 193.480469 188.929688 193.351562 188.785156 C 193.21875 188.640625 193.105469 188.480469 193.015625 188.308594 C 192.921875 188.132812 192.855469 187.953125 192.808594 187.761719 C 192.765625 187.570312 192.746094 187.375 192.75 187.179688 C 192.753906 186.984375 192.785156 186.792969 192.835938 186.601562 C 192.890625 186.414062 192.96875 186.234375 193.066406 186.066406 C 193.167969 185.898438 193.285156 185.742188 193.425781 185.605469 L 271.664062 107.363281 C 271.878906 107.148438 272.128906 106.980469 272.410156 106.863281 C 272.691406 106.75 272.988281 106.691406 273.292969 106.691406 C 273.597656 106.691406 273.890625 106.75 274.175781 106.863281 C 274.457031 106.980469 274.707031 107.148438 274.921875 107.363281 L 284.71875 117.160156 C 284.9375 117.378906 285.101562 117.628906 285.21875 117.910156 C 285.335938 118.191406 285.394531 118.484375 285.394531 118.792969 C 285.394531 119.097656 285.335938 119.390625 285.21875 119.671875 C 285.101562 119.957031 284.9375 120.207031 284.71875 120.421875 L 206.488281 198.667969 C 206.039062 199.117188 205.492188 199.34375 204.859375 199.34375 Z M 199.324219 186.238281 L 200.679688 186.699219 C 201.023438 186.8125 201.320312 187 201.578125 187.253906 L 204.851562 190.527344 C 205.105469 190.785156 205.292969 191.082031 205.40625 191.425781 L 205.867188 192.78125 L 279.835938 118.796875 L 273.300781 112.261719 Z M 199.324219 186.238281 " fill-opacity="1" fill-rule="nonzero"/><path fill="#F4BC33" d="M 188.535156 205.867188 C 188.347656 205.867188 188.164062 205.84375 187.980469 205.796875 C 187.796875 205.753906 187.621094 205.6875 187.457031 205.597656 C 187.289062 205.511719 187.136719 205.402344 186.996094 205.277344 C 186.855469 205.152344 186.734375 205.011719 186.628906 204.855469 C 186.523438 204.699219 186.4375 204.53125 186.371094 204.355469 C 186.308594 204.179688 186.265625 203.996094 186.242188 203.808594 C 186.222656 203.621094 186.226562 203.433594 186.253906 203.25 C 186.277344 203.0625 186.324219 202.882812 186.394531 202.707031 L 192.917969 186.386719 L 197.203125 188.097656 L 192.671875 199.425781 L 204.003906 194.894531 L 205.710938 199.179688 L 189.390625 205.703125 C 189.117188 205.8125 188.832031 205.867188 188.535156 205.867188 Z M 188.535156 205.867188 " fill-opacity="1" fill-rule="nonzero"/><path fill="#F4BC33" d="M 261.894531 120.429688 L 265.15625 117.171875 L 274.929688 126.945312 L 271.671875 130.203125 Z M 261.894531 120.429688 " fill-opacity="1" fill-rule="nonzero"/><path fill="#F4BC33" d="M 257.007812 125.316406 L 260.269531 122.054688 L 270.042969 131.832031 L 266.785156 135.089844 Z M 257.007812 125.316406 " fill-opacity="1" fill-rule="nonzero"/><path fill="#F4BC33" d="M 159.605469 127.605469 L 118.113281 127.605469 C 117.808594 127.605469 117.511719 127.546875 117.230469 127.429688 C 116.949219 127.3125 116.699219 127.144531 116.480469 126.929688 C 116.265625 126.714844 116.101562 126.464844 115.984375 126.179688 C 115.867188 125.898438 115.808594 125.605469 115.808594 125.300781 L 115.808594 83.804688 C 115.808594 83.5 115.867188 83.207031 115.984375 82.921875 C 116.101562 82.640625 116.265625 82.390625 116.480469 82.175781 C 116.699219 81.960938 116.949219 81.792969 117.230469 81.675781 C 117.511719 81.558594 117.808594 81.5 118.113281 81.5 L 159.605469 81.5 C 159.910156 81.5 160.207031 81.558594 160.488281 81.675781 C 160.769531 81.792969 161.019531 81.960938 161.238281 82.175781 C 161.453125 82.390625 161.617188 82.640625 161.734375 82.921875 C 161.851562 83.207031 161.910156 83.5 161.910156 83.804688 L 161.910156 125.300781 C 161.910156 125.605469 161.851562 125.898438 161.734375 126.179688 C 161.617188 126.464844 161.453125 126.714844 161.238281 126.929688 C 161.019531 127.144531 160.769531 127.3125 160.488281 127.429688 C 160.207031 127.546875 159.910156 127.605469 159.605469 127.605469 Z M 120.417969 122.992188 L 157.300781 122.992188 L 157.300781 86.109375 L 120.417969 86.109375 Z M 120.417969 122.992188 " fill-opacity="1" fill-rule="nonzero"/><path fill="#F4BC33" d="M 159.605469 148.351562 C 158.851562 148.351562 158.097656 148.3125 157.347656 148.238281 C 156.597656 148.164062 155.851562 148.050781 155.109375 147.90625 C 154.371094 147.757812 153.640625 147.574219 152.917969 147.351562 C 152.195312 147.132812 151.484375 146.878906 150.789062 146.589844 C 150.089844 146.300781 149.410156 145.976562 148.746094 145.621094 C 148.078125 145.265625 147.433594 144.878906 146.804688 144.457031 C 146.179688 144.039062 145.574219 143.589844 144.988281 143.109375 C 144.40625 142.632812 143.847656 142.125 143.3125 141.59375 C 142.78125 141.058594 142.273438 140.5 141.792969 139.917969 C 141.316406 139.332031 140.867188 138.726562 140.445312 138.101562 C 140.027344 137.472656 139.640625 136.828125 139.285156 136.160156 C 138.925781 135.496094 138.605469 134.8125 138.316406 134.117188 C 138.027344 133.417969 137.773438 132.710938 137.550781 131.988281 C 137.332031 131.265625 137.148438 130.535156 137 129.792969 C 136.851562 129.054688 136.742188 128.308594 136.667969 127.558594 C 136.59375 126.808594 136.554688 126.054688 136.554688 125.300781 L 141.164062 125.300781 C 141.164062 125.902344 141.195312 126.503906 141.253906 127.105469 C 141.3125 127.707031 141.402344 128.304688 141.519531 128.898438 C 141.636719 129.488281 141.785156 130.074219 141.957031 130.652344 C 142.132812 131.230469 142.335938 131.796875 142.570312 132.355469 C 142.800781 132.914062 143.058594 133.460938 143.34375 133.992188 C 143.625 134.523438 143.9375 135.042969 144.273438 135.546875 C 144.609375 136.046875 144.96875 136.53125 145.351562 137 C 145.734375 137.464844 146.140625 137.914062 146.566406 138.339844 C 146.992188 138.765625 147.441406 139.171875 147.90625 139.554688 C 148.375 139.9375 148.859375 140.296875 149.359375 140.632812 C 149.863281 140.96875 150.378906 141.277344 150.914062 141.5625 C 151.445312 141.847656 151.992188 142.105469 152.550781 142.335938 C 153.105469 142.566406 153.675781 142.773438 154.253906 142.945312 C 154.832031 143.121094 155.417969 143.269531 156.007812 143.386719 C 156.601562 143.503906 157.199219 143.59375 157.796875 143.652344 C 158.398438 143.710938 159.003906 143.742188 159.605469 143.742188 C 160.210938 143.742188 160.8125 143.710938 161.414062 143.652344 C 162.015625 143.59375 162.613281 143.503906 163.203125 143.386719 C 163.796875 143.269531 164.382812 143.121094 164.960938 142.945312 C 165.539062 142.773438 166.105469 142.570312 166.664062 142.335938 C 167.222656 142.105469 167.765625 141.847656 168.300781 141.5625 C 168.832031 141.277344 169.351562 140.96875 169.851562 140.632812 C 170.355469 140.296875 170.839844 139.9375 171.304688 139.554688 C 171.773438 139.171875 172.21875 138.765625 172.648438 138.339844 C 173.074219 137.914062 173.480469 137.464844 173.863281 137 C 174.246094 136.53125 174.605469 136.046875 174.941406 135.546875 C 175.277344 135.042969 175.585938 134.523438 175.871094 133.992188 C 176.15625 133.460938 176.414062 132.914062 176.644531 132.355469 C 176.875 131.796875 177.078125 131.230469 177.253906 130.652344 C 177.429688 130.074219 177.574219 129.488281 177.695312 128.898438 C 177.8125 128.304688 177.898438 127.707031 177.960938 127.105469 C 178.019531 126.503906 178.046875 125.902344 178.046875 125.300781 C 178.046875 124.695312 178.019531 124.09375 177.960938 123.492188 C 177.898438 122.890625 177.8125 122.292969 177.695312 121.703125 C 177.574219 121.109375 177.429688 120.523438 177.253906 119.945312 C 177.078125 119.367188 176.875 118.800781 176.644531 118.242188 C 176.414062 117.683594 176.15625 117.136719 175.871094 116.605469 C 175.585938 116.074219 175.277344 115.554688 174.941406 115.054688 C 174.605469 114.550781 174.246094 114.066406 173.863281 113.601562 C 173.480469 113.132812 173.074219 112.6875 172.648438 112.257812 C 172.21875 111.832031 171.773438 111.425781 171.304688 111.042969 C 170.839844 110.660156 170.355469 110.300781 169.851562 109.964844 C 169.351562 109.628906 168.832031 109.320312 168.300781 109.035156 C 167.765625 108.75 167.222656 108.492188 166.664062 108.261719 C 166.105469 108.03125 165.539062 107.828125 164.960938 107.652344 C 164.382812 107.476562 163.796875 107.328125 163.203125 107.210938 C 162.613281 107.09375 162.015625 107.003906 161.414062 106.945312 C 160.8125 106.886719 160.210938 106.859375 159.605469 106.859375 L 159.605469 102.246094 C 160.359375 102.246094 161.113281 102.285156 161.867188 102.359375 C 162.617188 102.433594 163.363281 102.542969 164.101562 102.691406 C 164.84375 102.839844 165.574219 103.023438 166.296875 103.242188 C 167.019531 103.460938 167.726562 103.714844 168.425781 104.003906 C 169.121094 104.292969 169.804688 104.617188 170.46875 104.972656 C 171.136719 105.328125 171.78125 105.714844 172.410156 106.136719 C 173.039062 106.554688 173.644531 107.003906 174.226562 107.484375 C 174.808594 107.960938 175.367188 108.46875 175.902344 109 C 176.433594 109.535156 176.941406 110.09375 177.421875 110.679688 C 177.898438 111.261719 178.347656 111.867188 178.765625 112.496094 C 179.1875 113.121094 179.574219 113.769531 179.929688 114.433594 C 180.285156 115.101562 180.609375 115.78125 180.898438 116.480469 C 181.183594 117.175781 181.4375 117.886719 181.660156 118.609375 C 181.878906 119.332031 182.0625 120.0625 182.207031 120.804688 C 182.355469 121.542969 182.464844 122.289062 182.539062 123.039062 C 182.613281 123.792969 182.652344 124.542969 182.652344 125.300781 C 182.652344 126.054688 182.613281 126.808594 182.539062 127.558594 C 182.464844 128.308594 182.355469 129.054688 182.207031 129.796875 C 182.0625 130.535156 181.878906 131.265625 181.660156 131.988281 C 181.4375 132.710938 181.183594 133.421875 180.898438 134.117188 C 180.609375 134.816406 180.285156 135.5 179.929688 136.164062 C 179.574219 136.828125 179.1875 137.476562 178.765625 138.105469 C 178.347656 138.730469 177.898438 139.335938 177.421875 139.921875 C 176.941406 140.503906 176.433594 141.0625 175.902344 141.597656 C 175.367188 142.128906 174.808594 142.636719 174.226562 143.117188 C 173.644531 143.59375 173.039062 144.042969 172.410156 144.464844 C 171.78125 144.882812 171.136719 145.269531 170.46875 145.625 C 169.804688 145.984375 169.121094 146.304688 168.425781 146.59375 C 167.726562 146.882812 167.019531 147.136719 166.296875 147.355469 C 165.574219 147.578125 164.84375 147.757812 164.101562 147.90625 C 163.363281 148.054688 162.617188 148.164062 161.867188 148.238281 C 161.113281 148.3125 160.359375 148.351562 159.605469 148.351562 Z M 159.605469 148.351562 " fill-opacity="1" fill-rule="nonzero"/><path fill="#F4BC33" d="M 116.480469 85.433594 L 119.742188 82.175781 L 161.238281 123.667969 L 157.976562 126.929688 Z M 116.480469 85.433594 " fill-opacity="1" fill-rule="nonzero"/><path fill="#F4BC33" d="M 130.3125 85.4375 L 133.574219 82.175781 L 161.238281 109.839844 L 157.976562 113.097656 Z M 130.3125 85.4375 " fill-opacity="1" fill-rule="nonzero"/><path fill="#F4BC33" d="M 116.484375 99.265625 L 119.742188 96.007812 L 147.40625 123.671875 L 144.144531 126.929688 Z M 116.484375 99.265625 " fill-opacity="1" fill-rule="nonzero"/><path fill="#F4BC33" d="M 144.144531 85.433594 L 147.40625 82.175781 L 161.234375 96.003906 L 157.976562 99.265625 Z M 144.144531 85.433594 " fill-opacity="1" fill-rule="nonzero"/><path fill="#F4BC33" d="M 116.480469 113.097656 L 119.742188 109.835938 L 133.574219 123.667969 L 130.3125 126.929688 Z M 116.480469 113.097656 " fill-opacity="1" fill-rule="nonzero"/><path fill="#F4BC33" d="M 210.320312 148.351562 L 196.488281 148.351562 C 196.183594 148.351562 195.890625 148.292969 195.609375 148.175781 C 195.324219 148.058594 195.074219 147.890625 194.859375 147.675781 C 194.644531 147.460938 194.476562 147.210938 194.359375 146.929688 C 194.242188 146.644531 194.183594 146.351562 194.183594 146.046875 L 194.183594 132.214844 C 194.183594 131.910156 194.242188 131.613281 194.359375 131.332031 C 194.476562 131.050781 194.644531 130.800781 194.859375 130.585938 C 195.074219 130.367188 195.324219 130.203125 195.609375 130.085938 C 195.890625 129.96875 196.183594 129.910156 196.488281 129.910156 L 210.320312 129.910156 C 210.625 129.910156 210.921875 129.96875 211.203125 130.085938 C 211.484375 130.203125 211.734375 130.367188 211.949219 130.585938 C 212.167969 130.800781 212.332031 131.050781 212.449219 131.332031 C 212.566406 131.613281 212.625 131.910156 212.625 132.214844 L 212.625 146.046875 C 212.625 146.351562 212.566406 146.644531 212.449219 146.929688 C 212.332031 147.210938 212.167969 147.460938 211.949219 147.675781 C 211.734375 147.890625 211.484375 148.058594 211.203125 148.175781 C 210.921875 148.292969 210.625 148.351562 210.320312 148.351562 Z M 198.796875 143.742188 L 208.015625 143.742188 L 208.015625 134.519531 L 198.796875 134.519531 Z M 198.796875 143.742188 " fill-opacity="1" fill-rule="nonzero"/><path fill="#F4BC33" d="M 225.304688 132.214844 C 224.625 132.214844 223.949219 132.148438 223.28125 132.015625 C 222.613281 131.882812 221.964844 131.6875 221.335938 131.425781 C 220.707031 131.164062 220.109375 130.84375 219.542969 130.464844 C 218.976562 130.089844 218.453125 129.660156 217.96875 129.175781 C 217.488281 128.695312 217.058594 128.171875 216.679688 127.605469 C 216.300781 127.039062 215.980469 126.441406 215.722656 125.8125 C 215.460938 125.183594 215.265625 124.535156 215.128906 123.863281 C 214.996094 123.195312 214.929688 122.523438 214.929688 121.839844 C 214.929688 121.160156 214.996094 120.484375 215.128906 119.816406 C 215.265625 119.148438 215.460938 118.5 215.722656 117.871094 C 215.980469 117.242188 216.300781 116.644531 216.679688 116.078125 C 217.058594 115.511719 217.488281 114.988281 217.96875 114.507812 C 218.453125 114.023438 218.976562 113.59375 219.542969 113.214844 C 220.109375 112.835938 220.707031 112.519531 221.335938 112.257812 C 221.964844 111.996094 222.613281 111.800781 223.28125 111.667969 C 223.949219 111.535156 224.625 111.46875 225.304688 111.46875 C 225.984375 111.46875 226.660156 111.535156 227.328125 111.667969 C 227.996094 111.800781 228.644531 111.996094 229.273438 112.257812 C 229.902344 112.519531 230.5 112.835938 231.066406 113.214844 C 231.632812 113.59375 232.160156 114.023438 232.640625 114.507812 C 233.121094 114.988281 233.550781 115.511719 233.929688 116.078125 C 234.308594 116.644531 234.628906 117.242188 234.890625 117.871094 C 235.148438 118.5 235.347656 119.148438 235.480469 119.816406 C 235.613281 120.484375 235.679688 121.160156 235.679688 121.839844 C 235.679688 122.523438 235.609375 123.195312 235.476562 123.863281 C 235.34375 124.53125 235.148438 125.179688 234.886719 125.808594 C 234.625 126.4375 234.304688 127.035156 233.925781 127.601562 C 233.546875 128.167969 233.117188 128.691406 232.636719 129.171875 C 232.15625 129.65625 231.632812 130.085938 231.066406 130.464844 C 230.5 130.839844 229.902344 131.160156 229.273438 131.421875 C 228.644531 131.683594 227.996094 131.878906 227.328125 132.015625 C 226.660156 132.148438 225.984375 132.214844 225.304688 132.214844 Z M 225.304688 116.078125 C 224.925781 116.078125 224.550781 116.117188 224.179688 116.1875 C 223.808594 116.261719 223.449219 116.371094 223.097656 116.515625 C 222.75 116.660156 222.417969 116.839844 222.101562 117.050781 C 221.789062 117.261719 221.496094 117.5 221.230469 117.765625 C 220.960938 118.035156 220.722656 118.324219 220.511719 118.640625 C 220.304688 118.953125 220.125 119.285156 219.980469 119.636719 C 219.835938 119.984375 219.726562 120.347656 219.652344 120.71875 C 219.578125 121.089844 219.542969 121.464844 219.542969 121.839844 C 219.542969 122.21875 219.578125 122.59375 219.652344 122.964844 C 219.726562 123.335938 219.835938 123.699219 219.980469 124.046875 C 220.125 124.394531 220.304688 124.730469 220.511719 125.042969 C 220.722656 125.359375 220.960938 125.648438 221.230469 125.917969 C 221.496094 126.183594 221.789062 126.421875 222.101562 126.632812 C 222.417969 126.84375 222.75 127.019531 223.097656 127.164062 C 223.449219 127.3125 223.808594 127.421875 224.179688 127.492188 C 224.550781 127.566406 224.925781 127.605469 225.304688 127.605469 C 225.683594 127.605469 226.058594 127.566406 226.429688 127.492188 C 226.800781 127.421875 227.160156 127.3125 227.511719 127.164062 C 227.859375 127.019531 228.191406 126.84375 228.507812 126.632812 C 228.820312 126.421875 229.113281 126.183594 229.378906 125.917969 C 229.648438 125.648438 229.886719 125.359375 230.097656 125.042969 C 230.308594 124.730469 230.484375 124.394531 230.628906 124.046875 C 230.773438 123.699219 230.882812 123.335938 230.957031 122.964844 C 231.03125 122.59375 231.066406 122.21875 231.066406 121.839844 C 231.066406 121.464844 231.03125 121.089844 230.957031 120.71875 C 230.882812 120.347656 230.773438 119.984375 230.628906 119.636719 C 230.484375 119.285156 230.308594 118.953125 230.097656 118.640625 C 229.886719 118.324219 229.648438 118.035156 229.378906 117.765625 C 229.113281 117.5 228.820312 117.261719 228.507812 117.050781 C 228.191406 116.839844 227.859375 116.660156 227.511719 116.515625 C 227.160156 116.371094 226.800781 116.261719 226.429688 116.1875 C 226.058594 116.117188 225.683594 116.078125 225.304688 116.078125 Z M 225.304688 116.078125 " fill-opacity="1" fill-rule="nonzero"/><path fill="#F4BC33" d="M 212.625 109.164062 L 194.183594 109.164062 C 193.757812 109.164062 193.363281 109.054688 193 108.835938 C 192.636719 108.617188 192.351562 108.320312 192.152344 107.945312 C 191.949219 107.570312 191.859375 107.171875 191.882812 106.746094 C 191.902344 106.320312 192.03125 105.933594 192.265625 105.578125 L 201.488281 91.746094 C 201.597656 91.597656 201.726562 91.464844 201.867188 91.34375 C 202.011719 91.226562 202.167969 91.125 202.332031 91.039062 C 202.5 90.957031 202.671875 90.894531 202.855469 90.851562 C 203.035156 90.808594 203.21875 90.785156 203.40625 90.785156 C 203.589844 90.785156 203.773438 90.808594 203.957031 90.851562 C 204.136719 90.894531 204.3125 90.957031 204.476562 91.039062 C 204.644531 91.125 204.800781 91.226562 204.941406 91.34375 C 205.085938 91.464844 205.210938 91.597656 205.324219 91.746094 L 214.542969 105.578125 C 214.78125 105.933594 214.910156 106.320312 214.929688 106.746094 C 214.949219 107.171875 214.859375 107.570312 214.660156 107.945312 C 214.457031 108.320312 214.175781 108.617188 213.8125 108.835938 C 213.445312 109.054688 213.050781 109.164062 212.625 109.164062 Z M 198.492188 104.550781 L 208.320312 104.550781 L 203.40625 97.175781 Z M 198.492188 104.550781 " fill-opacity="1" fill-rule="nonzero"/><path fill="#F4BC33" d="M 167.195312 184.558594 L 170.457031 181.300781 L 184.289062 195.128906 L 181.027344 198.390625 Z M 167.195312 184.558594 " fill-opacity="1" fill-rule="nonzero"/><path fill="#F4BC33" d="M 194.859375 212.222656 L 198.121094 208.960938 L 216.5625 227.402344 L 213.300781 230.664062 Z M 194.859375 212.222656 " fill-opacity="1" fill-rule="nonzero"/><path fill="#F4BC33" d="M 153.367188 184.558594 L 156.625 181.300781 L 202.730469 227.402344 L 199.46875 230.664062 Z M 153.367188 184.558594 " fill-opacity="1" fill-rule="nonzero"/><path fill="#F4BC33" d="M 155.671875 200.695312 L 158.929688 197.4375 L 205.035156 243.539062 L 201.773438 246.800781 Z M 155.671875 200.695312 " fill-opacity="1" fill-rule="nonzero"/><path fill="#F4BC33" d="M 155.671875 214.527344 L 158.929688 211.265625 L 179.679688 232.015625 L 176.417969 235.273438 Z M 155.671875 214.527344 " fill-opacity="1" fill-rule="nonzero"/></svg>