<svg xmlns="http://www.w3.org/2000/svg" zoomAndPan="magnify" viewBox="0 0 375 374.999991" width="400" height="400"
     preserveAspectRatio="xMidYMid meet" version="1.0"><defs><clipPath id="39942b1c1a"><path d="M 82.273438 83.324219 L 293 83.324219 L 293 291.824219 L 82.273438 291.824219 Z M 82.273438 83.324219 " clip-rule="nonzero"/></clipPath></defs><g clip-path="url(#39942b1c1a)"><path fill="#F4BC33" d="M 148.546875 175.75 L 142.125 186.878906 C 141.671875 187.660156 141.550781 188.585938 141.785156 189.453125 C 142.015625 190.324219 142.585938 191.0625 143.363281 191.511719 L 149.074219 194.808594 L 149.074219 226.417969 C 149.074219 227.628906 149.71875 228.75 150.769531 229.355469 L 194.648438 254.6875 C 195.171875 254.992188 195.757812 255.144531 196.34375 255.144531 C 196.929688 255.144531 197.515625 254.992188 198.039062 254.6875 L 241.917969 229.355469 C 242.96875 228.75 243.613281 227.628906 243.613281 226.417969 L 243.613281 194.808594 L 249.324219 191.511719 C 250.101562 191.0625 250.671875 190.324219 250.902344 189.453125 C 251.136719 188.585938 251.015625 187.660156 250.5625 186.878906 L 244.136719 175.75 L 250.5625 164.621094 C 251.5 163 250.945312 160.925781 249.324219 159.988281 L 205.445312 134.65625 C 204.664062 134.207031 203.738281 134.085938 202.871094 134.316406 C 202 134.550781 201.261719 135.117188 200.8125 135.898438 L 196.34375 143.636719 L 191.878906 135.898438 C 191.425781 135.117188 190.6875 134.550781 189.816406 134.316406 C 188.949219 134.085938 188.023438 134.207031 187.242188 134.65625 L 143.367188 159.988281 C 141.742188 160.925781 141.1875 163 142.125 164.621094 Z M 149.695312 187.335938 L 153.707031 180.386719 L 191.710938 202.328125 L 187.699219 209.277344 Z M 155.855469 198.726562 L 187.242188 216.847656 C 187.777344 217.15625 188.359375 217.300781 188.9375 217.300781 C 190.109375 217.300781 191.25 216.695312 191.875 215.605469 L 192.953125 213.742188 L 192.953125 245.875 L 155.855469 224.460938 Z M 236.832031 224.460938 L 199.734375 245.875 L 199.734375 213.742188 L 200.8125 215.605469 C 201.4375 216.695312 202.578125 217.300781 203.75 217.300781 C 204.328125 217.300781 204.910156 217.15625 205.445312 216.847656 L 236.832031 198.726562 Z M 238.980469 180.386719 L 242.992188 187.335938 L 204.988281 209.277344 L 200.976562 202.324219 Z M 204.988281 142.226562 L 242.992188 164.167969 L 238.980469 171.117188 L 200.976562 149.175781 Z M 196.34375 154.335938 L 233.4375 175.75 L 196.34375 197.167969 L 159.25 175.75 Z M 187.699219 142.226562 L 191.710938 149.175781 L 153.707031 171.117188 L 149.695312 164.167969 Z M 157.035156 118.433594 L 244.519531 118.433594 C 244.660156 118.433594 244.792969 118.421875 244.929688 118.40625 C 244.964844 118.402344 244.996094 118.398438 245.03125 118.390625 C 245.136719 118.375 245.242188 118.355469 245.34375 118.328125 C 245.375 118.320312 245.40625 118.3125 245.4375 118.304688 C 245.566406 118.269531 245.6875 118.230469 245.808594 118.179688 C 245.8125 118.179688 245.816406 118.175781 245.820312 118.175781 C 245.949219 118.121094 246.070312 118.058594 246.191406 117.992188 C 246.199219 117.988281 246.207031 117.984375 246.21875 117.980469 L 264.113281 107.644531 C 265.164062 107.039062 265.808594 105.921875 265.808594 104.707031 C 265.808594 103.496094 265.164062 102.378906 264.113281 101.773438 L 246.21875 91.4375 C 246.207031 91.433594 246.199219 91.429688 246.191406 91.425781 C 246.070312 91.359375 245.949219 91.296875 245.820312 91.242188 C 245.816406 91.242188 245.8125 91.238281 245.808594 91.238281 C 245.6875 91.1875 245.566406 91.148438 245.4375 91.113281 C 245.40625 91.105469 245.375 91.097656 245.34375 91.085938 C 245.242188 91.0625 245.136719 91.042969 245.03125 91.027344 C 244.996094 91.019531 244.964844 91.015625 244.929688 91.011719 C 244.792969 90.996094 244.660156 90.984375 244.519531 90.984375 L 157.035156 90.984375 C 150.414062 90.984375 145.03125 96.367188 145.03125 102.984375 L 145.03125 106.429688 C 145.03125 113.050781 150.414062 118.433594 157.035156 118.433594 Z M 247.914062 109.167969 L 247.914062 100.25 L 255.632812 104.707031 Z M 151.816406 102.988281 C 151.816406 100.109375 154.15625 97.769531 157.035156 97.769531 L 241.128906 97.769531 L 241.128906 111.652344 L 157.035156 111.652344 C 154.15625 111.652344 151.8125 109.308594 151.8125 106.429688 L 151.8125 102.988281 Z M 290.550781 185.777344 C 289.285156 185.25 287.824219 185.539062 286.855469 186.511719 L 271.640625 201.726562 L 271.640625 127.1875 C 271.640625 125.3125 270.121094 123.792969 268.246094 123.792969 L 139.207031 123.792969 L 139.207031 91.1875 C 139.207031 89.976562 138.5625 88.855469 137.515625 88.25 C 131.945312 85.023438 125.582031 83.320312 119.113281 83.320312 C 98.839844 83.320312 82.347656 99.8125 82.347656 120.085938 L 82.347656 238.671875 C 82.347656 254.472656 92.445312 268.414062 107.203125 273.457031 L 107.203125 288.289062 C 107.203125 290.160156 108.71875 291.679688 110.59375 291.679688 L 289.253906 291.679688 C 291.125 291.679688 292.644531 290.160156 292.644531 288.289062 L 292.644531 188.910156 C 292.644531 187.535156 291.820312 186.300781 290.550781 185.777344 Z M 89.132812 120.085938 C 89.132812 103.554688 102.582031 90.101562 119.113281 90.101562 C 123.746094 90.101562 128.308594 91.171875 132.421875 93.214844 L 132.421875 204.394531 C 128.199219 202.757812 123.683594 201.90625 119.113281 201.90625 C 106.753906 201.90625 95.800781 208.035156 89.132812 217.414062 Z M 89.132812 238.671875 C 89.132812 222.140625 102.582031 208.6875 119.113281 208.6875 C 124.390625 208.6875 129.578125 210.078125 134.117188 212.707031 C 135.164062 213.3125 136.457031 213.316406 137.507812 212.710938 C 138.558594 212.105469 139.207031 210.984375 139.207031 209.769531 L 139.207031 130.578125 L 264.855469 130.578125 L 264.855469 208.511719 L 212.679688 260.683594 L 110.59375 260.683594 C 108.71875 260.683594 107.203125 262.203125 107.203125 264.078125 L 107.203125 266.191406 C 96.375 261.511719 89.132812 250.761719 89.132812 238.671875 Z M 113.984375 284.894531 L 113.984375 267.46875 L 123.714844 267.46875 L 123.714844 270.617188 C 123.714844 272.488281 125.234375 274.007812 127.105469 274.007812 C 128.980469 274.007812 130.5 272.488281 130.5 270.617188 L 130.5 267.46875 L 140.226562 267.46875 L 140.226562 273.203125 C 140.226562 275.078125 141.746094 276.59375 143.617188 276.59375 C 145.492188 276.59375 147.011719 275.078125 147.011719 273.203125 L 147.011719 267.46875 L 156.738281 267.46875 L 156.738281 270.617188 C 156.738281 272.488281 158.257812 274.007812 160.132812 274.007812 C 162.003906 274.007812 163.523438 272.488281 163.523438 270.617188 L 163.523438 267.46875 L 173.253906 267.46875 L 173.253906 273.203125 C 173.253906 275.078125 174.769531 276.59375 176.644531 276.59375 C 178.515625 276.59375 180.035156 275.078125 180.035156 273.203125 L 180.035156 267.46875 L 189.765625 267.46875 L 189.765625 270.617188 C 189.765625 272.488281 191.285156 274.007812 193.15625 274.007812 C 195.03125 274.007812 196.550781 272.488281 196.550781 270.617188 L 196.550781 267.46875 L 205.898438 267.46875 L 188.46875 284.894531 Z M 198.0625 284.894531 L 285.863281 197.097656 L 285.863281 206.28125 L 283.546875 206.28125 C 281.675781 206.28125 280.15625 207.800781 280.15625 209.671875 C 280.15625 211.546875 281.675781 213.066406 283.546875 213.066406 L 285.863281 213.066406 L 285.863281 217.21875 L 283.546875 217.21875 C 281.675781 217.21875 280.15625 218.734375 280.15625 220.609375 C 280.15625 222.480469 281.675781 224 283.546875 224 L 285.863281 224 L 285.863281 228.152344 L 283.546875 228.152344 C 281.675781 228.152344 280.15625 229.671875 280.15625 231.546875 C 280.15625 233.417969 281.675781 234.9375 283.546875 234.9375 L 285.863281 234.9375 L 285.863281 239.089844 L 283.546875 239.089844 C 281.675781 239.089844 280.15625 240.609375 280.15625 242.480469 C 280.15625 244.355469 281.675781 245.875 283.546875 245.875 L 285.863281 245.875 L 285.863281 250.027344 L 283.546875 250.027344 C 281.675781 250.027344 280.15625 251.546875 280.15625 253.417969 C 280.15625 255.292969 281.675781 256.808594 283.546875 256.808594 L 285.863281 256.808594 L 285.863281 260.960938 L 283.546875 260.960938 C 281.675781 260.960938 280.15625 262.480469 280.15625 264.355469 C 280.15625 266.226562 281.675781 267.746094 283.546875 267.746094 L 285.863281 267.746094 L 285.863281 271.898438 L 283.546875 271.898438 C 281.675781 271.898438 280.15625 273.417969 280.15625 275.292969 C 280.15625 277.164062 281.675781 278.683594 283.546875 278.683594 L 285.863281 278.683594 L 285.863281 284.894531 Z M 275.8125 221.363281 C 274.542969 220.835938 273.085938 221.128906 272.113281 222.097656 L 223.0625 271.148438 C 222.09375 272.121094 221.800781 273.578125 222.328125 274.847656 C 222.851562 276.113281 224.089844 276.941406 225.460938 276.941406 L 274.511719 276.941406 C 276.386719 276.941406 277.90625 275.421875 277.90625 273.546875 L 277.90625 224.496094 C 277.90625 223.125 277.078125 221.886719 275.8125 221.363281 Z M 271.121094 270.15625 L 233.648438 270.15625 L 271.121094 232.683594 Z M 271.121094 270.15625 " fill-opacity="1" fill-rule="nonzero"/></g></svg>