<svg xmlns="http://www.w3.org/2000/svg" zoomAndPan="magnify" viewBox="0 0 375 374.999991" width="400" height="400"
     preserveAspectRatio="xMidYMid meet" version="1.0">
    <defs>
        <clipPath id="0b95257cbc">
            <path d="M 146 196 L 226 196 L 226 285.46875 L 146 285.46875 Z M 146 196 " clip-rule="nonzero"/>
        </clipPath>
        <clipPath id="47da71ecfb">
            <path d="M 97 204 L 156 204 L 156 285.46875 L 97 285.46875 Z M 97 204 " clip-rule="nonzero"/>
        </clipPath>
        <clipPath id="23c07a9cd8">
            <path d="M 215 204 L 274 204 L 274 285.46875 L 215 285.46875 Z M 215 204 " clip-rule="nonzero"/>
        </clipPath>
        <clipPath id="726dd659b7">
            <path d="M 80.777344 107 L 142 107 L 142 197 L 80.777344 197 Z M 80.777344 107 " clip-rule="nonzero"/>
        </clipPath>
        <clipPath id="f434b0cd2e">
            <path d="M 233 107 L 294.527344 107 L 294.527344 197 L 233 197 Z M 233 107 " clip-rule="nonzero"/>
        </clipPath>
        <clipPath id="e46565d235">
            <path d="M 138 89.71875 L 237 89.71875 L 237 202 L 138 202 Z M 138 89.71875 " clip-rule="nonzero"/>
        </clipPath>
    </defs>
    <g clip-path="url(#0b95257cbc)">
        <path fill="#b277d3"
              d="M 225.167969 279.449219 L 225.167969 278.53125 C 225.167969 273.21875 224.128906 268.0625 222.074219 263.207031 C 220.089844 258.519531 217.253906 254.308594 213.640625 250.695312 C 210.023438 247.078125 205.816406 244.242188 201.128906 242.257812 C 200.222656 241.875 199.308594 241.53125 198.382812 241.21875 C 200.054688 240.207031 201.597656 238.996094 202.996094 237.597656 C 205.230469 235.363281 206.984375 232.761719 208.207031 229.867188 C 209.476562 226.867188 210.117188 223.683594 210.117188 220.402344 C 210.117188 217.121094 209.476562 213.9375 208.207031 210.9375 C 206.984375 208.039062 205.230469 205.441406 202.996094 203.207031 C 200.765625 200.976562 198.164062 199.222656 195.269531 198 C 192.269531 196.730469 189.085938 196.085938 185.804688 196.085938 C 182.523438 196.085938 179.335938 196.730469 176.335938 198 C 173.441406 199.222656 170.839844 200.976562 168.609375 203.207031 C 166.378906 205.441406 164.625 208.039062 163.398438 210.9375 C 162.128906 213.9375 161.488281 217.121094 161.488281 220.402344 C 161.488281 223.683594 162.128906 226.867188 163.398438 229.867188 C 164.625 232.761719 166.378906 235.363281 168.609375 237.597656 C 170.007812 238.996094 171.554688 240.207031 173.222656 241.21875 C 172.300781 241.53125 171.382812 241.878906 170.480469 242.257812 C 165.792969 244.242188 161.582031 247.082031 157.96875 250.695312 C 154.351562 254.308594 151.515625 258.519531 149.53125 263.207031 C 147.480469 268.0625 146.4375 273.21875 146.4375 278.53125 L 146.4375 279.449219 C 146.4375 282.664062 149.050781 285.277344 152.265625 285.277344 L 219.339844 285.277344 C 222.554688 285.277344 225.167969 282.664062 225.167969 279.449219 Z M 172.535156 233.667969 C 168.992188 230.125 167.039062 225.414062 167.039062 220.402344 C 167.039062 215.386719 168.992188 210.675781 172.535156 207.132812 C 176.078125 203.589844 180.789062 201.636719 185.804688 201.636719 C 190.816406 201.636719 195.527344 203.589844 199.070312 207.132812 C 202.613281 210.675781 204.566406 215.386719 204.566406 220.402344 C 204.566406 225.414062 202.613281 230.125 199.070312 233.667969 C 195.527344 237.210938 190.816406 239.164062 185.804688 239.164062 C 180.789062 239.164062 176.078125 237.210938 172.535156 233.667969 Z M 151.988281 279.449219 L 151.988281 278.53125 C 151.988281 273.964844 152.882812 269.535156 154.644531 265.371094 C 156.347656 261.34375 158.789062 257.726562 161.894531 254.621094 C 165 251.515625 168.617188 249.078125 172.640625 247.375 C 176.808594 245.613281 181.238281 244.71875 185.800781 244.71875 C 190.367188 244.71875 194.796875 245.613281 198.960938 247.375 C 202.988281 249.078125 206.605469 251.515625 209.710938 254.621094 C 212.816406 257.726562 215.257812 261.34375 216.957031 265.371094 C 218.722656 269.539062 219.613281 273.964844 219.613281 278.53125 L 219.613281 279.449219 C 219.613281 279.601562 219.492188 279.722656 219.339844 279.722656 L 152.265625 279.722656 C 152.113281 279.722656 151.988281 279.601562 151.988281 279.449219 Z M 151.988281 279.449219 "
              fill-opacity="1" fill-rule="nonzero"/>
    </g>
    <g clip-path="url(#47da71ecfb)">
        <path fill="#b277d3"
              d="M 145.109375 282.5 C 145.109375 280.964844 143.867188 279.722656 142.332031 279.722656 L 103.453125 279.722656 C 103.300781 279.722656 103.179688 279.601562 103.179688 279.449219 L 103.179688 278.925781 C 103.179688 274.855469 103.976562 270.90625 105.546875 267.191406 C 107.066406 263.597656 109.242188 260.375 112.011719 257.601562 C 114.785156 254.832031 118.007812 252.65625 121.597656 251.140625 C 125.316406 249.566406 129.265625 248.769531 133.335938 248.769531 C 139.382812 248.769531 145.210938 250.550781 150.195312 253.917969 C 151.46875 254.777344 153.195312 254.441406 154.050781 253.171875 C 154.910156 251.902344 154.574219 250.175781 153.304688 249.316406 C 150.796875 247.621094 148.109375 246.269531 145.300781 245.269531 C 146.625 244.417969 147.867188 243.417969 149.011719 242.277344 C 153.195312 238.089844 155.503906 232.523438 155.503906 226.605469 C 155.503906 220.683594 153.195312 215.117188 149.011719 210.929688 C 144.824219 206.746094 139.257812 204.4375 133.335938 204.4375 C 127.417969 204.4375 121.851562 206.746094 117.664062 210.929688 C 113.476562 215.117188 111.171875 220.683594 111.171875 226.605469 C 111.171875 232.523438 113.476562 238.089844 117.664062 242.277344 C 118.804688 243.417969 120.046875 244.417969 121.371094 245.269531 C 120.722656 245.5 120.074219 245.753906 119.433594 246.023438 C 115.183594 247.820312 111.363281 250.398438 108.085938 253.675781 C 104.804688 256.953125 102.230469 260.773438 100.433594 265.023438 C 98.570312 269.429688 97.625 274.105469 97.625 278.925781 L 97.625 279.449219 C 97.625 282.660156 100.238281 285.277344 103.453125 285.277344 L 142.332031 285.277344 C 143.867188 285.277344 145.109375 284.035156 145.109375 282.5 Z M 116.726562 226.605469 C 116.726562 222.167969 118.453125 217.996094 121.589844 214.859375 C 124.726562 211.722656 128.898438 209.992188 133.335938 209.992188 C 137.773438 209.992188 141.945312 211.722656 145.082031 214.859375 C 148.21875 217.996094 149.949219 222.167969 149.949219 226.605469 C 149.949219 231.042969 148.21875 235.214844 145.082031 238.351562 C 141.945312 241.488281 137.773438 243.214844 133.335938 243.214844 C 128.898438 243.214844 124.726562 241.488281 121.589844 238.351562 C 118.453125 235.214844 116.726562 231.042969 116.726562 226.605469 Z M 116.726562 226.605469 "
              fill-opacity="1" fill-rule="nonzero"/>
    </g>
    <g clip-path="url(#23c07a9cd8)">
        <path fill="#b277d3"
              d="M 263.234375 253.675781 C 259.953125 250.398438 256.136719 247.820312 251.882812 246.023438 C 251.242188 245.753906 250.597656 245.5 249.945312 245.269531 C 251.269531 244.417969 252.515625 243.417969 253.652344 242.277344 C 257.839844 238.089844 260.144531 232.523438 260.144531 226.605469 C 260.144531 220.683594 257.839844 215.117188 253.652344 210.929688 C 249.46875 206.746094 243.902344 204.4375 237.980469 204.4375 C 232.0625 204.4375 226.496094 206.746094 222.308594 210.929688 C 218.121094 215.117188 215.816406 220.683594 215.816406 226.605469 C 215.816406 232.523438 218.121094 238.089844 222.308594 242.277344 C 223.449219 243.417969 224.691406 244.417969 226.019531 245.269531 C 223.285156 246.242188 220.671875 247.546875 218.222656 249.175781 C 216.949219 250.023438 216.601562 251.746094 217.449219 253.023438 C 218.300781 254.300781 220.023438 254.648438 221.300781 253.796875 C 226.246094 250.507812 232.015625 248.769531 237.980469 248.769531 C 242.054688 248.769531 246.003906 249.566406 249.71875 251.136719 C 253.308594 252.65625 256.535156 254.832031 259.304688 257.601562 C 262.078125 260.371094 264.25 263.597656 265.769531 267.1875 C 267.339844 270.90625 268.140625 274.855469 268.140625 278.925781 L 268.140625 279.449219 C 268.140625 279.597656 268.015625 279.722656 267.863281 279.722656 L 229.488281 279.722656 C 227.953125 279.722656 226.710938 280.964844 226.710938 282.5 C 226.710938 284.03125 227.953125 285.277344 229.488281 285.277344 L 267.863281 285.277344 C 271.078125 285.277344 273.691406 282.660156 273.691406 279.449219 L 273.691406 278.925781 C 273.691406 274.105469 272.746094 269.429688 270.886719 265.023438 C 269.085938 260.773438 266.511719 256.953125 263.234375 253.675781 Z M 237.980469 243.214844 C 233.546875 243.214844 229.371094 241.488281 226.234375 238.351562 C 223.097656 235.214844 221.371094 231.042969 221.371094 226.605469 C 221.371094 222.167969 223.097656 217.996094 226.234375 214.859375 C 229.371094 211.722656 233.546875 209.992188 237.980469 209.992188 C 242.417969 209.992188 246.589844 211.722656 249.726562 214.859375 C 252.863281 217.996094 254.59375 222.167969 254.59375 226.605469 C 254.59375 231.042969 252.863281 235.214844 249.726562 238.351562 C 246.589844 241.488281 242.417969 243.214844 237.980469 243.214844 Z M 237.980469 243.214844 "
              fill-opacity="1" fill-rule="nonzero"/>
    </g>
    <path fill="#b277d3"
          d="M 114.644531 129.058594 L 114.054688 129.648438 L 113.464844 129.058594 C 111.128906 126.722656 108.023438 125.4375 104.71875 125.433594 C 101.414062 125.4375 98.308594 126.722656 95.976562 129.058594 C 91.152344 133.878906 91.152344 141.722656 95.976562 146.546875 L 112.089844 162.660156 C 112.609375 163.179688 113.316406 163.472656 114.054688 163.472656 C 114.789062 163.472656 115.496094 163.179688 116.015625 162.660156 L 132.132812 146.546875 C 134.46875 144.210938 135.753906 141.105469 135.753906 137.800781 C 135.753906 134.496094 134.46875 131.390625 132.132812 129.054688 C 127.3125 124.234375 119.464844 124.234375 114.644531 129.058594 Z M 128.203125 142.617188 L 114.054688 156.769531 L 99.902344 142.617188 C 97.246094 139.960938 97.246094 135.640625 99.902344 132.984375 C 101.1875 131.695312 102.898438 130.988281 104.71875 130.988281 C 106.539062 130.988281 108.25 131.695312 109.535156 132.984375 L 112.089844 135.535156 C 113.171875 136.621094 114.929688 136.621094 116.015625 135.535156 L 118.570312 132.984375 C 119.855469 131.695312 121.566406 130.988281 123.386719 130.988281 C 125.207031 130.988281 126.917969 131.695312 128.203125 132.984375 C 129.492188 134.269531 130.199219 135.980469 130.199219 137.800781 C 130.199219 139.621094 129.492188 141.332031 128.203125 142.617188 Z M 128.203125 142.617188 "
          fill-opacity="1" fill-rule="nonzero"/>
    <g clip-path="url(#726dd659b7)">
        <path fill="#b277d3"
              d="M 114.054688 174.394531 C 116.175781 174.394531 118.289062 174.195312 120.363281 173.796875 L 132.894531 195.59375 C 133.398438 196.472656 134.328125 196.984375 135.300781 196.984375 C 135.597656 196.984375 135.898438 196.9375 136.195312 196.835938 C 137.453125 196.410156 138.230469 195.152344 138.050781 193.835938 L 134.46875 167.398438 C 136.773438 165.609375 138.828125 163.527344 140.59375 161.195312 C 141.519531 159.972656 141.28125 158.230469 140.058594 157.304688 C 138.835938 156.378906 137.09375 156.621094 136.167969 157.84375 C 134.402344 160.167969 132.296875 162.195312 129.90625 163.863281 C 129.054688 164.460938 128.605469 165.484375 128.746094 166.511719 L 130.644531 180.542969 L 124.15625 169.253906 C 123.53125 168.167969 122.261719 167.636719 121.050781 167.949219 C 118.777344 168.542969 116.425781 168.839844 114.054688 168.839844 C 106.648438 168.839844 99.683594 165.957031 94.449219 160.71875 C 89.210938 155.484375 86.328125 148.519531 86.328125 141.113281 C 86.328125 133.710938 89.210938 126.746094 94.449219 121.511719 C 99.683594 116.273438 106.648438 113.390625 114.054688 113.390625 C 118.050781 113.390625 121.910156 114.222656 125.515625 115.863281 C 129.003906 117.449219 132.078125 119.703125 134.65625 122.5625 C 135.683594 123.703125 137.4375 123.792969 138.578125 122.765625 C 139.71875 121.738281 139.808594 119.984375 138.78125 118.84375 C 135.691406 115.417969 132 112.710938 127.816406 110.808594 C 123.480469 108.835938 118.851562 107.835938 114.054688 107.835938 C 109.5625 107.835938 105.203125 108.71875 101.097656 110.453125 C 97.136719 112.128906 93.578125 114.53125 90.523438 117.585938 C 87.464844 120.640625 85.066406 124.199219 83.390625 128.160156 C 81.65625 132.265625 80.773438 136.625 80.773438 141.117188 C 80.773438 145.605469 81.65625 149.964844 83.390625 154.070312 C 85.066406 158.03125 87.464844 161.59375 90.523438 164.648438 C 93.578125 167.703125 97.136719 170.101562 101.097656 171.777344 C 105.203125 173.511719 109.5625 174.394531 114.054688 174.394531 Z M 114.054688 174.394531 "
              fill-opacity="1" fill-rule="nonzero"/>
    </g>
    <path fill="#b277d3"
          d="M 243.503906 133.546875 L 244.785156 133.546875 C 246.320312 133.546875 247.5625 132.304688 247.5625 130.769531 C 247.5625 129.238281 246.320312 127.992188 244.785156 127.992188 L 243.503906 127.992188 C 241.972656 127.992188 240.730469 129.238281 240.730469 130.769531 C 240.730469 132.304688 241.972656 133.546875 243.503906 133.546875 Z M 243.503906 133.546875 "
          fill-opacity="1" fill-rule="nonzero"/>
    <g clip-path="url(#f434b0cd2e)">
        <path fill="#b277d3"
              d="M 291.609375 128.160156 C 289.933594 124.199219 287.53125 120.640625 284.476562 117.582031 C 281.421875 114.527344 277.863281 112.128906 273.898438 110.453125 C 269.796875 108.71875 265.4375 107.835938 260.945312 107.835938 C 251.203125 107.835938 241.980469 112.085938 235.644531 119.496094 C 234.648438 120.660156 234.785156 122.414062 235.949219 123.410156 C 237.117188 124.40625 238.867188 124.269531 239.867188 123.105469 C 245.144531 116.929688 252.828125 113.390625 260.945312 113.390625 C 268.351562 113.390625 275.316406 116.273438 280.550781 121.511719 C 285.789062 126.746094 288.671875 133.710938 288.671875 141.113281 C 288.671875 148.519531 285.789062 155.484375 280.550781 160.71875 C 275.316406 165.957031 268.351562 168.839844 260.945312 168.839844 C 259.683594 168.839844 258.414062 168.753906 257.167969 168.585938 C 256.046875 168.433594 254.949219 168.972656 254.386719 169.953125 L 248.296875 180.542969 L 249.902344 168.699219 C 250.058594 167.527344 249.460938 166.386719 248.40625 165.851562 C 244.71875 163.976562 241.4375 161.246094 238.914062 157.949219 C 237.984375 156.734375 236.238281 156.5 235.023438 157.433594 C 233.804688 158.363281 233.574219 160.109375 234.503906 161.324219 C 237.125 164.746094 240.429688 167.664062 244.140625 169.84375 L 240.890625 193.835938 C 240.714844 195.152344 241.492188 196.410156 242.746094 196.835938 C 243.042969 196.9375 243.34375 196.984375 243.640625 196.984375 C 244.613281 196.984375 245.542969 196.472656 246.050781 195.59375 L 258.296875 174.289062 C 259.175781 174.359375 260.0625 174.394531 260.945312 174.394531 C 265.4375 174.394531 269.792969 173.511719 273.898438 171.777344 C 277.863281 170.101562 281.421875 167.703125 284.476562 164.648438 C 287.53125 161.59375 289.929688 158.03125 291.605469 154.070312 C 293.34375 149.964844 294.222656 145.605469 294.222656 141.117188 C 294.222656 136.625 293.34375 132.265625 291.609375 128.160156 Z M 291.609375 128.160156 "
              fill-opacity="1" fill-rule="nonzero"/>
    </g>
    <path fill="#b277d3"
          d="M 278.640625 133.546875 C 280.175781 133.546875 281.417969 132.304688 281.417969 130.769531 C 281.417969 129.238281 280.175781 127.992188 278.640625 127.992188 L 253.550781 127.992188 C 252.019531 127.992188 250.773438 129.238281 250.773438 130.769531 C 250.773438 132.304688 252.019531 133.546875 253.550781 133.546875 Z M 278.640625 133.546875 "
          fill-opacity="1" fill-rule="nonzero"/>
    <path fill="#b277d3"
          d="M 243.503906 143.890625 L 278.640625 143.890625 C 280.175781 143.890625 281.417969 142.648438 281.417969 141.113281 C 281.417969 139.582031 280.175781 138.339844 278.640625 138.339844 L 243.503906 138.339844 C 241.972656 138.339844 240.730469 139.582031 240.730469 141.113281 C 240.730469 142.648438 241.972656 143.890625 243.503906 143.890625 Z M 243.503906 143.890625 "
          fill-opacity="1" fill-rule="nonzero"/>
    <path fill="#b277d3"
          d="M 278.640625 148.683594 L 277.726562 148.683594 C 276.191406 148.683594 274.949219 149.925781 274.949219 151.460938 C 274.949219 152.992188 276.191406 154.238281 277.726562 154.238281 L 278.640625 154.238281 C 280.175781 154.238281 281.417969 152.992188 281.417969 151.460938 C 281.417969 149.925781 280.175781 148.683594 278.640625 148.683594 Z M 278.640625 148.683594 "
          fill-opacity="1" fill-rule="nonzero"/>
    <path fill="#b277d3"
          d="M 243.503906 154.238281 L 268.742188 154.238281 C 270.273438 154.238281 271.515625 152.992188 271.515625 151.460938 C 271.515625 149.925781 270.273438 148.683594 268.742188 148.683594 L 243.503906 148.683594 C 241.972656 148.683594 240.730469 149.925781 240.730469 151.460938 C 240.730469 152.992188 241.972656 154.238281 243.503906 154.238281 Z M 243.503906 154.238281 "
          fill-opacity="1" fill-rule="nonzero"/>
    <path fill="#b277d3"
          d="M 178.234375 161.691406 L 212.285156 161.691406 C 215.945312 161.691406 218.921875 158.714844 218.921875 155.054688 C 218.921875 153.949219 218.648438 152.902344 218.167969 151.984375 C 219.34375 150.785156 220.070312 149.144531 220.070312 147.335938 C 220.070312 146.105469 219.734375 144.949219 219.144531 143.960938 C 220.15625 142.796875 220.769531 141.277344 220.769531 139.617188 C 220.769531 138.601562 220.539062 137.632812 220.128906 136.773438 C 221.441406 135.558594 222.265625 133.824219 222.265625 131.898438 C 222.265625 128.238281 219.289062 125.261719 215.628906 125.261719 L 200.289062 125.261719 C 200.53125 121.910156 200.503906 118.53125 200.210938 115.183594 C 200.136719 110.421875 196.238281 106.570312 191.460938 106.570312 C 188.066406 106.570312 185.304688 109.332031 185.304688 112.726562 L 185.304688 114.753906 C 185.304688 117.425781 184.980469 120.09375 184.335938 122.6875 C 183.636719 125.496094 181.128906 127.457031 178.234375 127.457031 C 176.699219 127.457031 175.457031 128.703125 175.457031 130.234375 L 175.457031 158.914062 C 175.457031 160.449219 176.703125 161.691406 178.234375 161.691406 Z M 181.011719 132.683594 C 185.234375 131.671875 188.640625 128.390625 189.726562 124.023438 C 190.476562 120.992188 190.859375 117.875 190.859375 114.75 L 190.859375 112.722656 C 190.859375 112.394531 191.128906 112.121094 191.460938 112.121094 C 193.222656 112.121094 194.65625 113.554688 194.65625 115.320312 C 194.65625 115.402344 194.660156 115.484375 194.667969 115.570312 C 195.011719 119.375 194.972656 123.234375 194.554688 127.035156 L 194.476562 127.730469 C 194.390625 128.515625 194.640625 129.300781 195.167969 129.890625 C 195.695312 130.476562 196.445312 130.8125 197.234375 130.8125 L 215.632812 130.8125 C 216.226562 130.8125 216.714844 131.300781 216.714844 131.898438 C 216.714844 132.492188 216.226562 132.980469 215.632812 132.980469 L 214.132812 132.980469 C 212.601562 132.980469 211.355469 134.222656 211.355469 135.757812 C 211.355469 137.289062 212.601562 138.535156 214.132812 138.535156 C 214.730469 138.535156 215.214844 139.019531 215.214844 139.617188 C 215.214844 140.214844 214.730469 140.699219 214.132812 140.699219 L 213.433594 140.699219 C 211.902344 140.699219 210.65625 141.941406 210.65625 143.476562 C 210.65625 145.007812 211.902344 146.253906 213.433594 146.253906 C 214.03125 146.253906 214.519531 146.738281 214.519531 147.335938 C 214.519531 147.933594 214.03125 148.417969 213.433594 148.417969 L 212.285156 148.417969 C 210.753906 148.417969 209.507812 149.664062 209.507812 151.195312 C 209.507812 152.730469 210.753906 153.972656 212.285156 153.972656 C 212.882812 153.972656 213.371094 154.457031 213.371094 155.054688 C 213.371094 155.652344 212.882812 156.140625 212.285156 156.140625 L 181.011719 156.140625 Z M 181.011719 132.683594 "
          fill-opacity="1" fill-rule="nonzero"/>
    <path fill="#b277d3"
          d="M 158.75 161.691406 L 169.5 161.691406 C 171.035156 161.691406 172.277344 160.449219 172.277344 158.914062 L 172.277344 130.75 C 172.277344 129.21875 171.035156 127.972656 169.5 127.972656 L 158.75 127.972656 C 157.21875 127.972656 155.972656 129.21875 155.972656 130.75 L 155.972656 158.914062 C 155.972656 160.449219 157.21875 161.691406 158.75 161.691406 Z M 161.527344 133.527344 L 166.726562 133.527344 L 166.726562 156.136719 L 161.527344 156.136719 Z M 161.527344 133.527344 "
          fill-opacity="1" fill-rule="nonzero"/>
    <g clip-path="url(#e46565d235)">
        <path fill="#b277d3"
              d="M 142.265625 158.699219 C 144.71875 164.296875 148.144531 169.328125 152.457031 173.664062 L 149.820312 198.289062 C 149.703125 199.382812 150.242188 200.441406 151.191406 200.992188 C 151.625 201.238281 152.101562 201.363281 152.582031 201.363281 C 153.160156 201.363281 153.730469 201.183594 154.21875 200.828125 L 174.039062 186.371094 C 178.367188 187.585938 182.851562 188.203125 187.390625 188.203125 C 194.035156 188.203125 200.484375 186.898438 206.558594 184.332031 C 212.421875 181.851562 217.6875 178.300781 222.210938 173.78125 C 226.730469 169.257812 230.28125 163.992188 232.761719 158.128906 C 235.328125 152.058594 236.632812 145.609375 236.632812 138.960938 C 236.632812 132.316406 235.328125 125.867188 232.761719 119.792969 C 230.28125 113.929688 226.730469 108.664062 222.210938 104.144531 C 217.6875 99.621094 212.421875 96.070312 206.558594 93.589844 C 200.484375 91.023438 194.035156 89.71875 187.390625 89.71875 C 180.742188 89.71875 174.296875 91.023438 168.222656 93.589844 C 162.359375 96.070312 157.09375 99.621094 152.570312 104.144531 C 148.050781 108.664062 144.5 113.929688 142.019531 119.792969 C 139.453125 125.867188 138.148438 132.316406 138.148438 138.960938 C 138.148438 145.824219 139.535156 152.464844 142.265625 158.699219 Z M 147.136719 121.957031 C 149.335938 116.757812 152.484375 112.082031 156.5 108.070312 C 160.511719 104.058594 165.183594 100.90625 170.386719 98.707031 C 175.769531 96.429688 181.492188 95.273438 187.390625 95.273438 C 193.289062 95.273438 199.011719 96.429688 204.394531 98.707031 C 209.597656 100.90625 214.269531 104.058594 218.28125 108.070312 C 222.296875 112.085938 225.445312 116.757812 227.644531 121.957031 C 229.921875 127.34375 231.078125 133.0625 231.078125 138.960938 C 231.078125 144.859375 229.921875 150.582031 227.644531 155.964844 C 225.445312 161.167969 222.296875 165.839844 218.28125 169.855469 C 214.269531 173.867188 209.597656 177.019531 204.394531 179.21875 C 199.011719 181.496094 193.289062 182.648438 187.390625 182.648438 C 182.9375 182.648438 178.546875 181.984375 174.339844 180.667969 C 173.5 180.40625 172.585938 180.558594 171.875 181.074219 L 156.011719 192.648438 L 158.121094 172.917969 C 158.214844 172.058594 157.902344 171.207031 157.273438 170.609375 C 153.03125 166.570312 149.691406 161.8125 147.351562 156.472656 C 144.929688 150.941406 143.703125 145.050781 143.703125 138.960938 C 143.703125 133.0625 144.855469 127.34375 147.136719 121.957031 Z M 147.136719 121.957031 "
              fill-opacity="1" fill-rule="nonzero"/>
    </g>
</svg>