<svg xmlns="http://www.w3.org/2000/svg" zoomAndPan="magnify" viewBox="0 0 375 374.999991" width="400" height="400"
     preserveAspectRatio="xMidYMid meet" version="1.0">
    <path fill="#F4BC33" d="M 187.5 272.46875 C 183.15625 272.46875 179.621094 276.003906 179.621094 280.347656 C 179.621094 284.691406 183.15625 288.222656 187.5 288.222656 C 191.84375 288.222656 195.378906 284.691406 195.378906 280.347656 C 195.378906 276.003906 191.84375 272.46875 187.5 272.46875 " fill-opacity="1" fill-rule="nonzero" />
    <g clip-path="url(#0ca57b1373)">
        <path fill="#F4BC33" d="M 237.253906 258.707031 C 237.253906 259.75 236.394531 260.609375 235.347656 260.609375 L 139.652344 260.609375 C 138.605469 260.609375 137.746094 259.75 137.746094 258.707031 L 137.746094 116.347656 C 137.746094 115.300781 138.605469 114.445312 139.652344 114.445312 L 235.347656 114.445312 C 236.394531 114.445312 237.253906 115.300781 237.253906 116.347656 Z M 187.5 292.457031 C 180.824219 292.457031 175.386719 287.023438 175.386719 280.34375 C 175.386719 273.667969 180.824219 268.234375 187.5 268.234375 C 194.179688 268.234375 199.609375 273.667969 199.609375 280.34375 C 199.609375 287.023438 194.179688 292.457031 187.5 292.457031 M 174.167969 90.839844 C 174.167969 89.789062 175.027344 88.933594 176.074219 88.933594 L 198.925781 88.933594 C 199.972656 88.933594 200.832031 89.789062 200.832031 90.839844 L 200.832031 93.378906 C 200.832031 94.425781 199.972656 95.28125 198.925781 95.28125 L 176.074219 95.28125 C 175.027344 95.28125 174.167969 94.425781 174.167969 93.378906 Z M 226.777344 75.167969 L 148.222656 75.167969 C 138.792969 75.167969 131.082031 82.882812 131.082031 92.308594 L 131.082031 282.742188 C 131.082031 292.175781 138.792969 299.882812 148.222656 299.882812 L 226.777344 299.882812 C 236.207031 299.882812 243.917969 292.175781 243.917969 282.742188 L 243.917969 92.308594 C 243.917969 82.882812 236.207031 75.167969 226.777344 75.167969 " fill-opacity="1" fill-rule="nonzero" />
    </g>
</svg>