<svg xmlns="http://www.w3.org/2000/svg"  zoomAndPan="magnify" viewBox="0 0 375 374.999991" width="400" height="400"
     preserveAspectRatio="xMidYMid meet" version="1.0">
    <g clip-path="url(#4bbb285a82)">
        <path fill="#F4BC33" d="M 90.269531 249.136719 L 90.269531 195.640625 C 90.269531 192.109375 93.160156 189.222656 96.691406 189.222656 L 165.550781 189.222656 C 169.082031 189.222656 171.96875 192.109375 171.96875 195.640625 L 171.96875 218.832031 L 203.027344 218.832031 L 203.027344 195.640625 C 203.027344 192.109375 205.917969 189.222656 209.445312 189.222656 L 278.308594 189.222656 C 281.839844 189.222656 284.722656 192.109375 284.722656 195.640625 L 284.722656 249.136719 C 284.722656 252.660156 281.839844 255.550781 278.308594 255.550781 L 230.214844 255.550781 L 230.214844 278.746094 C 230.214844 282.269531 227.328125 285.164062 223.796875 285.164062 L 154.9375 285.164062 C 151.40625 285.164062 148.515625 282.269531 148.515625 278.746094 L 148.515625 255.550781 L 96.691406 255.550781 C 93.160156 255.550781 90.269531 252.660156 90.269531 249.136719 Z M 165.695312 200.941406 L 165.695312 195.640625 C 165.695312 195.5625 165.632812 195.492188 165.550781 195.492188 L 96.691406 195.492188 C 96.609375 195.492188 96.542969 195.558594 96.542969 195.640625 L 96.542969 200.941406 Z M 165.695312 218.832031 L 165.695312 207.214844 L 96.542969 207.214844 L 96.542969 249.136719 C 96.542969 249.214844 96.609375 249.277344 96.691406 249.277344 L 148.515625 249.277344 L 148.515625 225.253906 C 148.515625 221.722656 151.40625 218.832031 154.9375 218.832031 Z M 223.796875 225.105469 L 154.9375 225.105469 C 154.855469 225.105469 154.789062 225.171875 154.789062 225.253906 L 154.789062 230.550781 L 223.941406 230.550781 L 223.941406 225.253906 C 223.941406 225.171875 223.878906 225.105469 223.796875 225.105469 Z M 209.296875 207.214844 L 209.296875 218.832031 L 223.796875 218.832031 C 227.328125 218.832031 230.214844 221.722656 230.214844 225.253906 L 230.214844 249.277344 L 278.308594 249.277344 C 278.386719 249.277344 278.449219 249.214844 278.449219 249.136719 L 278.449219 207.214844 Z M 278.449219 200.941406 L 278.449219 195.640625 C 278.449219 195.5625 278.386719 195.492188 278.308594 195.492188 L 209.445312 195.492188 C 209.367188 195.492188 209.296875 195.558594 209.296875 195.640625 L 209.296875 200.941406 Z M 154.789062 236.824219 L 154.789062 278.746094 C 154.789062 278.828125 154.855469 278.890625 154.9375 278.890625 L 223.796875 278.890625 C 223.875 278.890625 223.941406 278.824219 223.941406 278.746094 L 223.941406 236.824219 Z M 222.453125 200.132812 C 221.394531 200.132812 220.535156 199.277344 220.535156 198.21875 C 220.535156 197.164062 221.394531 196.300781 222.453125 196.300781 C 223.507812 196.300781 224.367188 197.164062 224.367188 198.21875 C 224.367188 199.277344 223.507812 200.132812 222.453125 200.132812 Z M 229.808594 200.132812 C 228.753906 200.132812 227.890625 199.277344 227.890625 198.21875 C 227.890625 197.164062 228.753906 196.300781 229.808594 196.300781 C 230.867188 196.300781 231.726562 197.164062 231.726562 198.21875 C 231.726562 199.277344 230.867188 200.132812 229.808594 200.132812 Z M 215.089844 200.132812 C 214.03125 200.132812 213.171875 199.277344 213.171875 198.21875 C 213.171875 197.164062 214.03125 196.300781 215.089844 196.300781 C 216.144531 196.300781 217.007812 197.164062 217.007812 198.21875 C 217.007812 199.277344 216.144531 200.132812 215.089844 200.132812 Z M 109.695312 200.132812 C 108.640625 200.132812 107.777344 199.277344 107.777344 198.21875 C 107.777344 197.164062 108.640625 196.300781 109.695312 196.300781 C 110.75 196.300781 111.609375 197.164062 111.609375 198.21875 C 111.609375 199.277344 110.75 200.132812 109.695312 200.132812 Z M 102.332031 200.132812 C 101.277344 200.132812 100.414062 199.277344 100.414062 198.21875 C 100.414062 197.164062 101.277344 196.300781 102.332031 196.300781 C 103.390625 196.300781 104.25 197.164062 104.25 198.21875 C 104.25 199.277344 103.390625 200.132812 102.332031 200.132812 Z M 117.054688 200.132812 C 115.996094 200.132812 115.136719 199.277344 115.136719 198.21875 C 115.136719 197.164062 115.996094 196.300781 117.054688 196.300781 C 118.109375 196.300781 118.972656 197.164062 118.972656 198.21875 C 118.972656 199.277344 118.109375 200.132812 117.054688 200.132812 Z M 175.300781 229.746094 C 174.242188 229.746094 173.382812 228.886719 173.382812 227.832031 C 173.382812 226.773438 174.242188 225.914062 175.300781 225.914062 C 176.355469 225.914062 177.21875 226.773438 177.21875 227.832031 C 177.21875 228.886719 176.355469 229.746094 175.300781 229.746094 Z M 160.578125 229.746094 C 159.523438 229.746094 158.660156 228.886719 158.660156 227.832031 C 158.660156 226.773438 159.523438 225.914062 160.578125 225.914062 C 161.636719 225.914062 162.496094 226.773438 162.496094 227.832031 C 162.496094 228.886719 161.636719 229.746094 160.578125 229.746094 Z M 167.941406 229.746094 C 166.886719 229.746094 166.023438 228.886719 166.023438 227.832031 C 166.023438 226.773438 166.886719 225.914062 167.941406 225.914062 C 168.996094 225.914062 169.855469 226.773438 169.855469 227.832031 C 169.855469 228.886719 168.996094 229.746094 167.941406 229.746094 Z M 158.753906 150.898438 C 148.863281 150.695312 140.84375 142.546875 140.84375 132.621094 C 140.84375 125.773438 144.65625 119.777344 150.257812 116.640625 C 150.550781 101.785156 162.679688 89.835938 177.605469 89.835938 C 184.3125 89.835938 190.449219 92.253906 195.207031 96.257812 C 197.3125 95.679688 199.53125 95.371094 201.8125 95.371094 C 214 95.371094 224.152344 104.097656 226.367188 115.636719 C 233.097656 118.335938 237.886719 124.945312 237.886719 132.621094 C 237.886719 142.675781 229.65625 150.902344 219.59375 150.902344 L 216.242188 150.902344 L 216.242188 151.234375 C 216.242188 152.535156 215.441406 153.695312 214.230469 154.164062 C 214.230469 154.164062 211.464844 155.226562 211.464844 155.226562 C 211.011719 156.683594 210.425781 158.089844 209.71875 159.441406 L 210.921875 162.15625 C 211.445312 163.339844 211.1875 164.726562 210.269531 165.644531 L 205.371094 170.542969 C 204.457031 171.457031 203.070312 171.714844 201.882812 171.191406 C 201.882812 171.191406 199.171875 169.992188 199.171875 169.992188 C 197.824219 170.703125 196.414062 171.285156 194.957031 171.738281 L 193.890625 174.503906 C 193.425781 175.714844 192.261719 176.511719 190.964844 176.511719 L 184.035156 176.511719 C 182.738281 176.511719 181.574219 175.714844 181.109375 174.503906 C 181.109375 174.503906 180.042969 171.738281 180.046875 171.738281 C 178.585938 171.285156 177.175781 170.699219 175.824219 169.988281 L 173.109375 171.191406 C 171.925781 171.714844 170.539062 171.457031 169.621094 170.542969 L 164.722656 165.644531 C 163.804688 164.726562 163.546875 163.335938 164.074219 162.152344 C 164.074219 162.152344 165.277344 159.441406 165.28125 159.441406 C 164.570312 158.09375 163.984375 156.683594 163.53125 155.230469 L 160.761719 154.164062 C 159.550781 153.695312 158.753906 152.535156 158.753906 151.234375 Z M 216.242188 144.632812 L 219.59375 144.632812 C 226.207031 144.632812 231.613281 139.226562 231.613281 132.621094 C 231.613281 127.089844 227.828125 122.40625 222.730469 121.019531 C 221.484375 120.679688 220.574219 119.613281 220.433594 118.332031 C 219.417969 108.949219 211.46875 101.644531 201.8125 101.644531 C 199.597656 101.644531 197.464844 102.035156 195.484375 102.738281 C 194.363281 103.136719 193.113281 102.867188 192.253906 102.039062 C 188.464844 98.375 183.300781 96.109375 177.605469 96.109375 C 165.960938 96.109375 156.527344 105.546875 156.527344 117.1875 C 156.527344 117.605469 156.539062 118.011719 156.5625 118.421875 C 156.632812 119.753906 155.855469 120.980469 154.621094 121.488281 C 150.234375 123.289062 147.117188 127.605469 147.117188 132.621094 C 147.117188 139.097656 152.316406 144.421875 158.753906 144.625 L 158.753906 144.308594 C 158.753906 143.007812 159.550781 141.847656 160.761719 141.378906 C 160.761719 141.378906 163.53125 140.316406 163.53125 140.316406 C 163.984375 138.855469 164.570312 137.445312 165.28125 136.09375 L 164.074219 133.382812 C 163.546875 132.199219 163.804688 130.808594 164.722656 129.894531 L 169.621094 124.992188 C 170.539062 124.078125 171.925781 123.820312 173.113281 124.347656 C 173.113281 124.347656 175.824219 125.550781 175.824219 125.550781 C 177.171875 124.839844 178.582031 124.257812 180.039062 123.804688 L 181.109375 121.03125 C 181.578125 119.820312 182.738281 119.023438 184.035156 119.023438 L 190.964844 119.023438 C 192.261719 119.023438 193.425781 119.824219 193.890625 121.035156 L 194.957031 123.804688 C 196.410156 124.257812 197.820312 124.839844 199.167969 125.550781 L 201.878906 124.347656 C 203.066406 123.820312 204.453125 124.078125 205.371094 124.992188 L 210.269531 129.894531 C 211.1875 130.808594 211.445312 132.195312 210.921875 133.378906 C 210.921875 133.378906 209.71875 136.09375 209.71875 136.09375 C 210.429688 137.445312 211.015625 138.855469 211.46875 140.316406 L 214.230469 141.378906 C 215.441406 141.847656 216.242188 143.007812 216.242188 144.308594 Z M 189.667969 127.535156 C 189.667969 127.535156 188.808594 125.296875 188.808594 125.296875 C 188.808594 125.296875 186.1875 125.296875 186.1875 125.296875 L 185.320312 127.539062 C 184.949219 128.503906 184.125 129.222656 183.121094 129.460938 C 181.1875 129.921875 179.339844 130.6875 177.644531 131.730469 C 176.761719 132.273438 175.667969 132.347656 174.722656 131.925781 L 172.53125 130.953125 L 170.679688 132.804688 L 171.65625 134.996094 C 172.074219 135.941406 172.003906 137.03125 171.460938 137.914062 C 170.414062 139.613281 169.648438 141.460938 169.179688 143.40625 C 168.941406 144.410156 168.21875 145.230469 167.257812 145.601562 L 165.023438 146.460938 L 165.023438 149.082031 L 167.257812 149.941406 C 168.21875 150.3125 168.9375 151.132812 169.179688 152.132812 C 169.648438 154.070312 170.410156 155.925781 171.457031 157.617188 C 172.003906 158.5 172.078125 159.59375 171.65625 160.542969 C 171.65625 160.542969 170.679688 162.730469 170.679688 162.730469 C 170.679688 162.730469 172.535156 164.585938 172.535156 164.585938 L 174.726562 163.613281 C 175.667969 163.195312 176.757812 163.269531 177.636719 163.808594 C 179.335938 164.847656 181.183594 165.621094 183.125 166.082031 C 184.132812 166.320312 184.957031 167.039062 185.328125 168.007812 L 186.1875 170.238281 L 188.8125 170.238281 L 189.671875 168.007812 C 190.042969 167.042969 190.867188 166.320312 191.871094 166.082031 C 193.804688 165.621094 195.65625 164.859375 197.347656 163.816406 C 198.226562 163.269531 199.320312 163.195312 200.265625 163.613281 C 200.265625 163.613281 202.457031 164.585938 202.457031 164.585938 C 202.457031 164.585938 204.3125 162.730469 204.3125 162.730469 L 203.34375 160.539062 C 202.925781 159.59375 203 158.507812 203.535156 157.628906 C 204.578125 155.929688 205.351562 154.082031 205.8125 152.144531 C 206.050781 151.136719 206.769531 150.3125 207.734375 149.941406 L 209.96875 149.082031 L 209.96875 146.460938 L 207.734375 145.601562 C 206.769531 145.230469 206.050781 144.40625 205.808594 143.398438 C 205.351562 141.457031 204.585938 139.609375 203.539062 137.914062 C 203 137.035156 202.925781 135.945312 203.34375 135 L 204.3125 132.808594 L 202.460938 130.953125 L 200.269531 131.925781 C 199.324219 132.347656 198.230469 132.273438 197.351562 131.730469 C 195.652344 130.6875 193.808594 129.921875 191.871094 129.460938 C 190.863281 129.222656 190.042969 128.5 189.667969 127.535156 Z M 187.496094 132.546875 C 195.90625 132.546875 202.726562 139.359375 202.726562 147.769531 C 202.726562 156.175781 195.90625 162.996094 187.496094 162.996094 C 179.085938 162.996094 172.273438 156.179688 172.273438 147.769531 C 172.273438 139.355469 179.085938 132.546875 187.496094 132.546875 Z M 187.496094 138.820312 C 182.550781 138.820312 178.546875 142.824219 178.546875 147.769531 C 178.546875 152.714844 182.550781 156.722656 187.496094 156.722656 C 192.441406 156.722656 196.453125 152.714844 196.453125 147.769531 C 196.453125 142.824219 192.441406 138.820312 187.496094 138.820312 Z M 180.261719 189.023438 L 184.78125 181.199219 C 185.058594 180.722656 185.449219 180.332031 185.910156 180.0625 C 186.375 179.789062 186.917969 179.632812 187.496094 179.632812 C 188.074219 179.632812 188.617188 179.789062 189.082031 180.0625 C 189.542969 180.332031 189.9375 180.722656 190.210938 181.199219 L 194.730469 189.023438 C 195.59375 190.523438 195.082031 192.441406 193.582031 193.308594 C 192.644531 193.851562 191.539062 193.851562 190.632812 193.410156 L 190.632812 212.878906 C 190.632812 214.613281 189.226562 216.015625 187.496094 216.015625 C 185.765625 216.015625 184.359375 214.613281 184.359375 212.878906 L 184.359375 193.410156 C 183.453125 193.851562 182.351562 193.851562 181.410156 193.308594 C 179.914062 192.441406 179.398438 190.523438 180.261719 189.023438 Z M 218.402344 158.742188 C 218.671875 158.28125 219.0625 157.886719 219.539062 157.613281 L 227.363281 153.09375 C 228.863281 152.230469 230.78125 152.742188 231.648438 154.242188 C 232.191406 155.179688 232.191406 156.285156 231.746094 157.191406 L 243.875 157.191406 C 245.605469 157.191406 247.011719 158.597656 247.011719 160.328125 L 247.011719 180.597656 C 247.011719 182.328125 245.605469 183.730469 243.875 183.730469 C 242.144531 183.730469 240.738281 182.328125 240.738281 180.597656 L 240.738281 163.464844 L 231.746094 163.464844 C 232.191406 164.371094 232.191406 165.472656 231.648438 166.414062 C 230.78125 167.914062 228.863281 168.425781 227.363281 167.5625 L 219.539062 163.042969 C 219.0625 162.765625 218.671875 162.375 218.402344 161.914062 C 218.128906 161.449219 217.972656 160.90625 217.972656 160.328125 C 217.972656 159.75 218.128906 159.207031 218.402344 158.742188 Z M 141.011719 157.191406 C 140.570312 156.285156 140.570312 155.179688 141.113281 154.242188 C 141.976562 152.742188 143.898438 152.230469 145.394531 153.09375 L 153.21875 157.613281 C 153.699219 157.886719 154.085938 158.28125 154.359375 158.742188 C 154.632812 159.207031 154.789062 159.75 154.789062 160.328125 C 154.789062 160.90625 154.632812 161.449219 154.359375 161.914062 C 154.085938 162.375 153.699219 162.765625 153.21875 163.042969 L 145.394531 167.5625 C 143.898438 168.425781 141.976562 167.914062 141.113281 166.414062 C 140.570312 165.472656 140.570312 164.371094 141.011719 163.464844 L 132.023438 163.464844 L 132.023438 180.597656 C 132.023438 182.328125 130.617188 183.730469 128.886719 183.730469 C 127.15625 183.730469 125.75 182.328125 125.75 180.597656 L 125.75 160.328125 C 125.75 158.597656 127.152344 157.191406 128.886719 157.191406 Z M 141.011719 157.191406 " fill-opacity="1" fill-rule="evenodd" />
    </g>
</svg>